<?xml version="1.0" standalone="no"?>
<!DOCTYPE svg PUBLIC "-//W3C//DTD SVG 1.1//EN" "http://www.w3.org/Graphics/SVG/1.1/DTD/svg11.dtd" >
<svg xmlns="http://www.w3.org/2000/svg" xmlns:xlink="http://www.w3.org/1999/xlink" version="1.1">
<metadata>
Created by FontForge 20170924 at Tue Apr 10 09:00:45 2018
 By www-data
Copyright \(c\) 2018 by Roch Modrzejewski. All rights reserved.
</metadata>
<defs>
<font id="Bozon-Regular" horiz-adv-x="884" >
  <font-face 
    font-family="Bozon"
    font-weight="400"
    font-stretch="normal"
    units-per-em="1000"
    panose-1="0 0 5 0 0 0 0 0 0 0"
    ascent="800"
    descent="-200"
    x-height="497"
    cap-height="725"
    bbox="-401 -266 1795 1012"
    underline-thickness="67"
    underline-position="-140"
    stemh="69"
    stemv="78"
    unicode-range="U+0020-FB01"
  />
<missing-glyph horiz-adv-x="935" 
d="M133 747h669v-969h-669v969zM733 -153v831h-531v-831h531zM334 79l-50 50l133 133l-133 133l51 50l132 -133l133 133l50 -50l-133 -133l133 -133l-50 -50l-133 133z" />
    <glyph glyph-name="f_f" unicode="ff" horiz-adv-x="773" 
d="M650 686c-64 0 -100 -38 -100 -106v-83h194v-69h-194v-428h-77v428h-268v-428h-78v428h-96v69h96v86c0 106 66 173 170 173c86 0 133 -46 133 -46l-31 -64s-39 40 -95 40c-63 0 -99 -38 -99 -106v-83h268v86c0 106 65 173 170 173c85 0 133 -46 133 -46l-32 -64
s-38 40 -94 40z" />
    <glyph glyph-name="f_f_i" unicode="ffi" horiz-adv-x="966" 
d="M877 497v-497h-78v428h-249v-428h-77v428h-268v-428h-78v428h-96v69h96v86c0 106 66 173 170 173c86 0 133 -46 133 -46l-31 -64s-39 40 -95 40c-63 0 -99 -38 -99 -106v-83h268v60c0 122 76 199 196 199c99 0 155 -56 155 -56l-36 -61s-38 47 -113 47
c-79 0 -125 -48 -125 -132v-57h327z" />
    <glyph glyph-name="f_j" unicode="fj" horiz-adv-x="621" 
d="M531 497v-554c0 -112 -55 -174 -163 -174c-17 0 -28 2 -28 2l6 67h12c66 0 96 35 96 103v487h-249v-428h-78v428h-96v69h96v60c0 122 76 199 196 199c99 0 156 -56 156 -56l-36 -61s-39 47 -113 47c-79 0 -125 -48 -125 -132v-57h326z" />
    <glyph glyph-name="fi" unicode="fi" horiz-adv-x="622" 
d="M531 497v-497h-77v428h-249v-428h-78v428h-96v69h96v60c0 122 76 199 196 199c99 0 156 -56 156 -56l-36 -61s-39 47 -113 47c-79 0 -125 -48 -125 -132v-57h326z" />
    <glyph glyph-name=".notdef" horiz-adv-x="935" 
d="M133 747h669v-969h-669v969zM733 -153v831h-531v-831h531zM334 79l-50 50l133 133l-133 133l51 50l132 -133l133 133l50 -50l-133 -133l133 -133l-50 -50l-133 133z" />
    <glyph glyph-name="A" unicode="A" horiz-adv-x="750" 
d="M646 0l-80 189h-383l-80 -189h-87l312 725h94l312 -725h-88zM214 262h321l-152 361l-8 26l-8 -26z" />
    <glyph glyph-name="Aacute" unicode="&#xc1;" horiz-adv-x="750" 
d="M523 906l-212 -113l-30 52l203 128zM646 0l-80 189h-383l-80 -189h-87l312 725h94l312 -725h-88zM214 262h321l-152 361l-8 26l-8 -26z" />
    <glyph glyph-name="Abreve" unicode="&#x102;" horiz-adv-x="750" 
d="M376 810c-136 0 -163 142 -163 142h70s16 -81 93 -81c76 0 93 81 93 81h70s-27 -142 -163 -142zM646 0l-80 189h-383l-80 -189h-87l312 725h94l312 -725h-88zM214 262h321l-152 361l-8 26l-8 -26z" />
    <glyph glyph-name="uni1EB6" unicode="&#x1eb6;" horiz-adv-x="750" 
d="M376 810c-136 0 -163 142 -163 142h70s16 -81 93 -81c76 0 93 81 93 81h70s-27 -142 -163 -142zM734 0h-88l-80 189h-383l-80 -189h-87l312 725h94zM214 262h321l-152 361l-8 26l-8 -26zM376 -85c33 0 56 -23 56 -55s-24 -56 -56 -56c-33 0 -57 23 -57 56
c0 32 24 55 57 55z" />
    <glyph glyph-name="uni01CD" unicode="&#x1cd;" horiz-adv-x="750" 
d="M417 822h-82l-123 124h94l70 -74l71 74h93zM646 0l-80 189h-383l-80 -189h-87l312 725h94l312 -725h-88zM214 262h321l-152 361l-8 26l-8 -26z" />
    <glyph glyph-name="Acircumflex" unicode="&#xc2;" horiz-adv-x="750" 
d="M381 898l-70 -74h-94l123 124h82l123 -124h-93zM646 0l-80 189h-383l-80 -189h-87l312 725h94l312 -725h-88zM214 262h321l-152 361l-8 26l-8 -26z" />
    <glyph glyph-name="uni1EAC" unicode="&#x1eac;" horiz-adv-x="750" 
d="M381 898l-70 -74h-94l123 124h82l123 -124h-93zM734 0h-88l-80 189h-383l-80 -189h-87l312 725h94zM214 262h321l-152 361l-8 26l-8 -26zM376 -85c33 0 56 -23 56 -55s-24 -56 -56 -56c-33 0 -57 23 -57 56c0 32 24 55 57 55z" />
    <glyph glyph-name="uni0200" unicode="&#x200;" horiz-adv-x="750" 
d="M409 979l-99 -190l-55 26l83 197zM573 979l-99 -190l-55 26l83 197zM646 0l-80 189h-383l-80 -189h-87l312 725h94l312 -725h-88zM214 262h321l-152 361l-8 26l-8 -26z" />
    <glyph glyph-name="Adieresis" unicode="&#xc4;" horiz-adv-x="750" 
d="M284 831c-32 0 -55 23 -55 55s23 54 55 54s55 -21 55 -54c0 -32 -23 -55 -55 -55zM469 831c-32 0 -55 22 -55 55c0 32 23 54 55 54c31 0 54 -22 54 -54s-23 -55 -54 -55zM646 0l-80 189h-383l-80 -189h-87l312 725h94l312 -725h-88zM214 262h321l-152 361l-8 26l-8 -26z
" />
    <glyph glyph-name="uni1EA0" unicode="&#x1ea0;" horiz-adv-x="750" 
d="M734 0h-88l-80 189h-383l-80 -189h-87l312 725h94zM214 262h321l-152 361l-8 26l-8 -26zM376 -85c33 0 56 -23 56 -55s-24 -56 -56 -56c-33 0 -57 23 -57 56c0 32 24 55 57 55z" />
    <glyph glyph-name="Agrave" unicode="&#xc0;" horiz-adv-x="750" 
d="M471 845l-30 -52l-212 113l39 67zM646 0l-80 189h-383l-80 -189h-87l312 725h94l312 -725h-88zM214 262h321l-152 361l-8 26l-8 -26z" />
    <glyph glyph-name="Amacron" unicode="&#x100;" horiz-adv-x="750" 
d="M549 913v-67h-346v67h346zM646 0l-80 189h-383l-80 -189h-87l312 725h94l312 -725h-88zM214 262h321l-152 361l-8 26l-8 -26z" />
    <glyph glyph-name="Aogonek" unicode="&#x104;" horiz-adv-x="750" 
d="M756 -143l20 -67s-33 -20 -85 -20c-73 0 -120 44 -120 112c0 57 41 98 73 122l-78 185h-383l-80 -189h-87l312 725h94l312 -725s-90 -35 -90 -103c0 -33 25 -57 58 -57c34 0 54 17 54 17zM214 262h321l-152 361l-8 26l-8 -26z" />
    <glyph glyph-name="Aring" unicode="&#xc5;" horiz-adv-x="751" 
d="M646 0l-80 189h-383l-80 -189h-87l296 687c-30 19 -49 53 -49 93c0 65 47 111 112 111s112 -46 112 -111c0 -40 -19 -74 -49 -93l296 -687h-88zM375 831c-29 0 -49 -21 -49 -51c0 -28 20 -49 49 -49c30 0 52 21 52 49c0 30 -22 51 -52 51zM214 262h321l-152 361l-8 26
l-8 -26z" />
    <glyph glyph-name="Atilde" unicode="&#xc3;" horiz-adv-x="750" 
d="M295 859c-50 0 -81 -37 -81 -37v71s27 36 86 36c71 0 99 -51 156 -51c50 0 81 38 81 38v-71s-28 -36 -87 -36c-68 0 -97 50 -155 50zM646 0l-80 189h-383l-80 -189h-87l312 725h94l312 -725h-88zM214 262h321l-152 361l-8 26l-8 -26z" />
    <glyph glyph-name="AE" unicode="&#xc6;" horiz-adv-x="1135" 
d="M679 73h390v-73h-470v189h-323l-135 -189h-100l524 725h499v-72h-385v-252h364v-71h-364v-257zM327 262h272v382z" />
    <glyph glyph-name="AEacute" unicode="&#x1fc;" horiz-adv-x="1135" 
d="M769 906l-212 -113l-30 52l203 128zM679 73h390v-73h-470v189h-323l-135 -189h-100l524 725h499v-72h-385v-252h364v-71h-364v-257zM327 262h272v382z" />
    <glyph glyph-name="B" unicode="B" horiz-adv-x="717" 
d="M491 367c103 -13 157 -78 157 -167c0 -122 -96 -200 -247 -200h-290v725h273c144 0 235 -76 235 -196c0 -78 -43 -140 -128 -160v-2zM383 653h-193v-252h193c100 0 157 46 157 126s-57 126 -157 126zM395 73c110 0 172 47 172 129c0 81 -65 128 -179 128h-198v-257h205z
" />
    <glyph glyph-name="C" unicode="C" horiz-adv-x="813" 
d="M677 518c-50 94 -129 142 -241 142c-165 0 -285 -124 -285 -297c0 -174 119 -297 283 -297c121 0 202 50 250 152l75 -30c-61 -122 -175 -198 -326 -198c-209 0 -364 156 -364 373c0 214 157 372 367 372c147 0 254 -74 316 -187z" />
    <glyph glyph-name="Cacute" unicode="&#x106;" horiz-adv-x="813" 
d="M341 845l203 128l39 -67l-212 -113zM677 518c-50 94 -129 142 -241 142c-165 0 -285 -124 -285 -297c0 -174 119 -297 283 -297c121 0 202 50 250 152l75 -30c-61 -122 -175 -198 -326 -198c-209 0 -364 156 -364 373c0 214 157 372 367 372c147 0 254 -74 316 -187z" />
    <glyph glyph-name="Ccaron" unicode="&#x10c;" horiz-adv-x="813" 
d="M395 822l-123 124h94l70 -74l71 74h93l-123 -124h-82zM677 518c-50 94 -129 142 -241 142c-165 0 -285 -124 -285 -297c0 -174 119 -297 283 -297c121 0 202 50 250 152l75 -30c-61 -122 -175 -198 -326 -198c-209 0 -364 156 -364 373c0 214 157 372 367 372
c147 0 254 -74 316 -187z" />
    <glyph glyph-name="Ccedilla" unicode="&#xc7;" horiz-adv-x="813" 
d="M759 188c-57 -115 -162 -189 -300 -197l-3 -25h4c51 0 91 -38 91 -91c0 -64 -52 -105 -128 -105c-69 0 -105 36 -105 36l34 55s23 -25 70 -25c34 0 57 16 57 42c0 25 -19 41 -52 41c-23 0 -38 -6 -38 -6l10 78c-191 16 -330 167 -330 372c0 214 157 372 367 372
c147 0 254 -74 316 -187l-75 -30c-50 94 -129 142 -241 142c-165 0 -285 -124 -285 -297c0 -174 119 -297 283 -297c121 0 202 50 250 152z" />
    <glyph glyph-name="Ccircumflex" unicode="&#x108;" horiz-adv-x="813" 
d="M400 948h82l123 -124h-93l-71 74l-70 -74h-94zM677 518c-50 94 -129 142 -241 142c-165 0 -285 -124 -285 -297c0 -174 119 -297 283 -297c121 0 202 50 250 152l75 -30c-61 -122 -175 -198 -326 -198c-209 0 -364 156 -364 373c0 214 157 372 367 372
c147 0 254 -74 316 -187z" />
    <glyph glyph-name="Cdotaccent" unicode="&#x10a;" horiz-adv-x="813" 
d="M436 830c-33 0 -57 23 -57 56c0 32 24 55 57 55s56 -23 56 -55s-24 -56 -56 -56zM677 518c-50 94 -129 142 -241 142c-165 0 -285 -124 -285 -297c0 -174 119 -297 283 -297c121 0 202 50 250 152l75 -30c-61 -122 -175 -198 -326 -198c-209 0 -364 156 -364 373
c0 214 157 372 367 372c147 0 254 -74 316 -187z" />
    <glyph glyph-name="D" unicode="D" horiz-adv-x="810" 
d="M359 725c222 0 382 -152 382 -362c0 -211 -162 -363 -384 -363h-246v725h248zM357 76c177 0 302 117 302 287c1 171 -123 287 -300 287h-169v-574h167z" />
    <glyph glyph-name="uni01F1" unicode="&#x1f1;" horiz-adv-x="1430" 
d="M359 725c222 0 382 -152 382 -362c0 -211 -162 -363 -384 -363h-246v725h248zM924 76h448v-76h-557v61l442 589h-431v75h540v-59zM659 363c1 171 -123 287 -300 287h-169v-574h167c177 0 302 117 302 287z" />
    <glyph glyph-name="uni01C4" unicode="&#x1c4;" horiz-adv-x="1430" 
d="M1137 822h-82l-123 124h94l70 -74l71 74h93zM359 725c222 0 382 -152 382 -362c0 -211 -162 -363 -384 -363h-246v725h248zM924 76h448v-76h-557v61l442 589h-431v75h540v-59zM659 363c1 171 -123 287 -300 287h-169v-574h167c177 0 302 117 302 287z" />
    <glyph glyph-name="Eth" unicode="&#xd0;" horiz-adv-x="846" 
d="M395 725c222 0 383 -152 383 -362c0 -211 -163 -363 -385 -363h-246v331h-97v64h97v330h248zM393 76c177 0 302 117 303 287c1 171 -124 287 -301 287h-168v-255h186v-64h-186v-255h166z" />
    <glyph glyph-name="Dcaron" unicode="&#x10e;" horiz-adv-x="810" 
d="M464 822h-82l-123 124h94l70 -74l71 74h93zM359 725c222 0 382 -152 382 -362c0 -211 -162 -363 -384 -363h-246v725h248zM357 76c177 0 302 117 302 287c1 171 -123 287 -300 287h-169v-574h167z" />
    <glyph glyph-name="Dcroat" unicode="&#x110;" horiz-adv-x="846" 
d="M395 725c222 0 383 -152 383 -362c0 -211 -163 -363 -385 -363h-246v331h-97v64h97v330h248zM393 76c177 0 302 117 303 287c1 171 -124 287 -301 287h-168v-255h186v-64h-186v-255h166z" />
    <glyph glyph-name="uni1E0C" unicode="&#x1e0c;" horiz-adv-x="810" 
d="M359 725c222 0 382 -152 382 -362c0 -211 -162 -363 -384 -363h-246v725h248zM357 76c177 0 302 117 302 287c1 171 -123 287 -300 287h-169v-574h167zM423 -85c33 0 56 -23 56 -55s-24 -56 -56 -56c-33 0 -57 23 -57 56c0 32 24 55 57 55z" />
    <glyph glyph-name="uni01F2" unicode="&#x1f2;" horiz-adv-x="1291" 
d="M359 725c222 0 382 -152 382 -362c0 -211 -162 -363 -384 -363h-246v725h248zM659 363c1 171 -123 287 -300 287h-169v-574h167c177 0 302 117 302 287zM949 72h298v-72h-403v65l294 361h-287v71h392v-62z" />
    <glyph glyph-name="uni01C5" unicode="&#x1c5;" horiz-adv-x="1291" 
d="M359 725c222 0 382 -152 382 -362c0 -211 -162 -363 -384 -363h-246v725h248zM1088 595h-82l-123 124h94l70 -74l71 74h93zM659 363c1 171 -123 287 -300 287h-169v-574h167c177 0 302 117 302 287zM949 72h298v-72h-403v65l294 361h-287v71h392v-62z" />
    <glyph glyph-name="E" unicode="E" horiz-adv-x="657" 
d="M190 73h401v-73h-480v725h475v-72h-396v-252h375v-71h-375v-257z" />
    <glyph glyph-name="Eacute" unicode="&#xc9;" horiz-adv-x="657" 
d="M496 906l-212 -113l-30 52l203 128zM190 73h401v-73h-480v725h475v-72h-396v-252h375v-71h-375v-257z" />
    <glyph glyph-name="Ebreve" unicode="&#x114;" horiz-adv-x="657" 
d="M349 810c-136 0 -163 142 -163 142h70s16 -81 93 -81c76 0 93 81 93 81h70s-27 -142 -163 -142zM190 73h401v-73h-480v725h475v-72h-396v-252h375v-71h-375v-257z" />
    <glyph glyph-name="Ecaron" unicode="&#x11a;" horiz-adv-x="657" 
d="M390 822h-82l-123 124h94l70 -74l71 74h93zM190 73h401v-73h-480v725h475v-72h-396v-252h375v-71h-375v-257z" />
    <glyph glyph-name="Ecircumflex" unicode="&#xca;" horiz-adv-x="657" 
d="M354 898l-70 -74h-94l123 124h82l123 -124h-93zM190 73h401v-73h-480v725h475v-72h-396v-252h375v-71h-375v-257z" />
    <glyph glyph-name="uni1EC6" unicode="&#x1ec6;" horiz-adv-x="657" 
d="M354 898l-70 -74h-94l123 124h82l123 -124h-93zM190 73h401v-73h-480v725h475v-72h-396v-252h375v-71h-375v-257zM351 -85c33 0 56 -23 56 -55s-24 -56 -56 -56c-33 0 -57 23 -57 56c0 32 24 55 57 55z" />
    <glyph glyph-name="uni0204" unicode="&#x204;" horiz-adv-x="657" 
d="M382 979l-99 -190l-55 26l83 197zM546 979l-99 -190l-55 26l83 197zM190 73h401v-73h-480v725h475v-72h-396v-252h375v-71h-375v-257z" />
    <glyph glyph-name="Edieresis" unicode="&#xcb;" horiz-adv-x="657" 
d="M257 831c-32 0 -55 23 -55 55s23 54 55 54s55 -21 55 -54c0 -32 -23 -55 -55 -55zM442 831c-32 0 -55 22 -55 55c0 32 23 54 55 54c31 0 54 -22 54 -54s-23 -55 -54 -55zM190 73h401v-73h-480v725h475v-72h-396v-252h375v-71h-375v-257z" />
    <glyph glyph-name="Edotaccent" unicode="&#x116;" horiz-adv-x="657" 
d="M349 830c-33 0 -57 23 -57 56c0 32 24 55 57 55s56 -23 56 -55s-24 -56 -56 -56zM190 73h401v-73h-480v725h475v-72h-396v-252h375v-71h-375v-257z" />
    <glyph glyph-name="uni1EB8" unicode="&#x1eb8;" horiz-adv-x="657" 
d="M190 73h401v-73h-480v725h475v-72h-396v-252h375v-71h-375v-257zM351 -85c33 0 56 -23 56 -55s-24 -56 -56 -56c-33 0 -57 23 -57 56c0 32 24 55 57 55z" />
    <glyph glyph-name="Egrave" unicode="&#xc8;" horiz-adv-x="657" 
d="M444 845l-30 -52l-212 113l39 67zM190 73h401v-73h-480v725h475v-72h-396v-252h375v-71h-375v-257z" />
    <glyph glyph-name="Emacron" unicode="&#x112;" horiz-adv-x="657" 
d="M522 913v-67h-346v67h346zM190 73h401v-73h-480v725h475v-72h-396v-252h375v-71h-375v-257z" />
    <glyph glyph-name="Eogonek" unicode="&#x118;" horiz-adv-x="657" 
d="M613 -143l20 -67s-33 -20 -85 -20c-73 0 -120 44 -120 112c0 54 36 94 68 118h-385v725h475v-72h-396v-252h375v-71h-375v-257h401v-73s-90 -35 -90 -103c0 -33 25 -57 58 -57c34 0 54 17 54 17z" />
    <glyph glyph-name="uni1EBC" unicode="&#x1ebc;" horiz-adv-x="657" 
d="M268 859c-50 0 -81 -37 -81 -37v71s27 36 86 36c71 0 99 -51 156 -51c50 0 81 38 81 38v-71s-28 -36 -87 -36c-68 0 -97 50 -155 50zM190 73h401v-73h-480v725h475v-72h-396v-252h375v-71h-375v-257z" />
    <glyph glyph-name="F" unicode="F" horiz-adv-x="622" 
d="M568 653h-378v-266h343v-72h-343v-315h-79v725h457v-72z" />
    <glyph glyph-name="G" unicode="G" horiz-adv-x="863" 
d="M436 -10c-212 0 -367 156 -367 373c0 214 157 372 367 372c145 0 254 -67 318 -179l-76 -29c-50 88 -130 133 -242 133c-165 0 -285 -124 -285 -297c0 -174 118 -297 285 -297c153 0 267 103 277 257h-285v71h365s3 -16 3 -32c0 -220 -145 -372 -360 -372z" />
    <glyph glyph-name="uni01F4" unicode="&#x1f4;" horiz-adv-x="863" 
d="M341 845l203 128l39 -67l-212 -113zM436 -10c-212 0 -367 156 -367 373c0 214 157 372 367 372c145 0 254 -67 318 -179l-76 -29c-50 88 -130 133 -242 133c-165 0 -285 -124 -285 -297c0 -174 118 -297 285 -297c153 0 267 103 277 257h-285v71h365s3 -16 3 -32
c0 -220 -145 -372 -360 -372z" />
    <glyph glyph-name="Gbreve" unicode="&#x11e;" horiz-adv-x="863" 
d="M436 810c-136 0 -163 142 -163 142h70s16 -81 93 -81c76 0 93 81 93 81h70s-27 -142 -163 -142zM436 -10c-212 0 -367 156 -367 373c0 214 157 372 367 372c145 0 254 -67 318 -179l-76 -29c-50 88 -130 133 -242 133c-165 0 -285 -124 -285 -297
c0 -174 118 -297 285 -297c153 0 267 103 277 257h-285v71h365s3 -16 3 -32c0 -220 -145 -372 -360 -372z" />
    <glyph glyph-name="Gcircumflex" unicode="&#x11c;" horiz-adv-x="863" 
d="M400 948h82l123 -124h-93l-71 74l-70 -74h-94zM436 -10c-212 0 -367 156 -367 373c0 214 157 372 367 372c145 0 254 -67 318 -179l-76 -29c-50 88 -130 133 -242 133c-165 0 -285 -124 -285 -297c0 -174 118 -297 285 -297c153 0 267 103 277 257h-285v71h365
s3 -16 3 -32c0 -220 -145 -372 -360 -372z" />
    <glyph glyph-name="Gcommaaccent" unicode="&#x122;" horiz-adv-x="863" 
d="M793 394c0 0 3 -16 3 -32c0 -220 -145 -372 -360 -372c-212 0 -367 156 -367 373c0 214 157 372 367 372c145 0 254 -67 318 -179l-76 -29c-50 88 -130 133 -242 133c-165 0 -285 -124 -285 -297c0 -174 118 -297 285 -297c153 0 267 103 277 257h-285v71h365zM493 -112
v-1v-1c-1 -23 -11 -42 -32 -82l-37 -70l-38 17l30 84c-22 7 -36 27 -36 53c0 33 23 55 56 55c34 0 57 -21 57 -55z" />
    <glyph glyph-name="Gdotaccent" unicode="&#x120;" horiz-adv-x="863" 
d="M436 830c-33 0 -57 23 -57 56c0 32 24 55 57 55s56 -23 56 -55s-24 -56 -56 -56zM436 -10c-212 0 -367 156 -367 373c0 214 157 372 367 372c145 0 254 -67 318 -179l-76 -29c-50 88 -130 133 -242 133c-165 0 -285 -124 -285 -297c0 -174 118 -297 285 -297
c153 0 267 103 277 257h-285v71h365s3 -16 3 -32c0 -220 -145 -372 -360 -372z" />
    <glyph glyph-name="H" unicode="H" horiz-adv-x="812" 
d="M621 725h79v-725h-79v328h-431v-328h-79v725h79v-323h431v323z" />
    <glyph glyph-name="Hbar" unicode="&#x126;" horiz-adv-x="863" 
d="M813 596v-64h-87v-532h-80v328h-431v-328h-79v532h-86v64h86v129h79v-129h431v129h80v-129h87zM646 402v130h-431v-130h431z" />
    <glyph glyph-name="Hcircumflex" unicode="&#x124;" horiz-adv-x="812" 
d="M411 898l-70 -74h-94l123 124h82l123 -124h-93zM621 725h79v-725h-79v328h-431v-328h-79v725h79v-323h431v323z" />
    <glyph glyph-name="uni1E24" unicode="&#x1e24;" horiz-adv-x="812" 
d="M621 725h79v-725h-79v328h-431v-328h-79v725h79v-323h431v323zM406 -85c33 0 56 -23 56 -55s-24 -56 -56 -56c-33 0 -57 23 -57 56c0 32 24 55 57 55z" />
    <glyph glyph-name="I" unicode="I" horiz-adv-x="303" 
d="M111 0v725h81v-725h-81z" />
    <glyph glyph-name="IJ" unicode="&#x132;" horiz-adv-x="886" 
d="M111 0v725h81v-725h-81zM545 -10c-148 0 -243 100 -243 256h81c0 -110 62 -180 162 -180s162 70 162 180v479h80v-479c0 -156 -94 -256 -242 -256z" />
    <glyph glyph-name="Iacute" unicode="&#xcd;" horiz-adv-x="303" 
d="M56 845l203 128l39 -67l-212 -113zM111 0v725h81v-725h-81z" />
    <glyph glyph-name="Ibreve" unicode="&#x12c;" horiz-adv-x="303" 
d="M151 810c-136 0 -163 142 -163 142h70s16 -81 93 -81c76 0 93 81 93 81h70s-27 -142 -163 -142zM111 0v725h81v-725h-81z" />
    <glyph glyph-name="uni01CF" unicode="&#x1cf;" horiz-adv-x="303" 
d="M110 822l-123 124h94l70 -74l71 74h93l-123 -124h-82zM111 0v725h81v-725h-81z" />
    <glyph glyph-name="Icircumflex" unicode="&#xce;" horiz-adv-x="303" 
d="M115 948h82l123 -124h-93l-71 74l-70 -74h-94zM111 0v725h81v-725h-81z" />
    <glyph glyph-name="uni0208" unicode="&#x208;" horiz-adv-x="303" 
d="M30 815l83 197l71 -33l-99 -190zM194 815l83 197l71 -33l-99 -190zM111 0v725h81v-725h-81z" />
    <glyph glyph-name="Idieresis" unicode="&#xcf;" horiz-adv-x="303" 
d="M59 831c-32 0 -55 23 -55 55s23 54 55 54s55 -21 55 -54c0 -32 -23 -55 -55 -55zM244 831c-32 0 -55 22 -55 55c0 32 23 54 55 54c31 0 54 -22 54 -54s-23 -55 -54 -55zM111 0v725h81v-725h-81z" />
    <glyph glyph-name="Idotaccent" unicode="&#x130;" horiz-adv-x="303" 
d="M151 830c-33 0 -57 23 -57 56c0 32 24 55 57 55s56 -23 56 -55s-24 -56 -56 -56zM111 0v725h81v-725h-81z" />
    <glyph glyph-name="uni1ECA" unicode="&#x1eca;" horiz-adv-x="303" 
d="M111 0v725h81v-725h-81zM151 -196c-33 0 -57 23 -57 56c0 32 24 55 57 55s56 -23 56 -55s-24 -56 -56 -56z" />
    <glyph glyph-name="Igrave" unicode="&#xcc;" horiz-adv-x="303" 
d="M216 793l-212 113l39 67l203 -128zM111 0v725h81v-725h-81z" />
    <glyph glyph-name="Imacron" unicode="&#x12a;" horiz-adv-x="303" 
d="M-22 846v67h346v-67h-346zM111 0v725h81v-725h-81z" />
    <glyph glyph-name="Iogonek" unicode="&#x12e;" horiz-adv-x="303" 
d="M214 -143l20 -67s-33 -20 -85 -20c-73 0 -120 44 -120 112c0 62 49 106 82 128v715h81v-725s-90 -35 -90 -103c0 -33 25 -57 58 -57c34 0 54 17 54 17z" />
    <glyph glyph-name="Itilde" unicode="&#x128;" horiz-adv-x="303" 
d="M312 916v-71s-28 -36 -87 -36c-68 0 -97 50 -155 50c-50 0 -81 -37 -81 -37v71s27 36 86 36c71 0 99 -51 156 -51c50 0 81 38 81 38zM111 0v725h81v-725h-81z" />
    <glyph glyph-name="J" unicode="J" horiz-adv-x="636" 
d="M295 -10c-148 0 -243 100 -243 256h81c0 -110 62 -180 162 -180s162 70 162 180v479h80v-479c0 -156 -94 -256 -242 -256z" />
    <glyph glyph-name="Jcircumflex" unicode="&#x134;" horiz-adv-x="636" 
d="M462 948h82l123 -124h-93l-71 74l-70 -74h-94zM295 -10c-148 0 -243 100 -243 256h81c0 -110 62 -180 162 -180s162 70 162 180v479h80v-479c0 -156 -94 -256 -242 -256z" />
    <glyph glyph-name="K" unicode="K" horiz-adv-x="739" 
d="M695 0h-97l-208 314l-212 -314h-66v725h79v-549l-5 -58l22 58l360 549h94l-226 -343z" />
    <glyph glyph-name="Kcommaaccent" unicode="&#x136;" horiz-adv-x="739" 
d="M436 382l259 -382h-97l-208 314l-212 -314h-66v725h79v-549l-5 -58l22 58l360 549h94zM461 -112v-1v-1c-1 -23 -11 -42 -32 -82l-37 -70l-38 17l30 84c-22 7 -36 27 -36 53c0 33 23 55 56 55c34 0 57 -21 57 -55z" />
    <glyph glyph-name="L" unicode="L" horiz-adv-x="608" 
d="M191 78h368v-78h-448v725h80v-647z" />
    <glyph glyph-name="uni01C7" unicode="&#x1c7;" horiz-adv-x="1221" 
d="M191 725v-647h368v-78h-448v725h80zM1042 725h80v-479c0 -156 -94 -256 -242 -256s-243 100 -243 256h81c0 -110 62 -180 162 -180s162 70 162 180v479z" />
    <glyph glyph-name="Lacute" unicode="&#x139;" horiz-adv-x="608" 
d="M259 973l39 -67l-212 -113l-30 52zM191 78h368v-78h-448v725h80v-647z" />
    <glyph glyph-name="Lcaron" unicode="&#x13d;" horiz-adv-x="608" 
d="M378 628c-22 7 -36 27 -36 53c0 33 23 55 56 55c34 0 57 -21 57 -55v-1v-1c-1 -23 -11 -42 -32 -82l-37 -70l-38 17zM191 78h368v-78h-448v725h80v-647z" />
    <glyph glyph-name="Lcommaaccent" unicode="&#x13b;" horiz-adv-x="608" 
d="M191 78h368v-78h-448v725h80v-647zM392 -112v-1v-1c-1 -23 -11 -42 -32 -82l-37 -70l-38 17l30 84c-22 7 -36 27 -36 53c0 33 23 55 56 55c34 0 57 -21 57 -55z" />
    <glyph glyph-name="Ldot" unicode="&#x13f;" horiz-adv-x="607" 
d="M191 78h368v-78h-448v725h80v-647zM395 299c-38 0 -66 27 -66 67c0 38 28 66 66 66c40 0 67 -27 67 -66s-28 -67 -67 -67z" />
    <glyph glyph-name="uni01C8" unicode="&#x1c8;" horiz-adv-x="843" 
d="M191 725v-647h368v-78h-448v725h80zM714 714c33 0 56 -23 56 -55s-24 -56 -56 -56c-33 0 -57 23 -57 56c0 32 24 55 57 55zM676 -59v556h77v-554c0 -112 -55 -174 -163 -174c-17 0 -29 2 -29 2l6 67h13c66 0 96 35 96 103z" />
    <glyph glyph-name="Lslash" unicode="&#x141;" horiz-adv-x="652" 
d="M236 78h367v-78h-447v268l-103 -54v81l103 53v377h80v-335l131 68v-80l-131 -68v-232z" />
    <glyph glyph-name="M" unicode="M" horiz-adv-x="1019" 
d="M111 0v725h69l329 -608l330 608h69v-725h-78v556l-302 -556h-38l-300 555v-555h-79z" />
    <glyph glyph-name="N" unicode="N" horiz-adv-x="826" 
d="M111 0v725h71l454 -592v592h79v-725h-71l-454 591v-591h-79z" />
    <glyph glyph-name="uni01CA" unicode="&#x1ca;" horiz-adv-x="1409" 
d="M111 0v725h71l454 -592v592h79v-725h-71l-454 591v-591h-79zM1068 -10c-148 0 -243 100 -243 256h81c0 -110 62 -180 162 -180s162 70 162 180v479h80v-479c0 -156 -94 -256 -242 -256z" />
    <glyph glyph-name="Nacute" unicode="&#x143;" horiz-adv-x="826" 
d="M319 845l203 128l39 -67l-212 -113zM111 0v725h71l454 -592v592h79v-725h-71l-454 591v-591h-79z" />
    <glyph glyph-name="Ncaron" unicode="&#x147;" horiz-adv-x="826" 
d="M373 822l-123 124h94l70 -74l71 74h93l-123 -124h-82zM111 0v725h71l454 -592v592h79v-725h-71l-454 591v-591h-79z" />
    <glyph glyph-name="Ncommaaccent" unicode="&#x145;" horiz-adv-x="826" 
d="M636 725h79v-725h-71l-454 591v-591h-79v725h71l454 -592v592zM471 -112v-1v-1c-1 -23 -11 -42 -32 -82l-37 -70l-38 17l30 84c-22 7 -36 27 -36 53c0 33 23 55 56 55c34 0 57 -21 57 -55z" />
    <glyph glyph-name="uni1E44" unicode="&#x1e44;" horiz-adv-x="826" 
d="M414 830c-33 0 -57 23 -57 56c0 32 24 55 57 55s56 -23 56 -55s-24 -56 -56 -56zM111 0v725h71l454 -592v592h79v-725h-71l-454 591v-591h-79z" />
    <glyph glyph-name="Eng" unicode="&#x14a;" horiz-adv-x="828" 
d="M637 725h79v-779c0 -111 -57 -174 -163 -174c-73 0 -117 26 -117 26l24 69s34 -23 88 -23c60 0 90 33 90 102v63l-448 582v-591h-78v725h71l454 -592v592z" />
    <glyph glyph-name="uni01CB" unicode="&#x1cb;" horiz-adv-x="1073" 
d="M111 0v725h71l454 -592v592h79v-725h-71l-454 591v-591h-79zM944 603c-33 0 -57 23 -57 56c0 32 24 55 57 55s56 -23 56 -55s-24 -56 -56 -56zM820 -231c-17 0 -29 2 -29 2l6 67h13c66 0 96 35 96 103v556h77v-554c0 -112 -55 -174 -163 -174z" />
    <glyph glyph-name="Ntilde" unicode="&#xd1;" horiz-adv-x="826" 
d="M575 916v-71s-28 -36 -87 -36c-68 0 -97 50 -155 50c-50 0 -81 -37 -81 -37v71s27 36 86 36c71 0 99 -51 156 -51c50 0 81 38 81 38zM111 0v725h71l454 -592v592h79v-725h-71l-454 591v-591h-79z" />
    <glyph glyph-name="O" unicode="O" horiz-adv-x="885" 
d="M443 -10c-219 0 -374 156 -374 373c0 214 158 372 374 372c217 0 373 -153 373 -372c0 -214 -157 -373 -373 -373zM443 66c170 0 291 124 291 297c1 176 -120 297 -291 297s-292 -124 -292 -297c0 -174 119 -297 292 -297z" />
    <glyph glyph-name="Oacute" unicode="&#xd3;" horiz-adv-x="885" 
d="M348 845l203 128l39 -67l-212 -113zM443 -10c-219 0 -374 156 -374 373c0 214 158 372 374 372c217 0 373 -153 373 -372c0 -214 -157 -373 -373 -373zM443 66c170 0 291 124 291 297c1 176 -120 297 -291 297s-292 -124 -292 -297c0 -174 119 -297 292 -297z" />
    <glyph glyph-name="Obreve" unicode="&#x14e;" horiz-adv-x="885" 
d="M443 810c-136 0 -163 142 -163 142h70s16 -81 93 -81c76 0 93 81 93 81h70s-27 -142 -163 -142zM443 -10c-219 0 -374 156 -374 373c0 214 158 372 374 372c217 0 373 -153 373 -372c0 -214 -157 -373 -373 -373zM443 66c170 0 291 124 291 297c1 176 -120 297 -291 297
s-292 -124 -292 -297c0 -174 119 -297 292 -297z" />
    <glyph glyph-name="uni01D1" unicode="&#x1d1;" horiz-adv-x="885" 
d="M402 822l-123 124h94l70 -74l71 74h93l-123 -124h-82zM443 -10c-219 0 -374 156 -374 373c0 214 158 372 374 372c217 0 373 -153 373 -372c0 -214 -157 -373 -373 -373zM443 66c170 0 291 124 291 297c1 176 -120 297 -291 297s-292 -124 -292 -297
c0 -174 119 -297 292 -297z" />
    <glyph glyph-name="Ocircumflex" unicode="&#xd4;" horiz-adv-x="885" 
d="M407 948h82l123 -124h-93l-71 74l-70 -74h-94zM443 -10c-219 0 -374 156 -374 373c0 214 158 372 374 372c217 0 373 -153 373 -372c0 -214 -157 -373 -373 -373zM443 66c170 0 291 124 291 297c1 176 -120 297 -291 297s-292 -124 -292 -297c0 -174 119 -297 292 -297z
" />
    <glyph glyph-name="uni1ED8" unicode="&#x1ed8;" horiz-adv-x="885" 
d="M407 948h82l123 -124h-93l-71 74l-70 -74h-94zM443 -10c-219 0 -374 156 -374 373c0 214 158 372 374 372c217 0 373 -153 373 -372c0 -214 -157 -373 -373 -373zM443 66c170 0 291 124 291 297c1 176 -120 297 -291 297s-292 -124 -292 -297c0 -174 119 -297 292 -297z
M443 -196c-33 0 -57 23 -57 56c0 32 24 55 57 55s56 -23 56 -55s-24 -56 -56 -56z" />
    <glyph glyph-name="uni020C" unicode="&#x20c;" horiz-adv-x="885" 
d="M322 815l83 197l71 -33l-99 -190zM486 815l83 197l71 -33l-99 -190zM443 -10c-219 0 -374 156 -374 373c0 214 158 372 374 372c217 0 373 -153 373 -372c0 -214 -157 -373 -373 -373zM443 66c170 0 291 124 291 297c1 176 -120 297 -291 297s-292 -124 -292 -297
c0 -174 119 -297 292 -297z" />
    <glyph glyph-name="Odieresis" unicode="&#xd6;" horiz-adv-x="885" 
d="M351 831c-32 0 -55 23 -55 55s23 54 55 54s55 -21 55 -54c0 -32 -23 -55 -55 -55zM536 831c-32 0 -55 22 -55 55c0 32 23 54 55 54c31 0 54 -22 54 -54s-23 -55 -54 -55zM443 -10c-219 0 -374 156 -374 373c0 214 158 372 374 372c217 0 373 -153 373 -372
c0 -214 -157 -373 -373 -373zM443 66c170 0 291 124 291 297c1 176 -120 297 -291 297s-292 -124 -292 -297c0 -174 119 -297 292 -297z" />
    <glyph glyph-name="uni1ECC" unicode="&#x1ecc;" horiz-adv-x="885" 
d="M443 -10c-219 0 -374 156 -374 373c0 214 158 372 374 372c217 0 373 -153 373 -372c0 -214 -157 -373 -373 -373zM443 66c170 0 291 124 291 297c1 176 -120 297 -291 297s-292 -124 -292 -297c0 -174 119 -297 292 -297zM443 -196c-33 0 -57 23 -57 56
c0 32 24 55 57 55s56 -23 56 -55s-24 -56 -56 -56z" />
    <glyph glyph-name="Ograve" unicode="&#xd2;" horiz-adv-x="885" 
d="M508 793l-212 113l39 67l203 -128zM443 -10c-219 0 -374 156 -374 373c0 214 158 372 374 372c217 0 373 -153 373 -372c0 -214 -157 -373 -373 -373zM443 66c170 0 291 124 291 297c1 176 -120 297 -291 297s-292 -124 -292 -297c0 -174 119 -297 292 -297z" />
    <glyph glyph-name="Ohungarumlaut" unicode="&#x150;" horiz-adv-x="885" 
d="M399 815l-55 -26l-99 190l71 33zM563 815l-55 -26l-99 190l71 33zM443 -10c-219 0 -374 156 -374 373c0 214 158 372 374 372c217 0 373 -153 373 -372c0 -214 -157 -373 -373 -373zM443 66c170 0 291 124 291 297c1 176 -120 297 -291 297s-292 -124 -292 -297
c0 -174 119 -297 292 -297z" />
    <glyph glyph-name="Omacron" unicode="&#x14c;" horiz-adv-x="885" 
d="M270 846v67h346v-67h-346zM443 -10c-219 0 -374 156 -374 373c0 214 158 372 374 372c217 0 373 -153 373 -372c0 -214 -157 -373 -373 -373zM443 66c170 0 291 124 291 297c1 176 -120 297 -291 297s-292 -124 -292 -297c0 -174 119 -297 292 -297z" />
    <glyph glyph-name="uni01EA" unicode="&#x1ea;" horiz-adv-x="885" 
d="M524 -2c-19 -9 -85 -43 -85 -101c0 -33 25 -57 58 -57c34 0 54 17 54 17l20 -67s-33 -20 -85 -20c-73 0 -120 44 -120 112c0 47 28 84 56 108c-208 10 -353 163 -353 373c0 214 158 372 374 372c217 0 373 -153 373 -372c0 -186 -119 -331 -292 -365zM151 363
c0 -174 119 -297 292 -297c170 0 291 124 291 297c1 176 -120 297 -291 297s-292 -124 -292 -297z" />
    <glyph glyph-name="Oslash" unicode="&#xd8;" horiz-adv-x="870" 
d="M669 661c87 -65 139 -170 139 -298c0 -214 -157 -373 -373 -373c-76 0 -144 19 -200 52l-83 -118l-32 24l82 117c-87 66 -140 172 -140 298c0 214 158 372 373 372c76 0 144 -18 201 -52l82 118l32 -24zM144 363c0 -99 38 -181 103 -234l344 491c-44 26 -97 40 -156 40
c-170 0 -291 -124 -291 -297zM435 66c170 0 291 124 292 297c1 100 -38 182 -103 234l-344 -491c43 -26 96 -40 155 -40z" />
    <glyph glyph-name="Oslashacute" unicode="&#x1fe;" horiz-adv-x="870" 
d="M582 906l-212 -113l-30 52l203 128zM669 661c87 -65 139 -170 139 -298c0 -214 -157 -373 -373 -373c-76 0 -144 19 -200 52l-83 -118l-32 24l82 117c-87 66 -140 172 -140 298c0 214 158 372 373 372c76 0 144 -18 201 -52l82 118l32 -24zM144 363
c0 -99 38 -181 103 -234l344 491c-44 26 -97 40 -156 40c-170 0 -291 -124 -291 -297zM435 66c170 0 291 124 292 297c1 100 -38 182 -103 234l-344 -491c43 -26 96 -40 155 -40z" />
    <glyph glyph-name="Otilde" unicode="&#xd5;" horiz-adv-x="885" 
d="M604 916v-71s-28 -36 -87 -36c-68 0 -97 50 -155 50c-50 0 -81 -37 -81 -37v71s27 36 86 36c71 0 99 -51 156 -51c50 0 81 38 81 38zM443 -10c-219 0 -374 156 -374 373c0 214 158 372 374 372c217 0 373 -153 373 -372c0 -214 -157 -373 -373 -373zM443 66
c170 0 291 124 291 297c1 176 -120 297 -291 297s-292 -124 -292 -297c0 -174 119 -297 292 -297z" />
    <glyph glyph-name="OE" unicode="&#x152;" horiz-adv-x="1264" 
d="M799 73h399v-73h-478l1 131c-60 -87 -158 -141 -283 -141c-216 0 -368 157 -368 373s156 372 368 372c125 0 223 -52 283 -138l-1 128h473v-72h-394v-252h373v-71h-373v-257zM438 66c168 0 283 123 285 295v13c-4 169 -120 286 -285 286c-169 0 -286 -123 -286 -297
c0 -176 114 -297 286 -297z" />
    <glyph glyph-name="P" unicode="P" horiz-adv-x="697" 
d="M366 725c165 0 268 -93 268 -242s-105 -243 -269 -243h-175v-240h-79v725h255zM365 315c116 0 187 65 187 168s-71 168 -186 168h-176v-336h175z" />
    <glyph glyph-name="Thorn" unicode="&#xde;" horiz-adv-x="698" 
d="M367 606c165 0 268 -93 268 -242c0 -148 -105 -242 -269 -242h-175v-122h-79v725h79v-119h176zM366 197c116 0 187 64 187 167s-71 168 -186 168h-176v-335h175z" />
    <glyph glyph-name="Q" unicode="Q" horiz-adv-x="879" 
d="M813 363c0 -136 -63 -250 -165 -315l143 -208h-92l-118 175c-43 -16 -91 -25 -141 -25c-218 0 -373 156 -373 373c0 214 158 372 373 372c219 0 373 -153 373 -372zM149 363c0 -174 118 -297 291 -297c176 0 290 118 291 297c0 176 -118 297 -291 297
c-170 0 -291 -124 -291 -297z" />
    <glyph glyph-name="R" unicode="R" horiz-adv-x="719" 
d="M662 0h-101l-189 264h-2h-180v-264h-79v725h264c164 0 267 -89 267 -230c0 -114 -72 -195 -187 -222zM190 651v-312h185c114 0 185 59 185 156c0 98 -70 156 -184 156h-186z" />
    <glyph glyph-name="Racute" unicode="&#x154;" horiz-adv-x="719" 
d="M523 906l-212 -113l-30 52l203 128zM662 0h-101l-189 264h-2h-180v-264h-79v725h264c164 0 267 -89 267 -230c0 -114 -72 -195 -187 -222zM190 651v-312h185c114 0 185 59 185 156c0 98 -70 156 -184 156h-186z" />
    <glyph glyph-name="Rcaron" unicode="&#x158;" horiz-adv-x="719" 
d="M417 822h-82l-123 124h94l70 -74l71 74h93zM662 0h-101l-189 264h-2h-180v-264h-79v725h264c164 0 267 -89 267 -230c0 -114 -72 -195 -187 -222zM190 651v-312h185c114 0 185 59 185 156c0 98 -70 156 -184 156h-186z" />
    <glyph glyph-name="Rcommaaccent" unicode="&#x156;" horiz-adv-x="719" 
d="M455 273l207 -273h-101l-189 264h-2h-180v-264h-79v725h264c164 0 267 -89 267 -230c0 -114 -72 -195 -187 -222zM190 651v-312h185c114 0 185 59 185 156c0 98 -70 156 -184 156h-186zM443 -112v-1v-1c-1 -23 -11 -42 -32 -82l-37 -70l-38 17l30 84c-22 7 -36 27 -36 53
c0 33 23 55 56 55c34 0 57 -21 57 -55z" />
    <glyph glyph-name="uni0210" unicode="&#x210;" horiz-adv-x="719" 
d="M409 979l-99 -190l-55 26l83 197zM573 979l-99 -190l-55 26l83 197zM662 0h-101l-189 264h-2h-180v-264h-79v725h264c164 0 267 -89 267 -230c0 -114 -72 -195 -187 -222zM190 651v-312h185c114 0 185 59 185 156c0 98 -70 156 -184 156h-186z" />
    <glyph glyph-name="uni1E5A" unicode="&#x1e5a;" horiz-adv-x="719" 
d="M455 273l207 -273h-101l-189 264h-2h-180v-264h-79v725h264c164 0 267 -89 267 -230c0 -114 -72 -195 -187 -222zM190 651v-312h185c114 0 185 59 185 156c0 98 -70 156 -184 156h-186zM386 -85c33 0 56 -23 56 -55s-24 -56 -56 -56c-33 0 -57 23 -57 56
c0 32 24 55 57 55z" />
    <glyph glyph-name="S" unicode="S" horiz-adv-x="616" 
d="M308 -10c-199 0 -243 174 -243 174l75 22s28 -125 168 -125c99 0 161 47 161 124c0 68 -40 109 -126 132l-96 26c-114 32 -169 92 -169 200c0 117 88 192 225 192c187 0 226 -145 226 -145l-73 -26s-24 101 -152 101c-90 0 -147 -45 -147 -117c0 -69 41 -111 128 -135
l98 -27c113 -32 168 -92 168 -196c0 -122 -95 -200 -243 -200z" />
    <glyph glyph-name="Sacute" unicode="&#x15a;" horiz-adv-x="616" 
d="M208 845l203 128l39 -67l-212 -113zM308 -10c-199 0 -243 174 -243 174l75 22s28 -125 168 -125c99 0 161 47 161 124c0 68 -40 109 -126 132l-96 26c-114 32 -169 92 -169 200c0 117 88 192 225 192c187 0 226 -145 226 -145l-73 -26s-24 101 -152 101
c-90 0 -147 -45 -147 -117c0 -69 41 -111 128 -135l98 -27c113 -32 168 -92 168 -196c0 -122 -95 -200 -243 -200z" />
    <glyph glyph-name="Scaron" unicode="&#x160;" horiz-adv-x="616" 
d="M262 822l-123 124h94l70 -74l71 74h93l-123 -124h-82zM308 -10c-199 0 -243 174 -243 174l75 22s28 -125 168 -125c99 0 161 47 161 124c0 68 -40 109 -126 132l-96 26c-114 32 -169 92 -169 200c0 117 88 192 225 192c187 0 226 -145 226 -145l-73 -26s-24 101 -152 101
c-90 0 -147 -45 -147 -117c0 -69 41 -111 128 -135l98 -27c113 -32 168 -92 168 -196c0 -122 -95 -200 -243 -200z" />
    <glyph glyph-name="Scedilla" unicode="&#x15e;" horiz-adv-x="616" 
d="M551 190c0 -115 -84 -190 -217 -199l-3 -25h4c51 0 91 -38 91 -91c0 -64 -52 -105 -128 -105c-69 0 -105 36 -105 36l34 55s23 -25 70 -25c34 0 57 16 57 42c0 25 -19 41 -52 41c-23 0 -38 -6 -38 -6l10 79c-170 18 -209 172 -209 172l75 22s28 -125 168 -125
c99 0 161 47 161 124c0 68 -40 109 -126 132l-96 26c-114 32 -169 92 -169 200c0 117 88 192 225 192c187 0 226 -145 226 -145l-73 -26s-24 101 -152 101c-90 0 -147 -45 -147 -117c0 -69 41 -111 128 -135l98 -27c113 -32 168 -92 168 -196z" />
    <glyph glyph-name="Scircumflex" unicode="&#x15c;" horiz-adv-x="616" 
d="M267 948h82l123 -124h-93l-71 74l-70 -74h-94zM308 -10c-199 0 -243 174 -243 174l75 22s28 -125 168 -125c99 0 161 47 161 124c0 68 -40 109 -126 132l-96 26c-114 32 -169 92 -169 200c0 117 88 192 225 192c187 0 226 -145 226 -145l-73 -26s-24 101 -152 101
c-90 0 -147 -45 -147 -117c0 -69 41 -111 128 -135l98 -27c113 -32 168 -92 168 -196c0 -122 -95 -200 -243 -200z" />
    <glyph glyph-name="Scommaaccent" unicode="&#x218;" horiz-adv-x="616" 
d="M383 386c113 -32 168 -92 168 -196c0 -122 -95 -200 -243 -200c-199 0 -243 174 -243 174l75 22s28 -125 168 -125c99 0 161 47 161 124c0 68 -40 109 -126 132l-96 26c-114 32 -169 92 -169 200c0 117 88 192 225 192c187 0 226 -145 226 -145l-73 -26s-24 101 -152 101
c-90 0 -147 -45 -147 -117c0 -69 41 -111 128 -135zM365 -112v-1v-1c-1 -23 -11 -42 -32 -82l-37 -70l-38 17l30 84c-22 7 -36 27 -36 53c0 33 23 55 56 55c34 0 57 -21 57 -55z" />
    <glyph glyph-name="uni1E62" unicode="&#x1e62;" horiz-adv-x="616" 
d="M308 -10c-199 0 -243 174 -243 174l75 22s28 -125 168 -125c99 0 161 47 161 124c0 68 -40 109 -126 132l-96 26c-114 32 -169 92 -169 200c0 117 88 192 225 192c187 0 226 -145 226 -145l-73 -26s-24 101 -152 101c-90 0 -147 -45 -147 -117c0 -69 41 -111 128 -135
l98 -27c113 -32 168 -92 168 -196c0 -122 -95 -200 -243 -200zM308 -196c-33 0 -57 23 -57 56c0 32 24 55 57 55s56 -23 56 -55s-24 -56 -56 -56z" />
    <glyph glyph-name="uni1E9E" unicode="&#x1e9e;" horiz-adv-x="706" 
d="M435 410v-2c124 -5 209 -86 209 -198c0 -128 -99 -210 -254 -210h-72v68h74c106 0 171 56 171 147c0 88 -70 141 -182 141h-24v67l160 149s-45 93 -166 93c-105 0 -170 -66 -170 -170v-495h-80v486c0 155 94 249 249 249c194 0 259 -172 259 -172z" />
    <glyph glyph-name="T" unicode="T" horiz-adv-x="614" 
d="M597 725v-76h-250v-649h-81v649h-249v76h580z" />
    <glyph glyph-name="Tbar" unicode="&#x166;" horiz-adv-x="676" 
d="M628 649h-250v-265h128v-64h-128v-320h-81v320h-128v64h128v265h-249v76h580v-76z" />
    <glyph glyph-name="Tcaron" unicode="&#x164;" horiz-adv-x="614" 
d="M348 822h-82l-123 124h94l70 -74l71 74h93zM597 725v-76h-250v-649h-81v649h-249v76h580z" />
    <glyph glyph-name="uni0162" unicode="&#x162;" horiz-adv-x="614" 
d="M597 725v-76h-250v-649h-81v649h-249v76h580zM334 -34c51 0 91 -38 91 -91c0 -64 -52 -105 -128 -105c-69 0 -105 36 -105 36l34 55s23 -25 70 -25c34 0 57 16 57 42c0 25 -19 41 -52 41c-23 0 -38 -6 -38 -6l11 83h60l-4 -30h4z" />
    <glyph glyph-name="uni021A" unicode="&#x21a;" horiz-adv-x="614" 
d="M597 725v-76h-250v-649h-81v649h-249v76h580zM364 -112v-1v-1c-1 -23 -11 -42 -32 -82l-37 -70l-38 17l30 84c-22 7 -36 27 -36 53c0 33 23 55 56 55c34 0 57 -21 57 -55z" />
    <glyph glyph-name="uni1E6C" unicode="&#x1e6c;" horiz-adv-x="614" 
d="M597 725v-76h-250v-649h-81v649h-249v76h580zM307 -85c33 0 56 -23 56 -55s-24 -56 -56 -56c-33 0 -57 23 -57 56c0 32 24 55 57 55z" />
    <glyph glyph-name="U" unicode="U" horiz-adv-x="789" 
d="M394 -10c-182 0 -298 119 -298 306v429h80v-430c0 -144 85 -231 219 -231c135 0 219 87 219 231v430h78v-429c0 -187 -114 -306 -298 -306z" />
    <glyph glyph-name="Uacute" unicode="&#xda;" horiz-adv-x="789" 
d="M296 845l203 128l39 -67l-212 -113zM394 -10c-182 0 -298 119 -298 306v429h80v-430c0 -144 85 -231 219 -231c135 0 219 87 219 231v430h78v-429c0 -187 -114 -306 -298 -306z" />
    <glyph glyph-name="Ubreve" unicode="&#x16c;" horiz-adv-x="789" 
d="M391 810c-136 0 -163 142 -163 142h70s16 -81 93 -81c76 0 93 81 93 81h70s-27 -142 -163 -142zM394 -10c-182 0 -298 119 -298 306v429h80v-430c0 -144 85 -231 219 -231c135 0 219 87 219 231v430h78v-429c0 -187 -114 -306 -298 -306z" />
    <glyph glyph-name="uni01D3" unicode="&#x1d3;" horiz-adv-x="789" 
d="M350 822l-123 124h94l70 -74l71 74h93l-123 -124h-82zM394 -10c-182 0 -298 119 -298 306v429h80v-430c0 -144 85 -231 219 -231c135 0 219 87 219 231v430h78v-429c0 -187 -114 -306 -298 -306z" />
    <glyph glyph-name="Ucircumflex" unicode="&#xdb;" horiz-adv-x="789" 
d="M355 948h82l123 -124h-93l-71 74l-70 -74h-94zM394 -10c-182 0 -298 119 -298 306v429h80v-430c0 -144 85 -231 219 -231c135 0 219 87 219 231v430h78v-429c0 -187 -114 -306 -298 -306z" />
    <glyph glyph-name="uni0214" unicode="&#x214;" horiz-adv-x="789" 
d="M270 815l83 197l71 -33l-99 -190zM434 815l83 197l71 -33l-99 -190zM394 -10c-182 0 -298 119 -298 306v429h80v-430c0 -144 85 -231 219 -231c135 0 219 87 219 231v430h78v-429c0 -187 -114 -306 -298 -306z" />
    <glyph glyph-name="Udieresis" unicode="&#xdc;" horiz-adv-x="789" 
d="M299 831c-32 0 -55 23 -55 55s23 54 55 54s55 -21 55 -54c0 -32 -23 -55 -55 -55zM484 831c-32 0 -55 22 -55 55c0 32 23 54 55 54c31 0 54 -22 54 -54s-23 -55 -54 -55zM394 -10c-182 0 -298 119 -298 306v429h80v-430c0 -144 85 -231 219 -231c135 0 219 87 219 231
v430h78v-429c0 -187 -114 -306 -298 -306z" />
    <glyph glyph-name="uni1EE4" unicode="&#x1ee4;" horiz-adv-x="789" 
d="M394 -10c-182 0 -298 119 -298 306v429h80v-430c0 -144 85 -231 219 -231c135 0 219 87 219 231v430h78v-429c0 -187 -114 -306 -298 -306zM394 -196c-33 0 -57 23 -57 56c0 32 24 55 57 55s56 -23 56 -55s-24 -56 -56 -56z" />
    <glyph glyph-name="Ugrave" unicode="&#xd9;" horiz-adv-x="789" 
d="M456 793l-212 113l39 67l203 -128zM394 -10c-182 0 -298 119 -298 306v429h80v-430c0 -144 85 -231 219 -231c135 0 219 87 219 231v430h78v-429c0 -187 -114 -306 -298 -306z" />
    <glyph glyph-name="Uhungarumlaut" unicode="&#x170;" horiz-adv-x="789" 
d="M347 815l-55 -26l-99 190l71 33zM511 815l-55 -26l-99 190l71 33zM394 -10c-182 0 -298 119 -298 306v429h80v-430c0 -144 85 -231 219 -231c135 0 219 87 219 231v430h78v-429c0 -187 -114 -306 -298 -306z" />
    <glyph glyph-name="Umacron" unicode="&#x16a;" horiz-adv-x="789" 
d="M218 846v67h346v-67h-346zM394 -10c-182 0 -298 119 -298 306v429h80v-430c0 -144 85 -231 219 -231c135 0 219 87 219 231v430h78v-429c0 -187 -114 -306 -298 -306z" />
    <glyph glyph-name="Uogonek" unicode="&#x172;" horiz-adv-x="789" 
d="M614 725h78v-429c0 -161 -84 -272 -225 -299c-22 -10 -83 -44 -83 -100c0 -33 25 -57 58 -57c34 0 54 17 54 17l20 -67s-33 -20 -85 -20c-73 0 -120 44 -120 112c0 47 28 84 57 109c-167 11 -272 127 -272 305v429h80v-430c0 -144 85 -231 219 -231c135 0 219 87 219 231
v430z" />
    <glyph glyph-name="Uring" unicode="&#x16e;" horiz-adv-x="789" 
d="M391 787c-65 0 -112 46 -112 110c0 65 47 111 112 111s112 -46 112 -111c0 -64 -47 -110 -112 -110zM391 848c30 0 52 21 52 49c0 30 -22 51 -52 51c-29 0 -49 -21 -49 -51c0 -28 20 -49 49 -49zM394 -10c-182 0 -298 119 -298 306v429h80v-430c0 -144 85 -231 219 -231
c135 0 219 87 219 231v430h78v-429c0 -187 -114 -306 -298 -306z" />
    <glyph glyph-name="Utilde" unicode="&#x168;" horiz-adv-x="789" 
d="M552 916v-71s-28 -36 -87 -36c-68 0 -97 50 -155 50c-50 0 -81 -37 -81 -37v71s27 36 86 36c71 0 99 -51 156 -51c50 0 81 38 81 38zM394 -10c-182 0 -298 119 -298 306v429h80v-430c0 -144 85 -231 219 -231c135 0 219 87 219 231v430h78v-429
c0 -187 -114 -306 -298 -306z" />
    <glyph glyph-name="V" unicode="V" horiz-adv-x="751" 
d="M331 0l-314 725h88l263 -619l8 -25l8 25l262 619h88l-314 -725h-89z" />
    <glyph glyph-name="W" unicode="W" horiz-adv-x="1081" 
d="M263 0l-240 725h85l194 -600l6 -35l6 35l187 600h82l186 -600l6 -35l6 35l193 600h84l-240 -725h-83l-189 606l-5 29l-5 -29l-188 -606h-85z" />
    <glyph glyph-name="Wacute" unicode="&#x1e82;" horiz-adv-x="1081" 
d="M446 845l203 128l39 -67l-212 -113zM263 0l-240 725h85l194 -600l6 -35l6 35l187 600h82l186 -600l6 -35l6 35l193 600h84l-240 -725h-83l-189 606l-5 29l-5 -29l-188 -606h-85z" />
    <glyph glyph-name="Wcircumflex" unicode="&#x174;" horiz-adv-x="1081" 
d="M505 948h82l123 -124h-93l-71 74l-70 -74h-94zM263 0l-240 725h85l194 -600l6 -35l6 35l187 600h82l186 -600l6 -35l6 35l193 600h84l-240 -725h-83l-189 606l-5 29l-5 -29l-188 -606h-85z" />
    <glyph glyph-name="Wdieresis" unicode="&#x1e84;" horiz-adv-x="1081" 
d="M449 831c-32 0 -55 23 -55 55s23 54 55 54s55 -21 55 -54c0 -32 -23 -55 -55 -55zM634 831c-32 0 -55 22 -55 55c0 32 23 54 55 54c31 0 54 -22 54 -54s-23 -55 -54 -55zM263 0l-240 725h85l194 -600l6 -35l6 35l187 600h82l186 -600l6 -35l6 35l193 600h84l-240 -725
h-83l-189 606l-5 29l-5 -29l-188 -606h-85z" />
    <glyph glyph-name="Wgrave" unicode="&#x1e80;" horiz-adv-x="1081" 
d="M610 844l-39 -46l-169 133l51 59zM263 0l-240 725h85l194 -600l6 -35l6 35l187 600h82l186 -600l6 -35l6 35l193 600h84l-240 -725h-83l-189 606l-5 29l-5 -29l-188 -606h-85z" />
    <glyph glyph-name="X" unicode="X" horiz-adv-x="760" 
d="M715 0h-99l-236 308l-237 -308h-98l285 369l-272 356h99l223 -296l222 296h98l-271 -356z" />
    <glyph glyph-name="Y" unicode="Y" horiz-adv-x="700" 
d="M311 0v241l-294 484h94l234 -393l7 -16l6 16l234 393h92l-293 -484v-241h-80z" />
    <glyph glyph-name="Yacute" unicode="&#xdd;" horiz-adv-x="700" 
d="M256 845l203 128l39 -67l-212 -113zM311 0v241l-294 484h94l234 -393l7 -16l6 16l234 393h92l-293 -484v-241h-80z" />
    <glyph glyph-name="Ycircumflex" unicode="&#x176;" horiz-adv-x="700" 
d="M315 948h82l123 -124h-93l-71 74l-70 -74h-94zM311 0v241l-294 484h94l234 -393l7 -16l6 16l234 393h92l-293 -484v-241h-80z" />
    <glyph glyph-name="Ydieresis" unicode="&#x178;" horiz-adv-x="700" 
d="M259 831c-32 0 -55 23 -55 55s23 54 55 54s55 -21 55 -54c0 -32 -23 -55 -55 -55zM444 831c-32 0 -55 22 -55 55c0 32 23 54 55 54c31 0 54 -22 54 -54s-23 -55 -54 -55zM311 0v241l-294 484h94l234 -393l7 -16l6 16l234 393h92l-293 -484v-241h-80z" />
    <glyph glyph-name="uni1EF4" unicode="&#x1ef4;" horiz-adv-x="700" 
d="M311 0v241l-294 484h94l234 -393l7 -16l6 16l234 393h92l-293 -484v-241h-80zM351 -196c-33 0 -57 23 -57 56c0 32 24 55 57 55s56 -23 56 -55s-24 -56 -56 -56z" />
    <glyph glyph-name="Ygrave" unicode="&#x1ef2;" horiz-adv-x="700" 
d="M420 844l-39 -46l-169 133l51 59zM311 0v241l-294 484h94l234 -393l7 -16l6 16l234 393h92l-293 -484v-241h-80z" />
    <glyph glyph-name="uni1EF8" unicode="&#x1ef8;" horiz-adv-x="700" 
d="M512 916v-71s-28 -36 -87 -36c-68 0 -97 50 -155 50c-50 0 -81 -37 -81 -37v71s27 36 86 36c71 0 99 -51 156 -51c50 0 81 38 81 38zM311 0v241l-294 484h94l234 -393l7 -16l6 16l234 393h92l-293 -484v-241h-80z" />
    <glyph glyph-name="Z" unicode="Z" horiz-adv-x="672" 
d="M57 0v61l442 589h-431v75h540v-59l-442 -590h448v-76h-557z" />
    <glyph glyph-name="Zacute" unicode="&#x179;" horiz-adv-x="672" 
d="M243 845l203 128l39 -67l-212 -113zM57 0v61l442 589h-431v75h540v-59l-442 -590h448v-76h-557z" />
    <glyph glyph-name="Zcaron" unicode="&#x17d;" horiz-adv-x="672" 
d="M297 822l-123 124h94l70 -74l71 74h93l-123 -124h-82zM57 0v61l442 589h-431v75h540v-59l-442 -590h448v-76h-557z" />
    <glyph glyph-name="Zdotaccent" unicode="&#x17b;" horiz-adv-x="672" 
d="M338 830c-33 0 -57 23 -57 56c0 32 24 55 57 55s56 -23 56 -55s-24 -56 -56 -56zM57 0v61l442 589h-431v75h540v-59l-442 -590h448v-76h-557z" />
    <glyph glyph-name="uni1E92" unicode="&#x1e92;" horiz-adv-x="672" 
d="M57 0v61l442 589h-431v75h540v-59l-442 -590h448v-76h-557zM335 -196c-33 0 -57 23 -57 56c0 32 24 55 57 55s56 -23 56 -55s-24 -56 -56 -56z" />
    <glyph glyph-name="K.ss01" horiz-adv-x="731" 
d="M688 0h-114l-383 361v-361h-79v725h79v-353l355 353h108l-364 -355z" />
    <glyph glyph-name="Kcommaaccent.ss01" horiz-adv-x="731" 
d="M290 370l398 -370h-114l-383 361v-361h-79v725h79v-353l355 353h108zM455 -112v-1v-1c-1 -23 -11 -42 -32 -82l-37 -70l-38 17l30 84c-22 7 -36 27 -36 53c0 33 23 55 56 55c34 0 57 -21 57 -55z" />
    <glyph glyph-name="a" unicode="a" horiz-adv-x="648" 
d="M485 497h75v-497h-75v93c-39 -66 -104 -103 -187 -103c-142 0 -244 108 -244 259c0 148 104 257 246 257c82 0 147 -37 185 -102v93zM307 62c102 0 178 78 178 187c0 106 -74 186 -178 186c-100 0 -174 -80 -174 -186c0 -109 72 -187 174 -187z" />
    <glyph glyph-name="aacute" unicode="&#xe1;" horiz-adv-x="648" 
d="M455 702l-169 -133l-39 46l157 146zM485 497h75v-497h-75v93c-39 -66 -104 -103 -187 -103c-142 0 -244 108 -244 259c0 148 104 257 246 257c82 0 147 -37 185 -102v93zM307 62c102 0 178 78 178 187c0 106 -74 186 -178 186c-100 0 -174 -80 -174 -186
c0 -109 72 -187 174 -187z" />
    <glyph glyph-name="abreve" unicode="&#x103;" horiz-adv-x="648" 
d="M315 581c-136 0 -163 142 -163 142h70s16 -81 93 -81c76 0 93 81 93 81h70s-27 -142 -163 -142zM485 497h75v-497h-75v93c-39 -66 -104 -103 -187 -103c-142 0 -244 108 -244 259c0 148 104 257 246 257c82 0 147 -37 185 -102v93zM307 62c102 0 178 78 178 187
c0 106 -74 186 -178 186c-100 0 -174 -80 -174 -186c0 -109 72 -187 174 -187z" />
    <glyph glyph-name="uni1EB7" unicode="&#x1eb7;" horiz-adv-x="648" 
d="M315 581c-136 0 -163 142 -163 142h70s16 -81 93 -81c76 0 93 81 93 81h70s-27 -142 -163 -142zM485 497h75v-497h-75v93c-39 -66 -104 -103 -187 -103c-142 0 -244 108 -244 259c0 148 104 257 246 257c82 0 147 -37 185 -102v93zM307 62c102 0 178 78 178 187
c0 106 -74 186 -178 186c-100 0 -174 -80 -174 -186c0 -109 72 -187 174 -187zM307 -85c33 0 56 -23 56 -55s-24 -56 -56 -56c-33 0 -57 23 -57 56c0 32 24 55 57 55z" />
    <glyph glyph-name="uni01CE" unicode="&#x1ce;" horiz-adv-x="648" 
d="M356 593h-82l-123 124h94l70 -74l71 74h93zM485 497h75v-497h-75v93c-39 -66 -104 -103 -187 -103c-142 0 -244 108 -244 259c0 148 104 257 246 257c82 0 147 -37 185 -102v93zM307 62c102 0 178 78 178 187c0 106 -74 186 -178 186c-100 0 -174 -80 -174 -186
c0 -109 72 -187 174 -187z" />
    <glyph glyph-name="acircumflex" unicode="&#xe2;" horiz-adv-x="648" 
d="M320 669l-70 -74h-94l123 124h82l123 -124h-93zM485 497h75v-497h-75v93c-39 -66 -104 -103 -187 -103c-142 0 -244 108 -244 259c0 148 104 257 246 257c82 0 147 -37 185 -102v93zM307 62c102 0 178 78 178 187c0 106 -74 186 -178 186c-100 0 -174 -80 -174 -186
c0 -109 72 -187 174 -187z" />
    <glyph glyph-name="uni1EAD" unicode="&#x1ead;" horiz-adv-x="648" 
d="M320 669l-70 -74h-94l123 124h82l123 -124h-93zM485 497h75v-497h-75v93c-39 -66 -104 -103 -187 -103c-142 0 -244 108 -244 259c0 148 104 257 246 257c82 0 147 -37 185 -102v93zM307 62c102 0 178 78 178 187c0 106 -74 186 -178 186c-100 0 -174 -80 -174 -186
c0 -109 72 -187 174 -187zM307 -85c33 0 56 -23 56 -55s-24 -56 -56 -56c-33 0 -57 23 -57 56c0 32 24 55 57 55z" />
    <glyph glyph-name="uni0201" unicode="&#x201;" horiz-adv-x="648" 
d="M348 750l-99 -190l-55 26l83 197zM512 750l-99 -190l-55 26l83 197zM485 497h75v-497h-75v93c-39 -66 -104 -103 -187 -103c-142 0 -244 108 -244 259c0 148 104 257 246 257c82 0 147 -37 185 -102v93zM307 62c102 0 178 78 178 187c0 106 -74 186 -178 186
c-100 0 -174 -80 -174 -186c0 -109 72 -187 174 -187z" />
    <glyph glyph-name="adieresis" unicode="&#xe4;" horiz-adv-x="648" 
d="M223 602c-32 0 -55 23 -55 55s23 54 55 54s55 -21 55 -54c0 -32 -23 -55 -55 -55zM408 602c-32 0 -55 22 -55 55c0 32 23 54 55 54c31 0 54 -22 54 -54s-23 -55 -54 -55zM485 497h75v-497h-75v93c-39 -66 -104 -103 -187 -103c-142 0 -244 108 -244 259
c0 148 104 257 246 257c82 0 147 -37 185 -102v93zM307 62c102 0 178 78 178 187c0 106 -74 186 -178 186c-100 0 -174 -80 -174 -186c0 -109 72 -187 174 -187z" />
    <glyph glyph-name="uni1EA1" unicode="&#x1ea1;" horiz-adv-x="648" 
d="M485 497h75v-497h-75v93c-39 -66 -104 -103 -187 -103c-142 0 -244 108 -244 259c0 148 104 257 246 257c82 0 147 -37 185 -102v93zM307 62c102 0 178 78 178 187c0 106 -74 186 -178 186c-100 0 -174 -80 -174 -186c0 -109 72 -187 174 -187zM307 -85
c33 0 56 -23 56 -55s-24 -56 -56 -56c-33 0 -57 23 -57 56c0 32 24 55 57 55z" />
    <glyph glyph-name="agrave" unicode="&#xe0;" horiz-adv-x="648" 
d="M384 615l-39 -46l-169 133l51 59zM485 497h75v-497h-75v93c-39 -66 -104 -103 -187 -103c-142 0 -244 108 -244 259c0 148 104 257 246 257c82 0 147 -37 185 -102v93zM307 62c102 0 178 78 178 187c0 106 -74 186 -178 186c-100 0 -174 -80 -174 -186
c0 -109 72 -187 174 -187z" />
    <glyph glyph-name="amacron" unicode="&#x101;" horiz-adv-x="648" 
d="M488 684v-67h-346v67h346zM485 497h75v-497h-75v93c-39 -66 -104 -103 -187 -103c-142 0 -244 108 -244 259c0 148 104 257 246 257c82 0 147 -37 185 -102v93zM307 62c102 0 178 78 178 187c0 106 -74 186 -178 186c-100 0 -174 -80 -174 -186c0 -109 72 -187 174 -187z
" />
    <glyph glyph-name="aogonek" unicode="&#x105;" horiz-adv-x="648" 
d="M582 -143l20 -67s-33 -20 -85 -20c-73 0 -120 44 -120 112c0 66 55 111 88 132v79c-39 -66 -104 -103 -187 -103c-142 0 -244 108 -244 259c0 148 104 257 246 257c82 0 147 -37 185 -102v93h75v-497s-90 -35 -90 -103c0 -33 25 -57 58 -57c34 0 54 17 54 17zM307 62
c102 0 178 78 178 187c0 106 -74 186 -178 186c-100 0 -174 -80 -174 -186c0 -109 72 -187 174 -187z" />
    <glyph glyph-name="aring" unicode="&#xe5;" horiz-adv-x="648" 
d="M315 558c-65 0 -112 46 -112 110c0 65 47 111 112 111s112 -46 112 -111c0 -64 -47 -110 -112 -110zM315 719c-29 0 -49 -21 -49 -51c0 -28 20 -49 49 -49c30 0 52 21 52 49c0 30 -22 51 -52 51zM485 497h75v-497h-75v93c-39 -66 -104 -103 -187 -103
c-142 0 -244 108 -244 259c0 148 104 257 246 257c82 0 147 -37 185 -102v93zM307 62c102 0 178 78 178 187c0 106 -74 186 -178 186c-100 0 -174 -80 -174 -186c0 -109 72 -187 174 -187z" />
    <glyph glyph-name="atilde" unicode="&#xe3;" horiz-adv-x="648" 
d="M234 630c-50 0 -81 -37 -81 -37v71s27 36 86 36c71 0 99 -51 156 -51c50 0 81 38 81 38v-71s-28 -36 -87 -36c-68 0 -97 50 -155 50zM485 497h75v-497h-75v93c-39 -66 -104 -103 -187 -103c-142 0 -244 108 -244 259c0 148 104 257 246 257c82 0 147 -37 185 -102v93z
M307 62c102 0 178 78 178 187c0 106 -74 186 -178 186c-100 0 -174 -80 -174 -186c0 -109 72 -187 174 -187z" />
    <glyph glyph-name="ae" unicode="&#xe6;" horiz-adv-x="1036" 
d="M986 249c0 -15 -2 -30 -2 -30l-412 -1c12 -96 77 -157 173 -157c69 0 118 25 149 77l67 -29c-48 -80 -119 -119 -217 -119c-82 0 -145 37 -183 101v-91h-75v97c-38 -68 -105 -107 -188 -107c-142 0 -243 111 -243 262c0 147 104 254 245 254c83 0 148 -37 186 -102v93h75
v-91c39 64 105 101 191 101c141 0 234 -104 234 -258zM573 287l338 1c-3 89 -67 149 -164 149c-96 0 -161 -58 -174 -150zM308 62c101 0 177 80 177 190c0 106 -74 183 -177 183c-101 0 -174 -78 -174 -183c0 -110 71 -190 174 -190z" />
    <glyph glyph-name="aeacute" unicode="&#x1fd;" horiz-adv-x="1036" 
d="M664 703l-169 -133l-39 46l157 146zM986 249c0 -15 -2 -30 -2 -30l-412 -1c12 -96 77 -157 173 -157c69 0 118 25 149 77l67 -29c-48 -80 -119 -119 -217 -119c-82 0 -145 37 -183 101v-91h-75v97c-38 -68 -105 -107 -188 -107c-142 0 -243 111 -243 262
c0 147 104 254 245 254c83 0 148 -37 186 -102v93h75v-91c39 64 105 101 191 101c141 0 234 -104 234 -258zM573 287l338 1c-3 89 -67 149 -164 149c-96 0 -161 -58 -174 -150zM308 62c101 0 177 80 177 190c0 106 -74 183 -177 183c-101 0 -174 -78 -174 -183
c0 -110 71 -190 174 -190z" />
    <glyph glyph-name="b" unicode="b" horiz-adv-x="657" 
d="M352 506c143 0 243 -107 243 -254c0 -151 -105 -262 -245 -262c-83 0 -148 38 -186 103v-93h-75v747h77v-340c39 63 105 99 186 99zM341 62c101 0 175 80 175 190c0 107 -69 183 -171 183s-181 -78 -181 -183c0 -110 73 -190 177 -190z" />
    <glyph glyph-name="c" unicode="c" horiz-adv-x="567" 
d="M301 -10c-143 0 -249 110 -249 262c0 145 108 254 256 254c92 0 169 -44 214 -124l-70 -29c-31 52 -82 82 -144 82c-103 0 -177 -79 -177 -182c0 -111 73 -189 170 -189c74 0 124 29 157 89l69 -30c-46 -87 -121 -133 -226 -133z" />
    <glyph glyph-name="cacute" unicode="&#x107;" horiz-adv-x="567" 
d="M240 617l157 146l51 -59l-169 -133zM301 -10c-143 0 -249 110 -249 262c0 145 108 254 256 254c92 0 169 -44 214 -124l-70 -29c-31 52 -82 82 -144 82c-103 0 -177 -79 -177 -182c0 -111 73 -189 170 -189c74 0 124 29 157 89l69 -30c-46 -87 -121 -133 -226 -133z" />
    <glyph glyph-name="ccaron" unicode="&#x10d;" horiz-adv-x="567" 
d="M267 595l-123 124h94l70 -74l71 74h93l-123 -124h-82zM301 -10c-143 0 -249 110 -249 262c0 145 108 254 256 254c92 0 169 -44 214 -124l-70 -29c-31 52 -82 82 -144 82c-103 0 -177 -79 -177 -182c0 -111 73 -189 170 -189c74 0 124 29 157 89l69 -30
c-46 -87 -121 -133 -226 -133z" />
    <glyph glyph-name="ccedilla" unicode="&#xe7;" horiz-adv-x="567" 
d="M527 123c-42 -80 -108 -125 -200 -132l-3 -25h4c51 0 91 -38 91 -91c0 -64 -52 -105 -128 -105c-69 0 -105 36 -105 36l34 55s23 -25 70 -25c34 0 57 16 57 42c0 25 -19 41 -52 41c-23 0 -38 -6 -38 -6l10 79c-125 16 -215 120 -215 260c0 145 108 254 256 254
c92 0 169 -44 214 -124l-70 -29c-31 52 -82 82 -144 82c-103 0 -177 -79 -177 -182c0 -111 73 -189 170 -189c74 0 124 29 157 89z" />
    <glyph glyph-name="ccircumflex" unicode="&#x109;" horiz-adv-x="567" 
d="M272 721h82l123 -124h-93l-71 74l-70 -74h-94zM301 -10c-143 0 -249 110 -249 262c0 145 108 254 256 254c92 0 169 -44 214 -124l-70 -29c-31 52 -82 82 -144 82c-103 0 -177 -79 -177 -182c0 -111 73 -189 170 -189c74 0 124 29 157 89l69 -30
c-46 -87 -121 -133 -226 -133z" />
    <glyph glyph-name="cdotaccent" unicode="&#x10b;" horiz-adv-x="567" 
d="M308 603c-33 0 -57 23 -57 56c0 32 24 55 57 55s56 -23 56 -55s-24 -56 -56 -56zM301 -10c-143 0 -249 110 -249 262c0 145 108 254 256 254c92 0 169 -44 214 -124l-70 -29c-31 52 -82 82 -144 82c-103 0 -177 -79 -177 -182c0 -111 73 -189 170 -189
c74 0 124 29 157 89l69 -30c-46 -87 -121 -133 -226 -133z" />
    <glyph glyph-name="d" unicode="d" horiz-adv-x="649" 
d="M483 747h77v-747h-75v93c-39 -66 -104 -103 -187 -103c-142 0 -244 108 -244 259c0 149 105 257 246 257c81 0 145 -36 183 -98v339zM307 62c102 0 178 78 178 187c0 106 -74 186 -178 186c-100 0 -173 -77 -173 -186s71 -187 173 -187z" />
    <glyph glyph-name="eth" unicode="&#xf0;" horiz-adv-x="615" 
d="M475 475c60 -94 84 -166 84 -234c0 -145 -107 -250 -253 -250c-148 0 -253 104 -253 250c0 140 108 243 253 243c34 0 69 -11 101 -30l-73 108l-131 -35l-16 61l109 29l-67 100l66 39l76 -119l132 36l17 -62l-113 -30zM306 63c101 0 174 74 174 178
c0 100 -74 171 -174 171c-101 0 -174 -71 -174 -171c0 -105 71 -178 174 -178z" />
    <glyph glyph-name="dcaron" unicode="&#x10f;" horiz-adv-x="731" 
d="M483 408v339h77v-747h-75v93c-39 -66 -104 -103 -187 -103c-142 0 -244 108 -244 259c0 149 105 257 246 257c81 0 145 -36 183 -98zM760 680v-1c-1 -23 -11 -42 -32 -82l-37 -70l-38 17l30 84c-22 7 -36 27 -36 53c0 33 23 55 56 55c34 0 57 -21 57 -55v-1zM307 62
c102 0 178 78 178 187c0 106 -74 186 -178 186c-100 0 -173 -77 -173 -186s71 -187 173 -187z" />
    <glyph glyph-name="dcroat" unicode="&#x111;" horiz-adv-x="646" 
d="M637 631v-63h-77v-568h-74v95c-38 -67 -105 -105 -188 -105c-142 0 -243 108 -243 259c0 149 104 257 245 257c81 0 145 -36 183 -98v160h-173v63h173v116h77v-116h77zM308 62c101 0 178 78 178 187c0 106 -75 186 -178 186c-101 0 -174 -77 -174 -186s71 -187 174 -187z
" />
    <glyph glyph-name="uni1E0D" unicode="&#x1e0d;" horiz-adv-x="649" 
d="M483 747h77v-747h-75v93c-39 -66 -104 -103 -187 -103c-142 0 -244 108 -244 259c0 149 105 257 246 257c81 0 145 -36 183 -98v339zM307 62c102 0 178 78 178 187c0 106 -74 186 -178 186c-100 0 -173 -77 -173 -186s71 -187 173 -187zM307 -85c33 0 56 -23 56 -55
s-24 -56 -56 -56c-33 0 -57 23 -57 56c0 32 24 55 57 55z" />
    <glyph glyph-name="uni01F3" unicode="&#x1f3;" horiz-adv-x="1136" 
d="M483 408v339h77v-747h-75v93c-39 -66 -104 -103 -187 -103c-142 0 -244 108 -244 259c0 149 105 257 246 257c81 0 145 -36 183 -98zM794 72h298v-72h-403v65l294 361h-287v71h392v-62zM307 62c102 0 178 78 178 187c0 106 -74 186 -178 186c-100 0 -173 -77 -173 -186
s71 -187 173 -187z" />
    <glyph glyph-name="uni01C6" unicode="&#x1c6;" horiz-adv-x="1136" 
d="M483 408v339h77v-747h-75v93c-39 -66 -104 -103 -187 -103c-142 0 -244 108 -244 259c0 149 105 257 246 257c81 0 145 -36 183 -98zM933 595h-82l-123 124h94l70 -74l71 74h93zM794 72h298v-72h-403v65l294 361h-287v71h392v-62zM307 62c102 0 178 78 178 187
c0 106 -74 186 -178 186c-100 0 -173 -77 -173 -186s71 -187 173 -187z" />
    <glyph glyph-name="e" unicode="e" horiz-adv-x="599" 
d="M548 249c0 -15 -2 -30 -2 -30l-412 -1c12 -96 77 -157 173 -157c69 0 118 25 149 77l67 -29c-48 -80 -121 -119 -221 -119c-144 0 -247 110 -247 261c0 148 106 255 255 255c143 0 238 -103 238 -257zM135 287l338 1c-3 89 -67 148 -164 148c-96 0 -161 -57 -174 -149z
" />
    <glyph glyph-name="eacute" unicode="&#xe9;" horiz-adv-x="599" 
d="M450 704l-169 -133l-39 46l157 146zM548 249c0 -15 -2 -30 -2 -30l-412 -1c12 -96 77 -157 173 -157c69 0 118 25 149 77l67 -29c-48 -80 -121 -119 -221 -119c-144 0 -247 110 -247 261c0 148 106 255 255 255c143 0 238 -103 238 -257zM135 287l338 1
c-3 89 -67 148 -164 148c-96 0 -161 -57 -174 -149z" />
    <glyph glyph-name="ebreve" unicode="&#x115;" horiz-adv-x="599" 
d="M310 583c-136 0 -163 142 -163 142h70s16 -81 93 -81c76 0 93 81 93 81h70s-27 -142 -163 -142zM548 249c0 -15 -2 -30 -2 -30l-412 -1c12 -96 77 -157 173 -157c69 0 118 25 149 77l67 -29c-48 -80 -121 -119 -221 -119c-144 0 -247 110 -247 261c0 148 106 255 255 255
c143 0 238 -103 238 -257zM135 287l338 1c-3 89 -67 148 -164 148c-96 0 -161 -57 -174 -149z" />
    <glyph glyph-name="ecaron" unicode="&#x11b;" horiz-adv-x="599" 
d="M351 595h-82l-123 124h94l70 -74l71 74h93zM548 249c0 -15 -2 -30 -2 -30l-412 -1c12 -96 77 -157 173 -157c69 0 118 25 149 77l67 -29c-48 -80 -121 -119 -221 -119c-144 0 -247 110 -247 261c0 148 106 255 255 255c143 0 238 -103 238 -257zM135 287l338 1
c-3 89 -67 148 -164 148c-96 0 -161 -57 -174 -149z" />
    <glyph glyph-name="ecircumflex" unicode="&#xea;" horiz-adv-x="599" 
d="M315 671l-70 -74h-94l123 124h82l123 -124h-93zM548 249c0 -15 -2 -30 -2 -30l-412 -1c12 -96 77 -157 173 -157c69 0 118 25 149 77l67 -29c-48 -80 -121 -119 -221 -119c-144 0 -247 110 -247 261c0 148 106 255 255 255c143 0 238 -103 238 -257zM135 287l338 1
c-3 89 -67 148 -164 148c-96 0 -161 -57 -174 -149z" />
    <glyph glyph-name="uni1EC7" unicode="&#x1ec7;" horiz-adv-x="599" 
d="M315 671l-70 -74h-94l123 124h82l123 -124h-93zM548 249c0 -15 -2 -30 -2 -30l-412 -1c12 -96 77 -157 173 -157c69 0 118 25 149 77l67 -29c-48 -80 -121 -119 -221 -119c-144 0 -247 110 -247 261c0 148 106 255 255 255c143 0 238 -103 238 -257zM135 287l338 1
c-3 89 -67 148 -164 148c-96 0 -161 -57 -174 -149zM302 -85c33 0 56 -23 56 -55s-24 -56 -56 -56c-33 0 -57 23 -57 56c0 32 24 55 57 55z" />
    <glyph glyph-name="uni0205" unicode="&#x205;" horiz-adv-x="599" 
d="M343 752l-99 -190l-55 26l83 197zM507 752l-99 -190l-55 26l83 197zM548 249c0 -15 -2 -30 -2 -30l-412 -1c12 -96 77 -157 173 -157c69 0 118 25 149 77l67 -29c-48 -80 -121 -119 -221 -119c-144 0 -247 110 -247 261c0 148 106 255 255 255c143 0 238 -103 238 -257z
M135 287l338 1c-3 89 -67 148 -164 148c-96 0 -161 -57 -174 -149z" />
    <glyph glyph-name="edieresis" unicode="&#xeb;" horiz-adv-x="599" 
d="M218 604c-32 0 -55 23 -55 55s23 54 55 54s55 -21 55 -54c0 -32 -23 -55 -55 -55zM403 604c-32 0 -55 22 -55 55c0 32 23 54 55 54c31 0 54 -22 54 -54s-23 -55 -54 -55zM548 249c0 -15 -2 -30 -2 -30l-412 -1c12 -96 77 -157 173 -157c69 0 118 25 149 77l67 -29
c-48 -80 -121 -119 -221 -119c-144 0 -247 110 -247 261c0 148 106 255 255 255c143 0 238 -103 238 -257zM135 287l338 1c-3 89 -67 148 -164 148c-96 0 -161 -57 -174 -149z" />
    <glyph glyph-name="edotaccent" unicode="&#x117;" horiz-adv-x="599" 
d="M310 603c-33 0 -57 23 -57 56c0 32 24 55 57 55s56 -23 56 -55s-24 -56 -56 -56zM548 249c0 -15 -2 -30 -2 -30l-412 -1c12 -96 77 -157 173 -157c69 0 118 25 149 77l67 -29c-48 -80 -121 -119 -221 -119c-144 0 -247 110 -247 261c0 148 106 255 255 255
c143 0 238 -103 238 -257zM135 287l338 1c-3 89 -67 148 -164 148c-96 0 -161 -57 -174 -149z" />
    <glyph glyph-name="uni1EB9" unicode="&#x1eb9;" horiz-adv-x="599" 
d="M548 249c0 -15 -2 -30 -2 -30l-412 -1c12 -96 77 -157 173 -157c69 0 118 25 149 77l67 -29c-48 -80 -121 -119 -221 -119c-144 0 -247 110 -247 261c0 148 106 255 255 255c143 0 238 -103 238 -257zM135 287l338 1c-3 89 -67 148 -164 148c-96 0 -161 -57 -174 -149z
M302 -85c33 0 56 -23 56 -55s-24 -56 -56 -56c-33 0 -57 23 -57 56c0 32 24 55 57 55z" />
    <glyph glyph-name="egrave" unicode="&#xe8;" horiz-adv-x="599" 
d="M379 617l-39 -46l-169 133l51 59zM548 249c0 -15 -2 -30 -2 -30l-412 -1c12 -96 77 -157 173 -157c69 0 118 25 149 77l67 -29c-48 -80 -121 -119 -221 -119c-144 0 -247 110 -247 261c0 148 106 255 255 255c143 0 238 -103 238 -257zM135 287l338 1
c-3 89 -67 148 -164 148c-96 0 -161 -57 -174 -149z" />
    <glyph glyph-name="emacron" unicode="&#x113;" horiz-adv-x="599" 
d="M483 686v-67h-346v67h346zM548 249c0 -15 -2 -30 -2 -30l-412 -1c12 -96 77 -157 173 -157c69 0 118 25 149 77l67 -29c-48 -80 -121 -119 -221 -119c-144 0 -247 110 -247 261c0 148 106 255 255 255c143 0 238 -103 238 -257zM135 287l338 1c-3 89 -67 148 -164 148
c-96 0 -161 -57 -174 -149z" />
    <glyph glyph-name="eogonek" unicode="&#x119;" horiz-adv-x="599" 
d="M548 249c0 -15 -2 -30 -2 -30l-412 -1c12 -96 77 -157 173 -157c69 0 118 25 149 77l67 -29c-33 -55 -77 -90 -134 -107c-27 -15 -71 -46 -71 -94c0 -33 25 -57 58 -57c34 0 54 17 54 17l20 -67s-33 -20 -85 -20c-73 0 -120 44 -120 112c0 40 21 73 44 97
c-137 6 -234 114 -234 261c0 148 106 255 255 255c143 0 238 -103 238 -257zM135 287l338 1c-3 89 -67 148 -164 148c-96 0 -161 -57 -174 -149z" />
    <glyph glyph-name="uni1EBD" unicode="&#x1ebd;" horiz-adv-x="599" 
d="M229 632c-50 0 -81 -37 -81 -37v71s27 36 86 36c71 0 99 -51 156 -51c50 0 81 38 81 38v-71s-28 -36 -87 -36c-68 0 -97 50 -155 50zM548 249c0 -15 -2 -30 -2 -30l-412 -1c12 -96 77 -157 173 -157c69 0 118 25 149 77l67 -29c-48 -80 -121 -119 -221 -119
c-144 0 -247 110 -247 261c0 148 106 255 255 255c143 0 238 -103 238 -257zM135 287l338 1c-3 89 -67 148 -164 148c-96 0 -161 -57 -174 -149z" />
    <glyph glyph-name="f" unicode="f" horiz-adv-x="430" 
d="M304 686c-63 0 -99 -38 -99 -106v-83h194v-69h-194v-428h-78v428h-96v69h96v86c0 106 66 173 170 173c86 0 133 -46 133 -46l-31 -64s-39 40 -95 40z" />
    <glyph glyph-name="g" unicode="g" horiz-adv-x="631" 
d="M472 497h75v-483c0 -154 -91 -240 -241 -240c-121 0 -208 65 -232 172l75 10c15 -70 74 -113 156 -113c106 0 167 62 167 171v95c-39 -63 -105 -97 -187 -97c-142 0 -233 98 -233 248c0 145 97 247 237 247c81 0 145 -34 183 -95v85zM295 82c99 0 177 70 177 178
c0 104 -75 177 -177 177c-100 0 -164 -73 -164 -177c0 -109 62 -178 164 -178z" />
    <glyph glyph-name="uni01F5" unicode="&#x1f5;" horiz-adv-x="631" 
d="M440 703l-169 -133l-39 46l157 146zM472 497h75v-483c0 -154 -91 -240 -241 -240c-121 0 -208 65 -232 172l75 10c15 -70 74 -113 156 -113c106 0 167 62 167 171v95c-39 -63 -105 -97 -187 -97c-142 0 -233 98 -233 248c0 145 97 247 237 247c81 0 145 -34 183 -95v85z
M295 82c99 0 177 70 177 178c0 104 -75 177 -177 177c-100 0 -164 -73 -164 -177c0 -109 62 -178 164 -178z" />
    <glyph glyph-name="gbreve" unicode="&#x11f;" horiz-adv-x="631" 
d="M300 582c-136 0 -163 142 -163 142h70s16 -81 93 -81c76 0 93 81 93 81h70s-27 -142 -163 -142zM472 497h75v-483c0 -154 -91 -240 -241 -240c-121 0 -208 65 -232 172l75 10c15 -70 74 -113 156 -113c106 0 167 62 167 171v95c-39 -63 -105 -97 -187 -97
c-142 0 -233 98 -233 248c0 145 97 247 237 247c81 0 145 -34 183 -95v85zM295 82c99 0 177 70 177 178c0 104 -75 177 -177 177c-100 0 -164 -73 -164 -177c0 -109 62 -178 164 -178z" />
    <glyph glyph-name="gcircumflex" unicode="&#x11d;" horiz-adv-x="631" 
d="M305 670l-70 -74h-94l123 124h82l123 -124h-93zM472 497h75v-483c0 -154 -91 -240 -241 -240c-121 0 -208 65 -232 172l75 10c15 -70 74 -113 156 -113c106 0 167 62 167 171v95c-39 -63 -105 -97 -187 -97c-142 0 -233 98 -233 248c0 145 97 247 237 247
c81 0 145 -34 183 -95v85zM295 82c99 0 177 70 177 178c0 104 -75 177 -177 177c-100 0 -164 -73 -164 -177c0 -109 62 -178 164 -178z" />
    <glyph glyph-name="gcommaaccent" unicode="&#x123;" horiz-adv-x="631" 
d="M243 622v1v1c1 23 11 42 32 82l37 70l38 -17l-30 -84c22 -7 36 -27 36 -53c0 -33 -23 -55 -56 -55c-34 0 -57 21 -57 55zM472 497h75v-483c0 -154 -91 -240 -241 -240c-121 0 -208 65 -232 172l75 10c15 -70 74 -113 156 -113c106 0 167 62 167 171v95
c-39 -63 -105 -97 -187 -97c-142 0 -233 98 -233 248c0 145 97 247 237 247c81 0 145 -34 183 -95v85zM295 82c99 0 177 70 177 178c0 104 -75 177 -177 177c-100 0 -164 -73 -164 -177c0 -109 62 -178 164 -178z" />
    <glyph glyph-name="gdotaccent" unicode="&#x121;" horiz-adv-x="631" 
d="M300 602c-33 0 -57 23 -57 56c0 32 24 55 57 55s56 -23 56 -55s-24 -56 -56 -56zM472 497h75v-483c0 -154 -91 -240 -241 -240c-121 0 -208 65 -232 172l75 10c15 -70 74 -113 156 -113c106 0 167 62 167 171v95c-39 -63 -105 -97 -187 -97c-142 0 -233 98 -233 248
c0 145 97 247 237 247c81 0 145 -34 183 -95v85zM295 82c99 0 177 70 177 178c0 104 -75 177 -177 177c-100 0 -164 -73 -164 -177c0 -109 62 -178 164 -178z" />
    <glyph glyph-name="h" unicode="h" horiz-adv-x="623" 
d="M89 0v747h77v-337c35 63 97 97 179 97c123 0 200 -82 200 -212v-295h-77v284c0 97 -49 151 -136 151c-97 0 -166 -69 -166 -164v-271h-77z" />
    <glyph glyph-name="hbar" unicode="&#x127;" horiz-adv-x="620" 
d="M341 507c124 0 201 -82 201 -212v-295h-77v284c0 97 -49 151 -136 151c-97 0 -166 -69 -166 -164v-271h-78v568h-76v63h76v116h78v-116h173v-63h-173v-158c35 63 97 97 178 97z" />
    <glyph glyph-name="hcircumflex" unicode="&#x125;" horiz-adv-x="623" 
d="M91 970h82l123 -124h-93l-71 74l-70 -74h-94zM89 0v747h77v-337c35 63 97 97 179 97c123 0 200 -82 200 -212v-295h-77v284c0 97 -49 151 -136 151c-97 0 -166 -69 -166 -164v-271h-77z" />
    <glyph glyph-name="uni1E25" unicode="&#x1e25;" horiz-adv-x="623" 
d="M89 0v747h77v-337c35 63 97 97 179 97c123 0 200 -82 200 -212v-295h-77v284c0 97 -49 151 -136 151c-97 0 -166 -69 -166 -164v-271h-77zM312 -196c-33 0 -57 23 -57 56c0 32 24 55 57 55s56 -23 56 -55s-24 -56 -56 -56z" />
    <glyph glyph-name="i" unicode="i" horiz-adv-x="257" 
d="M128 602c-33 0 -57 23 -57 56c0 32 24 55 57 55s56 -23 56 -55s-24 -56 -56 -56zM90 0v497h77v-497h-77z" />
    <glyph glyph-name="dotlessi" unicode="&#x131;" horiz-adv-x="257" 
d="M90 0v497h77v-497h-77z" />
    <glyph glyph-name="iacute" unicode="&#xed;" horiz-adv-x="257" 
d="M60 616l157 146l51 -59l-169 -133zM90 0v497h77v-497h-77z" />
    <glyph glyph-name="ibreve" unicode="&#x12d;" horiz-adv-x="257" 
d="M128 582c-136 0 -163 142 -163 142h70s16 -81 93 -81c76 0 93 81 93 81h70s-27 -142 -163 -142zM90 0v497h77v-497h-77z" />
    <glyph glyph-name="uni01D0" unicode="&#x1d0;" horiz-adv-x="257" 
d="M87 594l-123 124h94l70 -74l71 74h93l-123 -124h-82zM90 0v497h77v-497h-77z" />
    <glyph glyph-name="icircumflex" unicode="&#xee;" horiz-adv-x="257" 
d="M92 720h82l123 -124h-93l-71 74l-70 -74h-94zM90 0v497h77v-497h-77z" />
    <glyph glyph-name="uni0209" unicode="&#x209;" horiz-adv-x="257" 
d="M7 587l83 197l71 -33l-99 -190zM171 587l83 197l71 -33l-99 -190zM90 0v497h77v-497h-77z" />
    <glyph glyph-name="idieresis" unicode="&#xef;" horiz-adv-x="257" 
d="M36 603c-32 0 -55 23 -55 55s23 54 55 54s55 -21 55 -54c0 -32 -23 -55 -55 -55zM221 603c-32 0 -55 22 -55 55c0 32 23 54 55 54c31 0 54 -22 54 -54s-23 -55 -54 -55zM90 0v497h77v-497h-77z" />
    <glyph glyph-name="i.loclTRK" horiz-adv-x="257" 
d="M128 602c-33 0 -57 23 -57 56c0 32 24 55 57 55s56 -23 56 -55s-24 -56 -56 -56zM90 0v497h77v-497h-77z" />
    <glyph glyph-name="uni1ECB" unicode="&#x1ecb;" horiz-adv-x="257" 
d="M128 602c-33 0 -57 23 -57 56c0 32 24 55 57 55s56 -23 56 -55s-24 -56 -56 -56zM90 0v497h77v-497h-77zM128 -196c-33 0 -57 23 -57 56c0 32 24 55 57 55s56 -23 56 -55s-24 -56 -56 -56z" />
    <glyph glyph-name="igrave" unicode="&#xec;" horiz-adv-x="257" 
d="M197 616l-39 -46l-169 133l51 59zM90 0v497h77v-497h-77z" />
    <glyph glyph-name="ij" unicode="&#x133;" horiz-adv-x="514" 
d="M385 603c-33 0 -57 23 -57 56c0 32 24 55 57 55s56 -23 56 -55s-24 -56 -56 -56zM128 602c-33 0 -57 23 -57 56c0 32 24 55 57 55s56 -23 56 -55s-24 -56 -56 -56zM90 0v497h77v-497h-77zM261 -231c-17 0 -29 2 -29 2l6 67h13c66 0 96 35 96 103v556h77v-554
c0 -112 -55 -174 -163 -174z" />
    <glyph glyph-name="imacron" unicode="&#x12b;" horiz-adv-x="257" 
d="M-45 618v67h346v-67h-346zM90 0v497h77v-497h-77z" />
    <glyph glyph-name="iogonek" unicode="&#x12f;" horiz-adv-x="257" 
d="M128 602c-33 0 -57 23 -57 56c0 32 24 55 57 55s56 -23 56 -55s-24 -56 -56 -56zM189 -143l20 -67s-33 -20 -85 -20c-73 0 -120 44 -120 112c0 65 53 109 86 131v484h77v-497s-90 -35 -90 -103c0 -33 25 -57 58 -57c34 0 54 17 54 17z" />
    <glyph glyph-name="itilde" unicode="&#x129;" horiz-adv-x="257" 
d="M289 688v-71s-28 -36 -87 -36c-68 0 -97 50 -155 50c-50 0 -81 -37 -81 -37v71s27 36 86 36c71 0 99 -51 156 -51c50 0 81 38 81 38zM90 0v497h77v-497h-77z" />
    <glyph glyph-name="j" unicode="j" horiz-adv-x="257" 
d="M128 603c-33 0 -57 23 -57 56c0 32 24 55 57 55s56 -23 56 -55s-24 -56 -56 -56zM4 -231c-17 0 -29 2 -29 2l6 67h13c66 0 96 35 96 103v556h77v-554c0 -112 -55 -174 -163 -174z" />
    <glyph glyph-name="uni0237" unicode="&#x237;" horiz-adv-x="257" 
d="M4 -231c-17 0 -29 2 -29 2l6 67h13c66 0 96 35 96 103v556h77v-554c0 -112 -55 -174 -163 -174z" />
    <glyph glyph-name="jcircumflex" unicode="&#x135;" horiz-adv-x="257" 
d="M92 721h82l123 -124h-93l-71 74l-70 -74h-94zM4 -231c-17 0 -29 2 -29 2l6 67h13c66 0 96 35 96 103v556h77v-554c0 -112 -55 -174 -163 -174z" />
    <glyph glyph-name="k" unicode="k" horiz-adv-x="568" 
d="M544 0h-94l-146 214l-151 -214h-63v747h77v-573l-4 -51l28 50l226 324h95l-163 -222z" />
    <glyph glyph-name="kcommaaccent" unicode="&#x137;" horiz-adv-x="568" 
d="M349 275l195 -275h-94l-146 214l-151 -214h-63v747h77v-573l-4 -51l28 50l226 324h95zM374 -112v-1v-1c-1 -23 -11 -42 -32 -82l-37 -70l-38 17l30 84c-22 7 -36 27 -36 53c0 33 23 55 56 55c34 0 57 -21 57 -55z" />
    <glyph glyph-name="kgreenlandic" unicode="&#x138;" horiz-adv-x="568" 
d="M544 0h-94l-144 213l-153 -213h-63v497h77v-323l-4 -51l28 50l226 324h95l-161 -223z" />
    <glyph glyph-name="l" unicode="l" horiz-adv-x="255" 
d="M89 0v747h77v-747h-77z" />
    <glyph glyph-name="lacute" unicode="&#x13a;" horiz-adv-x="255" 
d="M59 866l157 146l51 -59l-169 -133zM89 0v747h77v-747h-77z" />
    <glyph glyph-name="lcaron" unicode="&#x13e;" horiz-adv-x="338" 
d="M89 0v747h77v-747h-77zM364 680v-1c-1 -23 -11 -42 -32 -82l-37 -70l-38 17l30 84c-22 7 -36 27 -36 53c0 33 23 55 56 55c34 0 57 -21 57 -55v-1z" />
    <glyph glyph-name="lcommaaccent" unicode="&#x13c;" horiz-adv-x="255" 
d="M166 747v-747h-77v747h77zM184 -113v-1c-1 -23 -11 -42 -32 -82l-37 -70l-38 17l30 84c-22 7 -36 27 -36 53c0 33 23 55 56 55c34 0 57 -21 57 -55v-1z" />
    <glyph glyph-name="ldot" unicode="&#x140;" horiz-adv-x="436" 
d="M89 0v747h77v-747h-77zM342 299c-38 0 -66 27 -66 67c0 38 29 66 66 66c40 0 67 -27 67 -66s-28 -67 -67 -67z" />
    <glyph glyph-name="uni01C9" unicode="&#x1c9;" horiz-adv-x="512" 
d="M89 0v747h77v-747h-77zM383 603c-33 0 -57 23 -57 56c0 32 24 55 57 55s56 -23 56 -55s-24 -56 -56 -56zM259 -231c-17 0 -29 2 -29 2l6 67h13c66 0 96 35 96 103v556h77v-554c0 -112 -55 -174 -163 -174z" />
    <glyph glyph-name="lslash" unicode="&#x142;" horiz-adv-x="344" 
d="M310 475v-78l-98 -51v-346h-78v305l-96 -50v78l96 50v364h78v-323z" />
    <glyph glyph-name="m" unicode="m" horiz-adv-x="950" 
d="M686 507c114 0 186 -82 186 -212v-295h-77v284c0 96 -45 149 -123 149c-98 0 -153 -67 -153 -162v-271h-77v284c0 96 -45 149 -123 149c-98 0 -153 -67 -153 -162v-271h-77v497h75v-93c33 67 92 103 169 103c80 0 138 -38 166 -111c37 75 105 111 187 111z" />
    <glyph glyph-name="n" unicode="n" horiz-adv-x="621" 
d="M89 0v497h75v-91c35 66 97 101 180 101c122 0 199 -82 199 -212v-295h-77v284c0 97 -49 149 -135 149c-99 0 -165 -67 -165 -162v-271h-77z" />
    <glyph glyph-name="nacute" unicode="&#x144;" horiz-adv-x="621" 
d="M243 617l157 146l51 -59l-169 -133zM89 0v497h75v-91c35 66 97 101 180 101c122 0 199 -82 199 -212v-295h-77v284c0 97 -49 149 -135 149c-99 0 -165 -67 -165 -162v-271h-77z" />
    <glyph glyph-name="napostrophe" unicode="&#x149;" horiz-adv-x="750" 
d="M159 675v-1v-1c-1 -24 -11 -44 -31 -83l-50 -98l-38 16l38 106c-26 7 -44 30 -44 60c0 36 26 63 63 63s62 -26 62 -62zM473 507c122 0 199 -82 199 -212v-295h-77v284c0 97 -49 149 -135 149c-99 0 -165 -67 -165 -162v-271h-77v497h75v-91c35 66 97 101 180 101z" />
    <glyph glyph-name="ncaron" unicode="&#x148;" horiz-adv-x="621" 
d="M270 595l-123 124h94l70 -74l71 74h93l-123 -124h-82zM89 0v497h75v-91c35 66 97 101 180 101c122 0 199 -82 199 -212v-295h-77v284c0 97 -49 149 -135 149c-99 0 -165 -67 -165 -162v-271h-77z" />
    <glyph glyph-name="ncommaaccent" unicode="&#x146;" horiz-adv-x="621" 
d="M344 507c122 0 199 -82 199 -212v-295h-77v284c0 97 -49 149 -135 149c-99 0 -165 -67 -165 -162v-271h-77v497h75v-91c35 66 97 101 180 101zM368 -112v-1v-1c-1 -23 -11 -42 -32 -82l-37 -70l-38 17l30 84c-22 7 -36 27 -36 53c0 33 23 55 56 55c34 0 57 -21 57 -55z
" />
    <glyph glyph-name="uni1E45" unicode="&#x1e45;" horiz-adv-x="621" 
d="M311 603c-33 0 -57 23 -57 56c0 32 24 55 57 55s56 -23 56 -55s-24 -56 -56 -56zM89 0v497h75v-91c35 66 97 101 180 101c122 0 199 -82 199 -212v-295h-77v284c0 97 -49 149 -135 149c-99 0 -165 -67 -165 -162v-271h-77z" />
    <glyph glyph-name="eng" unicode="&#x14b;" horiz-adv-x="622" 
d="M380 -231c-17 0 -28 2 -28 2l6 67h12c66 0 96 34 96 103v343c0 97 -49 149 -135 149c-99 0 -165 -67 -165 -162v-271h-77v497h75v-91c34 66 96 101 180 101c122 0 199 -82 199 -212v-352c0 -112 -55 -174 -163 -174z" />
    <glyph glyph-name="uni01CC" unicode="&#x1cc;" horiz-adv-x="878" 
d="M749 603c-33 0 -57 23 -57 56c0 32 24 55 57 55s56 -23 56 -55s-24 -56 -56 -56zM89 0v497h75v-91c35 66 97 101 180 101c122 0 199 -82 199 -212v-295h-77v284c0 97 -49 149 -135 149c-99 0 -165 -67 -165 -162v-271h-77zM625 -231c-17 0 -29 2 -29 2l6 67h13
c66 0 96 35 96 103v556h77v-554c0 -112 -55 -174 -163 -174z" />
    <glyph glyph-name="ntilde" unicode="&#xf1;" horiz-adv-x="621" 
d="M472 689v-71s-28 -36 -87 -36c-68 0 -97 50 -155 50c-50 0 -81 -37 -81 -37v71s27 36 86 36c71 0 99 -51 156 -51c50 0 81 38 81 38zM89 0v497h75v-91c35 66 97 101 180 101c122 0 199 -82 199 -212v-295h-77v284c0 97 -49 149 -135 149c-99 0 -165 -67 -165 -162v-271
h-77z" />
    <glyph glyph-name="o" unicode="o" horiz-adv-x="634" 
d="M317 -10c-155 0 -265 109 -265 258c0 150 111 258 265 258s264 -104 264 -258c0 -147 -111 -258 -264 -258zM317 62c108 0 185 79 185 186c0 112 -75 188 -185 188c-108 0 -186 -79 -186 -188c0 -108 77 -186 186 -186z" />
    <glyph glyph-name="oacute" unicode="&#xf3;" horiz-adv-x="634" 
d="M249 617l157 146l51 -59l-169 -133zM317 -10c-155 0 -265 109 -265 258c0 150 111 258 265 258s264 -104 264 -258c0 -147 -111 -258 -264 -258zM317 62c108 0 185 79 185 186c0 112 -75 188 -185 188c-108 0 -186 -79 -186 -188c0 -108 77 -186 186 -186z" />
    <glyph glyph-name="obreve" unicode="&#x14f;" horiz-adv-x="634" 
d="M317 583c-136 0 -163 142 -163 142h70s16 -81 93 -81c76 0 93 81 93 81h70s-27 -142 -163 -142zM317 -10c-155 0 -265 109 -265 258c0 150 111 258 265 258s264 -104 264 -258c0 -147 -111 -258 -264 -258zM317 62c108 0 185 79 185 186c0 112 -75 188 -185 188
c-108 0 -186 -79 -186 -188c0 -108 77 -186 186 -186z" />
    <glyph glyph-name="uni01D2" unicode="&#x1d2;" horiz-adv-x="634" 
d="M276 595l-123 124h94l70 -74l71 74h93l-123 -124h-82zM317 -10c-155 0 -265 109 -265 258c0 150 111 258 265 258s264 -104 264 -258c0 -147 -111 -258 -264 -258zM317 62c108 0 185 79 185 186c0 112 -75 188 -185 188c-108 0 -186 -79 -186 -188
c0 -108 77 -186 186 -186z" />
    <glyph glyph-name="ocircumflex" unicode="&#xf4;" horiz-adv-x="634" 
d="M281 721h82l123 -124h-93l-71 74l-70 -74h-94zM317 -10c-155 0 -265 109 -265 258c0 150 111 258 265 258s264 -104 264 -258c0 -147 -111 -258 -264 -258zM317 62c108 0 185 79 185 186c0 112 -75 188 -185 188c-108 0 -186 -79 -186 -188c0 -108 77 -186 186 -186z" />
    <glyph glyph-name="uni1ED9" unicode="&#x1ed9;" horiz-adv-x="634" 
d="M281 721h82l123 -124h-93l-71 74l-70 -74h-94zM317 -10c-155 0 -265 109 -265 258c0 150 111 258 265 258s264 -104 264 -258c0 -147 -111 -258 -264 -258zM317 62c108 0 185 79 185 186c0 112 -75 188 -185 188c-108 0 -186 -79 -186 -188c0 -108 77 -186 186 -186z
M317 -196c-33 0 -57 23 -57 56c0 32 24 55 57 55s56 -23 56 -55s-24 -56 -56 -56z" />
    <glyph glyph-name="uni020D" unicode="&#x20d;" horiz-adv-x="634" 
d="M196 588l83 197l71 -33l-99 -190zM360 588l83 197l71 -33l-99 -190zM317 -10c-155 0 -265 109 -265 258c0 150 111 258 265 258s264 -104 264 -258c0 -147 -111 -258 -264 -258zM317 62c108 0 185 79 185 186c0 112 -75 188 -185 188c-108 0 -186 -79 -186 -188
c0 -108 77 -186 186 -186z" />
    <glyph glyph-name="odieresis" unicode="&#xf6;" horiz-adv-x="634" 
d="M225 604c-32 0 -55 23 -55 55s23 54 55 54s55 -21 55 -54c0 -32 -23 -55 -55 -55zM410 604c-32 0 -55 22 -55 55c0 32 23 54 55 54c31 0 54 -22 54 -54s-23 -55 -54 -55zM317 -10c-155 0 -265 109 -265 258c0 150 111 258 265 258s264 -104 264 -258
c0 -147 -111 -258 -264 -258zM317 62c108 0 185 79 185 186c0 112 -75 188 -185 188c-108 0 -186 -79 -186 -188c0 -108 77 -186 186 -186z" />
    <glyph glyph-name="uni1ECD" unicode="&#x1ecd;" horiz-adv-x="634" 
d="M317 -10c-155 0 -265 109 -265 258c0 150 111 258 265 258s264 -104 264 -258c0 -147 -111 -258 -264 -258zM317 62c108 0 185 79 185 186c0 112 -75 188 -185 188c-108 0 -186 -79 -186 -188c0 -108 77 -186 186 -186zM317 -196c-33 0 -57 23 -57 56c0 32 24 55 57 55
s56 -23 56 -55s-24 -56 -56 -56z" />
    <glyph glyph-name="ograve" unicode="&#xf2;" horiz-adv-x="634" 
d="M386 617l-39 -46l-169 133l51 59zM317 -10c-155 0 -265 109 -265 258c0 150 111 258 265 258s264 -104 264 -258c0 -147 -111 -258 -264 -258zM317 62c108 0 185 79 185 186c0 112 -75 188 -185 188c-108 0 -186 -79 -186 -188c0 -108 77 -186 186 -186z" />
    <glyph glyph-name="ohungarumlaut" unicode="&#x151;" horiz-adv-x="634" 
d="M273 588l-55 -26l-99 190l71 33zM437 588l-55 -26l-99 190l71 33zM317 -10c-155 0 -265 109 -265 258c0 150 111 258 265 258s264 -104 264 -258c0 -147 -111 -258 -264 -258zM317 62c108 0 185 79 185 186c0 112 -75 188 -185 188c-108 0 -186 -79 -186 -188
c0 -108 77 -186 186 -186z" />
    <glyph glyph-name="omacron" unicode="&#x14d;" horiz-adv-x="634" 
d="M144 619v67h346v-67h-346zM317 -10c-155 0 -265 109 -265 258c0 150 111 258 265 258s264 -104 264 -258c0 -147 -111 -258 -264 -258zM317 62c108 0 185 79 185 186c0 112 -75 188 -185 188c-108 0 -186 -79 -186 -188c0 -108 77 -186 186 -186z" />
    <glyph glyph-name="uni01EB" unicode="&#x1eb;" horiz-adv-x="634" 
d="M370 -5c-24 -12 -78 -45 -78 -98c0 -33 25 -57 58 -57c34 0 54 17 54 17l20 -67s-33 -20 -85 -20c-73 0 -120 44 -120 112c0 48 30 86 59 110c-134 17 -226 120 -226 256c0 150 111 258 265 258s264 -104 264 -258c0 -129 -86 -231 -211 -253zM131 248
c0 -108 77 -186 186 -186c108 0 185 79 185 186c0 112 -75 188 -185 188c-108 0 -186 -79 -186 -188z" />
    <glyph glyph-name="oslash" unicode="&#xf8;" horiz-adv-x="628" 
d="M481 454c61 -46 97 -118 97 -206c0 -149 -111 -257 -264 -257c-51 0 -97 12 -135 32l-60 -85l-31 22l59 84c-61 46 -97 118 -97 204c0 150 112 258 264 258c50 0 96 -11 134 -31l60 85l31 -23zM128 248c0 -60 23 -110 61 -144l218 311c-27 14 -58 21 -93 21
c-109 0 -186 -78 -186 -188zM314 61c110 0 187 78 187 187c0 62 -23 113 -62 146l-218 -311c26 -14 58 -22 93 -22z" />
    <glyph glyph-name="oslashacute" unicode="&#x1ff;" horiz-adv-x="628" 
d="M454 704l-169 -133l-39 46l157 146zM481 454c61 -46 97 -118 97 -206c0 -149 -111 -257 -264 -257c-51 0 -97 12 -135 32l-60 -85l-31 22l59 84c-61 46 -97 118 -97 204c0 150 112 258 264 258c50 0 96 -11 134 -31l60 85l31 -23zM128 248c0 -60 23 -110 61 -144l218 311
c-27 14 -58 21 -93 21c-109 0 -186 -78 -186 -188zM314 61c110 0 187 78 187 187c0 62 -23 113 -62 146l-218 -311c26 -14 58 -22 93 -22z" />
    <glyph glyph-name="otilde" unicode="&#xf5;" horiz-adv-x="634" 
d="M478 689v-71s-28 -36 -87 -36c-68 0 -97 50 -155 50c-50 0 -81 -37 -81 -37v71s27 36 86 36c71 0 99 -51 156 -51c50 0 81 38 81 38zM317 -10c-155 0 -265 109 -265 258c0 150 111 258 265 258s264 -104 264 -258c0 -147 -111 -258 -264 -258zM317 62
c108 0 185 79 185 186c0 112 -75 188 -185 188c-108 0 -186 -79 -186 -188c0 -108 77 -186 186 -186z" />
    <glyph glyph-name="oe" unicode="&#x153;" horiz-adv-x="1048" 
d="M997 249c0 -15 -2 -30 -2 -30l-412 -1c12 -96 77 -157 173 -157c69 0 118 25 149 77l67 -29c-47 -80 -121 -119 -221 -119s-174 53 -210 137c-38 -83 -116 -137 -223 -137c-154 0 -264 109 -264 258c0 150 111 258 264 258c108 0 186 -51 223 -134c38 82 115 134 218 134
c143 0 238 -103 238 -257zM318 62c108 0 186 79 186 186c0 112 -76 188 -186 188c-108 0 -185 -79 -185 -188c0 -108 77 -186 185 -186zM584 287l338 1c-3 89 -67 148 -164 148c-96 0 -161 -57 -174 -149z" />
    <glyph glyph-name="p" unicode="p" horiz-adv-x="652" 
d="M350 506c143 0 243 -108 243 -259c0 -148 -105 -257 -246 -257c-79 0 -144 36 -183 97v-309h-77v719h75v-92c39 64 106 101 188 101zM340 62c100 0 173 78 173 185c0 110 -69 188 -172 188c-101 0 -179 -79 -179 -188c0 -106 76 -185 178 -185z" />
    <glyph glyph-name="thorn" unicode="&#xfe;" horiz-adv-x="645" 
d="M350 506c143 0 242 -109 242 -259c0 -149 -104 -257 -245 -257c-79 0 -144 35 -183 97v-309h-77v969h77v-340c40 63 105 99 186 99zM339 62c101 0 174 77 174 185c0 109 -69 188 -172 188c-101 0 -179 -81 -179 -188c0 -108 76 -185 177 -185z" />
    <glyph glyph-name="q" unicode="q" horiz-adv-x="652" 
d="M491 497h75v-719h-78v312c-40 -63 -106 -100 -186 -100c-145 0 -242 107 -242 257c0 149 105 259 245 259c85 0 149 -36 186 -99v90zM310 62c101 0 181 79 181 185c0 110 -70 188 -177 188c-101 0 -175 -81 -175 -188c0 -111 67 -185 171 -185z" />
    <glyph glyph-name="r" unicode="r" horiz-adv-x="400" 
d="M88 0v497h75v-114c31 78 95 121 185 121c10 0 18 -1 25 -2l-6 -80h-19c-123 0 -183 -67 -183 -213v-209h-77z" />
    <glyph glyph-name="racute" unicode="&#x155;" horiz-adv-x="400" 
d="M155 616l157 146l51 -59l-169 -133zM88 0v497h75v-114c31 78 95 121 185 121c10 0 18 -1 25 -2l-6 -80h-19c-123 0 -183 -67 -183 -213v-209h-77z" />
    <glyph glyph-name="rcaron" unicode="&#x159;" horiz-adv-x="400" 
d="M182 594l-123 124h94l70 -74l71 74h93l-123 -124h-82zM88 0v497h75v-114c31 78 95 121 185 121c10 0 18 -1 25 -2l-6 -80h-19c-123 0 -183 -67 -183 -213v-209h-77z" />
    <glyph glyph-name="rcommaaccent" unicode="&#x157;" horiz-adv-x="400" 
d="M348 504c10 0 18 -1 25 -2l-6 -80h-19c-123 0 -183 -67 -183 -213v-209h-77v497h75v-114c31 78 95 121 185 121zM184 -112v-1v-1c-1 -23 -11 -42 -32 -82l-37 -70l-38 17l30 84c-22 7 -36 27 -36 53c0 33 23 55 56 55c34 0 57 -21 57 -55z" />
    <glyph glyph-name="uni0211" unicode="&#x211;" horiz-adv-x="400" 
d="M102 587l83 197l71 -33l-99 -190zM266 587l83 197l71 -33l-99 -190zM88 0v497h75v-114c31 78 95 121 185 121c10 0 18 -1 25 -2l-6 -80h-19c-123 0 -183 -67 -183 -213v-209h-77z" />
    <glyph glyph-name="uni1E5B" unicode="&#x1e5b;" horiz-adv-x="400" 
d="M88 0v497h75v-114c31 78 95 121 185 121c10 0 18 -1 25 -2l-6 -80h-19c-123 0 -183 -67 -183 -213v-209h-77zM127 -196c-33 0 -57 23 -57 56c0 32 24 55 57 55s56 -23 56 -55s-24 -56 -56 -56z" />
    <glyph glyph-name="s" unicode="s" horiz-adv-x="459" 
d="M230 -10c-149 0 -178 119 -178 119l73 22s15 -70 106 -70c63 0 98 27 98 73c0 47 -27 62 -84 75l-63 16c-81 20 -122 67 -122 139c0 87 66 142 169 142c135 0 164 -96 164 -96l-71 -25s-16 51 -94 51c-57 0 -91 -25 -91 -68c0 -46 28 -61 85 -75l65 -15
c80 -19 121 -67 121 -139c0 -92 -70 -149 -178 -149z" />
    <glyph glyph-name="sacute" unicode="&#x15b;" horiz-adv-x="459" 
d="M162 617l157 146l51 -59l-169 -133zM230 -10c-149 0 -178 119 -178 119l73 22s15 -70 106 -70c63 0 98 27 98 73c0 47 -27 62 -84 75l-63 16c-81 20 -122 67 -122 139c0 87 66 142 169 142c135 0 164 -96 164 -96l-71 -25s-16 51 -94 51c-57 0 -91 -25 -91 -68
c0 -46 28 -61 85 -75l65 -15c80 -19 121 -67 121 -139c0 -92 -70 -149 -178 -149z" />
    <glyph glyph-name="scaron" unicode="&#x161;" horiz-adv-x="459" 
d="M189 595l-123 124h94l70 -74l71 74h93l-123 -124h-82zM230 -10c-149 0 -178 119 -178 119l73 22s15 -70 106 -70c63 0 98 27 98 73c0 47 -27 62 -84 75l-63 16c-81 20 -122 67 -122 139c0 87 66 142 169 142c135 0 164 -96 164 -96l-71 -25s-16 51 -94 51
c-57 0 -91 -25 -91 -68c0 -46 28 -61 85 -75l65 -15c80 -19 121 -67 121 -139c0 -92 -70 -149 -178 -149z" />
    <glyph glyph-name="scedilla" unicode="&#x15f;" horiz-adv-x="459" 
d="M408 139c0 -84 -59 -139 -152 -148l-3 -25h4c51 0 91 -38 91 -91c0 -64 -52 -105 -128 -105c-69 0 -105 36 -105 36l34 55s23 -25 70 -25c34 0 57 16 57 42c0 25 -19 41 -52 41c-23 0 -38 -6 -38 -6l10 79c-119 16 -144 117 -144 117l73 22s15 -70 106 -70
c63 0 98 27 98 73c0 47 -27 62 -84 75l-63 16c-81 20 -122 67 -122 139c0 87 66 142 169 142c135 0 164 -96 164 -96l-71 -25s-16 51 -94 51c-57 0 -91 -25 -91 -68c0 -46 28 -61 85 -75l65 -15c80 -19 121 -67 121 -139z" />
    <glyph glyph-name="scircumflex" unicode="&#x15d;" horiz-adv-x="459" 
d="M194 721h82l123 -124h-93l-71 74l-70 -74h-94zM230 -10c-149 0 -178 119 -178 119l73 22s15 -70 106 -70c63 0 98 27 98 73c0 47 -27 62 -84 75l-63 16c-81 20 -122 67 -122 139c0 87 66 142 169 142c135 0 164 -96 164 -96l-71 -25s-16 51 -94 51c-57 0 -91 -25 -91 -68
c0 -46 28 -61 85 -75l65 -15c80 -19 121 -67 121 -139c0 -92 -70 -149 -178 -149z" />
    <glyph glyph-name="scommaaccent" unicode="&#x219;" horiz-adv-x="459" 
d="M287 278c80 -19 121 -67 121 -139c0 -92 -70 -149 -178 -149c-149 0 -178 119 -178 119l73 22s15 -70 106 -70c63 0 98 27 98 73c0 47 -27 62 -84 75l-63 16c-81 20 -122 67 -122 139c0 87 66 142 169 142c135 0 164 -96 164 -96l-71 -25s-16 51 -94 51
c-57 0 -91 -25 -91 -68c0 -46 28 -61 85 -75zM287 -112v-1v-1c-1 -23 -11 -42 -32 -82l-37 -70l-38 17l30 84c-22 7 -36 27 -36 53c0 33 23 55 56 55c34 0 57 -21 57 -55z" />
    <glyph glyph-name="uni1E63" unicode="&#x1e63;" horiz-adv-x="459" 
d="M230 -10c-149 0 -178 119 -178 119l73 22s15 -70 106 -70c63 0 98 27 98 73c0 47 -27 62 -84 75l-63 16c-81 20 -122 67 -122 139c0 87 66 142 169 142c135 0 164 -96 164 -96l-71 -25s-16 51 -94 51c-57 0 -91 -25 -91 -68c0 -46 28 -61 85 -75l65 -15
c80 -19 121 -67 121 -139c0 -92 -70 -149 -178 -149zM230 -196c-33 0 -57 23 -57 56c0 32 24 55 57 55s56 -23 56 -55s-24 -56 -56 -56z" />
    <glyph glyph-name="germandbls" unicode="&#xdf;" horiz-adv-x="643" 
d="M427 401v-3c108 -18 167 -87 167 -179c0 -128 -104 -219 -248 -219h-63v70h63c102 0 169 58 169 151c0 83 -72 140 -176 140h-26v68h15c83 0 139 52 139 129s-59 129 -148 129c-88 0 -152 -52 -152 -129v-558h-77v565c0 111 96 191 227 191c132 0 228 -86 228 -196
c0 -75 -40 -137 -118 -159z" />
    <glyph glyph-name="longs" unicode="&#x17f;" horiz-adv-x="283" 
d="M274 756c79 0 122 -36 122 -36l-28 -66s-34 32 -86 32c-64 0 -89 -28 -89 -106v-580h-77v428h-87v69h87v86c0 114 54 173 158 173z" />
    <glyph glyph-name="t" unicode="t" horiz-adv-x="457" 
d="M395 89l26 -69s-47 -30 -127 -30c-114 0 -168 59 -168 179v259h-97v69h97v142h77v-142h193v-69h-193v-255c0 -80 27 -110 98 -111c57 -1 94 27 94 27z" />
    <glyph glyph-name="tbar" unicode="&#x167;" horiz-adv-x="489" 
d="M415 89l26 -69s-46 -30 -127 -30c-113 0 -168 59 -168 179v68h-96v69h96v122h-96v69h96v142h78v-142h193v-69h-193v-122h193v-69h-193v-64c0 -80 27 -110 98 -111c57 -1 93 27 93 27z" />
    <glyph glyph-name="tcaron" unicode="&#x165;" horiz-adv-x="457" 
d="M302 647c-22 7 -36 27 -36 53c0 33 23 55 56 55c34 0 57 -21 57 -55v-1v-1c-1 -23 -11 -42 -32 -82l-37 -70l-38 17zM395 89l26 -69s-47 -30 -127 -30c-114 0 -168 59 -168 179v259h-97v69h97v142h77v-142h193v-69h-193v-255c0 -80 27 -110 98 -111c57 -1 94 27 94 27z
" />
    <glyph glyph-name="uni0163" unicode="&#x163;" horiz-adv-x="457" 
d="M301 -34c51 0 91 -38 91 -91c0 -64 -52 -105 -128 -105c-69 0 -105 36 -105 36l34 55s23 -25 70 -25c34 0 57 16 57 42c0 25 -19 41 -52 41c-23 0 -38 -6 -38 -6l11 82c-78 17 -115 74 -115 174v259h-97v69h97v142h77v-142h193v-69h-193v-255c0 -80 27 -110 98 -111
c57 -1 94 27 94 27l26 -69s-45 -28 -121 -30l-3 -24h4z" />
    <glyph glyph-name="uni021B" unicode="&#x21b;" horiz-adv-x="457" 
d="M421 20c0 0 -47 -30 -127 -30c-114 0 -168 59 -168 179v259h-97v69h97v142h77v-142h193v-69h-193v-255c0 -80 27 -110 98 -111c57 -1 94 27 94 27zM331 -112v-1v-1c-1 -23 -11 -42 -32 -82l-37 -70l-38 17l30 84c-22 7 -36 27 -36 53c0 33 23 55 56 55
c34 0 57 -21 57 -55z" />
    <glyph glyph-name="uni1E6D" unicode="&#x1e6d;" horiz-adv-x="457" 
d="M421 20c0 0 -47 -30 -127 -30c-114 0 -168 59 -168 179v259h-97v69h97v142h77v-142h193v-69h-193v-255c0 -80 27 -110 98 -111c57 -1 94 27 94 27zM274 -85c33 0 56 -23 56 -55s-24 -56 -56 -56c-33 0 -57 23 -57 56c0 32 24 55 57 55z" />
    <glyph glyph-name="u" unicode="u" horiz-adv-x="606" 
d="M303 -9c-141 0 -226 83 -226 221v286h77v-280c0 -98 54 -154 149 -154c94 0 148 56 148 154v280h78v-286c0 -138 -85 -221 -226 -221z" />
    <glyph glyph-name="uacute" unicode="&#xfa;" horiz-adv-x="606" 
d="M235 617l157 146l51 -59l-169 -133zM303 -9c-141 0 -226 83 -226 221v286h77v-280c0 -98 54 -154 149 -154c94 0 148 56 148 154v280h78v-286c0 -138 -85 -221 -226 -221z" />
    <glyph glyph-name="ubreve" unicode="&#x16d;" horiz-adv-x="606" 
d="M303 583c-136 0 -163 142 -163 142h70s16 -81 93 -81c76 0 93 81 93 81h70s-27 -142 -163 -142zM303 -9c-141 0 -226 83 -226 221v286h77v-280c0 -98 54 -154 149 -154c94 0 148 56 148 154v280h78v-286c0 -138 -85 -221 -226 -221z" />
    <glyph glyph-name="uni01D4" unicode="&#x1d4;" horiz-adv-x="606" 
d="M262 595l-123 124h94l70 -74l71 74h93l-123 -124h-82zM303 -9c-141 0 -226 83 -226 221v286h77v-280c0 -98 54 -154 149 -154c94 0 148 56 148 154v280h78v-286c0 -138 -85 -221 -226 -221z" />
    <glyph glyph-name="ucircumflex" unicode="&#xfb;" horiz-adv-x="606" 
d="M267 721h82l123 -124h-93l-71 74l-70 -74h-94zM303 -9c-141 0 -226 83 -226 221v286h77v-280c0 -98 54 -154 149 -154c94 0 148 56 148 154v280h78v-286c0 -138 -85 -221 -226 -221z" />
    <glyph glyph-name="uni0215" unicode="&#x215;" horiz-adv-x="606" 
d="M182 588l83 197l71 -33l-99 -190zM346 588l83 197l71 -33l-99 -190zM303 -9c-141 0 -226 83 -226 221v286h77v-280c0 -98 54 -154 149 -154c94 0 148 56 148 154v280h78v-286c0 -138 -85 -221 -226 -221z" />
    <glyph glyph-name="udieresis" unicode="&#xfc;" horiz-adv-x="606" 
d="M211 604c-32 0 -55 23 -55 55s23 54 55 54s55 -21 55 -54c0 -32 -23 -55 -55 -55zM396 604c-32 0 -55 22 -55 55c0 32 23 54 55 54c31 0 54 -22 54 -54s-23 -55 -54 -55zM303 -9c-141 0 -226 83 -226 221v286h77v-280c0 -98 54 -154 149 -154c94 0 148 56 148 154v280h78
v-286c0 -138 -85 -221 -226 -221z" />
    <glyph glyph-name="uni1EE5" unicode="&#x1ee5;" horiz-adv-x="606" 
d="M303 -9c-141 0 -226 83 -226 221v286h77v-280c0 -98 54 -154 149 -154c94 0 148 56 148 154v280h78v-286c0 -138 -85 -221 -226 -221zM303 -196c-33 0 -57 23 -57 56c0 32 24 55 57 55s56 -23 56 -55s-24 -56 -56 -56z" />
    <glyph glyph-name="ugrave" unicode="&#xf9;" horiz-adv-x="606" 
d="M372 617l-39 -46l-169 133l51 59zM303 -9c-141 0 -226 83 -226 221v286h77v-280c0 -98 54 -154 149 -154c94 0 148 56 148 154v280h78v-286c0 -138 -85 -221 -226 -221z" />
    <glyph glyph-name="uhungarumlaut" unicode="&#x171;" horiz-adv-x="606" 
d="M259 588l-55 -26l-99 190l71 33zM423 588l-55 -26l-99 190l71 33zM303 -9c-141 0 -226 83 -226 221v286h77v-280c0 -98 54 -154 149 -154c94 0 148 56 148 154v280h78v-286c0 -138 -85 -221 -226 -221z" />
    <glyph glyph-name="umacron" unicode="&#x16b;" horiz-adv-x="606" 
d="M130 619v67h346v-67h-346zM303 -9c-141 0 -226 83 -226 221v286h77v-280c0 -98 54 -154 149 -154c94 0 148 56 148 154v280h78v-286c0 -138 -85 -221 -226 -221z" />
    <glyph glyph-name="uogonek" unicode="&#x173;" horiz-adv-x="606" 
d="M451 498h78v-286c0 -115 -59 -192 -160 -214c-19 -9 -85 -43 -85 -101c0 -33 25 -57 58 -57c34 0 54 17 54 17l20 -67s-33 -20 -85 -20c-73 0 -120 44 -120 112c0 49 30 86 59 111c-121 12 -193 92 -193 219v286h77v-280c0 -98 54 -154 149 -154c94 0 148 56 148 154v280
z" />
    <glyph glyph-name="uring" unicode="&#x16f;" horiz-adv-x="606" 
d="M303 560c-65 0 -112 46 -112 110c0 65 47 111 112 111s112 -46 112 -111c0 -64 -47 -110 -112 -110zM303 621c30 0 52 21 52 49c0 30 -22 51 -52 51c-29 0 -49 -21 -49 -51c0 -28 20 -49 49 -49zM303 -9c-141 0 -226 83 -226 221v286h77v-280c0 -98 54 -154 149 -154
c94 0 148 56 148 154v280h78v-286c0 -138 -85 -221 -226 -221z" />
    <glyph glyph-name="utilde" unicode="&#x169;" horiz-adv-x="606" 
d="M464 689v-71s-28 -36 -87 -36c-68 0 -97 50 -155 50c-50 0 -81 -37 -81 -37v71s27 36 86 36c71 0 99 -51 156 -51c50 0 81 38 81 38zM303 -9c-141 0 -226 83 -226 221v286h77v-280c0 -98 54 -154 149 -154c94 0 148 56 148 154v280h78v-286c0 -138 -85 -221 -226 -221z
" />
    <glyph glyph-name="v" unicode="v" horiz-adv-x="580" 
d="M552 497l-220 -497h-83l-222 497h89l167 -390l7 -30l8 30l168 390h86z" />
    <glyph glyph-name="w" unicode="w" horiz-adv-x="829" 
d="M713 497h85l-176 -497h-75l-126 375l-6 33l-6 -33l-121 -375h-77l-181 497h87l126 -378l8 -38l7 38l120 378h74l124 -378l6 -38l9 38z" />
    <glyph glyph-name="wacute" unicode="&#x1e83;" horiz-adv-x="829" 
d="M342 617l157 146l51 -59l-169 -133zM713 497h85l-176 -497h-75l-126 375l-6 33l-6 -33l-121 -375h-77l-181 497h87l126 -378l8 -38l7 38l120 378h74l124 -378l6 -38l9 38z" />
    <glyph glyph-name="wcircumflex" unicode="&#x175;" horiz-adv-x="829" 
d="M374 721h82l123 -124h-93l-71 74l-70 -74h-94zM713 497h85l-176 -497h-75l-126 375l-6 33l-6 -33l-121 -375h-77l-181 497h87l126 -378l8 -38l7 38l120 378h74l124 -378l6 -38l9 38z" />
    <glyph glyph-name="wdieresis" unicode="&#x1e85;" horiz-adv-x="829" 
d="M318 604c-32 0 -55 23 -55 55s23 54 55 54s55 -21 55 -54c0 -32 -23 -55 -55 -55zM503 604c-32 0 -55 22 -55 55c0 32 23 54 55 54c31 0 54 -22 54 -54s-23 -55 -54 -55zM713 497h85l-176 -497h-75l-126 375l-6 33l-6 -33l-121 -375h-77l-181 497h87l126 -378l8 -38l7 38
l120 378h74l124 -378l6 -38l9 38z" />
    <glyph glyph-name="wgrave" unicode="&#x1e81;" horiz-adv-x="829" 
d="M479 617l-39 -46l-169 133l51 59zM713 497h85l-176 -497h-75l-126 375l-6 33l-6 -33l-121 -375h-77l-181 497h87l126 -378l8 -38l7 38l120 378h74l124 -378l6 -38l9 38z" />
    <glyph glyph-name="x" unicode="x" horiz-adv-x="557" 
d="M530 0h-99l-152 198l-153 -198h-99l201 252l-190 245h98l143 -190l140 190h99l-190 -245z" />
    <glyph glyph-name="y" unicode="y" horiz-adv-x="582" 
d="M142 -222l109 231l-224 488h88l170 -387l7 -36l8 36l168 387h87l-326 -719h-87z" />
    <glyph glyph-name="yacute" unicode="&#xfd;" horiz-adv-x="582" 
d="M224 616l157 146l51 -59l-169 -133zM142 -222l109 231l-224 488h88l170 -387l7 -36l8 36l168 387h87l-326 -719h-87z" />
    <glyph glyph-name="ycircumflex" unicode="&#x177;" horiz-adv-x="582" 
d="M256 720h82l123 -124h-93l-71 74l-70 -74h-94zM142 -222l109 231l-224 488h88l170 -387l7 -36l8 36l168 387h87l-326 -719h-87z" />
    <glyph glyph-name="ydieresis" unicode="&#xff;" horiz-adv-x="582" 
d="M200 603c-32 0 -55 23 -55 55s23 54 55 54s55 -21 55 -54c0 -32 -23 -55 -55 -55zM385 603c-32 0 -55 22 -55 55c0 32 23 54 55 54c31 0 54 -22 54 -54s-23 -55 -54 -55zM142 -222l109 231l-224 488h88l170 -387l7 -36l8 36l168 387h87l-326 -719h-87z" />
    <glyph glyph-name="uni1EF5" unicode="&#x1ef5;" horiz-adv-x="582" 
d="M142 -222l109 231l-224 488h88l170 -387l7 -36l8 36l168 387h87l-326 -719h-87zM435 -196c-33 0 -57 23 -57 56c0 32 24 55 57 55s56 -23 56 -55s-24 -56 -56 -56z" />
    <glyph glyph-name="ygrave" unicode="&#x1ef3;" horiz-adv-x="582" 
d="M361 616l-39 -46l-169 133l51 59zM142 -222l109 231l-224 488h88l170 -387l7 -36l8 36l168 387h87l-326 -719h-87z" />
    <glyph glyph-name="uni1EF9" unicode="&#x1ef9;" horiz-adv-x="582" 
d="M453 688v-71s-28 -36 -87 -36c-68 0 -97 50 -155 50c-50 0 -81 -37 -81 -37v71s27 36 86 36c71 0 99 -51 156 -51c50 0 81 38 81 38zM142 -222l109 231l-224 488h88l170 -387l7 -36l8 36l168 387h87l-326 -719h-87z" />
    <glyph glyph-name="z" unicode="z" horiz-adv-x="491" 
d="M44 0v65l294 361h-287v71h392v-62l-294 -363h298v-72h-403z" />
    <glyph glyph-name="zacute" unicode="&#x17a;" horiz-adv-x="491" 
d="M179 617l157 146l51 -59l-169 -133zM44 0v65l294 361h-287v71h392v-62l-294 -363h298v-72h-403z" />
    <glyph glyph-name="zcaron" unicode="&#x17e;" horiz-adv-x="491" 
d="M206 595l-123 124h94l70 -74l71 74h93l-123 -124h-82zM44 0v65l294 361h-287v71h392v-62l-294 -363h298v-72h-403z" />
    <glyph glyph-name="zdotaccent" unicode="&#x17c;" horiz-adv-x="491" 
d="M247 603c-33 0 -57 23 -57 56c0 32 24 55 57 55s56 -23 56 -55s-24 -56 -56 -56zM44 0v65l294 361h-287v71h392v-62l-294 -363h298v-72h-403z" />
    <glyph glyph-name="uni1E93" unicode="&#x1e93;" horiz-adv-x="491" 
d="M44 0v65l294 361h-287v71h392v-62l-294 -363h298v-72h-403zM245 -196c-33 0 -57 23 -57 56c0 32 24 55 57 55s56 -23 56 -55s-24 -56 -56 -56z" />
    <glyph glyph-name="k.ss01" horiz-adv-x="563" 
d="M539 0h-114l-258 242v-242h-77v747h77v-489l232 239h107l-246 -243z" />
    <glyph glyph-name="kcommaaccent.ss01" horiz-adv-x="563" 
d="M260 254l279 -254h-114l-258 242v-242h-77v747h77v-489l232 239h107zM371 -112v-1v-1c-1 -23 -11 -42 -32 -82l-37 -70l-38 17l30 84c-22 7 -36 27 -36 53c0 33 23 55 56 55c34 0 57 -21 57 -55z" />
    <glyph glyph-name="kgreenlandic.ss01" horiz-adv-x="563" 
d="M539 0h-112l-260 242v-242h-77v497h77v-239l234 239h105l-246 -243z" />
    <glyph glyph-name="H_H" horiz-adv-x="1247" 
d="M621 402v323h79v-725h-79v328h-431v-328h-79v725h79v-323h431zM1057 725h79v-725h-79v328h-235v74h235v323z" />
    <glyph glyph-name="T_h" horiz-adv-x="1139" 
d="M860 507c124 0 201 -82 201 -212v-295h-78v284c0 97 -48 151 -135 151c-97 0 -166 -69 -166 -164v-271h-78v649h-258v-649h-79v649h-250v76h665v-315c35 63 97 97 178 97z" />
    <glyph glyph-name="lslash_lslash" horiz-adv-x="611" 
d="M577 522v-76l-98 -43v-403h-78v369l-189 -83v-286h-78v251l-96 -42v75l96 42v421h78v-386l189 83v303h78v-268z" />
    <glyph glyph-name="uni01F2.sc" horiz-adv-x="1333" 
d="M359 725c222 0 382 -152 382 -362c0 -211 -162 -363 -384 -363h-246v725h248zM659 363c1 171 -123 287 -300 287h-169v-574h167c177 0 302 117 302 287zM955 73h329v-73h-436v60l324 421h-316v73h423v-57z" />
    <glyph glyph-name="uni01C5.sc" horiz-adv-x="1333" 
d="M1109 651h-82l-123 124h94l70 -74l71 74h93zM359 725c222 0 382 -152 382 -362c0 -211 -162 -363 -384 -363h-246v725h248zM659 363c1 171 -123 287 -300 287h-169v-574h167c177 0 302 117 302 287zM955 73h329v-73h-436v60l324 421h-316v73h423v-57z" />
    <glyph glyph-name="uni01C8.sc" horiz-adv-x="1105" 
d="M191 725v-647h368v-78h-448v725h80zM939 554h78v-362c0 -122 -75 -200 -193 -200c-119 0 -194 78 -194 200h79c0 -78 44 -126 115 -126s115 48 115 125v363z" />
    <glyph glyph-name="uni01CB.sc" horiz-adv-x="1336" 
d="M111 0v725h71l454 -592v592h79v-725h-71l-454 591v-591h-79zM1055 -8c-119 0 -194 78 -194 200h79c0 -78 44 -126 115 -126s115 48 115 125v363h78v-362c0 -122 -75 -200 -193 -200z" />
    <glyph glyph-name="a.sc" horiz-adv-x="632" 
d="M512 0l-56 134h-281l-56 -134h-86l237 554h92l236 -554h-86zM204 205h222l-105 251l-6 23l-6 -23z" />
    <glyph glyph-name="aacute.sc" horiz-adv-x="632" 
d="M456 760l-169 -133l-39 46l157 146zM512 0l-56 134h-281l-56 -134h-86l237 554h92l236 -554h-86zM204 205h222l-105 251l-6 23l-6 -23z" />
    <glyph glyph-name="abreve.sc" horiz-adv-x="632" 
d="M316 639c-136 0 -163 142 -163 142h70s16 -81 93 -81c76 0 93 81 93 81h70s-27 -142 -163 -142zM512 0l-56 134h-281l-56 -134h-86l237 554h92l236 -554h-86zM204 205h222l-105 251l-6 23l-6 -23z" />
    <glyph glyph-name="uni1EB7.sc" horiz-adv-x="632" 
d="M316 639c-136 0 -163 142 -163 142h70s16 -81 93 -81c76 0 93 81 93 81h70s-27 -142 -163 -142zM598 0h-86l-56 134h-281l-56 -134h-86l237 554h92zM204 205h222l-105 251l-6 23l-6 -23zM316 -85c33 0 56 -23 56 -55s-24 -56 -56 -56c-33 0 -57 23 -57 56
c0 32 24 55 57 55z" />
    <glyph glyph-name="uni01CE.sc" horiz-adv-x="632" 
d="M357 651h-82l-123 124h94l70 -74l71 74h93zM512 0l-56 134h-281l-56 -134h-86l237 554h92l236 -554h-86zM204 205h222l-105 251l-6 23l-6 -23z" />
    <glyph glyph-name="acircumflex.sc" horiz-adv-x="632" 
d="M321 727l-70 -74h-94l123 124h82l123 -124h-93zM512 0l-56 134h-281l-56 -134h-86l237 554h92l236 -554h-86zM204 205h222l-105 251l-6 23l-6 -23z" />
    <glyph glyph-name="uni1EAD.sc" horiz-adv-x="632" 
d="M321 727l-70 -74h-94l123 124h82l123 -124h-93zM598 0h-86l-56 134h-281l-56 -134h-86l237 554h92zM204 205h222l-105 251l-6 23l-6 -23zM316 -85c33 0 56 -23 56 -55s-24 -56 -56 -56c-33 0 -57 23 -57 56c0 32 24 55 57 55z" />
    <glyph glyph-name="uni0201.sc" horiz-adv-x="632" 
d="M349 808l-99 -190l-55 26l83 197zM513 808l-99 -190l-55 26l83 197zM512 0l-56 134h-281l-56 -134h-86l237 554h92l236 -554h-86zM204 205h222l-105 251l-6 23l-6 -23z" />
    <glyph glyph-name="adieresis.sc" horiz-adv-x="632" 
d="M224 660c-32 0 -55 23 -55 55s23 54 55 54s55 -21 55 -54c0 -32 -23 -55 -55 -55zM409 660c-32 0 -55 22 -55 55c0 32 23 54 55 54c31 0 54 -22 54 -54s-23 -55 -54 -55zM512 0l-56 134h-281l-56 -134h-86l237 554h92l236 -554h-86zM204 205h222l-105 251l-6 23l-6 -23z
" />
    <glyph glyph-name="uni1EA1.sc" horiz-adv-x="632" 
d="M598 0h-86l-56 134h-281l-56 -134h-86l237 554h92zM204 205h222l-105 251l-6 23l-6 -23zM316 -85c33 0 56 -23 56 -55s-24 -56 -56 -56c-33 0 -57 23 -57 56c0 32 24 55 57 55z" />
    <glyph glyph-name="agrave.sc" horiz-adv-x="632" 
d="M385 673l-39 -46l-169 133l51 59zM512 0l-56 134h-281l-56 -134h-86l237 554h92l236 -554h-86zM204 205h222l-105 251l-6 23l-6 -23z" />
    <glyph glyph-name="amacron.sc" horiz-adv-x="632" 
d="M489 742v-67h-346v67h346zM512 0l-56 134h-281l-56 -134h-86l237 554h92l236 -554h-86zM204 205h222l-105 251l-6 23l-6 -23z" />
    <glyph glyph-name="aogonek.sc" horiz-adv-x="632" 
d="M620 -143l20 -67s-33 -20 -85 -20c-73 0 -120 44 -120 112c0 58 42 100 75 123l-54 129h-281l-56 -134h-86l237 554h92l236 -554s-90 -35 -90 -103c0 -33 25 -57 58 -57c34 0 54 17 54 17zM204 205h222l-105 251l-6 23l-6 -23z" />
    <glyph glyph-name="aring.sc" horiz-adv-x="632" 
d="M316 616c-65 0 -112 46 -112 110c0 65 47 111 112 111s112 -46 112 -111c0 -64 -47 -110 -112 -110zM316 777c-29 0 -49 -21 -49 -51c0 -28 20 -49 49 -49c30 0 52 21 52 49c0 30 -22 51 -52 51zM512 0l-56 134h-281l-56 -134h-86l237 554h92l236 -554h-86zM204 205h222
l-105 251l-6 23l-6 -23z" />
    <glyph glyph-name="atilde.sc" horiz-adv-x="632" 
d="M235 688c-50 0 -81 -37 -81 -37v71s27 36 86 36c71 0 99 -51 156 -51c50 0 81 38 81 38v-71s-28 -36 -87 -36c-68 0 -97 50 -155 50zM512 0l-56 134h-281l-56 -134h-86l237 554h92l236 -554h-86zM204 205h222l-105 251l-6 23l-6 -23z" />
    <glyph glyph-name="ae.sc" horiz-adv-x="888" 
d="M536 71h291v-71h-369v134h-240l-94 -134h-95l395 554h399v-70h-287v-172h271v-67h-271v-174zM267 205h191v273z" />
    <glyph glyph-name="aeacute.sc" horiz-adv-x="888" 
d="M620 758l-169 -133l-39 46l157 146zM536 71h291v-71h-369v134h-240l-94 -134h-95l395 554h399v-70h-287v-172h271v-67h-271v-174zM267 205h191v273z" />
    <glyph glyph-name="b.sc" horiz-adv-x="579" 
d="M390 280c85 -10 129 -60 129 -126c0 -94 -76 -154 -194 -154h-229v554h215c113 0 185 -58 185 -150c0 -59 -34 -108 -106 -122v-2zM310 485h-137v-173h138c69 0 108 32 108 87c0 54 -39 86 -109 86zM319 69c76 0 120 32 120 89c0 54 -45 87 -125 87h-141v-176h146z" />
    <glyph glyph-name="c.sc" horiz-adv-x="643" 
d="M520 384c-36 69 -94 104 -176 104c-119 0 -205 -88 -205 -211c0 -125 86 -211 204 -211c87 0 147 37 182 110l73 -29c-46 -95 -136 -155 -256 -155c-162 0 -283 119 -283 285c0 164 121 284 285 284c117 0 201 -58 249 -148z" />
    <glyph glyph-name="cacute.sc" horiz-adv-x="643" 
d="M276 673l157 146l51 -59l-169 -133zM520 384c-36 69 -94 104 -176 104c-119 0 -205 -88 -205 -211c0 -125 86 -211 204 -211c87 0 147 37 182 110l73 -29c-46 -95 -136 -155 -256 -155c-162 0 -283 119 -283 285c0 164 121 284 285 284c117 0 201 -58 249 -148z" />
    <glyph glyph-name="ccaron.sc" horiz-adv-x="643" 
d="M303 651l-123 124h94l70 -74l71 74h93l-123 -124h-82zM520 384c-36 69 -94 104 -176 104c-119 0 -205 -88 -205 -211c0 -125 86 -211 204 -211c87 0 147 37 182 110l73 -29c-46 -95 -136 -155 -256 -155c-162 0 -283 119 -283 285c0 164 121 284 285 284
c117 0 201 -58 249 -148z" />
    <glyph glyph-name="ccedilla.sc" horiz-adv-x="643" 
d="M598 147c-43 -88 -123 -146 -229 -154l-4 -27h4c51 0 91 -38 91 -91c0 -64 -52 -105 -128 -105c-69 0 -105 36 -105 36l34 55s23 -25 70 -25c34 0 57 16 57 42c0 25 -19 41 -52 41c-23 0 -38 -6 -38 -6l11 81c-145 15 -250 129 -250 283c0 164 121 284 285 284
c117 0 201 -58 249 -148l-73 -29c-36 69 -94 104 -176 104c-119 0 -205 -88 -205 -211c0 -125 86 -211 204 -211c87 0 147 37 182 110z" />
    <glyph glyph-name="ccircumflex.sc" horiz-adv-x="643" 
d="M308 777h82l123 -124h-93l-71 74l-70 -74h-94zM520 384c-36 69 -94 104 -176 104c-119 0 -205 -88 -205 -211c0 -125 86 -211 204 -211c87 0 147 37 182 110l73 -29c-46 -95 -136 -155 -256 -155c-162 0 -283 119 -283 285c0 164 121 284 285 284c117 0 201 -58 249 -148
z" />
    <glyph glyph-name="cdotaccent.sc" horiz-adv-x="643" 
d="M344 659c-33 0 -57 23 -57 56c0 32 24 55 57 55s56 -23 56 -55s-24 -56 -56 -56zM520 384c-36 69 -94 104 -176 104c-119 0 -205 -88 -205 -211c0 -125 86 -211 204 -211c87 0 147 37 182 110l73 -29c-46 -95 -136 -155 -256 -155c-162 0 -283 119 -283 285
c0 164 121 284 285 284c117 0 201 -58 249 -148z" />
    <glyph glyph-name="d.sc" horiz-adv-x="655" 
d="M298 554c173 0 298 -117 298 -277c0 -161 -126 -277 -299 -277h-199v554h200zM516 277c1 121 -88 204 -218 204h-123v-407h122c129 0 218 82 219 203z" />
    <glyph glyph-name="eth.sc" horiz-adv-x="668" 
d="M313 554c173 0 298 -117 298 -277c0 -161 -127 -277 -300 -277h-198v250h-74v53h74v251h200zM311 74c130 0 220 82 220 203s-89 204 -218 204h-122v-178h137v-53h-137v-176h120z" />
    <glyph glyph-name="dcaron.sc" horiz-adv-x="655" 
d="M384 651h-82l-123 124h94l70 -74l71 74h93zM298 554c173 0 298 -117 298 -277c0 -161 -126 -277 -299 -277h-199v554h200zM516 277c1 121 -88 204 -218 204h-123v-407h122c129 0 218 82 219 203z" />
    <glyph glyph-name="dcroat.sc" horiz-adv-x="668" 
d="M313 554c173 0 298 -117 298 -277c0 -161 -127 -277 -300 -277h-198v250h-74v53h74v251h200zM311 74c130 0 220 82 220 203s-89 204 -218 204h-122v-178h137v-53h-137v-176h120z" />
    <glyph glyph-name="uni1E0D.sc" horiz-adv-x="655" 
d="M298 554c173 0 298 -117 298 -277c0 -161 -126 -277 -299 -277h-199v554h200zM516 277c1 121 -88 204 -218 204h-123v-407h122c129 0 218 82 219 203zM343 -85c33 0 56 -23 56 -55s-24 -56 -56 -56c-33 0 -57 23 -57 56c0 32 24 55 57 55z" />
    <glyph glyph-name="uni01F3.sc" horiz-adv-x="1156" 
d="M298 554c173 0 298 -117 298 -277c0 -161 -126 -277 -299 -277h-199v554h200zM778 73h329v-73h-436v60l324 421h-316v73h423v-57zM516 277c1 121 -88 204 -218 204h-123v-407h122c129 0 218 82 219 203z" />
    <glyph glyph-name="uni01C6.sc" horiz-adv-x="1156" 
d="M932 651h-82l-123 124h94l70 -74l71 74h93zM298 554c173 0 298 -117 298 -277c0 -161 -126 -277 -299 -277h-199v554h200zM778 73h329v-73h-436v60l324 421h-316v73h423v-57zM516 277c1 121 -88 204 -218 204h-123v-407h122c129 0 218 82 219 203z" />
    <glyph glyph-name="e.sc" horiz-adv-x="533" 
d="M173 71h299v-71h-376v554h373v-70h-296v-172h279v-67h-279v-174z" />
    <glyph glyph-name="eacute.sc" horiz-adv-x="533" 
d="M422 760l-169 -133l-39 46l157 146zM173 71h299v-71h-376v554h373v-70h-296v-172h279v-67h-279v-174z" />
    <glyph glyph-name="ebreve.sc" horiz-adv-x="533" 
d="M282 639c-136 0 -163 142 -163 142h70s16 -81 93 -81c76 0 93 81 93 81h70s-27 -142 -163 -142zM173 71h299v-71h-376v554h373v-70h-296v-172h279v-67h-279v-174z" />
    <glyph glyph-name="ecaron.sc" horiz-adv-x="533" 
d="M323 651h-82l-123 124h94l70 -74l71 74h93zM173 71h299v-71h-376v554h373v-70h-296v-172h279v-67h-279v-174z" />
    <glyph glyph-name="ecircumflex.sc" horiz-adv-x="533" 
d="M287 727l-70 -74h-94l123 124h82l123 -124h-93zM173 71h299v-71h-376v554h373v-70h-296v-172h279v-67h-279v-174z" />
    <glyph glyph-name="uni1EC7.sc" horiz-adv-x="533" 
d="M287 727l-70 -74h-94l123 124h82l123 -124h-93zM173 71h299v-71h-376v554h373v-70h-296v-172h279v-67h-279v-174zM283 -85c33 0 56 -23 56 -55s-24 -56 -56 -56c-33 0 -57 23 -57 56c0 32 24 55 57 55z" />
    <glyph glyph-name="uni0205.sc" horiz-adv-x="533" 
d="M315 808l-99 -190l-55 26l83 197zM479 808l-99 -190l-55 26l83 197zM173 245v-174h299v-71h-376v554h373v-70h-296v-172h279v-67h-279z" />
    <glyph glyph-name="edieresis.sc" horiz-adv-x="533" 
d="M190 660c-32 0 -55 23 -55 55s23 54 55 54s55 -21 55 -54c0 -32 -23 -55 -55 -55zM375 660c-32 0 -55 22 -55 55c0 32 23 54 55 54c31 0 54 -22 54 -54s-23 -55 -54 -55zM173 71h299v-71h-376v554h373v-70h-296v-172h279v-67h-279v-174z" />
    <glyph glyph-name="edotaccent.sc" horiz-adv-x="533" 
d="M282 659c-33 0 -57 23 -57 56c0 32 24 55 57 55s56 -23 56 -55s-24 -56 -56 -56zM173 71h299v-71h-376v554h373v-70h-296v-172h279v-67h-279v-174z" />
    <glyph glyph-name="uni1EB9.sc" horiz-adv-x="533" 
d="M173 71h299v-71h-376v554h373v-70h-296v-172h279v-67h-279v-174zM283 -85c33 0 56 -23 56 -55s-24 -56 -56 -56c-33 0 -57 23 -57 56c0 32 24 55 57 55z" />
    <glyph glyph-name="egrave.sc" horiz-adv-x="533" 
d="M351 673l-39 -46l-169 133l51 59zM173 71h299v-71h-376v554h373v-70h-296v-172h279v-67h-279v-174z" />
    <glyph glyph-name="emacron.sc" horiz-adv-x="533" 
d="M455 742v-67h-346v67h346zM173 71h299v-71h-376v554h373v-70h-296v-172h279v-67h-279v-174z" />
    <glyph glyph-name="eogonek.sc" horiz-adv-x="533" 
d="M494 -143l20 -67s-33 -20 -85 -20c-73 0 -120 44 -120 112c0 54 36 94 68 118h-281v554h373v-70h-296v-172h279v-67h-279v-174h299v-71s-90 -35 -90 -103c0 -33 25 -57 58 -57c34 0 54 17 54 17z" />
    <glyph glyph-name="uni1EBD.sc" horiz-adv-x="533" 
d="M201 688c-50 0 -81 -37 -81 -37v71s27 36 86 36c71 0 99 -51 156 -51c50 0 81 38 81 38v-71s-28 -36 -87 -36c-68 0 -97 50 -155 50zM173 71h299v-71h-376v554h373v-70h-296v-172h279v-67h-279v-174z" />
    <glyph glyph-name="f.sc" horiz-adv-x="501" 
d="M455 484h-282v-183h255v-69h-255v-232h-77v554h359v-70z" />
    <glyph glyph-name="g.sc" horiz-adv-x="678" 
d="M344 -8c-164 0 -285 119 -285 285c0 164 121 284 285 284c115 0 201 -52 250 -140l-75 -29c-36 63 -94 96 -175 96c-119 0 -205 -88 -205 -211c0 -125 85 -211 205 -211c109 0 189 69 199 171h-219v66h299s2 -12 2 -27c0 -167 -113 -284 -281 -284z" />
    <glyph glyph-name="uni01F5.sc" horiz-adv-x="678" 
d="M276 673l157 146l51 -59l-169 -133zM344 -8c-164 0 -285 119 -285 285c0 164 121 284 285 284c115 0 201 -52 250 -140l-75 -29c-36 63 -94 96 -175 96c-119 0 -205 -88 -205 -211c0 -125 85 -211 205 -211c109 0 189 69 199 171h-219v66h299s2 -12 2 -27
c0 -167 -113 -284 -281 -284z" />
    <glyph glyph-name="gbreve.sc" horiz-adv-x="678" 
d="M344 639c-136 0 -163 142 -163 142h70s16 -81 93 -81c76 0 93 81 93 81h70s-27 -142 -163 -142zM344 -8c-164 0 -285 119 -285 285c0 164 121 284 285 284c115 0 201 -52 250 -140l-75 -29c-36 63 -94 96 -175 96c-119 0 -205 -88 -205 -211c0 -125 85 -211 205 -211
c109 0 189 69 199 171h-219v66h299s2 -12 2 -27c0 -167 -113 -284 -281 -284z" />
    <glyph glyph-name="gcircumflex.sc" horiz-adv-x="678" 
d="M308 777h82l123 -124h-93l-71 74l-70 -74h-94zM344 -8c-164 0 -285 119 -285 285c0 164 121 284 285 284c115 0 201 -52 250 -140l-75 -29c-36 63 -94 96 -175 96c-119 0 -205 -88 -205 -211c0 -125 85 -211 205 -211c109 0 189 69 199 171h-219v66h299s2 -12 2 -27
c0 -167 -113 -284 -281 -284z" />
    <glyph glyph-name="gcommaaccent.sc" horiz-adv-x="678" 
d="M623 303c0 0 2 -12 2 -27c0 -167 -113 -284 -281 -284c-164 0 -285 119 -285 285c0 164 121 284 285 284c115 0 201 -52 250 -140l-75 -29c-36 63 -94 96 -175 96c-119 0 -205 -88 -205 -211c0 -125 85 -211 205 -211c109 0 189 69 199 171h-219v66h299zM401 -112v-1v-1
c-1 -23 -11 -42 -32 -82l-37 -70l-38 17l30 84c-22 7 -36 27 -36 53c0 33 23 55 56 55c34 0 57 -21 57 -55z" />
    <glyph glyph-name="gdotaccent.sc" horiz-adv-x="678" 
d="M344 659c-33 0 -57 23 -57 56c0 32 24 55 57 55s56 -23 56 -55s-24 -56 -56 -56zM344 -8c-164 0 -285 119 -285 285c0 164 121 284 285 284c115 0 201 -52 250 -140l-75 -29c-36 63 -94 96 -175 96c-119 0 -205 -88 -205 -211c0 -125 85 -211 205 -211
c109 0 189 69 199 171h-219v66h299s2 -12 2 -27c0 -167 -113 -284 -281 -284z" />
    <glyph glyph-name="h.sc" horiz-adv-x="661" 
d="M486 554h78v-554h-78v243h-311v-243h-77v554h77v-240h311v240z" />
    <glyph glyph-name="hbar.sc" horiz-adv-x="685" 
d="M641 461v-54h-66v-407h-77v243h-311v-243h-78v407h-65v54h65v93h78v-93h311v93h77v-93h66zM498 314v93h-311v-93h311z" />
    <glyph glyph-name="hcircumflex.sc" horiz-adv-x="661" 
d="M336 727l-70 -74h-94l123 124h82l123 -124h-93zM486 554h78v-554h-78v243h-311v-243h-77v554h77v-240h311v240z" />
    <glyph glyph-name="uni1E25.sc" horiz-adv-x="661" 
d="M486 554h78v-554h-78v243h-311v-243h-77v554h77v-240h311v240zM331 -85c33 0 56 -23 56 -55s-24 -56 -56 -56c-33 0 -57 23 -57 56c0 32 24 55 57 55z" />
    <glyph glyph-name="i.sc" horiz-adv-x="271" 
d="M96 0v554h79v-554h-79z" />
    <glyph glyph-name="iacute.sc" horiz-adv-x="271" 
d="M67 673l157 146l51 -59l-169 -133zM96 0v554h79v-554h-79z" />
    <glyph glyph-name="ibreve.sc" horiz-adv-x="271" 
d="M135 639c-136 0 -163 142 -163 142h70s16 -81 93 -81c76 0 93 81 93 81h70s-27 -142 -163 -142zM96 0v554h79v-554h-79z" />
    <glyph glyph-name="uni01D0.sc" horiz-adv-x="271" 
d="M94 651l-123 124h94l70 -74l71 74h93l-123 -124h-82zM96 0v554h79v-554h-79z" />
    <glyph glyph-name="icircumflex.sc" horiz-adv-x="271" 
d="M99 777h82l123 -124h-93l-71 74l-70 -74h-94zM96 0v554h79v-554h-79z" />
    <glyph glyph-name="uni0209.sc" horiz-adv-x="271" 
d="M14 644l83 197l71 -33l-99 -190zM178 644l83 197l71 -33l-99 -190zM96 0v554h79v-554h-79z" />
    <glyph glyph-name="idieresis.sc" horiz-adv-x="271" 
d="M43 660c-32 0 -55 23 -55 55s23 54 55 54s55 -21 55 -54c0 -32 -23 -55 -55 -55zM228 660c-32 0 -55 22 -55 55c0 32 23 54 55 54c31 0 54 -22 54 -54s-23 -55 -54 -55zM96 0v554h79v-554h-79z" />
    <glyph glyph-name="i.sc.loclTRK" horiz-adv-x="271" 
d="M135 659c-33 0 -57 23 -57 56c0 32 24 55 57 55s56 -23 56 -55s-24 -56 -56 -56zM96 0v554h79v-554h-79z" />
    <glyph glyph-name="uni1ECB.sc" horiz-adv-x="271" 
d="M96 0v554h79v-554h-79zM135 -196c-33 0 -57 23 -57 56c0 32 24 55 57 55s56 -23 56 -55s-24 -56 -56 -56z" />
    <glyph glyph-name="igrave.sc" horiz-adv-x="271" 
d="M204 673l-39 -46l-169 133l51 59zM96 0v554h79v-554h-79z" />
    <glyph glyph-name="ij.sc" horiz-adv-x="750" 
d="M96 0v554h79v-554h-79zM469 -8c-119 0 -194 78 -194 200h79c0 -78 44 -126 115 -126s115 48 115 125v363h78v-362c0 -122 -75 -200 -193 -200z" />
    <glyph glyph-name="imacron.sc" horiz-adv-x="271" 
d="M-38 675v67h346v-67h-346zM96 0v554h79v-554h-79z" />
    <glyph glyph-name="iogonek.sc" horiz-adv-x="271" 
d="M197 -143l20 -67s-33 -20 -85 -20c-73 0 -120 44 -120 112c0 63 51 108 84 130v542h79v-554s-90 -35 -90 -103c0 -33 25 -57 58 -57c34 0 54 17 54 17z" />
    <glyph glyph-name="itilde.sc" horiz-adv-x="271" 
d="M296 745v-71s-28 -36 -87 -36c-68 0 -97 50 -155 50c-50 0 -81 -37 -81 -37v71s27 36 86 36c71 0 99 -51 156 -51c50 0 81 38 81 38zM96 0v554h79v-554h-79z" />
    <glyph glyph-name="j.sc" horiz-adv-x="520" 
d="M239 -8c-119 0 -194 78 -194 200h79c0 -78 44 -126 115 -126s115 48 115 125v363h78v-362c0 -122 -75 -200 -193 -200z" />
    <glyph glyph-name="jcircumflex.sc" horiz-adv-x="520" 
d="M357 777h82l123 -124h-93l-71 74l-70 -74h-94zM239 -8c-119 0 -194 78 -194 200h79c0 -78 44 -126 115 -126s115 48 115 125v363h78v-362c0 -122 -75 -200 -193 -200z" />
    <glyph glyph-name="k.sc" horiz-adv-x="595" 
d="M560 0h-92l-149 229l-157 -229h-64v554h77v-389l-4 -47l18 47l255 389h91l-171 -259z" />
    <glyph glyph-name="kcommaaccent.sc" horiz-adv-x="595" 
d="M364 295l196 -295h-92l-149 229l-157 -229h-64v554h77v-389l-4 -47l18 47l255 389h91zM387 -112v-1v-1c-1 -23 -11 -42 -32 -82l-37 -70l-38 17l30 84c-22 7 -36 27 -36 53c0 33 23 55 56 55c34 0 57 -21 57 -55z" />
    <glyph glyph-name="l.sc" horiz-adv-x="485" 
d="M174 75h275v-75h-353v554h78v-479z" />
    <glyph glyph-name="lacute.sc" horiz-adv-x="485" 
d="M275 760l-169 -133l-39 46l157 146zM174 75h275v-75h-353v554h78v-479z" />
    <glyph glyph-name="lcaron.sc" horiz-adv-x="485" 
d="M296 457c-22 7 -36 27 -36 53c0 33 23 55 56 55c34 0 57 -21 57 -55v-1v-1c-1 -23 -11 -42 -32 -82l-37 -70l-38 17zM174 75h275v-75h-353v554h78v-479z" />
    <glyph glyph-name="lcommaaccent.sc" horiz-adv-x="485" 
d="M174 75h275v-75h-353v554h78v-479zM329 -112v-1v-1c-1 -23 -11 -42 -32 -82l-37 -70l-38 17l30 84c-22 7 -36 27 -36 53c0 33 23 55 56 55c34 0 57 -21 57 -55z" />
    <glyph glyph-name="ldot.sc" horiz-adv-x="487" 
d="M174 75h275v-75h-353v554h78v-479zM323 182c-39 0 -66 27 -66 66c0 38 28 66 66 66c40 0 67 -27 67 -66c0 -38 -28 -66 -67 -66z" />
    <glyph glyph-name="uni01C9.sc" horiz-adv-x="987" 
d="M174 554v-479h275v-75h-353v554h78zM821 554h78v-362c0 -122 -75 -200 -193 -200c-119 0 -194 78 -194 200h79c0 -78 44 -126 115 -126s115 48 115 125v363z" />
    <glyph glyph-name="lslash.sc" horiz-adv-x="507" 
d="M196 75h275v-75h-353v197l-77 -40v72l77 40v285h78v-245l97 50v-72l-97 -50v-162z" />
    <glyph glyph-name="m.sc" horiz-adv-x="819" 
d="M96 0v554h65l248 -443l249 443h65v-554h-75v401l-224 -401h-29l-224 401v-401h-75z" />
    <glyph glyph-name="n.sc" horiz-adv-x="669" 
d="M96 0v554h69l331 -425v425h77v-554h-69l-331 423v-423h-77z" />
    <glyph glyph-name="nacute.sc" horiz-adv-x="669" 
d="M267 673l157 146l51 -59l-169 -133zM96 0v554h69l331 -425v425h77v-554h-69l-331 423v-423h-77z" />
    <glyph glyph-name="ncaron.sc" horiz-adv-x="669" 
d="M294 651l-123 124h94l70 -74l71 74h93l-123 -124h-82zM96 0v554h69l331 -425v425h77v-554h-69l-331 423v-423h-77z" />
    <glyph glyph-name="ncommaaccent.sc" horiz-adv-x="669" 
d="M496 554h77v-554h-69l-331 423v-423h-77v554h69l331 -425v425zM392 -112v-1v-1c-1 -23 -11 -42 -32 -82l-37 -70l-38 17l30 84c-22 7 -36 27 -36 53c0 33 23 55 56 55c34 0 57 -21 57 -55z" />
    <glyph glyph-name="uni1E45.sc" horiz-adv-x="669" 
d="M335 659c-33 0 -57 23 -57 56c0 32 24 55 57 55s56 -23 56 -55s-24 -56 -56 -56zM96 0v554h69l331 -425v425h77v-554h-69l-331 423v-423h-77z" />
    <glyph glyph-name="eng.sc" horiz-adv-x="669" 
d="M496 554h77v-585c0 -91 -46 -142 -134 -142c-58 0 -94 20 -94 20l22 66s25 -17 66 -17c43 0 64 23 64 73v40l-324 414v-423h-77v554h69l331 -425v425z" />
    <glyph glyph-name="uni01CC.sc" horiz-adv-x="1148" 
d="M96 0v554h69l331 -425v425h77v-554h-69l-331 423v-423h-77zM867 -8c-119 0 -194 78 -194 200h79c0 -78 44 -126 115 -126s115 48 115 125v363h78v-362c0 -122 -75 -200 -193 -200z" />
    <glyph glyph-name="ntilde.sc" horiz-adv-x="669" 
d="M496 745v-71s-28 -36 -87 -36c-68 0 -97 50 -155 50c-50 0 -81 -37 -81 -37v71s27 36 86 36c71 0 99 -51 156 -51c50 0 81 38 81 38zM96 0v554h69l331 -425v425h77v-554h-69l-331 423v-423h-77z" />
    <glyph glyph-name="o.sc" horiz-adv-x="699" 
d="M349 -8c-169 0 -290 119 -290 285c0 164 123 284 290 284c171 0 292 -116 292 -284c0 -164 -122 -285 -292 -285zM349 66c125 0 210 87 211 211c0 126 -86 211 -211 211c-123 0 -210 -88 -210 -211c0 -125 86 -211 210 -211z" />
    <glyph glyph-name="oacute.sc" horiz-adv-x="699" 
d="M281 673l157 146l51 -59l-169 -133zM349 -8c-169 0 -290 119 -290 285c0 164 123 284 290 284c171 0 292 -116 292 -284c0 -164 -122 -285 -292 -285zM349 66c125 0 210 87 211 211c0 126 -86 211 -211 211c-123 0 -210 -88 -210 -211c0 -125 86 -211 210 -211z" />
    <glyph glyph-name="obreve.sc" horiz-adv-x="699" 
d="M349 639c-136 0 -163 142 -163 142h70s16 -81 93 -81c76 0 93 81 93 81h70s-27 -142 -163 -142zM349 -8c-169 0 -290 119 -290 285c0 164 123 284 290 284c171 0 292 -116 292 -284c0 -164 -122 -285 -292 -285zM349 66c125 0 210 87 211 211c0 126 -86 211 -211 211
c-123 0 -210 -88 -210 -211c0 -125 86 -211 210 -211z" />
    <glyph glyph-name="uni01D2.sc" horiz-adv-x="699" 
d="M308 651l-123 124h94l70 -74l71 74h93l-123 -124h-82zM349 -8c-169 0 -290 119 -290 285c0 164 123 284 290 284c171 0 292 -116 292 -284c0 -164 -122 -285 -292 -285zM349 66c125 0 210 87 211 211c0 126 -86 211 -211 211c-123 0 -210 -88 -210 -211
c0 -125 86 -211 210 -211z" />
    <glyph glyph-name="ocircumflex.sc" horiz-adv-x="699" 
d="M313 777h82l123 -124h-93l-71 74l-70 -74h-94zM349 -8c-169 0 -290 119 -290 285c0 164 123 284 290 284c171 0 292 -116 292 -284c0 -164 -122 -285 -292 -285zM349 66c125 0 210 87 211 211c0 126 -86 211 -211 211c-123 0 -210 -88 -210 -211c0 -125 86 -211 210 -211
z" />
    <glyph glyph-name="uni1ED9.sc" horiz-adv-x="699" 
d="M313 777h82l123 -124h-93l-71 74l-70 -74h-94zM349 -8c-169 0 -290 119 -290 285c0 164 123 284 290 284c171 0 292 -116 292 -284c0 -164 -122 -285 -292 -285zM349 66c125 0 210 87 211 211c0 126 -86 211 -211 211c-123 0 -210 -88 -210 -211c0 -125 86 -211 210 -211
zM349 -196c-33 0 -57 23 -57 56c0 32 24 55 57 55s56 -23 56 -55s-24 -56 -56 -56z" />
    <glyph glyph-name="uni020D.sc" horiz-adv-x="699" 
d="M228 644l83 197l71 -33l-99 -190zM392 644l83 197l71 -33l-99 -190zM349 -8c-169 0 -290 119 -290 285c0 164 123 284 290 284c171 0 292 -116 292 -284c0 -164 -122 -285 -292 -285zM349 66c125 0 210 87 211 211c0 126 -86 211 -211 211c-123 0 -210 -88 -210 -211
c0 -125 86 -211 210 -211z" />
    <glyph glyph-name="odieresis.sc" horiz-adv-x="699" 
d="M257 660c-32 0 -55 23 -55 55s23 54 55 54s55 -21 55 -54c0 -32 -23 -55 -55 -55zM442 660c-32 0 -55 22 -55 55c0 32 23 54 55 54c31 0 54 -22 54 -54s-23 -55 -54 -55zM349 -8c-169 0 -290 119 -290 285c0 164 123 284 290 284c171 0 292 -116 292 -284
c0 -164 -122 -285 -292 -285zM349 66c125 0 210 87 211 211c0 126 -86 211 -211 211c-123 0 -210 -88 -210 -211c0 -125 86 -211 210 -211z" />
    <glyph glyph-name="uni1ECD.sc" horiz-adv-x="699" 
d="M349 -8c-169 0 -290 119 -290 285c0 164 123 284 290 284c171 0 292 -116 292 -284c0 -164 -122 -285 -292 -285zM349 66c125 0 210 87 211 211c0 126 -86 211 -211 211c-123 0 -210 -88 -210 -211c0 -125 86 -211 210 -211zM349 -196c-33 0 -57 23 -57 56
c0 32 24 55 57 55s56 -23 56 -55s-24 -56 -56 -56z" />
    <glyph glyph-name="ograve.sc" horiz-adv-x="699" 
d="M418 673l-39 -46l-169 133l51 59zM349 -8c-169 0 -290 119 -290 285c0 164 123 284 290 284c171 0 292 -116 292 -284c0 -164 -122 -285 -292 -285zM349 66c125 0 210 87 211 211c0 126 -86 211 -211 211c-123 0 -210 -88 -210 -211c0 -125 86 -211 210 -211z" />
    <glyph glyph-name="ohungarumlaut.sc" horiz-adv-x="699" 
d="M305 644l-55 -26l-99 190l71 33zM469 644l-55 -26l-99 190l71 33zM349 -8c-169 0 -290 119 -290 285c0 164 123 284 290 284c171 0 292 -116 292 -284c0 -164 -122 -285 -292 -285zM349 66c125 0 210 87 211 211c0 126 -86 211 -211 211c-123 0 -210 -88 -210 -211
c0 -125 86 -211 210 -211z" />
    <glyph glyph-name="omacron.sc" horiz-adv-x="699" 
d="M176 675v67h346v-67h-346zM349 -8c-169 0 -290 119 -290 285c0 164 123 284 290 284c171 0 292 -116 292 -284c0 -164 -122 -285 -292 -285zM349 66c125 0 210 87 211 211c0 126 -86 211 -211 211c-123 0 -210 -88 -210 -211c0 -125 86 -211 210 -211z" />
    <glyph glyph-name="uni01EB.sc" horiz-adv-x="699" 
d="M415 -1c-16 -8 -86 -42 -86 -102c0 -33 25 -57 58 -57c34 0 54 17 54 17l20 -67s-33 -20 -85 -20c-73 0 -120 44 -120 112c0 49 31 87 60 112c-152 14 -257 128 -257 283c0 164 123 284 290 284c171 0 292 -116 292 -284c0 -142 -91 -251 -226 -278zM139 277
c0 -125 86 -211 210 -211c125 0 210 87 211 211c0 126 -86 211 -211 211c-123 0 -210 -88 -210 -211z" />
    <glyph glyph-name="oslash.sc" horiz-adv-x="693" 
d="M533 501c65 -50 104 -128 104 -224c0 -164 -122 -285 -292 -285c-56 0 -107 13 -149 37l-65 -91l-33 22l64 90c-67 51 -107 131 -107 227c0 164 123 284 290 284c58 0 111 -13 155 -38l66 93l32 -23zM136 277c0 -70 26 -127 71 -164l249 348c-32 18 -69 27 -111 27
c-123 0 -209 -88 -209 -211zM345 66c125 0 211 87 211 211c0 68 -25 125 -68 162l-248 -348c30 -16 65 -25 105 -25z" />
    <glyph glyph-name="oslashacute.sc" horiz-adv-x="693" 
d="M486 761l-169 -133l-39 46l157 146zM533 501c65 -50 104 -128 104 -224c0 -164 -122 -285 -292 -285c-56 0 -107 13 -149 37l-65 -91l-33 22l64 90c-67 51 -107 131 -107 227c0 164 123 284 290 284c58 0 111 -13 155 -38l66 93l32 -23zM136 277c0 -70 26 -127 71 -164
l249 348c-32 18 -69 27 -111 27c-123 0 -209 -88 -209 -211zM345 66c125 0 211 87 211 211c0 68 -25 125 -68 162l-248 -348c30 -16 65 -25 105 -25z" />
    <glyph glyph-name="otilde.sc" horiz-adv-x="699" 
d="M510 745v-71s-28 -36 -87 -36c-68 0 -97 50 -155 50c-50 0 -81 -37 -81 -37v71s27 36 86 36c71 0 99 -51 156 -51c50 0 81 38 81 38zM349 -8c-169 0 -290 119 -290 285c0 164 123 284 290 284c171 0 292 -116 292 -284c0 -164 -122 -285 -292 -285zM349 66
c125 0 210 87 211 211c0 126 -86 211 -211 211c-123 0 -210 -88 -210 -211c0 -125 86 -211 210 -211z" />
    <glyph glyph-name="oe.sc" horiz-adv-x="980" 
d="M624 71h295v-71h-370l2 91c-45 -61 -116 -99 -207 -99c-167 0 -285 120 -285 285s120 284 285 284c92 0 162 -37 207 -97l-2 90h366v-70h-291v-172h275v-67h-275v-174zM345 66c123 0 205 87 206 211s-83 211 -206 211c-122 0 -206 -87 -206 -211c0 -125 82 -211 206 -211
z" />
    <glyph glyph-name="p.sc" horiz-adv-x="559" 
d="M297 554c130 0 211 -73 211 -189c0 -115 -82 -189 -211 -189h-124v-176h-77v554h201zM297 249c81 0 131 45 131 116s-50 116 -130 116h-125v-232h124z" />
    <glyph glyph-name="thorn.sc" horiz-adv-x="559" 
d="M297 467c130 0 211 -73 211 -190c0 -115 -82 -188 -211 -188h-124v-89h-77v554h77v-87h124zM297 163c81 0 131 43 131 114c0 73 -50 117 -130 117h-125v-231h124z" />
    <glyph glyph-name="q.sc" horiz-adv-x="699" 
d="M641 277c0 -106 -51 -194 -133 -243l108 -163h-89l-86 134c-29 -9 -60 -13 -92 -13c-169 0 -290 119 -290 285c0 164 123 284 290 284c172 0 292 -116 292 -284zM139 277c0 -125 85 -211 210 -211c126 0 211 87 211 211c1 125 -85 211 -211 211
c-123 0 -210 -88 -210 -211z" />
    <glyph glyph-name="r.sc" horiz-adv-x="578" 
d="M529 0h-95l-134 193h-1h-126v-193h-77v554h207c130 0 211 -70 211 -180c0 -85 -52 -147 -136 -171zM173 481v-214h131c80 0 130 40 130 107c0 68 -49 107 -129 107h-132z" />
    <glyph glyph-name="racute.sc" horiz-adv-x="578" 
d="M445 760l-169 -133l-39 46l157 146zM529 0h-95l-134 193h-1h-126v-193h-77v554h207c130 0 211 -70 211 -180c0 -85 -52 -147 -136 -171zM173 481v-214h131c80 0 130 40 130 107c0 68 -49 107 -129 107h-132z" />
    <glyph glyph-name="rcaron.sc" horiz-adv-x="578" 
d="M346 651h-82l-123 124h94l70 -74l71 74h93zM529 0h-95l-134 193h-1h-126v-193h-77v554h207c130 0 211 -70 211 -180c0 -85 -52 -147 -136 -171zM173 481v-214h131c80 0 130 40 130 107c0 68 -49 107 -129 107h-132z" />
    <glyph glyph-name="rcommaaccent.sc" horiz-adv-x="578" 
d="M378 203l151 -203h-95l-134 193h-1h-126v-193h-77v554h207c130 0 211 -70 211 -180c0 -85 -52 -147 -136 -171zM173 481v-214h131c80 0 130 40 130 107c0 68 -49 107 -129 107h-132zM370 -112v-1v-1c-1 -23 -11 -42 -32 -82l-37 -70l-38 17l30 84c-22 7 -36 27 -36 53
c0 33 23 55 56 55c34 0 57 -21 57 -55z" />
    <glyph glyph-name="uni0211.sc" horiz-adv-x="578" 
d="M338 808l-99 -190l-55 26l83 197zM502 808l-99 -190l-55 26l83 197zM529 0h-95l-134 193h-1h-126v-193h-77v554h207c130 0 211 -70 211 -180c0 -85 -52 -147 -136 -171zM173 481v-214h131c80 0 130 40 130 107c0 68 -49 107 -129 107h-132z" />
    <glyph glyph-name="uni1E5B.sc" horiz-adv-x="578" 
d="M378 203l151 -203h-95l-134 193h-1h-126v-193h-77v554h207c130 0 211 -70 211 -180c0 -85 -52 -147 -136 -171zM173 481v-214h131c80 0 130 40 130 107c0 68 -49 107 -129 107h-132zM313 -85c33 0 56 -23 56 -55s-24 -56 -56 -56c-33 0 -57 23 -57 56c0 32 24 55 57 55z
" />
    <glyph glyph-name="s.sc" horiz-adv-x="499" 
d="M250 -8c-157 0 -192 137 -192 137l72 21s20 -90 120 -90c68 0 112 33 112 86c0 47 -30 74 -92 91l-69 20c-89 24 -133 72 -133 153c0 92 69 151 178 151c150 0 179 -116 179 -116l-69 -24s-17 73 -110 73c-62 0 -101 -31 -101 -80c0 -47 30 -75 94 -94l73 -20
c87 -26 130 -73 130 -150c0 -96 -76 -158 -192 -158z" />
    <glyph glyph-name="sacute.sc" horiz-adv-x="499" 
d="M178 673l157 146l51 -59l-169 -133zM250 -8c-157 0 -192 137 -192 137l72 21s20 -90 120 -90c68 0 112 33 112 86c0 47 -30 74 -92 91l-69 20c-89 24 -133 72 -133 153c0 92 69 151 178 151c150 0 179 -116 179 -116l-69 -24s-17 73 -110 73c-62 0 -101 -31 -101 -80
c0 -47 30 -75 94 -94l73 -20c87 -26 130 -73 130 -150c0 -96 -76 -158 -192 -158z" />
    <glyph glyph-name="scaron.sc" horiz-adv-x="499" 
d="M205 651l-123 124h94l70 -74l71 74h93l-123 -124h-82zM250 -8c-157 0 -192 137 -192 137l72 21s20 -90 120 -90c68 0 112 33 112 86c0 47 -30 74 -92 91l-69 20c-89 24 -133 72 -133 153c0 92 69 151 178 151c150 0 179 -116 179 -116l-69 -24s-17 73 -110 73
c-62 0 -101 -31 -101 -80c0 -47 30 -75 94 -94l73 -20c87 -26 130 -73 130 -150c0 -96 -76 -158 -192 -158z" />
    <glyph glyph-name="scedilla.sc" horiz-adv-x="499" 
d="M442 150c0 -88 -65 -148 -165 -157l-4 -27h4c51 0 91 -38 91 -91c0 -64 -52 -105 -128 -105c-69 0 -105 36 -105 36l34 55s23 -25 70 -25c34 0 57 16 57 42c0 25 -19 41 -52 41c-23 0 -38 -6 -38 -6l11 81c-129 18 -159 135 -159 135l72 21s20 -90 120 -90
c68 0 112 33 112 86c0 47 -30 74 -92 91l-69 20c-89 24 -133 72 -133 153c0 92 69 151 178 151c150 0 179 -116 179 -116l-69 -24s-17 73 -110 73c-62 0 -101 -31 -101 -80c0 -47 30 -75 94 -94l73 -20c87 -26 130 -73 130 -150z" />
    <glyph glyph-name="scircumflex.sc" horiz-adv-x="499" 
d="M210 777h82l123 -124h-93l-71 74l-70 -74h-94zM250 -8c-157 0 -192 137 -192 137l72 21s20 -90 120 -90c68 0 112 33 112 86c0 47 -30 74 -92 91l-69 20c-89 24 -133 72 -133 153c0 92 69 151 178 151c150 0 179 -116 179 -116l-69 -24s-17 73 -110 73
c-62 0 -101 -31 -101 -80c0 -47 30 -75 94 -94l73 -20c87 -26 130 -73 130 -150c0 -96 -76 -158 -192 -158z" />
    <glyph glyph-name="scommaaccent.sc" horiz-adv-x="499" 
d="M312 300c87 -26 130 -73 130 -150c0 -96 -76 -158 -192 -158c-157 0 -192 137 -192 137l72 21s20 -90 120 -90c68 0 112 33 112 86c0 47 -30 74 -92 91l-69 20c-89 24 -133 72 -133 153c0 92 69 151 178 151c150 0 179 -116 179 -116l-69 -24s-17 73 -110 73
c-62 0 -101 -31 -101 -80c0 -47 30 -75 94 -94zM307 -112v-1v-1c-1 -23 -11 -42 -32 -82l-37 -70l-38 17l30 84c-22 7 -36 27 -36 53c0 33 23 55 56 55c34 0 57 -21 57 -55z" />
    <glyph glyph-name="uni1E63.sc" horiz-adv-x="499" 
d="M250 -8c-157 0 -192 137 -192 137l72 21s20 -90 120 -90c68 0 112 33 112 86c0 47 -30 74 -92 91l-69 20c-89 24 -133 72 -133 153c0 92 69 151 178 151c150 0 179 -116 179 -116l-69 -24s-17 73 -110 73c-62 0 -101 -31 -101 -80c0 -47 30 -75 94 -94l73 -20
c87 -26 130 -73 130 -150c0 -96 -76 -158 -192 -158zM250 -196c-33 0 -57 23 -57 56c0 32 24 55 57 55s56 -23 56 -55s-24 -56 -56 -56z" />
    <glyph glyph-name="germandbls.sc" horiz-adv-x="568" 
d="M357 313v-2c97 -5 159 -65 159 -150c0 -98 -79 -161 -201 -161h-54v67h57c74 0 118 37 118 100c0 61 -47 97 -125 97h-21v63l114 108s-36 58 -120 58c-73 0 -119 -45 -119 -117v-376h-78v366c0 123 73 195 196 195c155 0 208 -130 208 -130z" />
    <glyph glyph-name="t.sc" horiz-adv-x="531" 
d="M495 554v-73h-191v-481h-78v481h-190v73h459z" />
    <glyph glyph-name="tbar.sc" horiz-adv-x="531" 
d="M495 481h-191v-188h96v-55h-96v-238h-78v238h-96v55h96v188h-190v73h459v-73z" />
    <glyph glyph-name="tcaron.sc" horiz-adv-x="531" 
d="M306 651h-82l-123 124h94l70 -74l71 74h93zM495 554v-73h-191v-481h-78v481h-190v73h459z" />
    <glyph glyph-name="uni0163.sc" horiz-adv-x="531" 
d="M495 554v-73h-191v-481h-78v481h-190v73h459zM292 -34c51 0 91 -38 91 -91c0 -64 -52 -105 -128 -105c-69 0 -105 36 -105 36l34 55s23 -25 70 -25c34 0 57 16 57 42c0 25 -19 41 -52 41c-23 0 -38 -6 -38 -6l11 83h60l-4 -30h4z" />
    <glyph glyph-name="uni021B.sc" horiz-adv-x="531" 
d="M495 554v-73h-191v-481h-78v481h-190v73h459zM322 -112v-1v-1c-1 -23 -11 -42 -32 -82l-37 -70l-38 17l30 84c-22 7 -36 27 -36 53c0 33 23 55 56 55c34 0 57 -21 57 -55z" />
    <glyph glyph-name="uni1E6D.sc" horiz-adv-x="531" 
d="M495 554v-73h-191v-481h-78v481h-190v73h459zM265 -85c33 0 56 -23 56 -55s-24 -56 -56 -56c-33 0 -57 23 -57 56c0 32 24 55 57 55z" />
    <glyph glyph-name="u.sc" horiz-adv-x="637" 
d="M319 -8c-145 0 -236 93 -236 238v324h78v-325c0 -102 61 -163 158 -163c98 0 159 61 159 163v325h76v-324c0 -145 -90 -238 -235 -238z" />
    <glyph glyph-name="uacute.sc" horiz-adv-x="637" 
d="M248 673l157 146l51 -59l-169 -133zM319 -8c-145 0 -236 93 -236 238v324h78v-325c0 -102 61 -163 158 -163c98 0 159 61 159 163v325h76v-324c0 -145 -90 -238 -235 -238z" />
    <glyph glyph-name="ubreve.sc" horiz-adv-x="637" 
d="M316 639c-136 0 -163 142 -163 142h70s16 -81 93 -81c76 0 93 81 93 81h70s-27 -142 -163 -142zM319 -8c-145 0 -236 93 -236 238v324h78v-325c0 -102 61 -163 158 -163c98 0 159 61 159 163v325h76v-324c0 -145 -90 -238 -235 -238z" />
    <glyph glyph-name="uni01D4.sc" horiz-adv-x="637" 
d="M275 651l-123 124h94l70 -74l71 74h93l-123 -124h-82zM319 -8c-145 0 -236 93 -236 238v324h78v-325c0 -102 61 -163 158 -163c98 0 159 61 159 163v325h76v-324c0 -145 -90 -238 -235 -238z" />
    <glyph glyph-name="ucircumflex.sc" horiz-adv-x="637" 
d="M280 777h82l123 -124h-93l-71 74l-70 -74h-94zM319 -8c-145 0 -236 93 -236 238v324h78v-325c0 -102 61 -163 158 -163c98 0 159 61 159 163v325h76v-324c0 -145 -90 -238 -235 -238z" />
    <glyph glyph-name="uni0215.sc" horiz-adv-x="637" 
d="M195 644l83 197l71 -33l-99 -190zM359 644l83 197l71 -33l-99 -190zM319 -8c-145 0 -236 93 -236 238v324h78v-325c0 -102 61 -163 158 -163c98 0 159 61 159 163v325h76v-324c0 -145 -90 -238 -235 -238z" />
    <glyph glyph-name="udieresis.sc" horiz-adv-x="637" 
d="M224 660c-32 0 -55 23 -55 55s23 54 55 54s55 -21 55 -54c0 -32 -23 -55 -55 -55zM409 660c-32 0 -55 22 -55 55c0 32 23 54 55 54c31 0 54 -22 54 -54s-23 -55 -54 -55zM319 -8c-145 0 -236 93 -236 238v324h78v-325c0 -102 61 -163 158 -163c98 0 159 61 159 163v325
h76v-324c0 -145 -90 -238 -235 -238z" />
    <glyph glyph-name="uni1EE5.sc" horiz-adv-x="637" 
d="M319 -8c-145 0 -236 93 -236 238v324h78v-325c0 -102 61 -163 158 -163c98 0 159 61 159 163v325h76v-324c0 -145 -90 -238 -235 -238zM319 -196c-33 0 -57 23 -57 56c0 32 24 55 57 55s56 -23 56 -55s-24 -56 -56 -56z" />
    <glyph glyph-name="ugrave.sc" horiz-adv-x="637" 
d="M385 673l-39 -46l-169 133l51 59zM319 -8c-145 0 -236 93 -236 238v324h78v-325c0 -102 61 -163 158 -163c98 0 159 61 159 163v325h76v-324c0 -145 -90 -238 -235 -238z" />
    <glyph glyph-name="uhungarumlaut.sc" horiz-adv-x="637" 
d="M272 644l-55 -26l-99 190l71 33zM436 644l-55 -26l-99 190l71 33zM319 -8c-145 0 -236 93 -236 238v324h78v-325c0 -102 61 -163 158 -163c98 0 159 61 159 163v325h76v-324c0 -145 -90 -238 -235 -238z" />
    <glyph glyph-name="umacron.sc" horiz-adv-x="637" 
d="M143 675v67h346v-67h-346zM319 -8c-145 0 -236 93 -236 238v324h78v-325c0 -102 61 -163 158 -163c98 0 159 61 159 163v325h76v-324c0 -145 -90 -238 -235 -238z" />
    <glyph glyph-name="uogonek.sc" horiz-adv-x="637" 
d="M478 554h76v-324c0 -125 -67 -212 -179 -233c-20 -9 -83 -43 -83 -100c0 -33 25 -57 58 -57c34 0 54 17 54 17l20 -67s-33 -20 -85 -20c-73 0 -120 44 -120 112c0 50 31 88 61 112c-122 16 -197 105 -197 236v324h78v-325c0 -102 61 -163 158 -163c98 0 159 61 159 163
v325z" />
    <glyph glyph-name="uring.sc" horiz-adv-x="637" 
d="M316 616c-65 0 -112 46 -112 110c0 65 47 111 112 111s112 -46 112 -111c0 -64 -47 -110 -112 -110zM316 677c30 0 52 21 52 49c0 30 -22 51 -52 51c-29 0 -49 -21 -49 -51c0 -28 20 -49 49 -49zM319 -8c-145 0 -236 93 -236 238v324h78v-325c0 -102 61 -163 158 -163
c98 0 159 61 159 163v325h76v-324c0 -145 -90 -238 -235 -238z" />
    <glyph glyph-name="utilde.sc" horiz-adv-x="637" 
d="M477 745v-71s-28 -36 -87 -36c-68 0 -97 50 -155 50c-50 0 -81 -37 -81 -37v71s27 36 86 36c71 0 99 -51 156 -51c50 0 81 38 81 38zM319 -8c-145 0 -236 93 -236 238v324h78v-325c0 -102 61 -163 158 -163c98 0 159 61 159 163v325h76v-324c0 -145 -90 -238 -235 -238z
" />
    <glyph glyph-name="v.sc" horiz-adv-x="632" 
d="M274 0l-241 554h86l192 -452l6 -20l7 20l190 452h86l-240 -554h-86z" />
    <glyph glyph-name="w.sc" horiz-adv-x="881" 
d="M220 0l-183 554h83l139 -435l4 -30l5 30l134 435h79l133 -435l5 -30l4 30l139 435h82l-183 -554h-81l-135 444l-5 25l-3 -25l-136 -444h-81z" />
    <glyph glyph-name="wacute.sc" horiz-adv-x="881" 
d="M372 673l157 146l51 -59l-169 -133zM220 0l-183 554h83l139 -435l4 -30l5 30l134 435h79l133 -435l5 -30l4 30l139 435h82l-183 -554h-81l-135 444l-5 25l-3 -25l-136 -444h-81z" />
    <glyph glyph-name="wcircumflex.sc" horiz-adv-x="881" 
d="M404 777h82l123 -124h-93l-71 74l-70 -74h-94zM220 0l-183 554h83l139 -435l4 -30l5 30l134 435h79l133 -435l5 -30l4 30l139 435h82l-183 -554h-81l-135 444l-5 25l-3 -25l-136 -444h-81z" />
    <glyph glyph-name="wdieresis.sc" horiz-adv-x="881" 
d="M348 660c-32 0 -55 23 -55 55s23 54 55 54s55 -21 55 -54c0 -32 -23 -55 -55 -55zM533 660c-32 0 -55 22 -55 55c0 32 23 54 55 54c31 0 54 -22 54 -54s-23 -55 -54 -55zM220 0l-183 554h83l139 -435l4 -30l5 30l134 435h79l133 -435l5 -30l4 30l139 435h82l-183 -554
h-81l-135 444l-5 25l-3 -25l-136 -444h-81z" />
    <glyph glyph-name="wgrave.sc" horiz-adv-x="881" 
d="M509 673l-39 -46l-169 133l51 59zM220 0l-183 554h83l139 -435l4 -30l5 30l134 435h79l133 -435l5 -30l4 30l139 435h82l-183 -554h-81l-135 444l-5 25l-3 -25l-136 -444h-81z" />
    <glyph glyph-name="x.sc" horiz-adv-x="595" 
d="M563 0h-96l-169 220l-170 -220h-95l216 281l-206 273h95l160 -213l157 213h96l-205 -273z" />
    <glyph glyph-name="y.sc" horiz-adv-x="587" 
d="M256 0v181l-226 373h92l168 -285l5 -14l5 14l168 285h89l-223 -373v-181h-78z" />
    <glyph glyph-name="yacute.sc" horiz-adv-x="587" 
d="M227 673l157 146l51 -59l-169 -133zM256 0v181l-226 373h92l168 -285l5 -14l5 14l168 285h89l-223 -373v-181h-78z" />
    <glyph glyph-name="ycircumflex.sc" horiz-adv-x="587" 
d="M259 777h82l123 -124h-93l-71 74l-70 -74h-94zM256 0v181l-226 373h92l168 -285l5 -14l5 14l168 285h89l-223 -373v-181h-78z" />
    <glyph glyph-name="ydieresis.sc" horiz-adv-x="587" 
d="M203 660c-32 0 -55 23 -55 55s23 54 55 54s55 -21 55 -54c0 -32 -23 -55 -55 -55zM388 660c-32 0 -55 22 -55 55c0 32 23 54 55 54c31 0 54 -22 54 -54s-23 -55 -54 -55zM256 0v181l-226 373h92l168 -285l5 -14l5 14l168 285h89l-223 -373v-181h-78z" />
    <glyph glyph-name="uni1EF5.sc" horiz-adv-x="587" 
d="M256 0v181l-226 373h92l168 -285l5 -14l5 14l168 285h89l-223 -373v-181h-78zM295 -196c-33 0 -57 23 -57 56c0 32 24 55 57 55s56 -23 56 -55s-24 -56 -56 -56z" />
    <glyph glyph-name="ygrave.sc" horiz-adv-x="587" 
d="M364 673l-39 -46l-169 133l51 59zM256 0v181l-226 373h92l168 -285l5 -14l5 14l168 285h89l-223 -373v-181h-78z" />
    <glyph glyph-name="uni1EF9.sc" horiz-adv-x="587" 
d="M456 745v-71s-28 -36 -87 -36c-68 0 -97 50 -155 50c-50 0 -81 -37 -81 -37v71s27 36 86 36c71 0 99 -51 156 -51c50 0 81 38 81 38zM256 0v181l-226 373h92l168 -285l5 -14l5 14l168 285h89l-223 -373v-181h-78z" />
    <glyph glyph-name="z.sc" horiz-adv-x="533" 
d="M48 0v60l324 421h-316v73h423v-57l-324 -424h329v-73h-436z" />
    <glyph glyph-name="zacute.sc" horiz-adv-x="533" 
d="M200 673l157 146l51 -59l-169 -133zM48 0v60l324 421h-316v73h423v-57l-324 -424h329v-73h-436z" />
    <glyph glyph-name="zcaron.sc" horiz-adv-x="533" 
d="M227 651l-123 124h94l70 -74l71 74h93l-123 -124h-82zM48 0v60l324 421h-316v73h423v-57l-324 -424h329v-73h-436z" />
    <glyph glyph-name="zdotaccent.sc" horiz-adv-x="533" 
d="M268 659c-33 0 -57 23 -57 56c0 32 24 55 57 55s56 -23 56 -55s-24 -56 -56 -56zM48 0v60l324 421h-316v73h423v-57l-324 -424h329v-73h-436z" />
    <glyph glyph-name="uni1E93.sc" horiz-adv-x="533" 
d="M48 0v60l324 421h-316v73h423v-57l-324 -424h329v-73h-436zM266 -196c-33 0 -57 23 -57 56c0 32 24 55 57 55s56 -23 56 -55s-24 -56 -56 -56z" />
    <glyph glyph-name="k.sc.ss01" horiz-adv-x="590" 
d="M555 0h-107l-273 274v-274h-77v554h77v-269l251 269h104l-264 -271z" />
    <glyph glyph-name="kcommaaccent.sc.ss01" horiz-adv-x="590" 
d="M266 283l289 -283h-107l-273 274v-274h-77v554h77v-269l251 269h104zM384 -112v-1v-1c-1 -23 -11 -42 -32 -82l-37 -70l-38 17l30 84c-22 7 -36 27 -36 53c0 33 23 55 56 55c34 0 57 -21 57 -55z" />
    <glyph glyph-name="ordfeminine" unicode="&#xaa;" horiz-adv-x="416" 
d="M301 725h65v-325h-65v60c-23 -43 -63 -67 -117 -67c-91 0 -154 69 -154 169s64 170 155 170c54 0 93 -25 116 -68v61zM199 455c58 0 101 44 101 107c0 61 -42 107 -101 107s-100 -44 -100 -107s41 -107 100 -107z" />
    <glyph glyph-name="ordmasculine" unicode="&#xba;" horiz-adv-x="407" 
d="M204 394c-103 0 -175 70 -175 168s74 169 175 169c102 0 175 -69 175 -169c0 -97 -74 -168 -175 -168zM204 456c62 0 106 44 106 106c0 65 -43 107 -106 107c-62 0 -107 -44 -107 -107c0 -62 43 -106 107 -106z" />
    <glyph glyph-name="k.sups.ss01" horiz-adv-x="369" 
d="M357 400h-85l-155 158v-158h-68v484h68v-313l139 154h82l-150 -158z" />
    <glyph glyph-name="a.sups" horiz-adv-x="416" 
d="M301 725h65v-325h-65v60c-23 -43 -63 -67 -117 -67c-91 0 -154 69 -154 169s64 170 155 170c54 0 93 -25 116 -68v61zM199 455c58 0 101 44 101 107c0 61 -42 107 -101 107s-100 -44 -100 -107s41 -107 100 -107z" />
    <glyph glyph-name="b.sups" horiz-adv-x="415" 
d="M233 732c91 0 153 -69 153 -167c0 -101 -64 -172 -155 -172c-56 0 -94 25 -116 66v-59h-66v484h68v-217c23 40 62 65 116 65zM217 456c59 0 100 45 100 109c0 61 -39 104 -99 104c-59 0 -103 -43 -103 -104c0 -64 42 -109 102 -109z" />
    <glyph glyph-name="c.sups" horiz-adv-x="366" 
d="M193 393c-95 0 -165 72 -165 172c0 94 73 167 170 167c62 0 114 -31 144 -86l-62 -25c-18 30 -46 47 -82 47c-59 0 -101 -43 -101 -103c0 -64 41 -108 98 -108c41 0 70 17 89 52l61 -25c-30 -59 -81 -91 -152 -91z" />
    <glyph glyph-name="d.sups" horiz-adv-x="416" 
d="M299 884h67v-484h-65v60c-22 -42 -61 -67 -117 -67c-90 0 -154 69 -154 169s65 170 155 170c54 0 92 -24 114 -63v215zM199 456c58 0 101 43 101 106c0 61 -42 107 -101 107s-100 -43 -100 -107c0 -63 41 -106 100 -106z" />
    <glyph glyph-name="e.sups" horiz-adv-x="382" 
d="M356 564c0 -14 -1 -26 -1 -26h-258c8 -56 45 -91 99 -91c40 0 70 15 88 46l57 -23c-32 -51 -82 -77 -147 -77c-96 0 -165 73 -165 170c0 98 71 169 170 169c94 0 157 -69 157 -168zM97 591h194c-2 53 -39 88 -94 88c-53 0 -91 -33 -100 -88z" />
    <glyph glyph-name="f.sups" horiz-adv-x="279" 
d="M143 767v-42h120v-57h-120v-268h-67v268h-60v57h60v46c0 76 44 120 118 120c58 0 91 -31 91 -31l-25 -54s-22 24 -58 24c-41 0 -59 -21 -59 -63z" />
    <glyph glyph-name="g.sups" horiz-adv-x="410" 
d="M294 725h66v-319c0 -96 -61 -152 -161 -152c-80 0 -138 42 -153 110l65 9c9 -40 42 -64 88 -64c61 0 95 35 95 97v63c-22 -38 -61 -61 -116 -61c-88 0 -149 64 -149 161s62 163 151 163c54 0 92 -23 114 -62v55zM195 467c57 0 99 41 99 103c0 60 -40 102 -99 102
s-97 -42 -97 -102c0 -63 37 -103 97 -103z" />
    <glyph glyph-name="h.sups" horiz-adv-x="399" 
d="M49 400v484h68v-221c19 44 61 69 114 69c76 0 126 -52 126 -136v-196h-68v181c0 56 -29 88 -80 88c-54 0 -92 -39 -92 -94v-175h-68z" />
    <glyph glyph-name="i.sups" horiz-adv-x="166" 
d="M83 785c-26 0 -45 18 -45 45c0 25 19 44 45 44s45 -18 45 -44s-19 -45 -45 -45zM49 400v325h68v-325h-68z" />
    <glyph glyph-name="j.sups" horiz-adv-x="166" 
d="M82 786c-26 0 -44 18 -44 44c0 25 19 44 44 44c27 0 46 -18 46 -44s-19 -44 -46 -44zM1 253c-13 0 -22 2 -22 2l5 58h8c39 0 57 20 57 61v351h68v-350c0 -78 -40 -122 -116 -122z" />
    <glyph glyph-name="k.sups" horiz-adv-x="372" 
d="M360 400h-75l-87 132l-93 -132h-56v484h68v-348l-3 -36l18 36l132 189h76l-104 -144z" />
    <glyph glyph-name="l.sups" horiz-adv-x="166" 
d="M49 400v484h68v-484h-68z" />
    <glyph glyph-name="m.sups" horiz-adv-x="608" 
d="M448 732c71 0 118 -52 118 -136v-196h-68v181c0 57 -26 88 -72 88c-51 0 -85 -39 -85 -93v-176h-67v181c0 57 -27 88 -73 88c-52 0 -84 -39 -84 -93v-176h-68v325h66v-65c18 46 58 72 108 72c52 0 88 -24 106 -74c23 47 66 74 119 74z" />
    <glyph glyph-name="n.sups" horiz-adv-x="397" 
d="M49 400v325h66v-65c20 46 61 72 115 72c76 0 125 -52 125 -136v-196h-67v181c0 57 -29 88 -80 88c-54 0 -91 -39 -91 -93v-176h-68z" />
    <glyph glyph-name="o.sups" horiz-adv-x="407" 
d="M204 394c-103 0 -175 70 -175 168s74 169 175 169c102 0 175 -69 175 -169c0 -97 -74 -168 -175 -168zM204 456c62 0 106 44 106 106c0 65 -43 107 -106 107c-62 0 -107 -44 -107 -107c0 -62 43 -106 107 -106z" />
    <glyph glyph-name="p.sups" horiz-adv-x="415" 
d="M233 732c90 0 153 -69 153 -170c0 -99 -64 -169 -155 -169c-53 0 -91 24 -114 64v-200h-68v468h66v-60c22 42 61 67 118 67zM217 456c59 0 100 44 100 106c0 64 -42 107 -99 107c-59 0 -103 -43 -103 -107c0 -61 43 -106 102 -106z" />
    <glyph glyph-name="q.sups" horiz-adv-x="416" 
d="M301 725h65v-468h-67v200c-23 -40 -63 -64 -116 -64c-91 0 -153 69 -153 169c0 99 65 170 155 170c56 0 94 -24 116 -63v56zM198 456c58 0 102 45 102 106c0 64 -40 107 -100 107c-59 0 -101 -44 -101 -107c0 -64 39 -106 99 -106z" />
    <glyph glyph-name="r.sups" horiz-adv-x="261" 
d="M49 400v325h66v-83c15 56 57 88 113 88c7 0 13 -1 19 -1l-5 -68h-12c-78 0 -113 -47 -113 -133v-128h-68z" />
    <glyph glyph-name="s.sups" horiz-adv-x="301" 
d="M149 393c-105 0 -122 80 -122 80l60 18s11 -43 61 -43c36 0 58 12 58 41c0 27 -17 36 -52 44l-36 9c-55 13 -86 46 -86 94c0 58 46 96 117 96c96 0 116 -66 116 -66l-60 -21s-10 32 -55 32c-32 0 -52 -11 -52 -38c0 -26 18 -35 53 -43l38 -10c54 -13 85 -46 85 -93
c0 -62 -48 -100 -125 -100z" />
    <glyph glyph-name="t.sups" horiz-adv-x="300" 
d="M263 471l20 -57s-33 -21 -87 -21c-81 0 -120 40 -120 124v151h-60v57h60v90h67v-90h119v-57h-119v-146c0 -49 18 -67 61 -68c35 -1 59 17 59 17z" />
    <glyph glyph-name="u.sups" horiz-adv-x="388" 
d="M194 394c-95 0 -153 54 -153 146v185h68v-179c0 -57 31 -89 85 -89c53 0 85 32 85 89v179h68v-185c0 -92 -57 -146 -153 -146z" />
    <glyph glyph-name="v.sups" horiz-adv-x="382" 
d="M368 725l-141 -325h-72l-141 325h76l96 -235l5 -24l5 24l98 235h74z" />
    <glyph glyph-name="w.sups" horiz-adv-x="540" 
d="M455 725h69l-114 -325h-62l-73 224l-5 26l-5 -26l-70 -224h-63l-117 325h71l74 -225l6 -32l5 32l69 225h60l71 -225l5 -32l6 32z" />
    <glyph glyph-name="x.sups" horiz-adv-x="367" 
d="M353 400h-80l-90 119l-89 -119h-81l129 165l-122 160h80l83 -113l82 113h81l-122 -160z" />
    <glyph glyph-name="y.sups" horiz-adv-x="384" 
d="M86 257l71 150l-143 318h76l98 -233l5 -28l5 28l97 233h75l-206 -468h-78z" />
    <glyph glyph-name="z.sups" horiz-adv-x="317" 
d="M24 400v53l178 212h-174v60h262v-51l-178 -212h180v-62h-268z" />
    <glyph glyph-name="zero" unicode="0" horiz-adv-x="708" 
d="M355 -10c-171 0 -291 151 -291 363c0 211 123 362 291 362c169 0 290 -151 290 -362c0 -212 -123 -363 -290 -363zM355 62c123 0 210 119 210 291c0 171 -86 291 -210 291s-212 -120 -212 -291s87 -291 212 -291z" />
    <glyph glyph-name="one" unicode="1" horiz-adv-x="396" 
d="M214 0v591l-130 -108l-45 52l183 172h69v-707h-77z" />
    <glyph glyph-name="two" unicode="2" horiz-adv-x="544" 
d="M24 0v62l290 274c92 87 114 125 114 177c0 76 -62 131 -148 131c-91 0 -156 -54 -168 -143l-75 10c18 127 110 204 243 204c130 0 226 -83 226 -202c0 -73 -35 -132 -121 -213l-243 -226h361v-74h-479z" />
    <glyph glyph-name="three" unicode="3" horiz-adv-x="571" 
d="M364 362c85 -12 141 -84 141 -173c0 -117 -95 -199 -227 -199c-117 0 -207 64 -232 165l73 21c17 -71 78 -115 157 -115c91 0 151 50 151 131c0 79 -67 137 -159 137h-80v65h77c87 0 149 51 149 125c0 77 -56 126 -142 126c-70 0 -126 -41 -142 -103l-71 21
c22 92 108 152 217 152c125 0 215 -81 215 -193c0 -76 -50 -141 -127 -157v-3z" />
    <glyph glyph-name="four" unicode="4" horiz-adv-x="563" 
d="M537 220v-70h-102v-150h-78v150h-343v67l346 490h75v-487h102zM103 220h254v360z" />
    <glyph glyph-name="five" unicode="5" horiz-adv-x="584" 
d="M308 448c129 0 219 -95 219 -228c0 -134 -101 -230 -238 -230c-112 0 -197 62 -227 164l72 23c24 -74 80 -116 155 -116c95 0 158 62 158 158c0 97 -57 159 -147 159c-63 0 -113 -30 -135 -80l-82 23l30 386h376v-71h-306l-20 -251c27 40 81 63 145 63z" />
    <glyph glyph-name="six" unicode="6" horiz-adv-x="581" 
d="M300 446c122 0 226 -94 226 -228c0 -131 -98 -228 -235 -228c-136 0 -235 97 -235 228c0 51 12 93 42 142l225 347h94l-183 -275c23 9 46 14 66 14zM291 60c92 0 157 66 157 158s-65 158 -157 158c-91 0 -156 -66 -156 -158s65 -158 156 -158z" />
    <glyph glyph-name="seven" unicode="7" horiz-adv-x="544" 
d="M109 0l302 631h-369v76h457v-63l-301 -644h-89z" />
    <glyph glyph-name="eight" unicode="8" horiz-adv-x="609" 
d="M423 362c78 -28 120 -86 120 -173c0 -118 -100 -199 -239 -199c-138 0 -238 81 -238 199c0 86 43 145 119 173c-67 27 -105 81 -105 160c0 116 95 193 224 193c130 0 224 -77 224 -193c0 -79 -37 -133 -105 -160zM304 645c-89 0 -147 -48 -147 -123
c0 -77 58 -127 147 -127s147 50 147 127c0 75 -58 123 -147 123zM304 61c97 0 160 50 160 130c0 82 -63 136 -160 136c-95 0 -158 -54 -158 -136c0 -80 63 -130 158 -130z" />
    <glyph glyph-name="nine" unicode="9" horiz-adv-x="581" 
d="M290 717c136 0 235 -97 235 -228c0 -51 -12 -93 -42 -142l-225 -347h-94l183 275c-23 -9 -46 -14 -66 -14c-122 0 -226 94 -226 228c0 131 98 228 235 228zM133 489c0 -92 65 -158 157 -158c91 0 156 66 156 158s-65 158 -156 158c-92 0 -157 -66 -157 -158z" />
    <glyph glyph-name="uni24FF" unicode="&#x24ff;" 
d="M442 -10c214 0 377 160 377 373s-163 373 -377 372s-377 -161 -377 -372c0 -213 163 -373 377 -373zM442 126c-117 0 -199 99 -199 237c0 137 84 237 199 237c116 0 199 -99 199 -237s-84 -237 -199 -237zM442 192c75 0 126 69 126 171c0 101 -50 172 -126 172
c-75 0 -126 -71 -126 -172s51 -171 126 -171z" />
    <glyph glyph-name="uni2776" unicode="&#x2776;" 
d="M442 -10c214 0 377 160 377 373s-163 373 -377 372s-377 -161 -377 -372c0 -213 163 -373 377 -373zM428 133v369l-81 -64l-34 44l123 111h63v-460h-71z" />
    <glyph glyph-name="uni2777" unicode="&#x2777;" 
d="M442 -10c214 0 377 160 377 373s-163 373 -377 372s-377 -161 -377 -372c0 -213 163 -373 377 -373zM280 134v53l186 170c56 52 71 76 71 106c0 42 -34 72 -83 72c-53 0 -90 -32 -97 -83l-69 8c13 87 74 139 165 139c89 0 156 -56 156 -137c0 -49 -24 -87 -77 -133
l-147 -131h223v-64h-328z" />
    <glyph glyph-name="uni2778" unicode="&#x2778;" 
d="M442 -10c214 0 377 160 377 373s-163 373 -377 372s-377 -161 -377 -372c0 -213 163 -373 377 -373zM510 370c56 -10 93 -56 93 -113c0 -77 -65 -132 -156 -132c-81 0 -140 42 -157 111l65 18c10 -41 44 -66 90 -66c53 0 87 30 87 76s-38 77 -93 77h-51v53h49
c51 0 87 29 87 72s-32 70 -81 70c-41 0 -73 -23 -81 -57l-64 18c16 62 74 102 150 102c84 0 146 -53 146 -125c0 -51 -33 -92 -84 -103v-1z" />
    <glyph glyph-name="uni2779" unicode="&#x2779;" 
d="M442 -10c214 0 377 160 377 373s-163 373 -377 372s-377 -161 -377 -372c0 -213 163 -373 377 -373zM610 282v-60h-63v-90h-70v90h-223v56l225 314h68v-310h63zM327 282h150v209z" />
    <glyph glyph-name="uni277A" unicode="&#x277a;" 
d="M442 -10c214 0 377 160 377 373s-163 373 -377 372s-377 -161 -377 -372c0 -213 163 -373 377 -373zM460 430c84 0 143 -62 143 -150s-68 -153 -161 -153c-79 0 -137 41 -156 110l64 19c14 -42 46 -66 89 -66c55 0 92 36 92 89c0 54 -34 90 -86 90c-37 0 -66 -18 -78 -45
l-68 20l21 248h257v-62h-196l-12 -137c17 23 51 37 91 37z" />
    <glyph glyph-name="uni277B" unicode="&#x277b;" 
d="M442 -10c214 0 377 160 377 373s-163 373 -377 372s-377 -161 -377 -372c0 -213 163 -373 377 -373zM443 430c88 0 159 -62 159 -149c0 -86 -69 -149 -162 -149s-161 63 -161 149c0 32 7 59 28 92l143 224h80l-111 -172c7 4 16 5 24 5zM440 195c53 0 89 35 89 86
s-36 86 -89 86c-52 0 -88 -35 -88 -86s36 -86 88 -86z" />
    <glyph glyph-name="uni277C" unicode="&#x277c;" 
d="M442 -10c214 0 377 160 377 373s-163 373 -377 372s-377 -161 -377 -372c0 -213 163 -373 377 -373zM328 124l191 393h-231v67h312v-55l-192 -405h-80z" />
    <glyph glyph-name="uni277D" unicode="&#x277d;" 
d="M442 -10c214 0 377 160 377 373s-163 373 -377 372s-377 -161 -377 -372c0 -213 163 -373 377 -373zM443 126c-95 0 -162 56 -162 133c0 54 27 94 87 113c-54 17 -78 53 -78 103c0 75 63 125 153 125c89 0 152 -50 152 -125c0 -50 -25 -86 -77 -103
c59 -19 87 -59 87 -113c0 -77 -67 -133 -162 -133zM443 399c51 0 85 29 85 72c0 44 -32 70 -85 70c-54 0 -86 -26 -86 -70c0 -43 35 -72 86 -72zM443 185c58 0 92 28 92 76c0 46 -37 76 -92 76c-56 0 -93 -30 -93 -76c0 -48 34 -76 93 -76z" />
    <glyph glyph-name="uni277E" unicode="&#x277e;" 
d="M442 -10c214 0 377 160 377 373s-163 373 -377 372s-377 -161 -377 -372c0 -213 163 -373 377 -373zM351 129l111 172c-7 -4 -16 -5 -24 -5c-89 0 -159 62 -159 149c0 86 69 149 162 149s161 -63 161 -149c0 -33 -8 -59 -28 -92l-143 -224h-80zM441 359c52 0 88 35 88 86
s-36 86 -88 86c-53 0 -89 -35 -89 -86s36 -86 89 -86z" />
    <glyph glyph-name="uni24EA" unicode="&#x24ea;" 
d="M442 -10c-214 0 -377 160 -377 373c0 211 163 371 377 372s377 -159 377 -372s-163 -373 -377 -373zM442 56c180 0 310 130 310 307c0 176 -130 306 -310 306s-310 -130 -310 -306c0 -177 130 -307 310 -307zM442 126c-117 0 -199 99 -199 237c0 137 84 237 199 237
c116 0 199 -99 199 -237s-84 -237 -199 -237zM442 192c75 0 126 69 126 171c0 101 -50 172 -126 172c-75 0 -126 -71 -126 -172s51 -171 126 -171z" />
    <glyph glyph-name="uni2460" unicode="&#x2460;" 
d="M442 -10c-214 0 -377 160 -377 373c0 211 163 371 377 372s377 -159 377 -372s-163 -373 -377 -373zM442 56c180 0 310 130 310 307c0 176 -130 306 -310 306s-310 -130 -310 -306c0 -177 130 -307 310 -307zM428 133v369l-81 -64l-34 44l123 111h63v-460h-71z" />
    <glyph glyph-name="uni2461" unicode="&#x2461;" 
d="M442 -10c-214 0 -377 160 -377 373c0 211 163 371 377 372s377 -159 377 -372s-163 -373 -377 -373zM442 56c180 0 310 130 310 307c0 176 -130 306 -310 306s-310 -130 -310 -306c0 -177 130 -307 310 -307zM280 134v53l186 170c56 52 71 76 71 106c0 42 -34 72 -83 72
c-53 0 -90 -32 -97 -83l-69 8c13 87 74 139 165 139c89 0 156 -56 156 -137c0 -49 -24 -87 -77 -133l-147 -131h223v-64h-328z" />
    <glyph glyph-name="uni2462" unicode="&#x2462;" 
d="M442 -10c-214 0 -377 160 -377 373c0 211 163 371 377 372s377 -159 377 -372s-163 -373 -377 -373zM442 56c180 0 310 130 310 307c0 176 -130 306 -310 306s-310 -130 -310 -306c0 -177 130 -307 310 -307zM510 370c56 -10 93 -56 93 -113c0 -77 -65 -132 -156 -132
c-81 0 -140 42 -157 111l65 18c10 -41 44 -66 90 -66c53 0 87 30 87 76s-38 77 -93 77h-51v53h49c51 0 87 29 87 72s-32 70 -81 70c-41 0 -73 -23 -81 -57l-64 18c16 62 74 102 150 102c84 0 146 -53 146 -125c0 -51 -33 -92 -84 -103v-1z" />
    <glyph glyph-name="uni2463" unicode="&#x2463;" 
d="M442 -10c-214 0 -377 160 -377 373c0 211 163 371 377 372s377 -159 377 -372s-163 -373 -377 -373zM442 56c180 0 310 130 310 307c0 176 -130 306 -310 306s-310 -130 -310 -306c0 -177 130 -307 310 -307zM610 282v-60h-63v-90h-70v90h-223v56l225 314h68v-310h63z
M327 282h150v209z" />
    <glyph glyph-name="uni2464" unicode="&#x2464;" 
d="M442 -10c-214 0 -377 160 -377 373c0 211 163 371 377 372s377 -159 377 -372s-163 -373 -377 -373zM442 56c180 0 310 130 310 307c0 176 -130 306 -310 306s-310 -130 -310 -306c0 -177 130 -307 310 -307zM460 430c84 0 143 -62 143 -150s-68 -153 -161 -153
c-79 0 -137 41 -156 110l64 19c14 -42 46 -66 89 -66c55 0 92 36 92 89c0 54 -34 90 -86 90c-37 0 -66 -18 -78 -45l-68 20l21 248h257v-62h-196l-12 -137c17 23 51 37 91 37z" />
    <glyph glyph-name="uni2465" unicode="&#x2465;" 
d="M442 -10c-214 0 -377 160 -377 373c0 211 163 371 377 372s377 -159 377 -372s-163 -373 -377 -373zM442 56c180 0 310 130 310 307c0 176 -130 306 -310 306s-310 -130 -310 -306c0 -177 130 -307 310 -307zM441 430c88 0 159 -62 159 -149c0 -86 -69 -149 -162 -149
s-161 63 -161 149c0 32 7 59 28 92l143 224h80l-111 -172c7 4 16 5 24 5zM438 195c53 0 89 35 89 86s-36 86 -89 86c-52 0 -88 -35 -88 -86s36 -86 88 -86z" />
    <glyph glyph-name="uni2466" unicode="&#x2466;" 
d="M442 -10c-214 0 -377 160 -377 373c0 211 163 371 377 372s377 -159 377 -372s-163 -373 -377 -373zM442 56c180 0 310 130 310 307c0 176 -130 306 -310 306s-310 -130 -310 -306c0 -177 130 -307 310 -307zM327 124l191 393h-231v67h312v-55l-192 -405h-80z" />
    <glyph glyph-name="uni2467" unicode="&#x2467;" 
d="M442 -10c-214 0 -377 160 -377 373c0 211 163 371 377 372s377 -159 377 -372s-163 -373 -377 -373zM442 56c180 0 310 130 310 307c0 176 -130 306 -310 306s-310 -130 -310 -306c0 -177 130 -307 310 -307zM443 126c-95 0 -162 56 -162 133c0 54 27 94 87 113
c-54 17 -78 53 -78 103c0 75 63 125 153 125c89 0 152 -50 152 -125c0 -50 -25 -86 -77 -103c59 -19 87 -59 87 -113c0 -77 -67 -133 -162 -133zM443 399c51 0 85 29 85 72c0 44 -32 70 -85 70c-54 0 -86 -26 -86 -70c0 -43 35 -72 86 -72zM443 185c58 0 92 28 92 76
c0 46 -37 76 -92 76c-56 0 -93 -30 -93 -76c0 -48 34 -76 93 -76z" />
    <glyph glyph-name="uni2468" unicode="&#x2468;" 
d="M442 -10c-214 0 -377 160 -377 373c0 211 163 371 377 372s377 -159 377 -372s-163 -373 -377 -373zM442 56c180 0 310 130 310 307c0 176 -130 306 -310 306s-310 -130 -310 -306c0 -177 130 -307 310 -307zM353 129l111 172c-7 -4 -16 -5 -24 -5
c-89 0 -159 62 -159 149c0 86 69 149 162 149s161 -63 161 -149c0 -33 -8 -59 -28 -92l-143 -224h-80zM443 359c52 0 88 35 88 86s-36 86 -88 86c-53 0 -89 -35 -89 -86s36 -86 89 -86z" />
    <glyph glyph-name="zero.osf" horiz-adv-x="678" 
d="M339 -9c-162 0 -276 113 -276 268c0 156 116 269 276 269c162 0 275 -112 275 -269c0 -155 -115 -268 -275 -268zM339 63c115 0 196 82 196 196c0 115 -80 197 -196 197c-115 0 -197 -82 -197 -197s81 -196 197 -196z" />
    <glyph glyph-name="one.osf" horiz-adv-x="492" 
d="M294 72h155v-72h-392v72h160v376h-156v72h233v-448z" />
    <glyph glyph-name="two.osf" horiz-adv-x="554" 
d="M54 0v64l244 177c83 60 109 90 109 135c0 51 -51 82 -124 82c-80 0 -132 -35 -142 -95l-79 10c17 96 99 155 221 155c117 0 203 -63 203 -153c0 -62 -31 -110 -126 -178l-171 -123h294v-74h-429z" />
    <glyph glyph-name="three.osf" horiz-adv-x="549" 
d="M345 185c84 -13 138 -77 138 -164c0 -116 -91 -199 -218 -199c-116 0 -207 65 -231 165l73 21c17 -70 78 -115 157 -115c89 0 140 47 140 129s-57 130 -156 130h-76v65h73c93 0 147 42 147 114c0 80 -49 127 -131 127c-71 0 -127 -41 -143 -103l-71 21
c22 92 108 152 216 152c119 0 206 -82 206 -194c0 -75 -48 -131 -124 -147v-2z" />
    <glyph glyph-name="four.osf" horiz-adv-x="583" 
d="M542 71v-71h-90v-167h-78v167h-330v67l333 453h75v-449h90zM133 71h241v327z" />
    <glyph glyph-name="five.osf" horiz-adv-x="571" 
d="M301 266c123 0 212 -93 212 -222s-97 -221 -230 -221c-111 0 -195 61 -225 162l73 22c23 -73 77 -114 152 -114c91 0 152 60 152 150c0 93 -57 154 -141 154c-62 0 -108 -30 -133 -80l-82 23l31 380h365v-71h-296l-20 -246c28 40 79 63 142 63z" />
    <glyph glyph-name="six.osf" horiz-adv-x="581" 
d="M299 437c120 0 223 -91 223 -222c0 -129 -97 -223 -231 -223s-231 94 -231 223c0 49 11 90 42 138l220 340h92l-178 -269c22 8 44 13 63 13zM291 62c89 0 152 62 152 153c0 89 -63 152 -152 152c-88 0 -152 -63 -152 -152c0 -91 64 -153 152 -153z" />
    <glyph glyph-name="seven.osf" horiz-adv-x="534" 
d="M110 -167l288 611h-356v76h444v-63l-287 -624h-89z" />
    <glyph glyph-name="eight.osf" horiz-adv-x="606" 
d="M422 357c74 -28 115 -85 115 -169c0 -115 -98 -198 -234 -198s-234 83 -234 198c0 83 40 141 114 169c-65 28 -100 82 -100 159c0 113 92 189 220 189c127 0 219 -76 219 -189c0 -77 -36 -131 -100 -159zM303 635c-87 0 -144 -48 -144 -121c0 -75 57 -124 144 -124
c86 0 143 49 143 124c0 73 -57 121 -143 121zM303 61c93 0 154 51 154 130s-61 131 -154 131s-155 -52 -155 -131s62 -130 155 -130z" />
    <glyph glyph-name="nine.osf" horiz-adv-x="578" 
d="M272 528c134 0 231 -94 231 -223c0 -49 -11 -90 -42 -138l-220 -340h-92l178 269c-22 -8 -44 -13 -63 -13c-120 0 -223 91 -223 222c0 129 97 223 231 223zM120 305c0 -89 63 -152 152 -152c88 0 152 63 152 152c0 91 -64 153 -152 153c-89 0 -152 -62 -152 -153z" />
    <glyph glyph-name="zero.tf" horiz-adv-x="618" 
d="M309 -10c-171 0 -291 151 -291 363c0 211 123 362 291 362c169 0 290 -151 290 -362c0 -212 -123 -363 -290 -363zM309 62c123 0 210 119 210 291c0 171 -86 291 -210 291s-212 -120 -212 -291s87 -291 212 -291z" />
    <glyph glyph-name="one.tf" horiz-adv-x="618" 
d="M357 0v591l-130 -108l-44 52l183 172h69v-707h-78z" />
    <glyph glyph-name="two.tf" horiz-adv-x="618" 
d="M67 0v62l291 274c91 87 113 125 113 177c0 76 -62 131 -147 131c-92 0 -156 -54 -168 -143l-75 10c18 127 109 204 243 204c129 0 226 -83 226 -202c0 -73 -36 -132 -122 -213l-243 -226h361v-74h-479z" />
    <glyph glyph-name="three.tf" horiz-adv-x="618" 
d="M397 362c85 -12 141 -84 141 -173c0 -117 -95 -199 -227 -199c-117 0 -207 64 -232 165l73 21c17 -71 78 -115 157 -115c91 0 151 50 151 131c0 79 -67 137 -159 137h-80v65h77c87 0 149 51 149 125c0 77 -56 126 -142 126c-70 0 -126 -41 -142 -103l-71 21
c22 92 108 152 217 152c125 0 215 -81 215 -193c0 -76 -50 -141 -127 -157v-3z" />
    <glyph glyph-name="four.tf" horiz-adv-x="618" 
d="M569 220v-70h-101v-150h-78v150h-343v67l346 490h75v-487h101zM136 220h254v360z" />
    <glyph glyph-name="five.tf" horiz-adv-x="618" 
d="M322 448c129 0 219 -95 219 -228c0 -134 -101 -230 -238 -230c-112 0 -197 62 -227 164l72 23c24 -74 80 -116 155 -116c95 0 158 62 158 158c0 97 -57 159 -147 159c-63 0 -113 -30 -135 -80l-82 23l30 386h376v-71h-306l-20 -251c27 40 81 63 145 63z" />
    <glyph glyph-name="six.tf" horiz-adv-x="618" 
d="M317 446c122 0 227 -94 227 -228c0 -131 -99 -228 -235 -228c-137 0 -235 97 -235 228c0 51 12 93 42 142l225 347h93l-183 -275c23 9 46 14 66 14zM309 60c91 0 157 66 157 158s-66 158 -157 158s-156 -66 -156 -158s65 -158 156 -158z" />
    <glyph glyph-name="seven.tf" horiz-adv-x="618" 
d="M147 0l302 631h-369v76h457v-63l-301 -644h-89z" />
    <glyph glyph-name="eight.tf" horiz-adv-x="618" 
d="M427 362c78 -28 120 -86 120 -173c0 -118 -100 -199 -239 -199c-138 0 -238 81 -238 199c0 86 43 145 119 173c-67 27 -105 81 -105 160c0 116 95 193 224 193c130 0 224 -77 224 -193c0 -79 -37 -133 -105 -160zM308 645c-89 0 -147 -48 -147 -123
c0 -77 58 -127 147 -127s147 50 147 127c0 75 -58 123 -147 123zM308 61c97 0 160 50 160 130c0 82 -63 136 -160 136c-95 0 -158 -54 -158 -136c0 -80 63 -130 158 -130z" />
    <glyph glyph-name="nine.tf" horiz-adv-x="618" 
d="M309 717c136 0 235 -97 235 -228c0 -51 -12 -93 -42 -142l-225 -347h-94l183 275c-23 -9 -46 -14 -66 -14c-122 0 -226 94 -226 228c0 131 98 228 235 228zM152 489c0 -92 65 -158 157 -158c91 0 156 66 156 158s-65 158 -156 158c-92 0 -157 -66 -157 -158z" />
    <glyph glyph-name="zero.tf.zero" horiz-adv-x="618" 
d="M309 715c169 0 290 -145 290 -356c0 -212 -123 -369 -290 -369c-171 0 -291 151 -291 363c0 211 123 362 291 362zM309 644c-124 0 -212 -120 -212 -291c0 -75 17 -141 46 -190l298 424c-35 36 -80 57 -132 57zM309 62c123 0 210 119 210 291c0 82 -20 151 -53 202
l-298 -427c36 -42 85 -66 141 -66z" />
    <glyph glyph-name="zero.tosf" horiz-adv-x="618" 
d="M309 -9c-162 0 -276 113 -276 268c0 156 116 269 276 269c162 0 275 -112 275 -269c0 -155 -115 -268 -275 -268zM309 63c115 0 196 82 196 196c0 115 -80 197 -196 197c-115 0 -197 -82 -197 -197s81 -196 197 -196z" />
    <glyph glyph-name="one.tosf" horiz-adv-x="618" 
d="M349 72h155v-72h-392v72h160v376h-156v72h233v-448z" />
    <glyph glyph-name="two.tosf" horiz-adv-x="618" 
d="M93 0v64l244 177c83 60 109 90 109 135c0 51 -51 82 -124 82c-80 0 -132 -35 -142 -95l-79 10c17 96 99 155 221 155c116 0 203 -63 203 -153c0 -62 -31 -110 -126 -178l-171 -123h294v-74h-429z" />
    <glyph glyph-name="three.tosf" horiz-adv-x="618" 
d="M395 185c84 -13 138 -77 138 -164c0 -116 -91 -199 -218 -199c-116 0 -207 65 -231 165l73 21c17 -70 78 -115 157 -115c89 0 140 47 140 129s-57 130 -156 130h-76v65h73c93 0 147 42 147 114c0 80 -49 127 -131 127c-71 0 -127 -41 -143 -103l-71 21
c22 92 108 152 216 152c119 0 206 -82 206 -194c0 -75 -48 -131 -124 -147v-2z" />
    <glyph glyph-name="four.tosf" horiz-adv-x="618" 
d="M557 71v-71h-90v-167h-77v167h-331v67l333 453h75v-449h90zM149 71h241v327z" />
    <glyph glyph-name="five.tosf" horiz-adv-x="618" 
d="M324 266c123 0 212 -93 212 -222s-97 -221 -230 -221c-111 0 -195 61 -225 162l73 22c23 -73 77 -114 152 -114c91 0 152 60 152 150c0 93 -57 154 -141 154c-62 0 -108 -30 -133 -80l-82 23l31 380h365v-71h-296l-20 -246c28 40 79 63 142 63z" />
    <glyph glyph-name="six.tosf" horiz-adv-x="618" 
d="M316 437c120 0 223 -91 223 -222c0 -129 -97 -223 -230 -223c-135 0 -231 94 -231 223c0 49 11 90 41 138l220 340h92l-178 -269c22 8 44 13 63 13zM309 62c88 0 152 62 152 153c0 89 -64 152 -152 152c-89 0 -152 -63 -152 -152c0 -91 63 -153 152 -153z" />
    <glyph glyph-name="seven.tosf" horiz-adv-x="618" 
d="M154 -167l288 611h-356v76h444v-63l-287 -624h-89z" />
    <glyph glyph-name="eight.tosf" horiz-adv-x="618" 
d="M427 357c74 -28 115 -85 115 -169c0 -115 -98 -198 -234 -198s-234 83 -234 198c0 83 40 141 114 169c-65 28 -100 82 -100 159c0 113 92 189 220 189c127 0 219 -76 219 -189c0 -77 -36 -131 -100 -159zM308 635c-87 0 -144 -48 -144 -121c0 -75 57 -124 144 -124
c86 0 143 49 143 124c0 73 -57 121 -143 121zM308 61c93 0 154 51 154 130s-61 131 -154 131s-155 -52 -155 -131s62 -130 155 -130z" />
    <glyph glyph-name="nine.tosf" horiz-adv-x="618" 
d="M291 528c134 0 231 -94 231 -223c0 -49 -11 -90 -42 -138l-220 -340h-92l178 269c-22 -8 -44 -13 -63 -13c-120 0 -223 91 -223 222c0 129 97 223 231 223zM139 305c0 -89 63 -152 152 -152c88 0 152 63 152 152c0 91 -64 153 -152 153c-89 0 -152 -62 -152 -153z" />
    <glyph glyph-name="zero.zero" horiz-adv-x="715" 
d="M358 715c169 0 290 -145 290 -356c0 -212 -123 -369 -290 -369c-171 0 -291 151 -291 363c0 211 123 362 291 362zM358 644c-124 0 -211 -120 -211 -291c0 -75 17 -140 46 -190l297 424c-35 36 -80 57 -132 57zM358 62c123 0 210 119 210 291c0 82 -20 151 -53 202
l-298 -426c37 -43 85 -67 141 -67z" />
    <glyph glyph-name="zero.subs" horiz-adv-x="476" 
d="M238 -133c-117 0 -199 99 -199 237c0 137 84 237 199 237c116 0 199 -99 199 -237s-84 -237 -199 -237zM238 -67c75 0 126 69 126 171c0 101 -50 172 -126 172c-75 0 -126 -71 -126 -172s51 -171 126 -171z" />
    <glyph glyph-name="one.subs" horiz-adv-x="268" 
d="M126 -124v369l-81 -64l-34 44l123 111h63v-460h-71z" />
    <glyph glyph-name="two.subs" horiz-adv-x="395" 
d="M26 -124v53l186 170c56 52 71 76 71 106c0 42 -34 72 -83 72c-53 0 -90 -32 -97 -83l-69 8c13 87 74 139 165 139c89 0 156 -56 156 -137c0 -49 -24 -87 -77 -133l-147 -131h223v-64h-328z" />
    <glyph glyph-name="three.subs" horiz-adv-x="382" 
d="M245 112c56 -10 93 -56 93 -113c0 -77 -65 -132 -156 -132c-81 0 -140 42 -157 111l65 18c10 -41 44 -66 90 -66c53 0 87 30 87 76s-38 77 -93 77h-51v53h49c51 0 87 29 87 72s-32 70 -81 70c-41 0 -73 -23 -81 -57l-64 18c16 62 74 102 150 102c84 0 146 -53 146 -125
c0 -51 -33 -92 -84 -103v-1z" />
    <glyph glyph-name="four.subs" horiz-adv-x="400" 
d="M376 26v-60h-63v-90h-70v90h-223v56l225 314h68v-310h63zM93 26h150v209z" />
    <glyph glyph-name="five.subs" horiz-adv-x="397" 
d="M217 176c84 0 143 -62 143 -150s-68 -153 -161 -153c-79 0 -137 41 -156 110l64 19c14 -42 46 -66 89 -66c55 0 92 36 92 89c0 54 -34 90 -86 90c-37 0 -66 -18 -78 -45l-68 20l21 248h257v-62h-196l-12 -137c17 23 51 37 91 37z" />
    <glyph glyph-name="six.subs" horiz-adv-x="378" 
d="M192 171c88 0 159 -62 159 -149c0 -86 -69 -149 -162 -149s-161 63 -161 149c0 32 7 59 28 92l143 224h80l-111 -172c7 4 16 5 24 5zM189 -64c53 0 89 35 89 86s-36 86 -89 86c-52 0 -88 -35 -88 -86s36 -86 88 -86z" />
    <glyph glyph-name="seven.subs" horiz-adv-x="347" 
d="M56 -124l191 393h-231v67h312v-55l-192 -405h-80z" />
    <glyph glyph-name="eight.subs" horiz-adv-x="413" 
d="M207 -131c-95 0 -162 56 -162 133c0 54 27 94 87 113c-54 17 -78 53 -78 103c0 75 63 125 153 125c89 0 152 -50 152 -125c0 -50 -25 -86 -77 -103c59 -19 87 -59 87 -113c0 -77 -67 -133 -162 -133zM207 142c51 0 85 29 85 72c0 44 -32 70 -85 70c-54 0 -86 -26 -86 -70
c0 -43 35 -72 86 -72zM207 -72c58 0 92 28 92 76c0 46 -37 76 -92 76c-56 0 -93 -30 -93 -76c0 -48 34 -76 93 -76z" />
    <glyph glyph-name="nine.subs" horiz-adv-x="377" 
d="M98 -124l111 172c-7 -4 -16 -5 -24 -5c-89 0 -159 62 -159 149c0 86 69 149 162 149s161 -63 161 -149c0 -33 -8 -59 -28 -92l-143 -224h-80zM188 106c52 0 88 35 88 86s-36 86 -88 86c-53 0 -89 -35 -89 -86s36 -86 89 -86z" />
    <glyph glyph-name="zero.dnom" horiz-adv-x="476" 
d="M238 -9c-117 0 -199 99 -199 237c0 137 84 237 199 237c116 0 199 -99 199 -237s-84 -237 -199 -237zM238 57c75 0 126 69 126 171c0 101 -50 172 -126 172c-75 0 -126 -71 -126 -172s51 -171 126 -171z" />
    <glyph glyph-name="one.dnom" horiz-adv-x="268" 
d="M126 0v369l-81 -64l-34 44l123 111h63v-460h-71z" />
    <glyph glyph-name="two.dnom" horiz-adv-x="395" 
d="M26 0v53l186 170c56 52 71 76 71 106c0 42 -34 72 -83 72c-53 0 -90 -32 -97 -83l-69 8c13 87 74 139 165 139c89 0 156 -56 156 -137c0 -49 -24 -87 -77 -133l-147 -131h223v-64h-328z" />
    <glyph glyph-name="three.dnom" horiz-adv-x="382" 
d="M245 236c56 -10 93 -56 93 -113c0 -77 -65 -132 -156 -132c-81 0 -140 42 -157 111l65 18c10 -41 44 -66 90 -66c53 0 87 30 87 76s-38 77 -93 77h-51v53h49c51 0 87 29 87 72s-32 70 -81 70c-41 0 -73 -23 -81 -57l-64 18c16 62 74 102 150 102c84 0 146 -53 146 -125
c0 -51 -33 -92 -84 -103v-1z" />
    <glyph glyph-name="four.dnom" horiz-adv-x="400" 
d="M376 150v-60h-63v-90h-70v90h-223v56l225 314h68v-310h63zM93 150h150v209z" />
    <glyph glyph-name="five.dnom" horiz-adv-x="397" 
d="M217 295c84 0 143 -62 143 -150s-68 -153 -161 -153c-79 0 -137 41 -156 110l64 19c14 -42 46 -66 89 -66c55 0 92 36 92 89c0 54 -34 90 -86 90c-37 0 -66 -18 -78 -45l-68 20l21 248h257v-62h-196l-12 -137c17 23 51 37 91 37z" />
    <glyph glyph-name="six.dnom" horiz-adv-x="378" 
d="M192 290c88 0 159 -62 159 -149c0 -86 -69 -149 -162 -149s-161 63 -161 149c0 32 7 59 28 92l143 224h80l-111 -172c7 4 16 5 24 5zM189 55c53 0 89 35 89 86s-36 86 -89 86c-52 0 -88 -35 -88 -86s36 -86 88 -86z" />
    <glyph glyph-name="seven.dnom" horiz-adv-x="347" 
d="M56 0l191 393h-231v67h312v-55l-192 -405h-80z" />
    <glyph glyph-name="eight.dnom" horiz-adv-x="413" 
d="M207 -8c-95 0 -162 56 -162 133c0 54 27 94 87 113c-54 17 -78 53 -78 103c0 75 63 125 153 125c89 0 152 -50 152 -125c0 -50 -25 -86 -77 -103c59 -19 87 -59 87 -113c0 -77 -67 -133 -162 -133zM207 265c51 0 85 29 85 72c0 44 -32 70 -85 70c-54 0 -86 -26 -86 -70
c0 -43 35 -72 86 -72zM207 51c58 0 92 28 92 76c0 46 -37 76 -92 76c-56 0 -93 -30 -93 -76c0 -48 34 -76 93 -76z" />
    <glyph glyph-name="nine.dnom" horiz-adv-x="377" 
d="M98 0l111 172c-7 -4 -16 -5 -24 -5c-89 0 -159 62 -159 149c0 86 69 149 162 149s161 -63 161 -149c0 -33 -8 -59 -28 -92l-143 -224h-80zM188 230c52 0 88 35 88 86s-36 86 -88 86c-53 0 -89 -35 -89 -86s36 -86 89 -86z" />
    <glyph glyph-name="zero.numr" horiz-adv-x="476" 
d="M238 238c-117 0 -199 99 -199 237c0 137 84 237 199 237c116 0 199 -99 199 -237s-84 -237 -199 -237zM238 304c75 0 126 69 126 171c0 101 -50 172 -126 172c-75 0 -126 -71 -126 -172s51 -171 126 -171z" />
    <glyph glyph-name="one.numr" horiz-adv-x="268" 
d="M126 247v369l-81 -64l-34 44l123 111h63v-460h-71z" />
    <glyph glyph-name="two.numr" horiz-adv-x="395" 
d="M26 247v53l186 170c56 52 71 76 71 106c0 42 -34 72 -83 72c-53 0 -90 -32 -97 -83l-69 8c13 87 74 139 165 139c89 0 156 -56 156 -137c0 -49 -24 -87 -77 -133l-147 -131h223v-64h-328z" />
    <glyph glyph-name="three.numr" horiz-adv-x="382" 
d="M245 483c56 -10 93 -56 93 -113c0 -77 -65 -132 -156 -132c-81 0 -140 42 -157 111l65 18c10 -41 44 -66 90 -66c53 0 87 30 87 76s-38 77 -93 77h-51v53h49c51 0 87 29 87 72s-32 70 -81 70c-41 0 -73 -23 -81 -57l-64 18c16 62 74 102 150 102c84 0 146 -53 146 -125
c0 -51 -33 -92 -84 -103v-1z" />
    <glyph glyph-name="four.numr" horiz-adv-x="400" 
d="M376 397v-60h-63v-90h-70v90h-223v56l225 314h68v-310h63zM93 397h150v209z" />
    <glyph glyph-name="five.numr" horiz-adv-x="397" 
d="M217 545c84 0 143 -62 143 -150s-68 -153 -161 -153c-79 0 -137 41 -156 110l64 19c14 -42 46 -66 89 -66c55 0 92 36 92 89c0 54 -34 90 -86 90c-37 0 -66 -18 -78 -45l-68 20l21 248h257v-62h-196l-12 -137c17 23 51 37 91 37z" />
    <glyph glyph-name="six.numr" horiz-adv-x="378" 
d="M192 540c88 0 159 -62 159 -149c0 -86 -69 -149 -162 -149s-161 63 -161 149c0 32 7 59 28 92l143 224h80l-111 -172c7 4 16 5 24 5zM189 305c53 0 89 35 89 86s-36 86 -89 86c-52 0 -88 -35 -88 -86s36 -86 88 -86z" />
    <glyph glyph-name="seven.numr" horiz-adv-x="347" 
d="M56 247l191 393h-231v67h312v-55l-192 -405h-80z" />
    <glyph glyph-name="eight.numr" horiz-adv-x="413" 
d="M207 238c-95 0 -162 56 -162 133c0 54 27 94 87 113c-54 17 -78 53 -78 103c0 75 63 125 153 125c89 0 152 -50 152 -125c0 -50 -25 -86 -77 -103c59 -19 87 -59 87 -113c0 -77 -67 -133 -162 -133zM207 511c51 0 85 29 85 72c0 44 -32 70 -85 70c-54 0 -86 -26 -86 -70
c0 -43 35 -72 86 -72zM207 297c58 0 92 28 92 76c0 46 -37 76 -92 76c-56 0 -93 -30 -93 -76c0 -48 34 -76 93 -76z" />
    <glyph glyph-name="nine.numr" horiz-adv-x="377" 
d="M98 247l111 172c-7 -4 -16 -5 -24 -5c-89 0 -159 62 -159 149c0 86 69 149 162 149s161 -63 161 -149c0 -33 -8 -59 -28 -92l-143 -224h-80zM188 477c52 0 88 35 88 86s-36 86 -88 86c-53 0 -89 -35 -89 -86s36 -86 89 -86z" />
    <glyph glyph-name="zero.sups" horiz-adv-x="476" 
d="M238 380c-117 0 -199 99 -199 237c0 137 84 237 199 237c116 0 199 -99 199 -237s-84 -237 -199 -237zM238 446c75 0 126 69 126 171c0 101 -50 172 -126 172c-75 0 -126 -71 -126 -172s51 -171 126 -171z" />
    <glyph glyph-name="one.sups" horiz-adv-x="268" 
d="M126 389v369l-81 -64l-34 44l123 111h63v-460h-71z" />
    <glyph glyph-name="two.sups" horiz-adv-x="395" 
d="M26 389v53l186 170c56 52 71 76 71 106c0 42 -34 72 -83 72c-53 0 -90 -32 -97 -83l-69 8c13 87 74 139 165 139c89 0 156 -56 156 -137c0 -49 -24 -87 -77 -133l-147 -131h223v-64h-328z" />
    <glyph glyph-name="three.sups" horiz-adv-x="382" 
d="M245 625c56 -10 93 -56 93 -113c0 -77 -65 -132 -156 -132c-81 0 -140 42 -157 111l65 18c10 -41 44 -66 90 -66c53 0 87 30 87 76s-38 77 -93 77h-51v53h49c51 0 87 29 87 72s-32 70 -81 70c-41 0 -73 -23 -81 -57l-64 18c16 62 74 102 150 102c84 0 146 -53 146 -125
c0 -51 -33 -92 -84 -103v-1z" />
    <glyph glyph-name="four.sups" horiz-adv-x="400" 
d="M376 539v-60h-63v-90h-70v90h-223v56l225 314h68v-310h63zM93 539h150v209z" />
    <glyph glyph-name="five.sups" horiz-adv-x="397" 
d="M217 687c84 0 143 -62 143 -150s-68 -153 -161 -153c-79 0 -137 41 -156 110l64 19c14 -42 46 -66 89 -66c55 0 92 36 92 89c0 54 -34 90 -86 90c-37 0 -66 -18 -78 -45l-68 20l21 248h257v-62h-196l-12 -137c17 23 51 37 91 37z" />
    <glyph glyph-name="six.sups" horiz-adv-x="378" 
d="M192 682c88 0 159 -62 159 -149c0 -86 -69 -149 -162 -149s-161 63 -161 149c0 32 7 59 28 92l143 224h80l-111 -172c7 4 16 5 24 5zM189 447c53 0 89 35 89 86s-36 86 -89 86c-52 0 -88 -35 -88 -86s36 -86 88 -86z" />
    <glyph glyph-name="seven.sups" horiz-adv-x="347" 
d="M56 389l191 393h-231v67h312v-55l-192 -405h-80z" />
    <glyph glyph-name="eight.sups" horiz-adv-x="413" 
d="M207 380c-95 0 -162 56 -162 133c0 54 27 94 87 113c-54 17 -78 53 -78 103c0 75 63 125 153 125c89 0 152 -50 152 -125c0 -50 -25 -86 -77 -103c59 -19 87 -59 87 -113c0 -77 -67 -133 -162 -133zM207 653c51 0 85 29 85 72c0 44 -32 70 -85 70c-54 0 -86 -26 -86 -70
c0 -43 35 -72 86 -72zM207 439c58 0 92 28 92 76c0 46 -37 76 -92 76c-56 0 -93 -30 -93 -76c0 -48 34 -76 93 -76z" />
    <glyph glyph-name="nine.sups" horiz-adv-x="377" 
d="M98 389l111 172c-7 -4 -16 -5 -24 -5c-89 0 -159 62 -159 149c0 86 69 149 162 149s161 -63 161 -149c0 -33 -8 -59 -28 -92l-143 -224h-80zM188 619c52 0 88 35 88 86s-36 86 -88 86c-53 0 -89 -35 -89 -86s36 -86 89 -86z" />
    <glyph glyph-name="fraction" unicode="&#x2044;" horiz-adv-x="248" 
d="M-121 0l419 707h79l-419 -707h-79z" />
    <glyph glyph-name="onehalf" unicode="&#xbd;" horiz-adv-x="935" 
d="M126 247v369l-81 -64l-34 44l123 111h63v-460h-71zM164 0l419 707h79l-419 -707h-79zM566 0v53l186 170c56 52 71 76 71 106c0 42 -34 72 -83 72c-53 0 -90 -32 -97 -83l-69 8c13 87 74 139 165 139c89 0 156 -56 156 -137c0 -49 -24 -87 -77 -133l-147 -131h223v-64
h-328z" />
    <glyph glyph-name="onequarter" unicode="&#xbc;" horiz-adv-x="874" 
d="M126 247v369l-81 -64l-34 44l123 111h63v-460h-71zM164 0l419 707h79l-419 -707h-79zM850 150v-60h-63v-90h-70v90h-223v56l225 314h68v-310h63zM567 150h150v209z" />
    <glyph glyph-name="threequarters" unicode="&#xbe;" horiz-adv-x="966" 
d="M245 483c56 -10 93 -56 93 -113c0 -77 -65 -132 -156 -132c-81 0 -140 42 -157 111l65 18c10 -41 44 -66 90 -66c53 0 87 30 87 76s-38 77 -93 77h-51v53h49c51 0 87 29 87 72s-32 70 -81 70c-41 0 -73 -23 -81 -57l-64 18c16 62 74 102 150 102c84 0 146 -53 146 -125
c0 -51 -33 -92 -84 -103v-1zM256 0l419 707h79l-419 -707h-79zM942 150v-60h-63v-90h-70v90h-223v56l225 314h68v-310h63zM659 150h150v209z" />
    <glyph glyph-name="oneeighth" unicode="&#x215b;" horiz-adv-x="941" 
d="M126 247v369l-81 -64l-34 44l123 111h63v-460h-71zM164 0l419 707h79l-419 -707h-79zM735 -8c-95 0 -162 56 -162 133c0 54 27 94 87 113c-54 17 -78 53 -78 103c0 75 63 125 153 125c89 0 152 -50 152 -125c0 -50 -25 -86 -77 -103c59 -19 87 -59 87 -113
c0 -77 -67 -133 -162 -133zM735 265c51 0 85 29 85 72c0 44 -32 70 -85 70c-54 0 -86 -26 -86 -70c0 -43 35 -72 86 -72zM735 51c58 0 92 28 92 76c0 46 -37 76 -92 76c-56 0 -93 -30 -93 -76c0 -48 34 -76 93 -76z" />
    <glyph glyph-name="threeeighths" unicode="&#x215c;" horiz-adv-x="1033" 
d="M245 483c56 -10 93 -56 93 -113c0 -77 -65 -132 -156 -132c-81 0 -140 42 -157 111l65 18c10 -41 44 -66 90 -66c53 0 87 30 87 76s-38 77 -93 77h-51v53h49c51 0 87 29 87 72s-32 70 -81 70c-41 0 -73 -23 -81 -57l-64 18c16 62 74 102 150 102c84 0 146 -53 146 -125
c0 -51 -33 -92 -84 -103v-1zM256 0l419 707h79l-419 -707h-79zM827 -8c-95 0 -162 56 -162 133c0 54 27 94 87 113c-54 17 -78 53 -78 103c0 75 63 125 153 125c89 0 152 -50 152 -125c0 -50 -25 -86 -77 -103c59 -19 87 -59 87 -113c0 -77 -67 -133 -162 -133zM827 265
c51 0 85 29 85 72c0 44 -32 70 -85 70c-54 0 -86 -26 -86 -70c0 -43 35 -72 86 -72zM827 51c58 0 92 28 92 76c0 46 -37 76 -92 76c-56 0 -93 -30 -93 -76c0 -48 34 -76 93 -76z" />
    <glyph glyph-name="fiveeighths" unicode="&#x215d;" horiz-adv-x="1048" 
d="M217 545c84 0 143 -62 143 -150s-68 -153 -161 -153c-79 0 -137 41 -156 110l64 19c14 -42 46 -66 89 -66c55 0 92 36 92 89c0 54 -34 90 -86 90c-37 0 -66 -18 -78 -45l-68 20l21 248h257v-62h-196l-12 -137c17 23 51 37 91 37zM271 0l419 707h79l-419 -707h-79zM842 -8
c-95 0 -162 56 -162 133c0 54 27 94 87 113c-54 17 -78 53 -78 103c0 75 63 125 153 125c89 0 152 -50 152 -125c0 -50 -25 -86 -77 -103c59 -19 87 -59 87 -113c0 -77 -67 -133 -162 -133zM842 265c51 0 85 29 85 72c0 44 -32 70 -85 70c-54 0 -86 -26 -86 -70
c0 -43 35 -72 86 -72zM842 51c58 0 92 28 92 76c0 46 -37 76 -92 76c-56 0 -93 -30 -93 -76c0 -48 34 -76 93 -76z" />
    <glyph glyph-name="seveneighths" unicode="&#x215e;" horiz-adv-x="923" 
d="M56 247l191 393h-231v67h312v-55l-192 -405h-80zM146 0l419 707h79l-419 -707h-79zM717 -8c-95 0 -162 56 -162 133c0 54 27 94 87 113c-54 17 -78 53 -78 103c0 75 63 125 153 125c89 0 152 -50 152 -125c0 -50 -25 -86 -77 -103c59 -19 87 -59 87 -113
c0 -77 -67 -133 -162 -133zM717 265c51 0 85 29 85 72c0 44 -32 70 -85 70c-54 0 -86 -26 -86 -70c0 -43 35 -72 86 -72zM717 51c58 0 92 28 92 76c0 46 -37 76 -92 76c-56 0 -93 -30 -93 -76c0 -48 34 -76 93 -76z" />
    <glyph glyph-name="zero.sc" horiz-adv-x="580" 
d="M290 -8c-136 0 -232 118 -232 285c0 164 98 283 232 283c136 0 233 -118 233 -283c0 -167 -99 -285 -233 -285zM290 61c92 0 157 87 157 216c0 127 -64 215 -157 215c-91 0 -156 -89 -156 -215c0 -128 64 -216 156 -216z" />
    <glyph glyph-name="one.sc" horiz-adv-x="317" 
d="M165 0v453l-98 -81l-39 48l146 134h66v-554h-75z" />
    <glyph glyph-name="two.sc" horiz-adv-x="431" 
d="M17 0v56l224 211c69 65 86 94 86 132c0 55 -44 93 -106 93c-67 0 -114 -40 -122 -105l-72 9c14 103 87 164 194 164c103 0 182 -66 182 -161c0 -59 -29 -105 -94 -165l-181 -165h272v-69h-383z" />
    <glyph glyph-name="three.sc" horiz-adv-x="469" 
d="M299 284c66 -10 110 -66 110 -135c0 -92 -76 -157 -182 -157c-95 0 -165 51 -185 132l69 19c12 -52 55 -84 113 -84c67 0 110 36 110 95c0 58 -48 100 -117 100h-61v58h59c64 0 109 37 109 91c0 56 -40 91 -103 91c-51 0 -91 -30 -102 -74l-67 19c18 74 86 121 174 121
c99 0 171 -63 171 -150c0 -61 -39 -111 -98 -124v-2z" />
    <glyph glyph-name="four.sc" horiz-adv-x="445" 
d="M426 177v-65h-76v-112h-73v112h-267v61l268 381h72v-377h76zM89 177h188v263z" />
    <glyph glyph-name="five.sc" horiz-adv-x="484" 
d="M261 353c100 0 170 -75 170 -179c0 -106 -80 -182 -190 -182c-90 0 -158 49 -181 131l68 20c17 -54 57 -84 112 -84c69 0 115 44 115 114s-42 115 -107 115c-46 0 -83 -23 -98 -59l-74 22l24 303h301v-66h-236l-15 -181c21 28 62 46 111 46z" />
    <glyph glyph-name="six.sc" horiz-adv-x="470" 
d="M240 351c101 0 184 -74 184 -179c0 -103 -80 -180 -189 -180s-188 77 -188 180c0 39 9 73 33 111l172 271h86l-136 -208c13 3 26 5 38 5zM235 59c66 0 113 47 113 113s-47 113 -113 113c-65 0 -112 -47 -112 -113s47 -113 112 -113z" />
    <glyph glyph-name="seven.sc" horiz-adv-x="436" 
d="M84 0l230 483h-280v71h366v-58l-233 -496h-83z" />
    <glyph glyph-name="eight.sc" horiz-adv-x="503" 
d="M346 284c62 -21 96 -67 96 -135c0 -92 -79 -157 -191 -157c-111 0 -190 65 -190 157c0 68 34 114 96 135c-55 21 -85 64 -85 126c0 90 74 150 179 150c104 0 178 -60 178 -150c0 -62 -29 -105 -83 -126zM251 496c-65 0 -107 -35 -107 -90c0 -56 42 -92 107 -92
s108 36 108 92c0 55 -43 90 -108 90zM251 57c71 0 116 37 116 96s-46 98 -116 98c-69 0 -115 -39 -115 -98s46 -96 115 -96z" />
    <glyph glyph-name="nine.sc" horiz-adv-x="470" 
d="M226 562c109 0 188 -77 188 -180c0 -39 -9 -73 -33 -111l-172 -271h-86l136 208c-13 -3 -26 -5 -38 -5c-101 0 -184 74 -184 179c0 103 80 180 189 180zM113 382c0 -66 47 -113 113 -113c65 0 112 47 112 113s-47 113 -112 113c-66 0 -113 -47 -113 -113z" />
    <glyph glyph-name="zero.sc.zero" horiz-adv-x="580" 
d="M290 560c136 0 233 -118 233 -283c0 -167 -99 -285 -233 -285c-136 0 -232 118 -232 285c0 164 98 283 232 283zM134 277c0 -55 12 -103 33 -140l222 312c-26 27 -60 43 -99 43c-91 0 -156 -89 -156 -215zM290 61c92 0 157 87 157 216c0 55 -12 103 -33 139l-222 -312
c26 -27 59 -43 98 -43z" />
    <glyph glyph-name="asterisk" unicode="*" horiz-adv-x="536" 
d="M316 532l34 -42l58 -81l-51 -37l-59 81l-30 45l-30 -45l-59 -81l-51 37l59 81l33 42l-51 15l-95 30l19 60l95 -30l50 -18l-2 48v98h64v-98l-2 -48l50 18l95 30l19 -60l-95 -30z" />
    <glyph glyph-name="backslash" unicode="\" horiz-adv-x="431" 
d="M410 -144h-73l-323 934h73z" />
    <glyph glyph-name="periodcentered" unicode="&#xb7;" horiz-adv-x="246" 
d="M199 181c-39 0 -67 27 -67 67c0 39 29 67 67 67c40 0 67 -27 67 -67c0 -39 -28 -67 -67 -67z" />
    <glyph glyph-name="bullet" unicode="&#x2022;" horiz-adv-x="345" 
d="M303 134c-65 0 -113 45 -113 113c0 66 49 114 113 114c68 0 114 -46 114 -114c0 -66 -48 -113 -114 -113z" />
    <glyph glyph-name="colon" unicode=":" horiz-adv-x="318" 
d="M159 382c-36 0 -62 25 -62 62c0 35 26 61 62 61c37 0 62 -25 62 -61s-26 -62 -62 -62zM159 -10c-36 0 -62 25 -62 62c0 36 26 62 62 62c37 0 62 -25 62 -62c0 -36 -26 -62 -62 -62z" />
    <glyph glyph-name="comma" unicode="," horiz-adv-x="207" 
d="M167 52v-1v-2c-1 -23 -11 -43 -31 -81l-50 -98l-38 16l38 106c-26 7 -44 30 -44 60c0 36 26 63 63 63c36 0 61 -25 62 -62v-1z" />
    <glyph glyph-name="ellipsis" unicode="&#x2026;" horiz-adv-x="801" 
d="M146 -10c-36 0 -62 26 -62 62s27 62 62 62c37 0 62 -25 62 -62c0 -35 -26 -62 -62 -62zM401 -10c-37 0 -63 26 -63 62s27 62 63 62c37 0 62 -25 62 -62c0 -35 -26 -62 -62 -62zM655 -10c-36 0 -62 26 -62 62s26 62 62 62c37 0 62 -25 62 -62c0 -35 -26 -62 -62 -62z" />
    <glyph glyph-name="exclam" unicode="!" horiz-adv-x="315" 
d="M127 199l-11 336v190h82v-190l-10 -336h-61zM157 -10c-36 0 -62 25 -62 62c0 36 27 62 62 62c37 0 62 -25 62 -62c0 -36 -26 -62 -62 -62z" />
    <glyph glyph-name="exclamdown" unicode="&#xa1;" horiz-adv-x="315" 
d="M157 507c36 0 62 -26 62 -62c0 -37 -25 -62 -62 -62c-35 0 -62 26 -62 62c0 37 26 62 62 62zM127 298h61l10 -336v-190h-82v190z" />
    <glyph glyph-name="numbersign" unicode="#" horiz-adv-x="826" 
d="M771 456h-162l-40 -193h148v-66h-161l-41 -197h-79l41 197h-194l-41 -197h-79l41 197h-148v66h161l40 193h-147v65h161l38 186h79l-38 -186h194l38 186h79l-38 -186h148v-65zM490 263l40 193h-194l-40 -193h194z" />
    <glyph glyph-name="period" unicode="." horiz-adv-x="351" 
d="M175 -10c-36 0 -62 25 -62 62c0 36 27 62 62 62c37 0 62 -25 62 -62c0 -36 -26 -62 -62 -62z" />
    <glyph glyph-name="question" unicode="?" horiz-adv-x="583" 
d="M229 199l-4 168h53c98 0 160 58 160 150c0 91 -58 146 -156 146c-128 0 -160 -105 -160 -105l-70 29s43 148 230 148c144 0 235 -85 235 -217c0 -127 -90 -217 -218 -217l-3 -102h-67zM263 -10c-36 0 -62 25 -62 62c0 36 27 62 62 62c37 0 62 -25 62 -62
c0 -36 -26 -62 -62 -62z" />
    <glyph glyph-name="questiondown" unicode="&#xbf;" horiz-adv-x="584" 
d="M321 507c36 0 62 -25 62 -62c0 -36 -27 -62 -62 -62c-37 0 -62 25 -62 62c0 36 26 62 62 62zM355 298l4 -168h-53c-98 0 -160 -58 -160 -150c0 -91 58 -146 156 -146c128 0 160 105 160 105l70 -29s-43 -148 -230 -148c-144 0 -235 85 -235 217c0 127 90 217 218 217
l3 102h67z" />
    <glyph glyph-name="quotedbl" unicode="&#x22;" horiz-adv-x="343" 
d="M63 465v260h76l-17 -260h-59zM225 465v260h76l-17 -260h-59z" />
    <glyph glyph-name="quotesingle" unicode="'" horiz-adv-x="181" 
d="M63 465v260h76l-17 -260h-59z" />
    <glyph glyph-name="semicolon" unicode=";" horiz-adv-x="322" 
d="M163 381c-36 0 -62 25 -62 62c0 36 27 62 62 62c37 0 62 -25 62 -62c0 -36 -26 -62 -62 -62zM226 52v-1v-2c-1 -23 -11 -43 -31 -81l-50 -98l-38 16l38 106c-26 7 -44 30 -44 60c0 36 26 63 63 63c36 0 61 -25 62 -62v-1z" />
    <glyph glyph-name="slash" unicode="/" horiz-adv-x="438" 
d="M21 -144l323 934h73l-323 -934h-73z" />
    <glyph glyph-name="underscore" unicode="_" horiz-adv-x="478" 
d="M111 -80v65h351v-65h-351z" />
    <glyph glyph-name="backslash.case" horiz-adv-x="352" 
d="M356 -40h-73l-278 805h73z" />
    <glyph glyph-name="periodcentered.case" horiz-adv-x="283" 
d="M219 295c-39 0 -67 27 -67 67c0 39 29 67 67 67c40 0 67 -27 67 -67c0 -39 -28 -67 -67 -67z" />
    <glyph glyph-name="bullet.case" horiz-adv-x="359" 
d="M314 248c-65 0 -113 45 -113 113c0 66 49 114 113 114c68 0 114 -46 114 -114c0 -66 -48 -113 -114 -113z" />
    <glyph glyph-name="colon.case" horiz-adv-x="258" 
d="M159 497c-36 0 -62 25 -62 62c0 35 26 61 62 61c37 0 62 -25 62 -61s-26 -62 -62 -62zM159 105c-36 0 -62 25 -62 62c0 36 26 62 62 62c37 0 62 -25 62 -62c0 -36 -26 -62 -62 -62z" />
    <glyph glyph-name="exclamdown.case" horiz-adv-x="251" 
d="M152 734c36 0 62 -26 62 -62c0 -37 -25 -62 -62 -62c-35 0 -62 26 -62 62c0 37 26 62 62 62zM122 525h61l10 -336v-190h-82v190z" />
    <glyph glyph-name="questiondown.case" horiz-adv-x="584" 
d="M321 738c36 0 62 -25 62 -62c0 -36 -27 -62 -62 -62c-37 0 -62 25 -62 62c0 36 26 62 62 62zM355 529l4 -168h-53c-98 0 -160 -58 -160 -150c0 -91 58 -146 156 -146c128 0 160 105 160 105l70 -29s-43 -148 -230 -148c-144 0 -235 85 -235 217c0 127 90 217 218 217
l3 102h67z" />
    <glyph glyph-name="slash.case" horiz-adv-x="343" 
d="M-4 -40l278 805h73l-278 -805h-73z" />
    <glyph glyph-name="braceleft" unicode="{" horiz-adv-x="429" 
d="M308 -150c-117 0 -179 56 -179 162v193c0 56 -24 86 -85 86h-8v64h8c62 0 85 29 85 85v184c0 111 62 169 179 169h79v-70h-64c-84 0 -116 -32 -116 -115v-186c0 -97 -74 -99 -74 -99s74 -3 74 -101v-194c0 -78 32 -108 116 -108h64v-70h-79z" />
    <glyph glyph-name="braceright" unicode="}" horiz-adv-x="429" 
d="M121 -150h-79v70h64c84 0 116 30 116 108v194c0 98 74 101 74 101s-74 2 -74 99v186c0 83 -32 115 -116 115h-64v70h79c117 0 179 -58 179 -169v-184c0 -56 23 -85 85 -85h8v-64h-8c-61 0 -85 -30 -85 -86v-193c0 -106 -62 -162 -179 -162z" />
    <glyph glyph-name="bracketleft" unicode="[" horiz-adv-x="420" 
d="M378 723h-198v-802h198v-71h-276v943h276v-70z" />
    <glyph glyph-name="bracketright" unicode="]" horiz-adv-x="420" 
d="M42 723v70h276v-943h-276v71h198v802h-198z" />
    <glyph glyph-name="parenleft" unicode="(" horiz-adv-x="401" 
d="M330 -151c0 0 -273 130 -273 475c0 343 273 473 273 473l31 -69s-223 -121 -223 -404c0 -285 223 -406 223 -406z" />
    <glyph glyph-name="parenright" unicode=")" horiz-adv-x="401" 
d="M71 -151l-31 69s223 121 223 406c0 283 -223 404 -223 404l31 69s273 -130 273 -473c0 -345 -273 -475 -273 -475z" />
    <glyph glyph-name="braceleft.case" horiz-adv-x="429" 
d="M308 -109c-117 0 -179 56 -179 162v193c0 56 -24 86 -85 86h-8v64h8c62 0 85 29 85 85v184c0 111 62 169 179 169h79v-70h-64c-84 0 -116 -32 -116 -115v-186c0 -97 -74 -99 -74 -99s74 -3 74 -101v-194c0 -78 32 -108 116 -108h64v-70h-79z" />
    <glyph glyph-name="braceright.case" horiz-adv-x="429" 
d="M121 -109h-79v70h64c84 0 116 30 116 108v194c0 98 74 101 74 101s-74 2 -74 99v186c0 83 -32 115 -116 115h-64v70h79c117 0 179 -58 179 -169v-184c0 -56 23 -85 85 -85h8v-64h-8c-61 0 -85 -30 -85 -86v-193c0 -106 -62 -162 -179 -162z" />
    <glyph glyph-name="bracketleft.case" horiz-adv-x="420" 
d="M378 764h-198v-802h198v-71h-276v943h276v-70z" />
    <glyph glyph-name="bracketright.case" horiz-adv-x="420" 
d="M42 764v70h276v-943h-276v71h198v802h-198z" />
    <glyph glyph-name="parenleft.case" horiz-adv-x="401" 
d="M330 -111c0 0 -273 130 -273 475c0 343 273 473 273 473l31 -69s-223 -121 -223 -404c0 -285 223 -406 223 -406z" />
    <glyph glyph-name="parenright.case" horiz-adv-x="401" 
d="M71 -111l-31 69s223 121 223 406c0 283 -223 404 -223 404l31 69s273 -130 273 -473c0 -345 -273 -475 -273 -475z" />
    <glyph glyph-name="emdash" unicode="&#x2014;" horiz-adv-x="876" 
d="M87 216v71h701v-71h-701z" />
    <glyph glyph-name="endash" unicode="&#x2013;" horiz-adv-x="607" 
d="M88 216v71h431v-71h-431z" />
    <glyph glyph-name="hyphen" unicode="-" horiz-adv-x="466" 
d="M83 216v71h301v-71h-301z" />
    <glyph glyph-name="emdash.case" horiz-adv-x="876" 
d="M87 328v71h701v-71h-701z" />
    <glyph glyph-name="endash.case" horiz-adv-x="607" 
d="M88 328v71h431v-71h-431z" />
    <glyph glyph-name="hyphen.case" horiz-adv-x="478" 
d="M89 328v71h301v-71h-301z" />
    <glyph glyph-name="guillemotleft" unicode="&#xab;" horiz-adv-x="559" 
d="M285 99l-143 151l143 150l-57 51l-187 -201l187 -202zM506 99l-144 151l144 150l-57 51l-187 -201l187 -202z" />
    <glyph glyph-name="guillemotright" unicode="&#xbb;" horiz-adv-x="559" 
d="M53 99l57 -51l187 202l-187 201l-57 -51l143 -150zM273 99l57 -51l187 202l-187 201l-57 -51l144 -150z" />
    <glyph glyph-name="guilsinglleft" unicode="&#x2039;" horiz-adv-x="338" 
d="M285 99l-143 151l143 150l-57 51l-187 -201l187 -202z" />
    <glyph glyph-name="guilsinglright" unicode="&#x203a;" horiz-adv-x="338" 
d="M53 99l57 -51l187 202l-187 201l-57 -51l143 -150z" />
    <glyph glyph-name="quotedblbase" unicode="&#x201e;" horiz-adv-x="451" 
d="M212 53v-1v-1v-2c-1 -23 -11 -43 -31 -81l-49 -98l-39 16l39 106c-27 7 -45 30 -45 60c0 36 26 63 63 63c36 0 61 -25 62 -62zM376 52v-1v-2c-1 -23 -11 -43 -31 -81l-50 -98l-38 16l38 106c-26 7 -44 30 -44 60c0 36 26 63 63 63c36 0 61 -25 62 -62v-1z" />
    <glyph glyph-name="quotedblleft" unicode="&#x201c;" horiz-adv-x="394" 
d="M123 623c26 -7 44 -30 44 -60c0 -36 -26 -63 -63 -63c-36 0 -61 25 -62 62v1v1v2c1 23 11 43 31 81l50 98l38 -16zM286 623c27 -7 45 -30 45 -60c0 -36 -26 -63 -63 -63c-36 0 -61 25 -62 62v1v1v2c1 23 11 43 31 81l49 98l39 -16z" />
    <glyph glyph-name="quotedblright" unicode="&#x201d;" horiz-adv-x="394" 
d="M188 672v-1v-1v-2c-1 -23 -11 -43 -31 -81l-49 -98l-39 16l39 106c-27 7 -45 30 -45 60c0 36 26 63 63 63c36 0 61 -25 62 -62zM352 671v-1v-2c-1 -23 -11 -43 -31 -81l-50 -98l-38 16l38 106c-26 7 -44 30 -44 60c0 36 26 63 63 63c36 0 61 -25 62 -62v-1z" />
    <glyph glyph-name="quoteleft" unicode="&#x2018;" horiz-adv-x="230" 
d="M123 616c26 -7 44 -30 44 -60c0 -36 -26 -63 -63 -63c-36 0 -61 25 -62 62v1v1v2c1 23 11 43 31 81l50 98l38 -16z" />
    <glyph glyph-name="quoteright" unicode="&#x2019;" horiz-adv-x="229" 
d="M187 671v-1v-2c-1 -23 -11 -43 -31 -81l-50 -98l-38 16l38 106c-26 7 -44 30 -44 60c0 36 26 63 63 63c36 0 61 -25 62 -62v-1z" />
    <glyph glyph-name="quotesinglbase" unicode="&#x201a;" horiz-adv-x="288" 
d="M212 52v-1v-2c-1 -23 -11 -43 -31 -81l-50 -98l-38 16l38 106c-26 7 -44 30 -44 60c0 36 26 63 63 63c36 0 61 -25 62 -62v-1z" />
    <glyph glyph-name="guillemotleft.case" horiz-adv-x="559" 
d="M286 212l-144 151l144 150l-57 51l-187 -201l187 -202zM506 212l-143 151l143 150l-57 51l-187 -201l187 -202z" />
    <glyph glyph-name="guillemotright.case" horiz-adv-x="559" 
d="M53 212l57 -51l187 202l-187 201l-57 -51l143 -150zM273 212l57 -51l187 202l-187 201l-57 -51l144 -150z" />
    <glyph glyph-name="guilsinglleft.case" horiz-adv-x="338" 
d="M285 213l-143 151l143 150l-57 51l-187 -201l187 -202z" />
    <glyph glyph-name="guilsinglright.case" horiz-adv-x="338" 
d="M53 213l57 -51l187 202l-187 201l-57 -51l143 -150z" />
    <glyph glyph-name="backslash.sc" horiz-adv-x="326" 
d="M302 -30h-70l-209 598h70z" />
    <glyph glyph-name="braceleft.sc" horiz-adv-x="330" 
d="M233 -77c-90 0 -138 44 -138 123v139c0 40 -18 61 -62 61h-5v61h5c45 0 62 20 62 61v132c0 83 48 127 138 127h66v-67h-46c-60 0 -83 -22 -83 -80v-129c0 -73 -57 -74 -57 -74s57 -2 57 -77v-133c0 -55 23 -77 83 -77h46v-67h-66z" />
    <glyph glyph-name="braceright.sc" horiz-adv-x="330" 
d="M31 -77v67h46c60 0 84 22 84 77v133c0 75 56 77 56 77s-56 1 -56 74v129c0 58 -24 80 -84 80h-46v67h66c90 0 138 -44 138 -127v-132c0 -41 17 -61 62 -61h5v-61h-5c-44 0 -62 -21 -62 -61v-139c0 -79 -48 -123 -138 -123h-66z" />
    <glyph glyph-name="bracketleft.sc" horiz-adv-x="342" 
d="M309 562h-147v-569h147v-68h-222v704h222v-67z" />
    <glyph glyph-name="bracketright.sc" horiz-adv-x="342" 
d="M32 562v67h222v-704h-222v68h148v569h-148z" />
    <glyph glyph-name="colon.sc" horiz-adv-x="258" 
d="M201 440c-36 0 -62 25 -62 62c0 36 27 62 62 62c37 0 62 -25 62 -62c0 -36 -26 -62 -62 -62zM201 -10c-36 0 -62 25 -62 62c0 36 27 62 62 62c37 0 62 -25 62 -62c0 -36 -26 -62 -62 -62z" />
    <glyph glyph-name="exclam.sc" horiz-adv-x="247" 
d="M94 162l-10 238v138h78v-138l-9 -238h-59zM123 -8c-30 0 -52 22 -52 52c0 32 22 53 52 53c32 0 54 -21 54 -53c0 -30 -22 -52 -54 -52z" />
    <glyph glyph-name="exclamdown.sc" horiz-adv-x="247" 
d="M123 547c32 0 54 -23 54 -54c0 -30 -22 -51 -54 -51c-30 0 -52 21 -52 51c0 31 22 54 52 54zM94 376h59l9 -237v-139h-78v139z" />
    <glyph glyph-name="guillemotleft.sc" horiz-adv-x="525" 
d="M269 127l-144 151l144 151l-57 50l-188 -201l188 -202zM489 127l-143 151l143 151l-57 50l-187 -201l187 -202z" />
    <glyph glyph-name="guillemotright.sc" horiz-adv-x="524" 
d="M35 127l57 -51l187 202l-187 201l-57 -50l144 -151zM256 127l57 -51l187 202l-187 201l-57 -50l143 -151z" />
    <glyph glyph-name="guilsinglleft.sc" horiz-adv-x="305" 
d="M269 127l-144 151l144 151l-57 50l-188 -201l188 -202z" />
    <glyph glyph-name="guilsinglright.sc" horiz-adv-x="304" 
d="M35 127l57 -51l187 202l-187 201l-57 -50l144 -151z" />
    <glyph glyph-name="parenleft.sc" horiz-adv-x="308" 
d="M254 -76c0 0 -212 95 -212 355c0 257 212 352 212 352l28 -62s-162 -87 -162 -290c0 -206 162 -293 162 -293z" />
    <glyph glyph-name="parenright.sc" horiz-adv-x="301" 
d="M65 -76l-27 62s162 87 162 293c0 203 -162 290 -162 290l27 62s214 -95 214 -352c0 -260 -214 -355 -214 -355z" />
    <glyph glyph-name="question.sc" horiz-adv-x="450" 
d="M172 159l-3 129h44c72 0 117 41 117 106c0 63 -41 101 -112 101c-92 0 -115 -75 -115 -75l-65 26s34 116 183 116c112 0 183 -65 183 -165c0 -97 -68 -164 -167 -164l-2 -74h-63zM205 -8c-30 0 -53 22 -53 53c0 32 23 53 53 53c32 0 53 -21 53 -53c0 -31 -21 -53 -53 -53
z" />
    <glyph glyph-name="questiondown.sc" horiz-adv-x="423" 
d="M234 562c30 0 53 -22 53 -53c0 -32 -23 -53 -53 -53c-32 0 -53 21 -53 53c0 31 21 53 53 53zM267 395l3 -129h-44c-72 0 -117 -41 -117 -106c0 -63 41 -101 112 -101c92 0 115 75 115 75l65 -26s-34 -116 -183 -116c-112 0 -183 65 -183 165c0 97 68 164 167 164l2 74h63
z" />
    <glyph glyph-name="semicolon.sc" horiz-adv-x="250" 
d="M127 440c-36 0 -62 25 -62 62c0 36 27 62 62 62c37 0 62 -25 62 -62c0 -36 -26 -62 -62 -62zM190 52v-1v-2c-1 -23 -11 -43 -31 -81l-50 -98l-38 16l38 106c-26 7 -44 30 -44 60c0 36 26 63 63 63c36 0 61 -25 62 -62v-1z" />
    <glyph glyph-name="slash.sc" horiz-adv-x="326" 
d="M23 -30l210 598h69l-209 -598h-70z" />
    <glyph glyph-name="braceleft.sups" horiz-adv-x="308" 
d="M215 309c-80 0 -123 38 -123 108v120c0 34 -16 53 -54 53h-5v57h5c39 0 54 17 54 52v114c0 74 43 112 123 112h60v-63h-39c-52 0 -73 -20 -73 -69v-109c0 -65 -50 -66 -50 -66s50 -2 50 -66v-114c0 -46 21 -65 73 -65h39v-64h-60z" />
    <glyph glyph-name="braceright.sups" horiz-adv-x="308" 
d="M93 309h-60v64h39c52 0 73 19 73 65v114c0 64 50 66 50 66s-50 1 -50 66v109c0 49 -21 69 -73 69h-39v63h60c80 0 123 -38 123 -112v-114c0 -35 15 -52 54 -52h5v-57h-5c-38 0 -54 -19 -54 -53v-120c0 -70 -43 -108 -123 -108z" />
    <glyph glyph-name="bracketleft.sups" horiz-adv-x="320" 
d="M287 862h-131v-489h131v-64h-202v616h202v-63z" />
    <glyph glyph-name="bracketright.sups" horiz-adv-x="320" 
d="M33 862v63h202v-616h-202v64h131v489h-131z" />
    <glyph glyph-name="parenleft.sups" horiz-adv-x="290" 
d="M236 307c0 0 -190 83 -190 311c0 226 190 309 190 309l25 -57s-141 -76 -141 -252c0 -178 141 -254 141 -254z" />
    <glyph glyph-name="parenright.sups" horiz-adv-x="290" 
d="M54 307l-25 57s141 76 141 254c0 176 -141 252 -141 252l25 57s190 -83 190 -309c0 -228 -190 -311 -190 -311z" />
    <glyph glyph-name="uni2003" unicode="&#x2003;" horiz-adv-x="1000" 
 />
    <glyph glyph-name="uni2002" unicode="&#x2002;" horiz-adv-x="500" 
 />
    <glyph glyph-name="uni2007" unicode="&#x2007;" horiz-adv-x="629" 
 />
    <glyph glyph-name="uni2005" unicode="&#x2005;" horiz-adv-x="250" 
 />
    <glyph glyph-name="uni200A" unicode="&#x200a;" horiz-adv-x="100" 
 />
    <glyph glyph-name="uni2008" unicode="&#x2008;" horiz-adv-x="242" 
 />
    <glyph glyph-name="uni2006" unicode="&#x2006;" horiz-adv-x="166" 
 />
    <glyph glyph-name="space" unicode=" " horiz-adv-x="246" 
 />
    <glyph glyph-name="uni00A0" unicode="&#xa0;" horiz-adv-x="256" 
 />
    <glyph glyph-name="uni2009" unicode="&#x2009;" horiz-adv-x="208" 
 />
    <glyph glyph-name="uni2004" unicode="&#x2004;" horiz-adv-x="333" 
 />
    <glyph glyph-name="cent" unicode="&#xa2;" horiz-adv-x="605" 
d="M522 241c-36 -68 -92 -108 -168 -118v-103h-69v103c-112 16 -192 109 -192 233c0 119 80 210 192 227v104h69v-103c70 -9 128 -48 164 -112l-68 -27c-22 37 -55 61 -96 69v-320c46 8 79 33 102 76zM169 357c0 -84 47 -147 116 -162v318c-69 -17 -116 -78 -116 -156z" />
    <glyph glyph-name="currency" unicode="&#xa4;" horiz-adv-x="732" 
d="M605 353c0 -54 -18 -103 -48 -142l69 -69l-49 -49l-70 71c-39 -27 -87 -43 -141 -43c-53 0 -102 15 -141 42l-70 -70l-50 49l69 69c-30 39 -47 88 -47 142c0 55 17 104 47 143l-69 69l50 49l70 -71c39 27 87 43 141 43c53 0 101 -15 140 -42l71 70l49 -49l-69 -69
c30 -39 48 -88 48 -143zM366 189c94 0 163 70 163 164c0 95 -69 165 -163 165c-95 0 -163 -70 -163 -165c0 -94 68 -164 163 -164z" />
    <glyph glyph-name="dollar" unicode="$" horiz-adv-x="615" 
d="M527 199c0 -101 -73 -169 -188 -180v-101h-69v102c-148 21 -182 155 -182 155l70 22s23 -87 112 -106v240l-19 5c-102 29 -151 83 -151 178c0 96 65 162 170 173v102h69v-102c139 -17 169 -131 169 -131l-69 -24s-18 70 -100 86v-233l37 -11c101 -29 151 -82 151 -175z
M174 518c0 -54 31 -90 96 -113v213c-59 -10 -96 -47 -96 -100zM339 89c68 9 110 48 110 106c0 59 -35 95 -110 116v-222z" />
    <glyph glyph-name="Euro" unicode="&#x20ac;" horiz-adv-x="844" 
d="M687 211l73 -29c-51 -118 -149 -192 -279 -192c-143 0 -257 98 -296 246h-97l16 67h68c-1 16 -2 32 -2 49s1 33 3 49h-85l16 67h81c40 146 154 245 298 245c127 0 219 -72 271 -182l-73 -29c-41 91 -106 137 -198 137c-100 0 -181 -67 -215 -171h268l-16 -67h-267
c-2 -16 -3 -32 -3 -49s1 -33 3 -49h243l-16 -67h-213c34 -105 114 -172 215 -172c98 0 165 49 205 147z" />
    <glyph glyph-name="florin" unicode="&#x192;" horiz-adv-x="715" 
d="M514 644c-63 0 -95 -38 -99 -105l-12 -182h189v-70h-194l-23 -345c-7 -107 -65 -174 -170 -174c-85 0 -132 46 -132 46l31 64s39 -39 94 -39c64 0 96 38 100 105l23 343h-160v70h165l12 184c7 107 65 174 170 174c85 0 132 -46 132 -46l-31 -64s-39 39 -95 39z" />
    <glyph glyph-name="franc" unicode="&#x20a3;" horiz-adv-x="700" 
d="M618 635h-368v-266h332v-72h-332v-111h189v-69h-189v-117h-80v117h-90v69h90v521h448v-72z" />
    <glyph glyph-name="sterling" unicode="&#xa3;" horiz-adv-x="688" 
d="M267 70l342 1v-71h-520v69h101v244h-99v69h99v119c0 129 82 214 208 214c88 0 161 -47 202 -129l-69 -27c-28 55 -77 84 -133 84c-80 0 -131 -54 -131 -142v-119h232v-69h-232v-243z" />
    <glyph glyph-name="yen" unicode="&#xa5;" horiz-adv-x="789" 
d="M718 707l-246 -388h131v-69h-167v-92h167v-69h-167v-89h-81v89h-169v69h169v92h-169v69h133l-248 388h95l223 -357l7 -16l6 16l224 357h92z" />
    <glyph glyph-name="plus" unicode="+" horiz-adv-x="562" 
d="M484 386v-70h-167v-166h-72v166h-167v70h167v166h72v-166h167z" />
    <glyph glyph-name="minus" unicode="&#x2212;" horiz-adv-x="619" 
d="M133 320v71h354v-71h-354z" />
    <glyph glyph-name="multiply" unicode="&#xd7;" horiz-adv-x="540" 
d="M453 484l-133 -133l133 -133l-50 -50l-133 133l-133 -133l-50 50l133 133l-133 133l50 50l133 -133l133 133z" />
    <glyph glyph-name="divide" unicode="&#xf7;" horiz-adv-x="626" 
d="M312 479c-35 0 -60 24 -60 60c0 35 26 60 60 60c36 0 61 -24 61 -60c0 -35 -26 -60 -61 -60zM81 328v71h462v-71h-462zM312 129c-35 0 -60 24 -60 60c0 34 26 59 60 59c36 0 61 -24 61 -59s-26 -60 -61 -60z" />
    <glyph glyph-name="equal" unicode="=" horiz-adv-x="618" 
d="M129 411v68h361v-68h-361zM129 225v68h361v-68h-361z" />
    <glyph glyph-name="notequal" unicode="&#x2260;" horiz-adv-x="619" 
d="M491 411h-132l-55 -118h187v-68h-219l-57 -121l-36 17l49 104h-99v68h131l55 118h-186v68h218l57 121l36 -17l-49 -104h100v-68z" />
    <glyph glyph-name="greater" unicode="&#x3e;" horiz-adv-x="595" 
d="M88 95v87l344 155l23 6l-23 6l-344 155v87l432 -208v-80z" />
    <glyph glyph-name="less" unicode="&#x3c;" horiz-adv-x="596" 
d="M507 95l-432 208v80l432 208v-87l-344 -155l-23 -6l23 -6l344 -155v-87z" />
    <glyph glyph-name="greaterequal" unicode="&#x2265;" horiz-adv-x="621" 
d="M102 206v83l329 118l31 7l-31 6l-329 119v83l432 -168v-80zM102 65v69h432v-69h-432z" />
    <glyph glyph-name="lessequal" unicode="&#x2264;" horiz-adv-x="620" 
d="M518 206l-432 168v80l432 168v-83l-329 -119l-31 -6l31 -7l329 -118v-83zM518 65h-432v69h432v-69z" />
    </font>
</defs>
</svg>
