<svg xmlns="http://www.w3.org/2000/svg" width="29" height="29" viewBox="0 0 29 29"><g><g><g><g><path fill="#c7c4da" d="M28.028 11.524a.587.587 0 0 1-.566-.436 13.248 13.248 0 0 0-2.4-4.802 13.332 13.332 0 0 0-4.62-3.74.587.587 0 1 1 .512-1.057 14.865 14.865 0 0 1 .821.436 14.462 14.462 0 0 1 4.213 3.636 14.427 14.427 0 0 1 2.61 5.222.587.587 0 0 1-.57.74z"/></g><g><path fill="#c7c4da" d="M1.066 18.746A.587.587 0 0 1 .5 18.31a14.37 14.37 0 0 1-.312-6.074 13.587 13.587 0 0 1 .149-.783c.002-.012.004-.026.008-.039.044-.206.095-.413.154-.635a.587.587 0 1 1 1.137.29c-.052.195-.096.378-.137.558l-.008.043c-.053.239-.1.483-.14.725 0 .006 0 .012-.002.017a13.178 13.178 0 0 0 .285 5.593.587.587 0 0 1-.568.74z"/></g><g><path fill="#c7c4da" d="M2.557 7.99a.588.588 0 0 1-.505-.887 14.447 14.447 0 0 1 3.614-4.08 14.267 14.267 0 0 1 2.36-1.48c.249-.127.51-.248.798-.37.032-.015.066-.028.102-.043l.036-.015a14.136 14.136 0 0 1 2.402-.76A14.298 14.298 0 0 1 13.808.02l.005-.001a14.411 14.411 0 0 1 4.334.432.587.587 0 1 1-.293 1.137 12.63 12.63 0 0 0-.822-.181 13.198 13.198 0 0 0-3.16-.215h-.012a13.39 13.39 0 0 0-4.443 1.007l-.047.02c-.02.007-.039.015-.058.024-.007.003-.013.005-.02.01-.266.113-.507.225-.74.342A13.162 13.162 0 0 0 5.29 4.9a13.111 13.111 0 0 0-1.77 2.09c-.16.233-.313.473-.456.714a.589.589 0 0 1-.506.287z"/></g><g><path fill="#c7c4da" d="M16.211 28.991a.586.586 0 0 1-.587-.587v-.001c0-.05.007-.1.02-.15.103-.39.19-.748.265-1.093a26.797 26.797 0 0 0 .364-1.986c.058-.402.107-.802.143-1.19a24.812 24.812 0 0 0 .124-1.928 26.1 26.1 0 0 0-.018-1.933 26.187 26.187 0 0 0-.204-2.326 26.922 26.922 0 0 0-.696-3.515l-.008-.026a1.097 1.097 0 0 0-1.355-.783c-.468.126-.807.55-.824 1.031-.004.11.01.22.038.329a25.129 25.129 0 0 1 .852 6.986.586.586 0 1 1-1.174-.024 23.688 23.688 0 0 0-.68-6.145c-.042-.172-.087-.344-.133-.516a2.273 2.273 0 0 1 1.615-2.794 2.267 2.267 0 0 1 2.524.992c.118.188.207.39.265.602l.007.022a28.351 28.351 0 0 1 .847 4.687 27.169 27.169 0 0 1 .125 2.247 28.39 28.39 0 0 1-.073 2.502c-.016.223-.037.455-.063.707-.038.403-.089.822-.15 1.243-.064.438-.14.888-.226 1.338-.052.266-.101.506-.154.734-.077.355-.167.724-.272 1.126a.589.589 0 0 1-.572.451z"/></g><g><path fill="#c7c4da" d="M12.698 28.97a.587.587 0 0 1-.562-.758l.005-.019.014-.047.005-.02a23.4 23.4 0 0 0 .654-2.78l.008-.04a20.356 20.356 0 0 0 .16-1.09.588.588 0 0 1 1.165.142 23.762 23.762 0 0 1-.176 1.184l-.008.04a24.772 24.772 0 0 1-.677 2.87l-.025.084-.005.016a.58.58 0 0 1-.558.419z"/></g><g><path fill="#c7c4da" d="M19.637 28.136a.586.586 0 0 1-.587-.587v-.001a.6.6 0 0 1 .012-.119 30.872 30.872 0 0 0 .32-1.832 30.267 30.267 0 0 0 .285-3.123.588.588 0 0 1 1.174.047 31.347 31.347 0 0 1-.626 5.135.59.59 0 0 1-.578.48z"/></g><g><path fill="#c7c4da" d="M9.658 28.205a.589.589 0 0 1-.561-.764 20.27 20.27 0 0 0 .676-2.87 20.228 20.228 0 0 0 .254-2.747v-.013a20.21 20.21 0 0 0-.158-3.098.587.587 0 0 1 1.164-.152 21.758 21.758 0 0 1 .132 4.13 21.208 21.208 0 0 1-.325 2.59 21.325 21.325 0 0 1-.621 2.51.59.59 0 0 1-.561.414z"/></g><g><path fill="#c7c4da" d="M20.25 20.647a.587.587 0 0 1-.585-.56 29.964 29.964 0 0 0-.408-3.864 29.293 29.293 0 0 0-.474-2.26c-.034-.135-.068-.27-.103-.402l-.031-.121a1.41 1.41 0 0 0-.023-.08l-.006-.024a4.208 4.208 0 0 0-1.405-2.094 4.242 4.242 0 0 0-2.605-.94 4.287 4.287 0 0 0-1.152.146 4.187 4.187 0 0 0-1.66.874 4.263 4.263 0 0 0-1.197 1.694 4.217 4.217 0 0 0-.14 2.628c.048.179.093.358.137.538a.588.588 0 0 1-1.14.279 18.674 18.674 0 0 0-.132-.515 5.384 5.384 0 0 1 .73-4.41 5.353 5.353 0 0 1 3.098-2.22c.484-.13.978-.192 1.47-.186a5.426 5.426 0 0 1 5.124 3.883l.007.022c.012.038.022.076.033.115l.03.121.107.411c.197.786.362 1.575.491 2.347a30.74 30.74 0 0 1 .424 4.012.587.587 0 0 1-.56.612c-.012-.006-.021-.006-.03-.006z"/></g><g><path fill="#c7c4da" d="M6.816 26.758a.587.587 0 0 1-.565-.745c.136-.487.252-.986.345-1.485.1-.533.176-1.07.224-1.599l.003-.027.005-.051.004-.042a17.524 17.524 0 0 0-.539-6.05 8.509 8.509 0 0 1 .882-6.531 8.462 8.462 0 0 1 2.429-2.65.587.587 0 1 1 .616 1l-.007.005a7.28 7.28 0 0 0-2.257 2.667 7.329 7.329 0 0 0-.53 5.208c.57 2.122.763 4.296.575 6.462l-.004.04c-.003.028-.005.057-.01.087a18.177 18.177 0 0 1-.238 1.697 18.22 18.22 0 0 1-.368 1.584.587.587 0 0 1-.565.43z"/></g><g><path fill="#c7c4da" d="M23.138 26.138a.588.588 0 0 1-.583-.66c.07-.569.126-1.131.167-1.67a32.3 32.3 0 0 0 .094-2.624l-.001-.17a33.547 33.547 0 0 0-1.147-8.377 7.336 7.336 0 0 0-2.942-4.164 7.354 7.354 0 0 0-5.55-1.17c-.02.006-.039.008-.055.011-.159.03-.323.068-.478.111-.16.043-.293.083-.417.127a.587.587 0 0 1-.38-1.11 7.836 7.836 0 0 1 1.065-.28h.002a8.44 8.44 0 0 1 3.52.05 8.544 8.544 0 0 1 4.069 2.206 8.51 8.51 0 0 1 2.298 3.916c.76 2.834 1.16 5.75 1.186 8.664l.001.185a34.388 34.388 0 0 1-.269 4.44.583.583 0 0 1-.58.515z"/></g><g><path fill="#c7c4da" d="M3.587 15.126A.587.587 0 0 1 3 14.539a11.535 11.535 0 0 1 .931-4.524 11.546 11.546 0 0 1 2.882-4.042l.024-.02c.283-.255.579-.495.904-.731l.012-.01a11.437 11.437 0 0 1 3.808-1.817 11.51 11.51 0 0 1 5.384-.145l.02.004c.448.098.886.22 1.301.363a11.63 11.63 0 0 1 3.998 2.342.588.588 0 0 1-.786.872 10.396 10.396 0 0 0-3.593-2.102c-.37-.127-.759-.235-1.157-.323l-.014-.002a10.32 10.32 0 0 0-4.852.127 10.235 10.235 0 0 0-3.408 1.623l-.014.01c-.304.221-.578.444-.84.682-.008.008-.017.014-.025.02a10.13 10.13 0 0 0-1.261 1.376 10.357 10.357 0 0 0-1.626 3.09 10.438 10.438 0 0 0-.515 3.207.586.586 0 0 1-.586.587z"/></g><g><path fill="#c7c4da" d="M4.248 24.551a.587.587 0 0 1-.58-.689 14.372 14.372 0 0 0-.271-6.33c-.045-.169-.086-.341-.123-.51a.586.586 0 1 1 1.146-.25c.034.153.07.308.111.46a15.863 15.863 0 0 1 .537 3.81 15.47 15.47 0 0 1-.243 3.027.586.586 0 0 1-.577.482z"/></g><g><path fill="#c7c4da" d="M26.399 22.508h-.007a.586.586 0 0 1-.58-.593l.001-.124c.001-.089.003-.176.003-.265a35.525 35.525 0 0 0-.179-3.81 38.26 38.26 0 0 0-.44-3.073 36.532 36.532 0 0 0-.632-2.779 10.24 10.24 0 0 0-1.45-3.164.588.588 0 0 1 .964-.667 11.334 11.334 0 0 1 1.62 3.53 38.846 38.846 0 0 1 .79 3.646 39.275 39.275 0 0 1 .389 3.193 36.993 36.993 0 0 1 .11 3.402l-.002.121a.589.589 0 0 1-.587.583z"/></g></g></g></g></svg>