<svg xmlns="http://www.w3.org/2000/svg" width="85" height="20" viewBox="0 0 85 20"><g><g><path fill="#2c21ee" d="M31.582 10.017c0 .825-.117 1.532-.117 1.532H17.088c.47 2.592 2.12 3.889 4.831 3.889 2.004 0 3.771-.943 4.36-2.122l4.36 2.004c-1.885 3.064-4.83 4.596-8.838 4.596-5.774 0-9.899-4.243-9.899-10.017C11.902 4.125 16.145 0 22.037 0c5.657 0 9.545 4.125 9.545 10.017zm-5.067-2.24c-.118-2.12-1.885-3.535-4.478-3.535s-4.242 1.179-4.832 3.536zM48.2.708h5.656L45.96 19.21h-5.775L32.29.707h5.892l4.95 12.963zm8.485 0h5.067V19.21h-5.067zM84.849 19.21H78.72l-4.124-5.657-4.125 5.657h-6.01l7.071-9.31L64.815.707h6.128l3.77 5.421 3.772-5.42h6.01l-6.717 9.191zm-79.782 0H0V.589h12.138l-1.885 4.478H5.067z"/></g></g></svg>