<?xml version="1.0" standalone="no"?>
<!DOCTYPE svg PUBLIC "-//W3C//DTD SVG 1.1//EN" "http://www.w3.org/Graphics/SVG/1.1/DTD/svg11.dtd" >
<svg xmlns="http://www.w3.org/2000/svg" xmlns:xlink="http://www.w3.org/1999/xlink" version="1.1">
<metadata>
Created by FontForge 20170924 at Tue Apr 10 09:00:46 2018
 By www-data
Copyright \(c\) 2018 by Roch Modrzejewski. All rights reserved.
</metadata>
<defs>
<font id="Bozon-Bold" horiz-adv-x="861" >
  <font-face 
    font-family="Bozon Bold"
    font-weight="700"
    font-stretch="normal"
    units-per-em="1000"
    panose-1="0 0 8 0 0 0 0 0 0 0"
    ascent="800"
    descent="-200"
    x-height="503"
    cap-height="725"
    bbox="-426 -310 1841 1022"
    underline-thickness="93"
    underline-position="-140"
    stemh="115"
    stemv="134"
    unicode-range="U+0020-FB01"
  />
<missing-glyph horiz-adv-x="909" 
d="M106 744h697v-962h-697v962zM713 -127v780h-517v-780h517zM329 55l-82 82l126 126l-126 126l82 82l126 -126l125 126l82 -82l-126 -126l126 -126l-82 -82l-125 126z" />
    <glyph glyph-name="f_f" unicode="ff" horiz-adv-x="788" 
d="M592 553v-50h171v-115h-171v-388h-134v388h-209v-388h-134v388h-90v115h90v54c0 123 74 198 198 198c86 0 134 -40 134 -40l-45 -104s-27 27 -70 27c-54 0 -83 -30 -83 -85v-50h209v54c0 123 74 198 198 198c93 0 146 -47 146 -47l-45 -103s-33 33 -82 33
c-55 0 -83 -30 -83 -85z" />
    <glyph glyph-name="f_f_i" unicode="ffi" horiz-adv-x="990" 
d="M919 503v-503h-134v388h-193v-388h-134v388h-209v-388h-134v388h-90v115h90v54c0 123 74 198 198 198c86 0 134 -40 134 -40l-45 -104s-27 27 -70 27c-54 0 -83 -30 -83 -85v-50h209v34c0 136 81 218 218 218c107 0 168 -57 168 -57l-54 -99s-31 39 -96 39
c-66 0 -102 -37 -102 -105v-30h327z" />
    <glyph glyph-name="f_j" unicode="fj" horiz-adv-x="647" 
d="M576 503v-525c0 -132 -68 -206 -194 -206c-24 0 -40 4 -40 4l11 115h11c55 0 78 26 78 84v413h-193v-388h-134v388h-90v115h90v34c0 136 82 218 218 218c108 0 169 -57 169 -57l-54 -99s-32 39 -96 39c-66 0 -103 -37 -103 -105v-30h327z" />
    <glyph glyph-name="fi" unicode="fi" horiz-adv-x="648" 
d="M576 503v-503h-134v388h-193v-388h-134v388h-90v115h90v34c0 136 82 218 218 218c108 0 169 -57 169 -57l-54 -99s-32 39 -96 39c-66 0 -103 -37 -103 -105v-30h327z" />
    <glyph glyph-name=".notdef" horiz-adv-x="909" 
d="M106 744h697v-962h-697v962zM713 -127v780h-517v-780h517zM329 55l-82 82l126 126l-126 126l82 82l126 -126l125 126l82 -82l-126 -126l126 -126l-82 -82l-125 126z" />
    <glyph glyph-name="A" unicode="A" horiz-adv-x="777" 
d="M612 0l-60 156h-330l-60 -156h-149l294 725h162l295 -725h-152zM270 278h235l-109 282l-9 33l-8 -33z" />
    <glyph glyph-name="Aacute" unicode="&#xc1;" horiz-adv-x="777" 
d="M545 884l-230 -105l-40 77l216 131zM612 0l-60 156h-330l-60 -156h-149l294 725h162l295 -725h-152zM270 278h235l-109 282l-9 33l-8 -33z" />
    <glyph glyph-name="Abreve" unicode="&#x102;" horiz-adv-x="777" 
d="M389 795c-148 0 -176 155 -176 155h102s12 -66 74 -66c63 0 75 66 75 66h102s-27 -155 -177 -155zM612 0l-60 156h-330l-60 -156h-149l294 725h162l295 -725h-152zM270 278h235l-109 282l-9 33l-8 -33z" />
    <glyph glyph-name="uni1EB6" unicode="&#x1eb6;" horiz-adv-x="777" 
d="M389 795c-148 0 -176 155 -176 155h102s12 -66 74 -66c63 0 75 66 75 66h102s-27 -155 -177 -155zM764 0h-152l-60 156h-330l-60 -156h-149l294 725h162zM270 278h235l-109 282l-9 33l-8 -33zM389 -71c48 0 82 -33 82 -80c0 -46 -35 -80 -82 -80s-81 33 -81 80
s34 80 81 80z" />
    <glyph glyph-name="uni01CD" unicode="&#x1cd;" horiz-adv-x="777" 
d="M452 811h-125l-122 132h132l52 -61l52 61h133zM612 0l-60 156h-330l-60 -156h-149l294 725h162l295 -725h-152zM270 278h235l-109 282l-9 33l-8 -33z" />
    <glyph glyph-name="Acircumflex" unicode="&#xc2;" horiz-adv-x="777" 
d="M393 873l-52 -61h-132l122 132h125l122 -132h-133zM612 0l-60 156h-330l-60 -156h-149l294 725h162l295 -725h-152zM270 278h235l-109 282l-9 33l-8 -33z" />
    <glyph glyph-name="uni1EAC" unicode="&#x1eac;" horiz-adv-x="777" 
d="M393 873l-52 -61h-132l122 132h125l122 -132h-133zM764 0h-152l-60 156h-330l-60 -156h-149l294 725h162zM270 278h235l-109 282l-9 33l-8 -33zM389 -71c48 0 82 -33 82 -80c0 -46 -35 -80 -82 -80s-81 33 -81 80s34 80 81 80z" />
    <glyph glyph-name="uni0200" unicode="&#x200;" horiz-adv-x="777" 
d="M434 971l-108 -199l-79 38l84 210zM503 772l-79 38l84 210l103 -49zM612 0l-60 156h-330l-60 -156h-149l294 725h162l295 -725h-152zM270 278h235l-109 282l-9 33l-8 -33z" />
    <glyph glyph-name="Adieresis" unicode="&#xc4;" horiz-adv-x="777" 
d="M286 811c-42 0 -73 31 -73 72c0 42 31 72 73 72c43 0 74 -28 74 -72c0 -41 -32 -72 -74 -72zM492 811c-42 0 -73 30 -73 72s31 72 73 72c43 0 74 -29 74 -72c0 -41 -32 -72 -74 -72zM612 0l-60 156h-330l-60 -156h-149l294 725h162l295 -725h-152zM270 278h235l-109 282
l-9 33l-8 -33z" />
    <glyph glyph-name="uni1EA0" unicode="&#x1ea0;" horiz-adv-x="777" 
d="M764 0h-152l-60 156h-330l-60 -156h-149l294 725h162zM270 278h235l-109 282l-9 33l-8 -33zM389 -71c48 0 82 -33 82 -80c0 -46 -35 -80 -82 -80s-81 33 -81 80s34 80 81 80z" />
    <glyph glyph-name="Agrave" unicode="&#xc0;" horiz-adv-x="777" 
d="M504 856l-41 -77l-229 105l53 103zM612 0l-60 156h-330l-60 -156h-149l294 725h162l295 -725h-152zM270 278h235l-109 282l-9 33l-8 -33z" />
    <glyph glyph-name="Amacron" unicode="&#x100;" horiz-adv-x="777" 
d="M576 927v-102h-373v102h373zM612 0l-60 156h-330l-60 -156h-149l294 725h162l295 -725h-152zM270 278h235l-109 282l-9 33l-8 -33z" />
    <glyph glyph-name="Aogonek" unicode="&#x104;" horiz-adv-x="777" 
d="M781 -127l24 -95s-34 -18 -91 -18c-81 0 -136 48 -136 121c0 56 36 95 68 119h-34l-60 156h-330l-60 -156h-149l294 725h162l295 -725s-74 -31 -74 -90c0 -28 20 -48 50 -48c24 0 41 11 41 11zM270 278h235l-109 282l-9 33l-8 -33z" />
    <glyph glyph-name="Aring" unicode="&#xc5;" horiz-adv-x="777" 
d="M612 0l-60 156h-330l-60 -156h-149l280 691c-18 21 -29 49 -29 81c0 72 52 123 124 123s124 -51 124 -123c0 -32 -11 -60 -29 -81l281 -691h-152zM388 811c-22 0 -38 -16 -38 -39c0 -22 16 -38 38 -38c23 0 40 16 40 38c0 23 -17 39 -40 39zM270 278h235l-109 282l-9 33
l-8 -33z" />
    <glyph glyph-name="Atilde" unicode="&#xc3;" horiz-adv-x="777" 
d="M299 846c-54 0 -89 -37 -89 -37v103s31 36 95 36c76 0 110 -50 172 -50c53 0 88 36 88 36v-103s-30 -35 -95 -35c-74 0 -109 50 -171 50zM612 0l-60 156h-330l-60 -156h-149l294 725h162l295 -725h-152zM270 278h235l-109 282l-9 33l-8 -33z" />
    <glyph glyph-name="AE" unicode="&#xc6;" horiz-adv-x="1126" 
d="M718 124h352v-124h-489v156h-283l-102 -156h-167l493 725h543v-123h-347v-178h326v-117h-326v-183zM379 278h202v308z" />
    <glyph glyph-name="AEacute" unicode="&#x1fc;" horiz-adv-x="1126" 
d="M776 884l-230 -105l-40 77l216 131zM718 124h352v-124h-489v156h-283l-102 -156h-167l493 725h543v-123h-347v-178h326v-117h-326v-183zM379 278h202v308z" />
    <glyph glyph-name="B" unicode="B" horiz-adv-x="702" 
d="M504 368c97 -15 147 -78 147 -162c0 -126 -99 -206 -255 -206h-308v725h288c152 0 248 -77 248 -198c0 -73 -39 -134 -120 -156v-3zM374 605h-148v-182h148c74 0 115 33 115 92c0 58 -41 90 -115 90zM385 121c82 0 127 34 127 93c0 60 -47 93 -131 93h-155v-186h159z" />
    <glyph glyph-name="C" unicode="C" horiz-adv-x="802" 
d="M627 481c-42 85 -107 125 -201 125c-136 0 -234 -100 -234 -243c0 -145 97 -243 231 -243c104 0 171 42 209 133l130 -51c-58 -130 -176 -213 -340 -213c-211 0 -370 156 -370 374c0 214 159 373 374 373c158 0 269 -80 331 -205z" />
    <glyph glyph-name="Cacute" unicode="&#x106;" horiz-adv-x="802" 
d="M312 856l216 131l54 -103l-230 -105zM627 481c-42 85 -107 125 -201 125c-136 0 -234 -100 -234 -243c0 -145 97 -243 231 -243c104 0 171 42 209 133l130 -51c-58 -130 -176 -213 -340 -213c-211 0 -370 156 -370 374c0 214 159 373 374 373c158 0 269 -80 331 -205z
" />
    <glyph glyph-name="Ccaron" unicode="&#x10c;" horiz-adv-x="802" 
d="M364 811l-122 132h132l52 -61l52 61h133l-122 -132h-125zM627 481c-42 85 -107 125 -201 125c-136 0 -234 -100 -234 -243c0 -145 97 -243 231 -243c104 0 171 42 209 133l130 -51c-58 -130 -176 -213 -340 -213c-211 0 -370 156 -370 374c0 214 159 373 374 373
c158 0 269 -80 331 -205z" />
    <glyph glyph-name="Ccedilla" unicode="&#xc7;" horiz-adv-x="802" 
d="M762 202c-54 -120 -158 -200 -303 -212l-2 -20h2c46 0 90 -34 90 -95c0 -70 -56 -115 -141 -115c-76 0 -116 37 -116 37l47 77s22 -22 62 -22c28 0 45 13 45 33c0 19 -14 31 -41 31c-21 0 -35 -6 -35 -6l9 81c-189 20 -327 169 -327 372c0 214 159 373 374 373
c158 0 269 -80 331 -205l-130 -50c-42 85 -107 125 -201 125c-136 0 -234 -100 -234 -243c0 -145 97 -243 231 -243c104 0 171 42 209 133z" />
    <glyph glyph-name="Ccircumflex" unicode="&#x108;" horiz-adv-x="802" 
d="M368 944h125l122 -132h-133l-52 61l-52 -61h-132zM627 481c-42 85 -107 125 -201 125c-136 0 -234 -100 -234 -243c0 -145 97 -243 231 -243c104 0 171 42 209 133l130 -51c-58 -130 -176 -213 -340 -213c-211 0 -370 156 -370 374c0 214 159 373 374 373
c158 0 269 -80 331 -205z" />
    <glyph glyph-name="Cdotaccent" unicode="&#x10a;" horiz-adv-x="802" 
d="M426 803c-47 0 -81 33 -81 80s34 80 81 80c48 0 82 -33 82 -80c0 -46 -35 -80 -82 -80zM627 481c-42 85 -107 125 -201 125c-136 0 -234 -100 -234 -243c0 -145 97 -243 231 -243c104 0 171 42 209 133l130 -51c-58 -130 -176 -213 -340 -213c-211 0 -370 156 -370 374
c0 214 159 373 374 373c158 0 269 -80 331 -205z" />
    <glyph glyph-name="D" unicode="D" horiz-adv-x="792" 
d="M351 725c227 0 390 -152 390 -362c0 -211 -165 -363 -392 -363h-261v725h263zM350 131c149 0 251 93 251 232c0 141 -100 233 -249 233h-126v-465h124z" />
    <glyph glyph-name="uni01F1" unicode="&#x1f1;" horiz-adv-x="1417" 
d="M351 725c227 0 390 -152 390 -362c0 -211 -165 -363 -392 -363h-261v725h263zM986 128h383v-128h-574v104l378 494h-367v127h557v-100zM350 131c149 0 251 93 251 232c0 141 -100 233 -249 233h-126v-465h124z" />
    <glyph glyph-name="uni01C4" unicode="&#x1c4;" horiz-adv-x="1417" 
d="M1148 811h-125l-122 132h132l52 -61l52 61h133zM351 725c227 0 390 -152 390 -362c0 -211 -165 -363 -392 -363h-261v725h263zM986 128h383v-128h-574v104l378 494h-367v127h557v-100zM350 131c149 0 251 93 251 232c0 141 -100 233 -249 233h-126v-465h124z" />
    <glyph glyph-name="Eth" unicode="&#xd0;" horiz-adv-x="831" 
d="M391 725c227 0 390 -152 390 -362c0 -211 -165 -363 -392 -363h-261v318h-90v90h90v317h263zM640 363c1 141 -100 233 -249 233h-125v-188h156v-90h-156v-187h123c150 0 251 93 251 232z" />
    <glyph glyph-name="Dcaron" unicode="&#x10e;" horiz-adv-x="792" 
d="M473 811h-125l-122 132h132l52 -61l52 61h133zM351 725c227 0 390 -152 390 -362c0 -211 -165 -363 -392 -363h-261v725h263zM350 131c149 0 251 93 251 232c0 141 -100 233 -249 233h-126v-465h124z" />
    <glyph glyph-name="Dcroat" unicode="&#x110;" horiz-adv-x="831" 
d="M391 725c227 0 390 -152 390 -362c0 -211 -165 -363 -392 -363h-261v318h-90v90h90v317h263zM640 363c1 141 -100 233 -249 233h-125v-188h156v-90h-156v-187h123c150 0 251 93 251 232z" />
    <glyph glyph-name="uni1E0C" unicode="&#x1e0c;" horiz-adv-x="792" 
d="M351 725c227 0 390 -152 390 -362c0 -211 -165 -363 -392 -363h-261v725h263zM350 131c149 0 251 93 251 232c0 141 -100 233 -249 233h-126v-465h124zM410 -71c48 0 82 -33 82 -80c0 -46 -35 -80 -82 -80s-81 33 -81 80s34 80 81 80z" />
    <glyph glyph-name="uni01F2" unicode="&#x1f2;" horiz-adv-x="1283" 
d="M351 725c227 0 390 -152 390 -362c0 -211 -165 -363 -392 -363h-261v725h263zM350 131c149 0 251 93 251 232c0 141 -100 233 -249 233h-126v-465h124zM997 121h247v-121h-424v105l244 280h-237v118h413v-101z" />
    <glyph glyph-name="uni01C5" unicode="&#x1c5;" horiz-adv-x="1283" 
d="M351 725c227 0 390 -152 390 -362c0 -211 -165 -363 -392 -363h-261v725h263zM1097 590h-125l-122 132h132l52 -61l52 61h133zM350 131c149 0 251 93 251 232c0 141 -100 233 -249 233h-126v-465h124zM997 121h247v-121h-424v105l244 280h-237v118h413v-101z" />
    <glyph glyph-name="E" unicode="E" horiz-adv-x="643" 
d="M226 124h361v-124h-499v725h494v-123h-356v-178h336v-117h-336v-183z" />
    <glyph glyph-name="Eacute" unicode="&#xc9;" horiz-adv-x="643" 
d="M491 884l-230 -105l-40 77l216 131zM226 124h361v-124h-499v725h494v-123h-356v-178h336v-117h-336v-183z" />
    <glyph glyph-name="Ebreve" unicode="&#x114;" horiz-adv-x="643" 
d="M335 795c-148 0 -176 155 -176 155h102s12 -66 74 -66c63 0 75 66 75 66h102s-27 -155 -177 -155zM226 124h361v-124h-499v725h494v-123h-356v-178h336v-117h-336v-183z" />
    <glyph glyph-name="Ecaron" unicode="&#x11a;" horiz-adv-x="643" 
d="M398 811h-125l-122 132h132l52 -61l52 61h133zM226 124h361v-124h-499v725h494v-123h-356v-178h336v-117h-336v-183z" />
    <glyph glyph-name="Ecircumflex" unicode="&#xca;" horiz-adv-x="643" 
d="M339 873l-52 -61h-132l122 132h125l122 -132h-133zM226 124h361v-124h-499v725h494v-123h-356v-178h336v-117h-336v-183z" />
    <glyph glyph-name="uni1EC6" unicode="&#x1ec6;" horiz-adv-x="643" 
d="M339 873l-52 -61h-132l122 132h125l122 -132h-133zM226 124h361v-124h-499v725h494v-123h-356v-178h336v-117h-336v-183zM338 -71c48 0 82 -33 82 -80c0 -46 -35 -80 -82 -80s-81 33 -81 80s34 80 81 80z" />
    <glyph glyph-name="uni0204" unicode="&#x204;" horiz-adv-x="643" 
d="M380 971l-108 -199l-79 38l84 210zM449 772l-79 38l84 210l103 -49zM226 124h361v-124h-499v725h494v-123h-356v-178h336v-117h-336v-183z" />
    <glyph glyph-name="Edieresis" unicode="&#xcb;" horiz-adv-x="643" 
d="M232 811c-42 0 -73 31 -73 72c0 42 31 72 73 72c43 0 74 -28 74 -72c0 -41 -32 -72 -74 -72zM438 811c-42 0 -73 30 -73 72s31 72 73 72c43 0 74 -29 74 -72c0 -41 -32 -72 -74 -72zM226 124h361v-124h-499v725h494v-123h-356v-178h336v-117h-336v-183z" />
    <glyph glyph-name="Edotaccent" unicode="&#x116;" horiz-adv-x="643" 
d="M335 803c-47 0 -81 33 -81 80s34 80 81 80c48 0 82 -33 82 -80c0 -46 -35 -80 -82 -80zM226 124h361v-124h-499v725h494v-123h-356v-178h336v-117h-336v-183z" />
    <glyph glyph-name="uni1EB8" unicode="&#x1eb8;" horiz-adv-x="643" 
d="M226 124h361v-124h-499v725h494v-123h-356v-178h336v-117h-336v-183zM338 -71c48 0 82 -33 82 -80c0 -46 -35 -80 -82 -80s-81 33 -81 80s34 80 81 80z" />
    <glyph glyph-name="Egrave" unicode="&#xc8;" horiz-adv-x="643" 
d="M450 856l-41 -77l-229 105l53 103zM226 124h361v-124h-499v725h494v-123h-356v-178h336v-117h-336v-183z" />
    <glyph glyph-name="Emacron" unicode="&#x112;" horiz-adv-x="643" 
d="M522 927v-102h-373v102h373zM226 124h361v-124h-499v725h494v-123h-356v-178h336v-117h-336v-183z" />
    <glyph glyph-name="Eogonek" unicode="&#x118;" horiz-adv-x="643" 
d="M604 -127l24 -95s-34 -18 -91 -18c-81 0 -136 48 -136 121c0 56 36 95 68 119h-381v725h494v-123h-356v-178h336v-117h-336v-183h361v-124s-74 -31 -74 -90c0 -28 20 -48 50 -48c24 0 41 11 41 11z" />
    <glyph glyph-name="uni1EBC" unicode="&#x1ebc;" horiz-adv-x="643" 
d="M245 846c-54 0 -89 -37 -89 -37v103s31 36 95 36c76 0 110 -50 172 -50c53 0 88 36 88 36v-103s-30 -35 -95 -35c-74 0 -109 50 -171 50zM226 124h361v-124h-499v725h494v-123h-356v-178h336v-117h-336v-183z" />
    <glyph glyph-name="F" unicode="F" horiz-adv-x="610" 
d="M567 602h-341v-194h307v-121h-307v-287h-138v725h479v-123z" />
    <glyph glyph-name="G" unicode="G" horiz-adv-x="843" 
d="M424 -11c-213 0 -372 156 -372 374c0 214 159 373 374 373c152 0 266 -70 329 -191l-133 -50c-39 74 -105 112 -196 112c-136 0 -234 -101 -234 -244c0 -145 97 -244 233 -244c115 0 202 69 221 178h-233v113h377s3 -21 3 -48c0 -219 -149 -373 -369 -373z" />
    <glyph glyph-name="uni01F4" unicode="&#x1f4;" horiz-adv-x="843" 
d="M312 856l216 131l54 -103l-230 -105zM424 -11c-213 0 -372 156 -372 374c0 214 159 373 374 373c152 0 266 -70 329 -191l-133 -50c-39 74 -105 112 -196 112c-136 0 -234 -101 -234 -244c0 -145 97 -244 233 -244c115 0 202 69 221 178h-233v113h377s3 -21 3 -48
c0 -219 -149 -373 -369 -373z" />
    <glyph glyph-name="Gbreve" unicode="&#x11e;" horiz-adv-x="843" 
d="M426 795c-148 0 -176 155 -176 155h102s12 -66 74 -66c63 0 75 66 75 66h102s-27 -155 -177 -155zM424 -11c-213 0 -372 156 -372 374c0 214 159 373 374 373c152 0 266 -70 329 -191l-133 -50c-39 74 -105 112 -196 112c-136 0 -234 -101 -234 -244
c0 -145 97 -244 233 -244c115 0 202 69 221 178h-233v113h377s3 -21 3 -48c0 -219 -149 -373 -369 -373z" />
    <glyph glyph-name="Gcircumflex" unicode="&#x11c;" horiz-adv-x="843" 
d="M368 944h125l122 -132h-133l-52 61l-52 -61h-132zM424 -11c-213 0 -372 156 -372 374c0 214 159 373 374 373c152 0 266 -70 329 -191l-133 -50c-39 74 -105 112 -196 112c-136 0 -234 -101 -234 -244c0 -145 97 -244 233 -244c115 0 202 69 221 178h-233v113h377
s3 -21 3 -48c0 -219 -149 -373 -369 -373z" />
    <glyph glyph-name="Gcommaaccent" unicode="&#x122;" horiz-adv-x="843" 
d="M790 410c0 0 3 -21 3 -48c0 -219 -149 -373 -369 -373c-213 0 -372 156 -372 374c0 214 159 373 374 373c152 0 266 -70 329 -191l-133 -50c-39 74 -105 112 -196 112c-136 0 -234 -101 -234 -244c0 -145 97 -244 233 -244c115 0 202 69 221 178h-233v113h377zM423 -48
c47 0 79 -30 79 -79c0 -27 -15 -52 -39 -96l-48 -87l-60 25l33 90c-26 11 -43 37 -43 70c0 45 32 77 78 77z" />
    <glyph glyph-name="Gdotaccent" unicode="&#x120;" horiz-adv-x="843" 
d="M426 803c-47 0 -81 33 -81 80s34 80 81 80c48 0 82 -33 82 -80c0 -46 -35 -80 -82 -80zM424 -11c-213 0 -372 156 -372 374c0 214 159 373 374 373c152 0 266 -70 329 -191l-133 -50c-39 74 -105 112 -196 112c-136 0 -234 -101 -234 -244c0 -145 97 -244 233 -244
c115 0 202 69 221 178h-233v113h377s3 -21 3 -48c0 -219 -149 -373 -369 -373z" />
    <glyph glyph-name="H" unicode="H" horiz-adv-x="801" 
d="M575 725h138v-725h-138v303h-349v-303h-138v725h138v-298h349v298z" />
    <glyph glyph-name="Hbar" unicode="&#x126;" 
d="M824 623v-91h-81v-532h-138v303h-349v-303h-138v532h-80v91h80v102h138v-102h349v102h138v-102h81zM605 427v105h-349v-105h349z" />
    <glyph glyph-name="Hcircumflex" unicode="&#x124;" horiz-adv-x="801" 
d="M405 873l-52 -61h-132l122 132h125l122 -132h-133zM575 725h138v-725h-138v303h-349v-303h-138v725h138v-298h349v298z" />
    <glyph glyph-name="uni1E24" unicode="&#x1e24;" horiz-adv-x="801" 
d="M575 725h138v-725h-138v303h-349v-303h-138v725h138v-298h349v298zM401 -71c48 0 82 -33 82 -80c0 -46 -35 -80 -82 -80s-81 33 -81 80s34 80 81 80z" />
    <glyph glyph-name="I" unicode="I" horiz-adv-x="317" 
d="M88 0v725h141v-725h-141z" />
    <glyph glyph-name="IJ" unicode="&#x132;" horiz-adv-x="913" 
d="M88 0v725h141v-725h-141zM573 -11c-162 0 -266 105 -266 270h140c0 -86 48 -139 126 -139s125 53 125 139v466h139v-465c0 -166 -103 -271 -264 -271z" />
    <glyph glyph-name="Iacute" unicode="&#xcd;" horiz-adv-x="317" 
d="M44 856l216 131l54 -103l-230 -105zM88 0v725h141v-725h-141z" />
    <glyph glyph-name="Ibreve" unicode="&#x12c;" horiz-adv-x="317" 
d="M158 795c-148 0 -176 155 -176 155h102s12 -66 74 -66c63 0 75 66 75 66h102s-27 -155 -177 -155zM88 0v725h141v-725h-141z" />
    <glyph glyph-name="uni01CF" unicode="&#x1cf;" horiz-adv-x="317" 
d="M96 811l-122 132h132l52 -61l52 61h133l-122 -132h-125zM88 0v725h141v-725h-141z" />
    <glyph glyph-name="Icircumflex" unicode="&#xce;" horiz-adv-x="317" 
d="M100 944h125l122 -132h-133l-52 61l-52 -61h-132zM88 0v725h141v-725h-141z" />
    <glyph glyph-name="uni0208" unicode="&#x208;" horiz-adv-x="317" 
d="M16 810l84 210l103 -49l-108 -199zM193 810l84 210l103 -49l-108 -199zM88 0v725h141v-725h-141z" />
    <glyph glyph-name="Idieresis" unicode="&#xcf;" horiz-adv-x="317" 
d="M55 811c-42 0 -73 31 -73 72c0 42 31 72 73 72c43 0 74 -28 74 -72c0 -41 -32 -72 -74 -72zM261 811c-42 0 -73 30 -73 72s31 72 73 72c43 0 74 -29 74 -72c0 -41 -32 -72 -74 -72zM88 0v725h141v-725h-141z" />
    <glyph glyph-name="Idotaccent" unicode="&#x130;" horiz-adv-x="317" 
d="M158 803c-47 0 -81 33 -81 80s34 80 81 80c48 0 82 -33 82 -80c0 -46 -35 -80 -82 -80zM88 0v725h141v-725h-141z" />
    <glyph glyph-name="uni1ECA" unicode="&#x1eca;" horiz-adv-x="317" 
d="M88 0v725h141v-725h-141zM158 -231c-47 0 -81 33 -81 80s34 80 81 80c48 0 82 -33 82 -80c0 -46 -35 -80 -82 -80z" />
    <glyph glyph-name="Igrave" unicode="&#xcc;" horiz-adv-x="317" 
d="M232 779l-229 105l53 103l217 -131zM88 0v725h141v-725h-141z" />
    <glyph glyph-name="Imacron" unicode="&#x12a;" horiz-adv-x="317" 
d="M-28 825v102h373v-102h-373zM88 0v725h141v-725h-141z" />
    <glyph glyph-name="Iogonek" unicode="&#x12e;" horiz-adv-x="317" 
d="M246 -127l24 -95s-34 -18 -91 -18c-81 0 -136 48 -136 121c0 56 36 95 68 119h-23v725h141v-725s-74 -31 -74 -90c0 -28 20 -48 50 -48c24 0 41 11 41 11z" />
    <glyph glyph-name="Itilde" unicode="&#x128;" horiz-adv-x="317" 
d="M334 934v-103s-30 -35 -95 -35c-74 0 -109 50 -171 50c-54 0 -89 -37 -89 -37v103s31 36 95 36c76 0 110 -50 172 -50c53 0 88 36 88 36zM88 0v725h141v-725h-141z" />
    <glyph glyph-name="J" unicode="J" horiz-adv-x="644" 
d="M304 -11c-162 0 -266 105 -266 270h140c0 -86 48 -139 126 -139s125 53 125 139v466h139v-465c0 -166 -103 -271 -264 -271z" />
    <glyph glyph-name="Jcircumflex" unicode="&#x134;" horiz-adv-x="644" 
d="M441 944h125l122 -132h-133l-52 61l-52 -61h-132zM304 -11c-162 0 -266 105 -266 270h140c0 -86 48 -139 126 -139s125 53 125 139v466h139v-465c0 -166 -103 -271 -264 -271z" />
    <glyph glyph-name="K" unicode="K" horiz-adv-x="744" 
d="M713 0h-163l-163 275l-185 -275h-113v725h137v-439l-7 -73l28 73l274 439h161l-215 -333z" />
    <glyph glyph-name="Kcommaaccent" unicode="&#x136;" horiz-adv-x="744" 
d="M467 392l246 -392h-163l-163 275l-185 -275h-113v725h137v-439l-7 -73l28 73l274 439h161zM402 -48c47 0 79 -30 79 -79c0 -27 -15 -52 -39 -96l-48 -87l-60 25l33 90c-26 11 -43 37 -43 70c0 45 32 77 78 77z" />
    <glyph glyph-name="L" unicode="L" horiz-adv-x="600" 
d="M228 131h333v-131h-473v725h140v-594z" />
    <glyph glyph-name="uni01C7" unicode="&#x1c7;" horiz-adv-x="1226" 
d="M228 725v-594h333v-131h-473v725h140zM1011 725h139v-465c0 -166 -103 -271 -264 -271c-162 0 -266 105 -266 270h140c0 -86 48 -139 126 -139s125 53 125 139v466z" />
    <glyph glyph-name="Lacute" unicode="&#x139;" horiz-adv-x="600" 
d="M260 987l54 -103l-230 -105l-40 77zM228 131h333v-131h-473v725h140v-594z" />
    <glyph glyph-name="Lcaron" unicode="&#x13d;" horiz-adv-x="600" 
d="M333 589c-26 11 -43 37 -43 70c0 45 32 77 78 77c47 0 79 -30 79 -79c0 -27 -15 -52 -39 -96l-48 -87l-60 25zM228 131h333v-131h-473v725h140v-594z" />
    <glyph glyph-name="Lcommaaccent" unicode="&#x13b;" horiz-adv-x="600" 
d="M228 131h333v-131h-473v725h140v-594zM323 -48c47 0 79 -30 79 -79c0 -27 -15 -52 -39 -96l-48 -87l-60 25l33 90c-26 11 -43 37 -43 70c0 45 32 77 78 77z" />
    <glyph glyph-name="Ldot" unicode="&#x13f;" horiz-adv-x="601" 
d="M228 131h333v-131h-473v725h140v-594zM414 277c-53 0 -90 36 -90 89c0 51 38 88 90 88c53 0 89 -36 89 -88s-37 -89 -89 -89z" />
    <glyph glyph-name="uni01C8" unicode="&#x1c8;" horiz-adv-x="860" 
d="M722 582c-47 0 -81 33 -81 80s34 80 81 80c48 0 82 -33 82 -80c0 -46 -35 -80 -82 -80zM561 131v-131h-473v725h140v-594h333zM655 -25v528h134v-525c0 -132 -67 -206 -194 -206c-24 0 -40 4 -40 4l11 115h11c55 0 78 26 78 84z" />
    <glyph glyph-name="Lslash" unicode="&#x141;" horiz-adv-x="643" 
d="M271 131h333v-131h-472v236l-90 -47v129l90 47v360h139v-287l117 61v-129l-117 -61v-178z" />
    <glyph glyph-name="M" unicode="M" horiz-adv-x="1011" 
d="M88 0v725h119l298 -524l299 524h118v-725h-135v452l-256 -452h-51l-256 451v-451h-136z" />
    <glyph glyph-name="N" unicode="N" horiz-adv-x="818" 
d="M88 0v725h119l387 -495v495h135v-725h-118l-387 493v-493h-136z" />
    <glyph glyph-name="uni01CA" unicode="&#x1ca;" horiz-adv-x="1414" 
d="M88 0v725h119l387 -495v495h135v-725h-118l-387 493v-493h-136zM1074 -11c-162 0 -266 105 -266 270h140c0 -86 48 -139 126 -139s125 53 125 139v466h139v-465c0 -166 -103 -271 -264 -271z" />
    <glyph glyph-name="Nacute" unicode="&#x143;" horiz-adv-x="818" 
d="M296 856l216 131l54 -103l-230 -105zM88 0v725h119l387 -495v495h135v-725h-118l-387 493v-493h-136z" />
    <glyph glyph-name="Ncaron" unicode="&#x147;" horiz-adv-x="818" 
d="M348 811l-122 132h132l52 -61l52 61h133l-122 -132h-125zM88 0v725h119l387 -495v495h135v-725h-118l-387 493v-493h-136z" />
    <glyph glyph-name="Ncommaaccent" unicode="&#x145;" horiz-adv-x="818" 
d="M594 725h135v-725h-118l-387 493v-493h-136v725h119l387 -495v495zM409 -48c47 0 79 -30 79 -79c0 -27 -15 -52 -39 -96l-48 -87l-60 25l33 90c-26 11 -43 37 -43 70c0 45 32 77 78 77z" />
    <glyph glyph-name="uni1E44" unicode="&#x1e44;" horiz-adv-x="818" 
d="M410 803c-47 0 -81 33 -81 80s34 80 81 80c48 0 82 -33 82 -80c0 -46 -35 -80 -82 -80zM88 0v725h119l387 -495v495h135v-725h-118l-387 493v-493h-136z" />
    <glyph glyph-name="Eng" unicode="&#x14a;" horiz-adv-x="818" 
d="M594 725h136v-745c0 -132 -68 -206 -195 -206c-80 0 -129 26 -129 26l38 115s30 -19 78 -19c50 0 74 25 74 84v39l-372 474v-493h-135v725h125l380 -495v495z" />
    <glyph glyph-name="uni01CB" unicode="&#x1cb;" horiz-adv-x="1084" 
d="M946 582c-47 0 -81 33 -81 80s34 80 81 80c48 0 82 -33 82 -80c0 -46 -35 -80 -82 -80zM88 0v725h119l387 -495v495h135v-725h-118l-387 493v-493h-136zM819 -228c-24 0 -40 4 -40 4l11 115h11c55 0 78 26 78 84v528h134v-525c0 -132 -67 -206 -194 -206z" />
    <glyph glyph-name="Ntilde" unicode="&#xd1;" horiz-adv-x="818" 
d="M586 934v-103s-30 -35 -95 -35c-74 0 -109 50 -171 50c-54 0 -89 -37 -89 -37v103s31 36 95 36c76 0 110 -50 172 -50c53 0 88 36 88 36zM88 0v725h119l387 -495v495h135v-725h-118l-387 493v-493h-136z" />
    <glyph glyph-name="O" unicode="O" horiz-adv-x="864" 
d="M432 -11c-221 0 -380 156 -380 374c0 214 161 373 380 373c221 0 380 -153 380 -373c0 -215 -160 -374 -380 -374zM432 120c141 0 239 100 239 243c1 146 -97 243 -239 243c-141 0 -240 -100 -240 -243c0 -145 97 -243 240 -243z" />
    <glyph glyph-name="Oacute" unicode="&#xd3;" horiz-adv-x="864" 
d="M318 856l216 131l54 -103l-230 -105zM432 -11c-221 0 -380 156 -380 374c0 214 161 373 380 373c221 0 380 -153 380 -373c0 -215 -160 -374 -380 -374zM432 120c141 0 239 100 239 243c1 146 -97 243 -239 243c-141 0 -240 -100 -240 -243c0 -145 97 -243 240 -243z" />
    <glyph glyph-name="Obreve" unicode="&#x14e;" horiz-adv-x="864" 
d="M432 795c-148 0 -176 155 -176 155h102s12 -66 74 -66c63 0 75 66 75 66h102s-27 -155 -177 -155zM432 -11c-221 0 -380 156 -380 374c0 214 161 373 380 373c221 0 380 -153 380 -373c0 -215 -160 -374 -380 -374zM432 120c141 0 239 100 239 243
c1 146 -97 243 -239 243c-141 0 -240 -100 -240 -243c0 -145 97 -243 240 -243z" />
    <glyph glyph-name="uni01D1" unicode="&#x1d1;" horiz-adv-x="864" 
d="M370 811l-122 132h132l52 -61l52 61h133l-122 -132h-125zM432 -11c-221 0 -380 156 -380 374c0 214 161 373 380 373c221 0 380 -153 380 -373c0 -215 -160 -374 -380 -374zM432 120c141 0 239 100 239 243c1 146 -97 243 -239 243c-141 0 -240 -100 -240 -243
c0 -145 97 -243 240 -243z" />
    <glyph glyph-name="Ocircumflex" unicode="&#xd4;" horiz-adv-x="864" 
d="M374 944h125l122 -132h-133l-52 61l-52 -61h-132zM432 -11c-221 0 -380 156 -380 374c0 214 161 373 380 373c221 0 380 -153 380 -373c0 -215 -160 -374 -380 -374zM432 120c141 0 239 100 239 243c1 146 -97 243 -239 243c-141 0 -240 -100 -240 -243
c0 -145 97 -243 240 -243z" />
    <glyph glyph-name="uni1ED8" unicode="&#x1ed8;" horiz-adv-x="864" 
d="M374 944h125l122 -132h-133l-52 61l-52 -61h-132zM432 -11c-221 0 -380 156 -380 374c0 214 161 373 380 373c221 0 380 -153 380 -373c0 -215 -160 -374 -380 -374zM432 120c141 0 239 100 239 243c1 146 -97 243 -239 243c-141 0 -240 -100 -240 -243
c0 -145 97 -243 240 -243zM432 -231c-47 0 -81 33 -81 80s34 80 81 80c48 0 82 -33 82 -80c0 -46 -35 -80 -82 -80z" />
    <glyph glyph-name="uni020C" unicode="&#x20c;" horiz-adv-x="864" 
d="M290 810l84 210l103 -49l-108 -199zM467 810l84 210l103 -49l-108 -199zM432 -11c-221 0 -380 156 -380 374c0 214 161 373 380 373c221 0 380 -153 380 -373c0 -215 -160 -374 -380 -374zM432 120c141 0 239 100 239 243c1 146 -97 243 -239 243
c-141 0 -240 -100 -240 -243c0 -145 97 -243 240 -243z" />
    <glyph glyph-name="Odieresis" unicode="&#xd6;" horiz-adv-x="864" 
d="M329 811c-42 0 -73 31 -73 72c0 42 31 72 73 72c43 0 74 -28 74 -72c0 -41 -32 -72 -74 -72zM535 811c-42 0 -73 30 -73 72s31 72 73 72c43 0 74 -29 74 -72c0 -41 -32 -72 -74 -72zM432 -11c-221 0 -380 156 -380 374c0 214 161 373 380 373c221 0 380 -153 380 -373
c0 -215 -160 -374 -380 -374zM432 120c141 0 239 100 239 243c1 146 -97 243 -239 243c-141 0 -240 -100 -240 -243c0 -145 97 -243 240 -243z" />
    <glyph glyph-name="uni1ECC" unicode="&#x1ecc;" horiz-adv-x="864" 
d="M432 -11c-221 0 -380 156 -380 374c0 214 161 373 380 373c221 0 380 -153 380 -373c0 -215 -160 -374 -380 -374zM432 120c141 0 239 100 239 243c1 146 -97 243 -239 243c-141 0 -240 -100 -240 -243c0 -145 97 -243 240 -243zM432 -231c-47 0 -81 33 -81 80
s34 80 81 80c48 0 82 -33 82 -80c0 -46 -35 -80 -82 -80z" />
    <glyph glyph-name="Ograve" unicode="&#xd2;" horiz-adv-x="864" 
d="M506 779l-229 105l53 103l217 -131zM432 -11c-221 0 -380 156 -380 374c0 214 161 373 380 373c221 0 380 -153 380 -373c0 -215 -160 -374 -380 -374zM432 120c141 0 239 100 239 243c1 146 -97 243 -239 243c-141 0 -240 -100 -240 -243c0 -145 97 -243 240 -243z" />
    <glyph glyph-name="Ohungarumlaut" unicode="&#x150;" horiz-adv-x="864" 
d="M398 810l-79 -38l-108 199l103 49zM574 810l-79 -38l-108 199l103 49zM432 -11c-221 0 -380 156 -380 374c0 214 161 373 380 373c221 0 380 -153 380 -373c0 -215 -160 -374 -380 -374zM432 120c141 0 239 100 239 243c1 146 -97 243 -239 243
c-141 0 -240 -100 -240 -243c0 -145 97 -243 240 -243z" />
    <glyph glyph-name="Omacron" unicode="&#x14c;" horiz-adv-x="864" 
d="M246 825v102h373v-102h-373zM432 -11c-221 0 -380 156 -380 374c0 214 161 373 380 373c221 0 380 -153 380 -373c0 -215 -160 -374 -380 -374zM432 120c141 0 239 100 239 243c1 146 -97 243 -239 243c-141 0 -240 -100 -240 -243c0 -145 97 -243 240 -243z" />
    <glyph glyph-name="uni01EA" unicode="&#x1ea;" horiz-adv-x="864" 
d="M523 -1c-14 -7 -71 -37 -71 -89c0 -28 20 -48 50 -48c24 0 41 11 41 11l24 -95s-34 -18 -91 -18c-81 0 -136 48 -136 121c0 49 27 85 56 109c-202 17 -344 167 -344 373c0 214 161 373 380 373c221 0 380 -153 380 -373c0 -184 -117 -327 -289 -364zM192 363
c0 -145 97 -243 240 -243c141 0 239 100 239 243c1 146 -97 243 -239 243c-141 0 -240 -100 -240 -243z" />
    <glyph glyph-name="Oslash" unicode="&#xd8;" horiz-adv-x="851" 
d="M667 660c87 -66 139 -170 139 -297c0 -215 -160 -374 -380 -374c-73 0 -139 17 -195 48l-80 -114l-44 32l78 111c-87 67 -140 172 -140 297c0 214 162 373 381 373c73 0 140 -17 196 -47l79 113l43 -32zM186 363c0 -78 28 -143 77 -186l282 402c-34 18 -74 27 -119 27
c-141 0 -240 -100 -240 -243zM665 363c1 79 -27 143 -76 186l-281 -402c34 -18 74 -27 118 -27c141 0 239 100 239 243z" />
    <glyph glyph-name="Oslashacute" unicode="&#x1fe;" horiz-adv-x="851" 
d="M583 884l-230 -105l-40 77l216 131zM667 660c87 -66 139 -170 139 -297c0 -215 -160 -374 -380 -374c-73 0 -139 17 -195 48l-80 -114l-44 32l78 111c-87 67 -140 172 -140 297c0 214 162 373 381 373c73 0 140 -17 196 -47l79 113l43 -32zM186 363
c0 -78 28 -143 77 -186l282 402c-34 18 -74 27 -119 27c-141 0 -240 -100 -240 -243zM665 363c1 79 -27 143 -76 186l-281 -402c34 -18 74 -27 118 -27c141 0 239 100 239 243z" />
    <glyph glyph-name="Otilde" unicode="&#xd5;" horiz-adv-x="864" 
d="M608 934v-103s-30 -35 -95 -35c-74 0 -109 50 -171 50c-54 0 -89 -37 -89 -37v103s31 36 95 36c76 0 110 -50 172 -50c53 0 88 36 88 36zM432 -11c-221 0 -380 156 -380 374c0 214 161 373 380 373c221 0 380 -153 380 -373c0 -215 -160 -374 -380 -374zM432 120
c141 0 239 100 239 243c1 146 -97 243 -239 243c-141 0 -240 -100 -240 -243c0 -145 97 -243 240 -243z" />
    <glyph glyph-name="OE" unicode="&#x152;" horiz-adv-x="1201" 
d="M787 124h358v-124h-488l2 87c-54 -61 -133 -98 -235 -98c-218 0 -372 158 -372 374s157 373 372 373c102 0 181 -35 235 -95l-2 84h484v-123h-354v-178h333v-117h-333v-183zM428 120c140 0 234 100 234 243c1 145 -94 243 -234 243c-141 0 -235 -99 -235 -243
c0 -146 92 -243 235 -243z" />
    <glyph glyph-name="P" unicode="P" horiz-adv-x="686" 
d="M356 725c175 0 283 -97 283 -254c0 -156 -111 -255 -284 -255h-129v-216h-138v725h268zM356 345c89 0 142 48 142 126c0 79 -53 126 -141 126h-131v-252h130z" />
    <glyph glyph-name="Thorn" unicode="&#xde;" horiz-adv-x="686" 
d="M356 618c175 0 283 -97 283 -254c0 -156 -111 -254 -284 -254h-129v-110h-137v725h137v-107h130zM356 238c89 0 142 49 142 126c0 79 -53 127 -141 127h-131v-253h130z" />
    <glyph glyph-name="Q" unicode="Q" horiz-adv-x="863" 
d="M810 363c0 -130 -59 -240 -154 -306l138 -213h-157l-101 158c-34 -8 -69 -13 -106 -13c-220 0 -380 156 -380 374c0 214 161 373 380 373c223 0 380 -153 380 -373zM191 363c0 -145 96 -243 239 -243c147 0 238 95 239 243c0 146 -95 243 -239 243
c-141 0 -239 -100 -239 -243z" />
    <glyph glyph-name="R" unicode="R" horiz-adv-x="707" 
d="M500 0l-144 237h-130v-237h-138v725h276c175 0 283 -93 283 -243c0 -106 -60 -186 -157 -222l175 -260h-165zM226 597v-231h139c88 0 141 43 141 116c0 74 -52 115 -140 115h-140z" />
    <glyph glyph-name="Racute" unicode="&#x154;" horiz-adv-x="707" 
d="M523 884l-230 -105l-40 77l216 131zM500 0l-144 237h-130v-237h-138v725h276c175 0 283 -93 283 -243c0 -106 -60 -186 -157 -222l175 -260h-165zM226 597v-231h139c88 0 141 43 141 116c0 74 -52 115 -140 115h-140z" />
    <glyph glyph-name="Rcaron" unicode="&#x158;" horiz-adv-x="707" 
d="M430 811h-125l-122 132h132l52 -61l52 61h133zM500 0l-144 237h-130v-237h-138v725h276c175 0 283 -93 283 -243c0 -106 -60 -186 -157 -222l175 -260h-165zM226 597v-231h139c88 0 141 43 141 116c0 74 -52 115 -140 115h-140z" />
    <glyph glyph-name="Rcommaaccent" unicode="&#x156;" horiz-adv-x="707" 
d="M490 260l175 -260h-165l-144 237h-130v-237h-138v725h276c175 0 283 -93 283 -243c0 -106 -60 -186 -157 -222zM226 597v-231h139c88 0 141 43 141 116c0 74 -52 115 -140 115h-140zM376 -48c47 0 79 -30 79 -79c0 -27 -15 -52 -39 -96l-48 -87l-60 25l33 90
c-26 11 -43 37 -43 70c0 45 32 77 78 77z" />
    <glyph glyph-name="uni0210" unicode="&#x210;" horiz-adv-x="707" 
d="M412 971l-108 -199l-79 38l84 210zM481 772l-79 38l84 210l103 -49zM500 0l-144 237h-130v-237h-138v725h276c175 0 283 -93 283 -243c0 -106 -60 -186 -157 -222l175 -260h-165zM226 597v-231h139c88 0 141 43 141 116c0 74 -52 115 -140 115h-140z" />
    <glyph glyph-name="uni1E5A" unicode="&#x1e5a;" horiz-adv-x="707" 
d="M490 260l175 -260h-165l-144 237h-130v-237h-138v725h276c175 0 283 -93 283 -243c0 -106 -60 -186 -157 -222zM226 597v-231h139c88 0 141 43 141 116c0 74 -52 115 -140 115h-140zM377 -71c48 0 82 -33 82 -80c0 -46 -35 -80 -82 -80s-81 33 -81 80s34 80 81 80z" />
    <glyph glyph-name="S" unicode="S" horiz-adv-x="609" 
d="M305 -11c-214 0 -257 188 -257 188l125 37s19 -106 130 -106c71 0 116 33 116 88c0 53 -33 83 -102 103l-82 23c-117 34 -175 100 -175 207c0 127 92 207 238 207c204 0 244 -162 244 -162l-123 -43s-17 87 -119 87c-64 0 -105 -31 -105 -82s35 -82 108 -104l86 -25
c113 -34 171 -100 171 -204c0 -131 -100 -214 -255 -214z" />
    <glyph glyph-name="Sacute" unicode="&#x15a;" horiz-adv-x="609" 
d="M184 856l216 131l54 -103l-230 -105zM305 -11c-214 0 -257 188 -257 188l125 37s19 -106 130 -106c71 0 116 33 116 88c0 53 -33 83 -102 103l-82 23c-117 34 -175 100 -175 207c0 127 92 207 238 207c204 0 244 -162 244 -162l-123 -43s-17 87 -119 87
c-64 0 -105 -31 -105 -82s35 -82 108 -104l86 -25c113 -34 171 -100 171 -204c0 -131 -100 -214 -255 -214z" />
    <glyph glyph-name="Scaron" unicode="&#x160;" horiz-adv-x="609" 
d="M236 811l-122 132h132l52 -61l52 61h133l-122 -132h-125zM305 -11c-214 0 -257 188 -257 188l125 37s19 -106 130 -106c71 0 116 33 116 88c0 53 -33 83 -102 103l-82 23c-117 34 -175 100 -175 207c0 127 92 207 238 207c204 0 244 -162 244 -162l-123 -43
s-17 87 -119 87c-64 0 -105 -31 -105 -82s35 -82 108 -104l86 -25c113 -34 171 -100 171 -204c0 -131 -100 -214 -255 -214z" />
    <glyph glyph-name="Scedilla" unicode="&#x15e;" horiz-adv-x="609" 
d="M560 203c0 -120 -84 -200 -218 -212l-2 -21h2c46 0 90 -34 90 -95c0 -70 -56 -115 -141 -115c-76 0 -116 37 -116 37l47 77s22 -22 62 -22c28 0 45 13 45 33c0 19 -14 31 -41 31c-21 0 -35 -6 -35 -6l9 82c-177 22 -214 185 -214 185l125 37s19 -106 130 -106
c71 0 116 33 116 88c0 53 -33 83 -102 103l-82 23c-117 34 -175 100 -175 207c0 127 92 207 238 207c204 0 244 -162 244 -162l-123 -43s-17 87 -119 87c-64 0 -105 -31 -105 -82s35 -82 108 -104l86 -25c113 -34 171 -100 171 -204z" />
    <glyph glyph-name="Scircumflex" unicode="&#x15c;" horiz-adv-x="609" 
d="M240 944h125l122 -132h-133l-52 61l-52 -61h-132zM305 -11c-214 0 -257 188 -257 188l125 37s19 -106 130 -106c71 0 116 33 116 88c0 53 -33 83 -102 103l-82 23c-117 34 -175 100 -175 207c0 127 92 207 238 207c204 0 244 -162 244 -162l-123 -43s-17 87 -119 87
c-64 0 -105 -31 -105 -82s35 -82 108 -104l86 -25c113 -34 171 -100 171 -204c0 -131 -100 -214 -255 -214z" />
    <glyph glyph-name="Scommaaccent" unicode="&#x218;" horiz-adv-x="609" 
d="M389 407c113 -34 171 -100 171 -204c0 -131 -100 -214 -255 -214c-214 0 -257 188 -257 188l125 37s19 -106 130 -106c71 0 116 33 116 88c0 53 -33 83 -102 103l-82 23c-117 34 -175 100 -175 207c0 127 92 207 238 207c204 0 244 -162 244 -162l-123 -43
s-17 87 -119 87c-64 0 -105 -31 -105 -82s35 -82 108 -104zM304 -48c47 0 79 -30 79 -79c0 -27 -15 -52 -39 -96l-48 -87l-60 25l33 90c-26 11 -43 37 -43 70c0 45 32 77 78 77z" />
    <glyph glyph-name="uni1E62" unicode="&#x1e62;" horiz-adv-x="609" 
d="M305 -11c-214 0 -257 188 -257 188l125 37s19 -106 130 -106c71 0 116 33 116 88c0 53 -33 83 -102 103l-82 23c-117 34 -175 100 -175 207c0 127 92 207 238 207c204 0 244 -162 244 -162l-123 -43s-17 87 -119 87c-64 0 -105 -31 -105 -82s35 -82 108 -104l86 -25
c113 -34 171 -100 171 -204c0 -131 -100 -214 -255 -214zM305 -231c-47 0 -81 33 -81 80s34 80 81 80c48 0 82 -33 82 -80c0 -46 -35 -80 -82 -80z" />
    <glyph glyph-name="uni1E9E" unicode="&#x1e9e;" horiz-adv-x="702" 
d="M468 412v-2c113 -10 187 -88 187 -195c0 -131 -105 -215 -272 -215h-65v117h71c80 0 127 40 127 108c0 66 -50 104 -134 104h-33v110l117 114s-36 63 -122 63c-78 0 -127 -49 -127 -127v-489h-138v472c0 167 97 264 264 264c211 0 282 -177 282 -177z" />
    <glyph glyph-name="T" unicode="T" horiz-adv-x="639" 
d="M627 725v-129h-239v-596h-138v596h-237v129h614z" />
    <glyph glyph-name="Tbar" unicode="&#x166;" horiz-adv-x="690" 
d="M652 596h-238v-209h116v-91h-116v-296h-139v296h-116v91h116v209h-237v129h614v-129z" />
    <glyph glyph-name="Tcaron" unicode="&#x164;" horiz-adv-x="639" 
d="M383 811h-125l-122 132h132l52 -61l52 61h133zM627 725v-129h-239v-596h-138v596h-237v129h614z" />
    <glyph glyph-name="uni0162" unicode="&#x162;" horiz-adv-x="639" 
d="M627 725v-129h-239v-596h-138v596h-237v129h614zM356 -30c46 0 90 -34 90 -95c0 -70 -56 -115 -141 -115c-76 0 -116 37 -116 37l47 77s22 -22 62 -22c28 0 45 13 45 33c0 19 -14 31 -41 31c-21 0 -35 -6 -35 -6l10 87h80l-3 -27h2z" />
    <glyph glyph-name="uni021A" unicode="&#x21a;" horiz-adv-x="639" 
d="M627 725v-129h-239v-596h-138v596h-237v129h614zM318 -48c47 0 79 -30 79 -79c0 -27 -15 -52 -39 -96l-48 -87l-60 25l33 90c-26 11 -43 37 -43 70c0 45 32 77 78 77z" />
    <glyph glyph-name="uni1E6C" unicode="&#x1e6c;" horiz-adv-x="639" 
d="M627 725v-129h-239v-596h-138v596h-237v129h614zM319 -71c48 0 82 -33 82 -80c0 -46 -35 -80 -82 -80s-81 33 -81 80s34 80 81 80z" />
    <glyph glyph-name="U" unicode="U" horiz-adv-x="782" 
d="M391 -11c-194 0 -317 125 -317 321v415h138v-417c0 -119 69 -189 180 -189s179 70 179 189v417h136v-415c0 -196 -121 -321 -316 -321z" />
    <glyph glyph-name="Uacute" unicode="&#xda;" horiz-adv-x="782" 
d="M275 856l216 131l54 -103l-230 -105zM391 -11c-194 0 -317 125 -317 321v415h138v-417c0 -119 69 -189 180 -189s179 70 179 189v417h136v-415c0 -196 -121 -321 -316 -321z" />
    <glyph glyph-name="Ubreve" unicode="&#x16c;" horiz-adv-x="782" 
d="M389 795c-148 0 -176 155 -176 155h102s12 -66 74 -66c63 0 75 66 75 66h102s-27 -155 -177 -155zM391 -11c-194 0 -317 125 -317 321v415h138v-417c0 -119 69 -189 180 -189s179 70 179 189v417h136v-415c0 -196 -121 -321 -316 -321z" />
    <glyph glyph-name="uni01D3" unicode="&#x1d3;" horiz-adv-x="782" 
d="M327 811l-122 132h132l52 -61l52 61h133l-122 -132h-125zM391 -11c-194 0 -317 125 -317 321v415h138v-417c0 -119 69 -189 180 -189s179 70 179 189v417h136v-415c0 -196 -121 -321 -316 -321z" />
    <glyph glyph-name="Ucircumflex" unicode="&#xdb;" horiz-adv-x="782" 
d="M331 944h125l122 -132h-133l-52 61l-52 -61h-132zM391 -11c-194 0 -317 125 -317 321v415h138v-417c0 -119 69 -189 180 -189s179 70 179 189v417h136v-415c0 -196 -121 -321 -316 -321z" />
    <glyph glyph-name="uni0214" unicode="&#x214;" horiz-adv-x="782" 
d="M247 810l84 210l103 -49l-108 -199zM424 810l84 210l103 -49l-108 -199zM391 -11c-194 0 -317 125 -317 321v415h138v-417c0 -119 69 -189 180 -189s179 70 179 189v417h136v-415c0 -196 -121 -321 -316 -321z" />
    <glyph glyph-name="Udieresis" unicode="&#xdc;" horiz-adv-x="782" 
d="M286 811c-42 0 -73 31 -73 72c0 42 31 72 73 72c43 0 74 -28 74 -72c0 -41 -32 -72 -74 -72zM492 811c-42 0 -73 30 -73 72s31 72 73 72c43 0 74 -29 74 -72c0 -41 -32 -72 -74 -72zM391 -11c-194 0 -317 125 -317 321v415h138v-417c0 -119 69 -189 180 -189
s179 70 179 189v417h136v-415c0 -196 -121 -321 -316 -321z" />
    <glyph glyph-name="uni1EE4" unicode="&#x1ee4;" horiz-adv-x="782" 
d="M391 -11c-194 0 -317 125 -317 321v415h138v-417c0 -119 69 -189 180 -189s179 70 179 189v417h136v-415c0 -196 -121 -321 -316 -321zM391 -231c-47 0 -81 33 -81 80s34 80 81 80c48 0 82 -33 82 -80c0 -46 -35 -80 -82 -80z" />
    <glyph glyph-name="Ugrave" unicode="&#xd9;" horiz-adv-x="782" 
d="M463 779l-229 105l53 103l217 -131zM391 -11c-194 0 -317 125 -317 321v415h138v-417c0 -119 69 -189 180 -189s179 70 179 189v417h136v-415c0 -196 -121 -321 -316 -321z" />
    <glyph glyph-name="Uhungarumlaut" unicode="&#x170;" horiz-adv-x="782" 
d="M355 810l-79 -38l-108 199l103 49zM531 810l-79 -38l-108 199l103 49zM391 -11c-194 0 -317 125 -317 321v415h138v-417c0 -119 69 -189 180 -189s179 70 179 189v417h136v-415c0 -196 -121 -321 -316 -321z" />
    <glyph glyph-name="Umacron" unicode="&#x16a;" horiz-adv-x="782" 
d="M203 825v102h373v-102h-373zM391 -11c-194 0 -317 125 -317 321v415h138v-417c0 -119 69 -189 180 -189s179 70 179 189v417h136v-415c0 -196 -121 -321 -316 -321z" />
    <glyph glyph-name="Uogonek" unicode="&#x172;" horiz-adv-x="782" 
d="M571 725h136v-415c0 -168 -88 -283 -236 -313c-18 -10 -67 -39 -67 -87c0 -28 20 -48 50 -48c24 0 41 11 41 11l24 -95s-34 -18 -91 -18c-81 0 -136 48 -136 121c0 50 28 86 57 110c-170 17 -275 138 -275 319v415h138v-417c0 -119 69 -189 180 -189s179 70 179 189v417z
" />
    <glyph glyph-name="Uring" unicode="&#x16e;" horiz-adv-x="782" 
d="M389 777c-72 0 -124 51 -124 122c0 72 52 123 124 123s124 -51 124 -123c0 -71 -52 -122 -124 -122zM389 861c23 0 40 16 40 38c0 23 -17 39 -40 39c-22 0 -38 -16 -38 -39c0 -22 16 -38 38 -38zM391 -11c-194 0 -317 125 -317 321v415h138v-417c0 -119 69 -189 180 -189
s179 70 179 189v417h136v-415c0 -196 -121 -321 -316 -321z" />
    <glyph glyph-name="Utilde" unicode="&#x168;" horiz-adv-x="782" 
d="M565 934v-103s-30 -35 -95 -35c-74 0 -109 50 -171 50c-54 0 -89 -37 -89 -37v103s31 36 95 36c76 0 110 -50 172 -50c53 0 88 36 88 36zM391 -11c-194 0 -317 125 -317 321v415h138v-417c0 -119 69 -189 180 -189s179 70 179 189v417h136v-415
c0 -196 -121 -321 -316 -321z" />
    <glyph glyph-name="V" unicode="V" horiz-adv-x="785" 
d="M316 0l-303 725h152l220 -548l9 -31l8 31l220 548h151l-304 -725h-153z" />
    <glyph glyph-name="W" unicode="W" horiz-adv-x="1084" 
d="M246 0l-229 725h148l152 -520l6 -46l7 46l145 520h138l144 -520l6 -46l6 46l153 520h144l-229 -725h-140l-149 537l-6 39l-5 -39l-148 -537h-143z" />
    <glyph glyph-name="Wacute" unicode="&#x1e82;" horiz-adv-x="1084" 
d="M428 856l216 131l54 -103l-230 -105zM246 0l-229 725h148l152 -520l6 -46l7 46l145 520h138l144 -520l6 -46l6 46l153 520h144l-229 -725h-140l-149 537l-6 39l-5 -39l-148 -537h-143z" />
    <glyph glyph-name="Wcircumflex" unicode="&#x174;" horiz-adv-x="1084" 
d="M484 944h125l122 -132h-133l-52 61l-52 -61h-132zM246 0l-229 725h148l152 -520l6 -46l7 46l145 520h138l144 -520l6 -46l6 46l153 520h144l-229 -725h-140l-149 537l-6 39l-5 -39l-148 -537h-143z" />
    <glyph glyph-name="Wdieresis" unicode="&#x1e84;" horiz-adv-x="1084" 
d="M439 811c-42 0 -73 31 -73 72c0 42 31 72 73 72c43 0 74 -28 74 -72c0 -41 -32 -72 -74 -72zM645 811c-42 0 -73 30 -73 72s31 72 73 72c43 0 74 -29 74 -72c0 -41 -32 -72 -74 -72zM246 0l-229 725h148l152 -520l6 -46l7 46l145 520h138l144 -520l6 -46l6 46l153 520
h144l-229 -725h-140l-149 537l-6 39l-5 -39l-148 -537h-143z" />
    <glyph glyph-name="Wgrave" unicode="&#x1e80;" horiz-adv-x="1084" 
d="M630 849l-54 -69l-186 129l70 90zM246 0l-229 725h148l152 -520l6 -46l7 46l145 520h138l144 -520l6 -46l6 46l153 520h144l-229 -725h-140l-149 537l-6 39l-5 -39l-148 -537h-143z" />
    <glyph glyph-name="X" unicode="X" horiz-adv-x="777" 
d="M745 0h-169l-188 261l-188 -261h-167l268 368l-255 357h168l174 -250l173 250h168l-255 -357z" />
    <glyph glyph-name="Y" unicode="Y" horiz-adv-x="735" 
d="M299 0v228l-286 497h162l188 -343l6 -19l7 19l188 343h159l-286 -497v-228h-138z" />
    <glyph glyph-name="Yacute" unicode="&#xdd;" horiz-adv-x="735" 
d="M254 856l216 131l54 -103l-230 -105zM299 0v228l-286 497h162l188 -343l6 -19l7 19l188 343h159l-286 -497v-228h-138z" />
    <glyph glyph-name="Ycircumflex" unicode="&#x176;" horiz-adv-x="735" 
d="M310 944h125l122 -132h-133l-52 61l-52 -61h-132zM299 0v228l-286 497h162l188 -343l6 -19l7 19l188 343h159l-286 -497v-228h-138z" />
    <glyph glyph-name="Ydieresis" unicode="&#x178;" horiz-adv-x="735" 
d="M265 811c-42 0 -73 31 -73 72c0 42 31 72 73 72c43 0 74 -28 74 -72c0 -41 -32 -72 -74 -72zM471 811c-42 0 -73 30 -73 72s31 72 73 72c43 0 74 -29 74 -72c0 -41 -32 -72 -74 -72zM299 0v228l-286 497h162l188 -343l6 -19l7 19l188 343h159l-286 -497v-228h-138z" />
    <glyph glyph-name="uni1EF4" unicode="&#x1ef4;" horiz-adv-x="735" 
d="M299 0v228l-286 497h162l188 -343l6 -19l7 19l188 343h159l-286 -497v-228h-138zM368 -231c-47 0 -81 33 -81 80s34 80 81 80c48 0 82 -33 82 -80c0 -46 -35 -80 -82 -80z" />
    <glyph glyph-name="Ygrave" unicode="&#x1ef2;" horiz-adv-x="735" 
d="M456 849l-54 -69l-186 129l70 90zM299 0v228l-286 497h162l188 -343l6 -19l7 19l188 343h159l-286 -497v-228h-138z" />
    <glyph glyph-name="uni1EF8" unicode="&#x1ef8;" horiz-adv-x="735" 
d="M544 934v-103s-30 -35 -95 -35c-74 0 -109 50 -171 50c-54 0 -89 -37 -89 -37v103s31 36 95 36c76 0 110 -50 172 -50c53 0 88 36 88 36zM299 0v228l-286 497h162l188 -343l6 -19l7 19l188 343h159l-286 -497v-228h-138z" />
    <glyph glyph-name="Z" unicode="Z" horiz-adv-x="669" 
d="M47 0v104l378 494h-367v127h557v-100l-377 -497h383v-128h-574z" />
    <glyph glyph-name="Zacute" unicode="&#x179;" horiz-adv-x="669" 
d="M223 856l216 131l54 -103l-230 -105zM47 0v104l378 494h-367v127h557v-100l-377 -497h383v-128h-574z" />
    <glyph glyph-name="Zcaron" unicode="&#x17d;" horiz-adv-x="669" 
d="M275 811l-122 132h132l52 -61l52 61h133l-122 -132h-125zM47 0v104l378 494h-367v127h557v-100l-377 -497h383v-128h-574z" />
    <glyph glyph-name="Zdotaccent" unicode="&#x17b;" horiz-adv-x="669" 
d="M337 803c-47 0 -81 33 -81 80s34 80 81 80c48 0 82 -33 82 -80c0 -46 -35 -80 -82 -80zM47 0v104l378 494h-367v127h557v-100l-377 -497h383v-128h-574z" />
    <glyph glyph-name="uni1E92" unicode="&#x1e92;" horiz-adv-x="669" 
d="M47 0v104l378 494h-367v127h557v-100l-377 -497h383v-128h-574zM334 -231c-47 0 -81 33 -81 80s34 80 81 80c48 0 82 -33 82 -80c0 -46 -35 -80 -82 -80z" />
    <glyph glyph-name="K.ss01" horiz-adv-x="741" 
d="M710 0h-178l-306 354v-354h-137v725h137v-348l281 348h171l-299 -354z" />
    <glyph glyph-name="Kcommaaccent.ss01" horiz-adv-x="741" 
d="M379 371l331 -371h-178l-306 354v-354h-137v725h137v-348l281 348h171zM399 -48c47 0 79 -30 79 -79c0 -27 -15 -52 -39 -96l-48 -87l-60 25l33 90c-26 11 -43 37 -43 70c0 45 32 77 78 77z" />
    <glyph glyph-name="a" unicode="a" horiz-adv-x="642" 
d="M442 503h130v-503h-130v75c-35 -55 -90 -86 -163 -86c-141 0 -239 107 -239 262s99 263 242 263c72 0 126 -31 160 -86v75zM307 112c77 0 135 58 135 139c0 80 -57 139 -135 139c-77 0 -130 -59 -130 -139c0 -81 52 -139 130 -139z" />
    <glyph glyph-name="aacute" unicode="&#xe1;" horiz-adv-x="642" 
d="M468 687l-186 -129l-54 69l170 150zM442 503h130v-503h-130v75c-35 -55 -90 -86 -163 -86c-141 0 -239 107 -239 262s99 263 242 263c72 0 126 -31 160 -86v75zM307 112c77 0 135 58 135 139c0 80 -57 139 -135 139c-77 0 -130 -59 -130 -139c0 -81 52 -139 130 -139z
" />
    <glyph glyph-name="abreve" unicode="&#x103;" horiz-adv-x="642" 
d="M316 573c-148 0 -176 155 -176 155h102s12 -66 74 -66c63 0 75 66 75 66h102s-27 -155 -177 -155zM442 503h130v-503h-130v75c-35 -55 -90 -86 -163 -86c-141 0 -239 107 -239 262s99 263 242 263c72 0 126 -31 160 -86v75zM307 112c77 0 135 58 135 139
c0 80 -57 139 -135 139c-77 0 -130 -59 -130 -139c0 -81 52 -139 130 -139z" />
    <glyph glyph-name="uni1EB7" unicode="&#x1eb7;" horiz-adv-x="642" 
d="M316 573c-148 0 -176 155 -176 155h102s12 -66 74 -66c63 0 75 66 75 66h102s-27 -155 -177 -155zM442 503h130v-503h-130v75c-35 -55 -90 -86 -163 -86c-141 0 -239 107 -239 262s99 263 242 263c72 0 126 -31 160 -86v75zM307 112c77 0 135 58 135 139
c0 80 -57 139 -135 139c-77 0 -130 -59 -130 -139c0 -81 52 -139 130 -139zM306 -71c48 0 82 -33 82 -80c0 -46 -35 -80 -82 -80s-81 33 -81 80s34 80 81 80z" />
    <glyph glyph-name="uni01CE" unicode="&#x1ce;" horiz-adv-x="642" 
d="M379 589h-125l-122 132h132l52 -61l52 61h133zM442 503h130v-503h-130v75c-35 -55 -90 -86 -163 -86c-141 0 -239 107 -239 262s99 263 242 263c72 0 126 -31 160 -86v75zM307 112c77 0 135 58 135 139c0 80 -57 139 -135 139c-77 0 -130 -59 -130 -139
c0 -81 52 -139 130 -139z" />
    <glyph glyph-name="acircumflex" unicode="&#xe2;" horiz-adv-x="642" 
d="M320 651l-52 -61h-132l122 132h125l122 -132h-133zM442 503h130v-503h-130v75c-35 -55 -90 -86 -163 -86c-141 0 -239 107 -239 262s99 263 242 263c72 0 126 -31 160 -86v75zM307 112c77 0 135 58 135 139c0 80 -57 139 -135 139c-77 0 -130 -59 -130 -139
c0 -81 52 -139 130 -139z" />
    <glyph glyph-name="uni1EAD" unicode="&#x1ead;" horiz-adv-x="642" 
d="M320 651l-52 -61h-132l122 132h125l122 -132h-133zM442 503h130v-503h-130v75c-35 -55 -90 -86 -163 -86c-141 0 -239 107 -239 262s99 263 242 263c72 0 126 -31 160 -86v75zM307 112c77 0 135 58 135 139c0 80 -57 139 -135 139c-77 0 -130 -59 -130 -139
c0 -81 52 -139 130 -139zM306 -71c48 0 82 -33 82 -80c0 -46 -35 -80 -82 -80s-81 33 -81 80s34 80 81 80z" />
    <glyph glyph-name="uni0201" unicode="&#x201;" horiz-adv-x="642" 
d="M361 749l-108 -199l-79 38l84 210zM430 550l-79 38l84 210l103 -49zM442 503h130v-503h-130v75c-35 -55 -90 -86 -163 -86c-141 0 -239 107 -239 262s99 263 242 263c72 0 126 -31 160 -86v75zM307 112c77 0 135 58 135 139c0 80 -57 139 -135 139
c-77 0 -130 -59 -130 -139c0 -81 52 -139 130 -139z" />
    <glyph glyph-name="adieresis" unicode="&#xe4;" horiz-adv-x="642" 
d="M213 589c-42 0 -73 31 -73 72c0 42 31 72 73 72c43 0 74 -28 74 -72c0 -41 -32 -72 -74 -72zM419 589c-42 0 -73 30 -73 72s31 72 73 72c43 0 74 -29 74 -72c0 -41 -32 -72 -74 -72zM442 503h130v-503h-130v75c-35 -55 -90 -86 -163 -86c-141 0 -239 107 -239 262
s99 263 242 263c72 0 126 -31 160 -86v75zM307 112c77 0 135 58 135 139c0 80 -57 139 -135 139c-77 0 -130 -59 -130 -139c0 -81 52 -139 130 -139z" />
    <glyph glyph-name="uni1EA1" unicode="&#x1ea1;" horiz-adv-x="642" 
d="M442 503h130v-503h-130v75c-35 -55 -90 -86 -163 -86c-141 0 -239 107 -239 262s99 263 242 263c72 0 126 -31 160 -86v75zM307 112c77 0 135 58 135 139c0 80 -57 139 -135 139c-77 0 -130 -59 -130 -139c0 -81 52 -139 130 -139zM306 -71c48 0 82 -33 82 -80
c0 -46 -35 -80 -82 -80s-81 33 -81 80s34 80 81 80z" />
    <glyph glyph-name="agrave" unicode="&#xe0;" horiz-adv-x="642" 
d="M404 627l-54 -69l-186 129l70 90zM442 503h130v-503h-130v75c-35 -55 -90 -86 -163 -86c-141 0 -239 107 -239 262s99 263 242 263c72 0 126 -31 160 -86v75zM307 112c77 0 135 58 135 139c0 80 -57 139 -135 139c-77 0 -130 -59 -130 -139c0 -81 52 -139 130 -139z" />
    <glyph glyph-name="amacron" unicode="&#x101;" horiz-adv-x="642" 
d="M503 705v-102h-373v102h373zM442 503h130v-503h-130v75c-35 -55 -90 -86 -163 -86c-141 0 -239 107 -239 262s99 263 242 263c72 0 126 -31 160 -86v75zM307 112c77 0 135 58 135 139c0 80 -57 139 -135 139c-77 0 -130 -59 -130 -139c0 -81 52 -139 130 -139z" />
    <glyph glyph-name="aogonek" unicode="&#x105;" horiz-adv-x="642" 
d="M589 -127l24 -95s-34 -18 -91 -18c-81 0 -136 48 -136 121c0 56 36 95 68 119h-12v75c-35 -55 -90 -86 -163 -86c-141 0 -239 107 -239 262s99 263 242 263c72 0 126 -31 160 -86v75h130v-503s-74 -31 -74 -90c0 -28 20 -48 50 -48c24 0 41 11 41 11zM307 112
c77 0 135 58 135 139c0 80 -57 139 -135 139c-77 0 -130 -59 -130 -139c0 -81 52 -139 130 -139z" />
    <glyph glyph-name="aring" unicode="&#xe5;" horiz-adv-x="642" 
d="M316 555c-72 0 -124 51 -124 122c0 72 52 123 124 123s124 -51 124 -123c0 -71 -52 -122 -124 -122zM316 716c-22 0 -38 -16 -38 -39c0 -22 16 -38 38 -38c23 0 40 16 40 38c0 23 -17 39 -40 39zM442 503h130v-503h-130v75c-35 -55 -90 -86 -163 -86
c-141 0 -239 107 -239 262s99 263 242 263c72 0 126 -31 160 -86v75zM307 112c77 0 135 58 135 139c0 80 -57 139 -135 139c-77 0 -130 -59 -130 -139c0 -81 52 -139 130 -139z" />
    <glyph glyph-name="atilde" unicode="&#xe3;" horiz-adv-x="642" 
d="M226 624c-54 0 -89 -37 -89 -37v103s31 36 95 36c76 0 110 -50 172 -50c53 0 88 36 88 36v-103s-30 -35 -95 -35c-74 0 -109 50 -171 50zM442 503h130v-503h-130v75c-35 -55 -90 -86 -163 -86c-141 0 -239 107 -239 262s99 263 242 263c72 0 126 -31 160 -86v75zM307 112
c77 0 135 58 135 139c0 80 -57 139 -135 139c-77 0 -130 -59 -130 -139c0 -81 52 -139 130 -139z" />
    <glyph glyph-name="ae" unicode="&#xe6;" horiz-adv-x="1027" 
d="M991 249c0 -20 -2 -40 -2 -40h-377c12 -66 54 -101 126 -101c54 0 90 19 110 58l119 -54c-51 -83 -126 -122 -229 -122c-74 0 -129 31 -165 84v-74h-130v77c-35 -56 -90 -88 -163 -88c-141 0 -239 110 -239 264c0 153 102 261 241 261c73 0 127 -32 161 -86v75h130v-75
c37 53 96 85 174 85c145 0 244 -107 244 -264zM614 308h246c-5 55 -50 92 -118 92c-69 0 -113 -31 -128 -92zM308 113c76 0 134 59 134 140c0 80 -56 138 -134 138c-77 0 -131 -58 -131 -138c0 -81 53 -140 131 -140z" />
    <glyph glyph-name="aeacute" unicode="&#x1fd;" horiz-adv-x="1027" 
d="M660 687l-186 -129l-54 69l170 150zM991 249c0 -20 -2 -40 -2 -40h-377c12 -66 54 -101 126 -101c54 0 90 19 110 58l119 -54c-51 -83 -126 -122 -229 -122c-74 0 -129 31 -165 84v-74h-130v77c-35 -56 -90 -88 -163 -88c-141 0 -239 110 -239 264c0 153 102 261 241 261
c73 0 127 -32 161 -86v75h130v-75c37 53 96 85 174 85c145 0 244 -107 244 -264zM614 308h246c-5 55 -50 92 -118 92c-69 0 -113 -31 -128 -92zM308 113c76 0 134 59 134 140c0 80 -56 138 -134 138c-77 0 -131 -58 -131 -138c0 -81 53 -140 131 -140z" />
    <glyph glyph-name="b" unicode="b" horiz-adv-x="643" 
d="M364 514c142 0 239 -108 239 -261c0 -154 -102 -264 -242 -264c-73 0 -127 32 -161 87v-76h-130v744h134v-314c35 53 90 84 160 84zM335 112c76 0 131 60 131 141s-50 137 -128 137c-77 0 -137 -57 -137 -137c0 -81 55 -141 134 -141z" />
    <glyph glyph-name="c" unicode="c" horiz-adv-x="569" 
d="M298 -11c-148 0 -259 111 -259 264c0 148 113 261 267 261c102 0 184 -51 230 -140l-123 -48c-22 40 -60 64 -107 64c-77 0 -130 -58 -130 -136c0 -82 52 -139 125 -139c56 0 94 24 118 69l122 -49c-48 -95 -130 -146 -243 -146z" />
    <glyph glyph-name="cacute" unicode="&#x107;" horiz-adv-x="569" 
d="M218 628l170 150l70 -90l-186 -129zM298 -11c-148 0 -259 111 -259 264c0 148 113 261 267 261c102 0 184 -51 230 -140l-123 -48c-22 40 -60 64 -107 64c-77 0 -130 -58 -130 -136c0 -82 52 -139 125 -139c56 0 94 24 118 69l122 -49c-48 -95 -130 -146 -243 -146z" />
    <glyph glyph-name="ccaron" unicode="&#x10d;" horiz-adv-x="569" 
d="M244 590l-122 132h132l52 -61l52 61h133l-122 -132h-125zM298 -11c-148 0 -259 111 -259 264c0 148 113 261 267 261c102 0 184 -51 230 -140l-123 -48c-22 40 -60 64 -107 64c-77 0 -130 -58 -130 -136c0 -82 52 -139 125 -139c56 0 94 24 118 69l122 -49
c-48 -95 -130 -146 -243 -146z" />
    <glyph glyph-name="ccedilla" unicode="&#xe7;" horiz-adv-x="569" 
d="M541 135c-42 -83 -110 -132 -202 -144l-2 -21h2c46 0 90 -34 90 -95c0 -70 -56 -115 -141 -115c-76 0 -116 37 -116 37l47 77s22 -22 62 -22c28 0 45 13 45 33c0 19 -14 31 -41 31c-21 0 -35 -6 -35 -6l9 82c-128 17 -220 122 -220 261c0 148 113 261 267 261
c102 0 184 -51 230 -140l-123 -48c-22 40 -60 64 -107 64c-77 0 -130 -58 -130 -136c0 -82 52 -139 125 -139c56 0 94 24 118 69z" />
    <glyph glyph-name="ccircumflex" unicode="&#x109;" horiz-adv-x="569" 
d="M248 723h125l122 -132h-133l-52 61l-52 -61h-132zM298 -11c-148 0 -259 111 -259 264c0 148 113 261 267 261c102 0 184 -51 230 -140l-123 -48c-22 40 -60 64 -107 64c-77 0 -130 -58 -130 -136c0 -82 52 -139 125 -139c56 0 94 24 118 69l122 -49
c-48 -95 -130 -146 -243 -146z" />
    <glyph glyph-name="cdotaccent" unicode="&#x10b;" horiz-adv-x="569" 
d="M306 582c-47 0 -81 33 -81 80s34 80 81 80c48 0 82 -33 82 -80c0 -46 -35 -80 -82 -80zM298 -11c-148 0 -259 111 -259 264c0 148 113 261 267 261c102 0 184 -51 230 -140l-123 -48c-22 40 -60 64 -107 64c-77 0 -130 -58 -130 -136c0 -82 52 -139 125 -139
c56 0 94 24 118 69l122 -49c-48 -95 -130 -146 -243 -146z" />
    <glyph glyph-name="d" unicode="d" horiz-adv-x="643" 
d="M439 744h134v-744h-130v78c-35 -56 -90 -89 -163 -89c-141 0 -240 108 -240 262c0 155 102 263 242 263c70 0 123 -30 157 -82v312zM307 112c77 0 135 58 135 139c0 80 -56 139 -135 139c-76 0 -130 -56 -130 -139c0 -81 53 -139 130 -139z" />
    <glyph glyph-name="eth" unicode="&#xf0;" horiz-adv-x="605" 
d="M478 487c62 -98 87 -174 87 -245c0 -146 -112 -251 -263 -251c-154 0 -264 104 -264 251c0 143 113 248 264 248c12 0 25 -1 38 -4l-41 60l-121 -32l-21 77l94 25l-49 73l109 66l66 -106l122 33l21 -77l-99 -26zM302 114c73 0 126 53 126 128s-53 125 -126 125
c-75 0 -127 -52 -127 -125c0 -76 51 -128 127 -128z" />
    <glyph glyph-name="dcaron" unicode="&#x10f;" horiz-adv-x="766" 
d="M439 432v312h134v-744h-130v78c-35 -56 -90 -89 -163 -89c-141 0 -240 108 -240 262c0 155 102 263 242 263c70 0 123 -30 157 -82zM713 736c47 0 79 -30 79 -79c0 -27 -15 -52 -39 -96l-48 -87l-60 25l33 90c-26 11 -43 37 -43 70c0 45 32 77 78 77zM307 112
c77 0 135 58 135 139c0 80 -56 139 -135 139c-76 0 -130 -56 -130 -139c0 -81 53 -139 130 -139z" />
    <glyph glyph-name="dcroat" unicode="&#x111;" horiz-adv-x="641" 
d="M642 653v-90h-69v-563h-130v78c-35 -56 -90 -89 -163 -89c-141 0 -240 108 -240 262c0 155 102 263 242 263c70 0 123 -30 157 -82v131h-151v90h151v91h134v-91h69zM307 112c77 0 135 58 135 139c0 80 -56 139 -135 139c-76 0 -130 -56 -130 -139c0 -81 53 -139 130 -139
z" />
    <glyph glyph-name="uni1E0D" unicode="&#x1e0d;" horiz-adv-x="643" 
d="M439 744h134v-744h-130v78c-35 -56 -90 -89 -163 -89c-141 0 -240 108 -240 262c0 155 102 263 242 263c70 0 123 -30 157 -82v312zM307 112c77 0 135 58 135 139c0 80 -56 139 -135 139c-76 0 -130 -56 -130 -139c0 -81 53 -139 130 -139zM307 -71c48 0 82 -33 82 -80
c0 -46 -35 -80 -82 -80s-81 33 -81 80s34 80 81 80z" />
    <glyph glyph-name="uni01F3" unicode="&#x1f3;" horiz-adv-x="1137" 
d="M439 432v312h134v-744h-130v78c-35 -56 -90 -89 -163 -89c-141 0 -240 108 -240 262c0 155 102 263 242 263c70 0 123 -30 157 -82zM851 121h247v-121h-424v105l244 280h-237v118h413v-101zM307 112c77 0 135 58 135 139c0 80 -56 139 -135 139c-76 0 -130 -56 -130 -139
c0 -81 53 -139 130 -139z" />
    <glyph glyph-name="uni01C6" unicode="&#x1c6;" horiz-adv-x="1137" 
d="M439 432v312h134v-744h-130v78c-35 -56 -90 -89 -163 -89c-141 0 -240 108 -240 262c0 155 102 263 242 263c70 0 123 -30 157 -82zM951 590h-125l-122 132h132l52 -61l52 61h133zM851 121h247v-121h-424v105l244 280h-237v118h413v-101zM307 112c77 0 135 58 135 139
c0 80 -56 139 -135 139c-76 0 -130 -56 -130 -139c0 -81 53 -139 130 -139z" />
    <glyph glyph-name="e" unicode="e" horiz-adv-x="589" 
d="M554 249c0 -20 -2 -40 -2 -40h-377c12 -66 55 -101 126 -101c54 0 90 19 110 58l119 -54c-51 -83 -127 -122 -232 -122c-151 0 -259 111 -259 263c0 151 111 260 267 260c148 0 248 -107 248 -264zM177 308h246c-5 55 -50 92 -118 92c-69 0 -113 -31 -128 -92z" />
    <glyph glyph-name="eacute" unicode="&#xe9;" horiz-adv-x="589" 
d="M458 687l-186 -129l-54 69l170 150zM554 249c0 -20 -2 -40 -2 -40h-377c12 -66 55 -101 126 -101c54 0 90 19 110 58l119 -54c-51 -83 -127 -122 -232 -122c-151 0 -259 111 -259 263c0 151 111 260 267 260c148 0 248 -107 248 -264zM177 308h246c-5 55 -50 92 -118 92
c-69 0 -113 -31 -128 -92z" />
    <glyph glyph-name="ebreve" unicode="&#x115;" horiz-adv-x="589" 
d="M306 573c-148 0 -176 155 -176 155h102s12 -66 74 -66c63 0 75 66 75 66h102s-27 -155 -177 -155zM554 249c0 -20 -2 -40 -2 -40h-377c12 -66 55 -101 126 -101c54 0 90 19 110 58l119 -54c-51 -83 -127 -122 -232 -122c-151 0 -259 111 -259 263c0 151 111 260 267 260
c148 0 248 -107 248 -264zM177 308h246c-5 55 -50 92 -118 92c-69 0 -113 -31 -128 -92z" />
    <glyph glyph-name="ecaron" unicode="&#x11b;" horiz-adv-x="589" 
d="M369 589h-125l-122 132h132l52 -61l52 61h133zM554 249c0 -20 -2 -40 -2 -40h-377c12 -66 55 -101 126 -101c54 0 90 19 110 58l119 -54c-51 -83 -127 -122 -232 -122c-151 0 -259 111 -259 263c0 151 111 260 267 260c148 0 248 -107 248 -264zM177 308h246
c-5 55 -50 92 -118 92c-69 0 -113 -31 -128 -92z" />
    <glyph glyph-name="ecircumflex" unicode="&#xea;" horiz-adv-x="589" 
d="M310 651l-52 -61h-132l122 132h125l122 -132h-133zM554 249c0 -20 -2 -40 -2 -40h-377c12 -66 55 -101 126 -101c54 0 90 19 110 58l119 -54c-51 -83 -127 -122 -232 -122c-151 0 -259 111 -259 263c0 151 111 260 267 260c148 0 248 -107 248 -264zM177 308h246
c-5 55 -50 92 -118 92c-69 0 -113 -31 -128 -92z" />
    <glyph glyph-name="uni1EC7" unicode="&#x1ec7;" horiz-adv-x="589" 
d="M310 651l-52 -61h-132l122 132h125l122 -132h-133zM554 249c0 -20 -2 -40 -2 -40h-377c12 -66 55 -101 126 -101c54 0 90 19 110 58l119 -54c-51 -83 -127 -122 -232 -122c-151 0 -259 111 -259 263c0 151 111 260 267 260c148 0 248 -107 248 -264zM177 308h246
c-5 55 -50 92 -118 92c-69 0 -113 -31 -128 -92zM298 -71c48 0 82 -33 82 -80c0 -46 -35 -80 -82 -80s-81 33 -81 80s34 80 81 80z" />
    <glyph glyph-name="uni0205" unicode="&#x205;" horiz-adv-x="589" 
d="M351 749l-108 -199l-79 38l84 210zM420 550l-79 38l84 210l103 -49zM554 249c0 -20 -2 -40 -2 -40h-377c12 -66 55 -101 126 -101c54 0 90 19 110 58l119 -54c-51 -83 -127 -122 -232 -122c-151 0 -259 111 -259 263c0 151 111 260 267 260c148 0 248 -107 248 -264z
M177 308h246c-5 55 -50 92 -118 92c-69 0 -113 -31 -128 -92z" />
    <glyph glyph-name="edieresis" unicode="&#xeb;" horiz-adv-x="589" 
d="M203 589c-42 0 -73 31 -73 72c0 42 31 72 73 72c43 0 74 -28 74 -72c0 -41 -32 -72 -74 -72zM409 589c-42 0 -73 30 -73 72s31 72 73 72c43 0 74 -29 74 -72c0 -41 -32 -72 -74 -72zM554 249c0 -20 -2 -40 -2 -40h-377c12 -66 55 -101 126 -101c54 0 90 19 110 58
l119 -54c-51 -83 -127 -122 -232 -122c-151 0 -259 111 -259 263c0 151 111 260 267 260c148 0 248 -107 248 -264zM177 308h246c-5 55 -50 92 -118 92c-69 0 -113 -31 -128 -92z" />
    <glyph glyph-name="edotaccent" unicode="&#x117;" horiz-adv-x="589" 
d="M306 581c-47 0 -81 33 -81 80s34 80 81 80c48 0 82 -33 82 -80c0 -46 -35 -80 -82 -80zM554 249c0 -20 -2 -40 -2 -40h-377c12 -66 55 -101 126 -101c54 0 90 19 110 58l119 -54c-51 -83 -127 -122 -232 -122c-151 0 -259 111 -259 263c0 151 111 260 267 260
c148 0 248 -107 248 -264zM177 308h246c-5 55 -50 92 -118 92c-69 0 -113 -31 -128 -92z" />
    <glyph glyph-name="uni1EB9" unicode="&#x1eb9;" horiz-adv-x="589" 
d="M554 249c0 -20 -2 -40 -2 -40h-377c12 -66 55 -101 126 -101c54 0 90 19 110 58l119 -54c-51 -83 -127 -122 -232 -122c-151 0 -259 111 -259 263c0 151 111 260 267 260c148 0 248 -107 248 -264zM177 308h246c-5 55 -50 92 -118 92c-69 0 -113 -31 -128 -92zM298 -71
c48 0 82 -33 82 -80c0 -46 -35 -80 -82 -80s-81 33 -81 80s34 80 81 80z" />
    <glyph glyph-name="egrave" unicode="&#xe8;" horiz-adv-x="589" 
d="M394 627l-54 -69l-186 129l70 90zM554 249c0 -20 -2 -40 -2 -40h-377c12 -66 55 -101 126 -101c54 0 90 19 110 58l119 -54c-51 -83 -127 -122 -232 -122c-151 0 -259 111 -259 263c0 151 111 260 267 260c148 0 248 -107 248 -264zM177 308h246c-5 55 -50 92 -118 92
c-69 0 -113 -31 -128 -92z" />
    <glyph glyph-name="emacron" unicode="&#x113;" horiz-adv-x="589" 
d="M493 705v-102h-373v102h373zM554 249c0 -20 -2 -40 -2 -40h-377c12 -66 55 -101 126 -101c54 0 90 19 110 58l119 -54c-51 -83 -127 -122 -232 -122c-151 0 -259 111 -259 263c0 151 111 260 267 260c148 0 248 -107 248 -264zM177 308h246c-5 55 -50 92 -118 92
c-69 0 -113 -31 -128 -92z" />
    <glyph glyph-name="eogonek" unicode="&#x119;" horiz-adv-x="589" 
d="M554 249c0 -20 -2 -40 -2 -40h-377c12 -66 55 -101 126 -101c54 0 90 19 110 58l119 -54c-37 -60 -86 -97 -150 -113c-21 -12 -61 -40 -61 -83c0 -28 20 -48 50 -48c24 0 41 11 41 11l24 -95s-34 -18 -91 -18c-81 0 -136 48 -136 121c0 47 25 82 51 106
c-130 17 -219 122 -219 260c0 151 111 260 267 260c148 0 248 -107 248 -264zM177 308h246c-5 55 -50 92 -118 92c-69 0 -113 -31 -128 -92z" />
    <glyph glyph-name="uni1EBD" unicode="&#x1ebd;" horiz-adv-x="589" 
d="M216 624c-54 0 -89 -37 -89 -37v103s31 36 95 36c76 0 110 -50 172 -50c53 0 88 36 88 36v-103s-30 -35 -95 -35c-74 0 -109 50 -171 50zM554 249c0 -20 -2 -40 -2 -40h-377c12 -66 55 -101 126 -101c54 0 90 19 110 58l119 -54c-51 -83 -127 -122 -232 -122
c-151 0 -259 111 -259 263c0 151 111 260 267 260c148 0 248 -107 248 -264zM177 308h246c-5 55 -50 92 -118 92c-69 0 -113 -31 -128 -92z" />
    <glyph glyph-name="f" unicode="f" horiz-adv-x="447" 
d="M249 553v-50h172v-115h-172v-388h-134v388h-90v115h90v54c0 123 74 198 198 198c93 0 146 -47 146 -47l-45 -103s-33 33 -82 33c-54 0 -83 -30 -83 -85z" />
    <glyph glyph-name="g" unicode="g" horiz-adv-x="634" 
d="M433 503h130v-493c0 -147 -96 -234 -252 -234c-130 0 -222 67 -245 177l129 17c10 -52 54 -83 115 -83c79 0 123 44 123 123v84c-34 -52 -89 -82 -163 -82c-140 0 -229 99 -229 251c0 149 94 251 233 251c72 0 125 -30 159 -82v71zM300 130c76 0 133 52 133 133
c0 79 -55 133 -133 133c-76 0 -122 -54 -122 -133c0 -82 44 -133 122 -133z" />
    <glyph glyph-name="uni01F5" unicode="&#x1f5;" horiz-adv-x="634" 
d="M455 687l-186 -129l-54 69l170 150zM433 503h130v-493c0 -147 -96 -234 -252 -234c-130 0 -222 67 -245 177l129 17c10 -52 54 -83 115 -83c79 0 123 44 123 123v84c-34 -52 -89 -82 -163 -82c-140 0 -229 99 -229 251c0 149 94 251 233 251c72 0 125 -30 159 -82v71z
M300 130c76 0 133 52 133 133c0 79 -55 133 -133 133c-76 0 -122 -54 -122 -133c0 -82 44 -133 122 -133z" />
    <glyph glyph-name="gbreve" unicode="&#x11f;" horiz-adv-x="634" 
d="M303 573c-148 0 -176 155 -176 155h102s12 -66 74 -66c63 0 75 66 75 66h102s-27 -155 -177 -155zM433 503h130v-493c0 -147 -96 -234 -252 -234c-130 0 -222 67 -245 177l129 17c10 -52 54 -83 115 -83c79 0 123 44 123 123v84c-34 -52 -89 -82 -163 -82
c-140 0 -229 99 -229 251c0 149 94 251 233 251c72 0 125 -30 159 -82v71zM300 130c76 0 133 52 133 133c0 79 -55 133 -133 133c-76 0 -122 -54 -122 -133c0 -82 44 -133 122 -133z" />
    <glyph glyph-name="gcircumflex" unicode="&#x11d;" horiz-adv-x="634" 
d="M307 651l-52 -61h-132l122 132h125l122 -132h-133zM433 503h130v-493c0 -147 -96 -234 -252 -234c-130 0 -222 67 -245 177l129 17c10 -52 54 -83 115 -83c79 0 123 44 123 123v84c-34 -52 -89 -82 -163 -82c-140 0 -229 99 -229 251c0 149 94 251 233 251
c72 0 125 -30 159 -82v71zM300 130c76 0 133 52 133 133c0 79 -55 133 -133 133c-76 0 -122 -54 -122 -133c0 -82 44 -133 122 -133z" />
    <glyph glyph-name="gcommaaccent" unicode="&#x123;" horiz-adv-x="634" 
d="M303 561c-47 0 -79 30 -79 79c0 27 15 52 39 96l48 87l60 -25l-33 -90c26 -11 43 -37 43 -70c0 -45 -32 -77 -78 -77zM433 503h130v-493c0 -147 -96 -234 -252 -234c-130 0 -222 67 -245 177l129 17c10 -52 54 -83 115 -83c79 0 123 44 123 123v84
c-34 -52 -89 -82 -163 -82c-140 0 -229 99 -229 251c0 149 94 251 233 251c72 0 125 -30 159 -82v71zM300 130c76 0 133 52 133 133c0 79 -55 133 -133 133c-76 0 -122 -54 -122 -133c0 -82 44 -133 122 -133z" />
    <glyph glyph-name="gdotaccent" unicode="&#x121;" horiz-adv-x="634" 
d="M303 581c-47 0 -81 33 -81 80s34 80 81 80c48 0 82 -33 82 -80c0 -46 -35 -80 -82 -80zM433 503h130v-493c0 -147 -96 -234 -252 -234c-130 0 -222 67 -245 177l129 17c10 -52 54 -83 115 -83c79 0 123 44 123 123v84c-34 -52 -89 -82 -163 -82c-140 0 -229 99 -229 251
c0 149 94 251 233 251c72 0 125 -30 159 -82v71zM300 130c76 0 133 52 133 133c0 79 -55 133 -133 133c-76 0 -122 -54 -122 -133c0 -82 44 -133 122 -133z" />
    <glyph glyph-name="h" unicode="h" horiz-adv-x="623" 
d="M70 0v744h134v-316c36 57 91 86 164 86c119 0 195 -81 195 -208v-306h-134v278c0 73 -36 112 -102 112c-72 0 -123 -52 -123 -124v-266h-134z" />
    <glyph glyph-name="hbar" unicode="&#x127;" horiz-adv-x="621" 
d="M365 514c119 0 195 -81 195 -208v-306h-134v278c0 73 -36 112 -101 112c-72 0 -123 -52 -123 -124v-266h-134v563h-69v90h69v91h134v-91h151v-90h-151v-135c35 57 91 86 163 86z" />
    <glyph glyph-name="hcircumflex" unicode="&#x125;" horiz-adv-x="623" 
d="M79 963h125l122 -132h-133l-52 61l-52 -61h-132zM70 0v744h134v-316c36 57 91 86 164 86c119 0 195 -81 195 -208v-306h-134v278c0 73 -36 112 -102 112c-72 0 -123 -52 -123 -124v-266h-134z" />
    <glyph glyph-name="uni1E25" unicode="&#x1e25;" horiz-adv-x="623" 
d="M70 0v744h134v-316c36 57 91 86 164 86c119 0 195 -81 195 -208v-306h-134v278c0 73 -36 112 -102 112c-72 0 -123 -52 -123 -124v-266h-134zM308 -231c-47 0 -81 33 -81 80s34 80 81 80c48 0 82 -33 82 -80c0 -46 -35 -80 -82 -80z" />
    <glyph glyph-name="i" unicode="i" horiz-adv-x="276" 
d="M138 581c-47 0 -81 33 -81 80s34 80 81 80c48 0 82 -33 82 -80c0 -46 -35 -80 -82 -80zM71 0v503h134v-503h-134z" />
    <glyph glyph-name="dotlessi" unicode="&#x131;" horiz-adv-x="276" 
d="M71 0v503h134v-503h-134z" />
    <glyph glyph-name="iacute" unicode="&#xed;" horiz-adv-x="276" 
d="M50 627l170 150l70 -90l-186 -129zM71 0v503h134v-503h-134z" />
    <glyph glyph-name="ibreve" unicode="&#x12d;" horiz-adv-x="276" 
d="M138 573c-148 0 -176 155 -176 155h102s12 -66 74 -66c63 0 75 66 75 66h102s-27 -155 -177 -155zM71 0v503h134v-503h-134z" />
    <glyph glyph-name="uni01D0" unicode="&#x1d0;" horiz-adv-x="276" 
d="M76 589l-122 132h132l52 -61l52 61h133l-122 -132h-125zM71 0v503h134v-503h-134z" />
    <glyph glyph-name="icircumflex" unicode="&#xee;" horiz-adv-x="276" 
d="M80 722h125l122 -132h-133l-52 61l-52 -61h-132zM71 0v503h134v-503h-134z" />
    <glyph glyph-name="uni0209" unicode="&#x209;" horiz-adv-x="276" 
d="M-4 588l84 210l103 -49l-108 -199zM173 588l84 210l103 -49l-108 -199zM71 0v503h134v-503h-134z" />
    <glyph glyph-name="idieresis" unicode="&#xef;" horiz-adv-x="276" 
d="M35 589c-42 0 -73 31 -73 72c0 42 31 72 73 72c43 0 74 -28 74 -72c0 -41 -32 -72 -74 -72zM241 589c-42 0 -73 30 -73 72s31 72 73 72c43 0 74 -29 74 -72c0 -41 -32 -72 -74 -72zM71 0v503h134v-503h-134z" />
    <glyph glyph-name="i.loclTRK" horiz-adv-x="276" 
d="M138 581c-47 0 -81 33 -81 80s34 80 81 80c48 0 82 -33 82 -80c0 -46 -35 -80 -82 -80zM71 0v503h134v-503h-134z" />
    <glyph glyph-name="uni1ECB" unicode="&#x1ecb;" horiz-adv-x="276" 
d="M138 581c-47 0 -81 33 -81 80s34 80 81 80c48 0 82 -33 82 -80c0 -46 -35 -80 -82 -80zM71 0v503h134v-503h-134zM138 -231c-47 0 -81 33 -81 80s34 80 81 80c48 0 82 -33 82 -80c0 -46 -35 -80 -82 -80z" />
    <glyph glyph-name="igrave" unicode="&#xec;" horiz-adv-x="276" 
d="M226 627l-54 -69l-186 129l70 90zM71 0v503h134v-503h-134z" />
    <glyph glyph-name="ij" unicode="&#x133;" horiz-adv-x="552" 
d="M414 582c-47 0 -81 33 -81 80s34 80 81 80c48 0 82 -33 82 -80c0 -46 -35 -80 -82 -80zM138 581c-47 0 -81 33 -81 80s34 80 81 80c48 0 82 -33 82 -80c0 -46 -35 -80 -82 -80zM71 0v503h134v-503h-134zM287 -228c-24 0 -40 4 -40 4l11 115h11c55 0 78 26 78 84v528h134
v-525c0 -132 -67 -206 -194 -206z" />
    <glyph glyph-name="imacron" unicode="&#x12b;" horiz-adv-x="276" 
d="M-48 603v102h373v-102h-373zM71 0v503h134v-503h-134z" />
    <glyph glyph-name="iogonek" unicode="&#x12f;" horiz-adv-x="276" 
d="M138 581c-47 0 -81 33 -81 80s34 80 81 80c48 0 82 -33 82 -80c0 -46 -35 -80 -82 -80zM222 -127l24 -95s-34 -18 -91 -18c-81 0 -136 48 -136 121c0 56 36 95 68 119h-16v503h134v-503s-74 -31 -74 -90c0 -28 20 -48 50 -48c24 0 41 11 41 11z" />
    <glyph glyph-name="itilde" unicode="&#x129;" horiz-adv-x="276" 
d="M314 712v-103s-30 -35 -95 -35c-74 0 -109 50 -171 50c-54 0 -89 -37 -89 -37v103s31 36 95 36c76 0 110 -50 172 -50c53 0 88 36 88 36zM71 0v503h134v-503h-134z" />
    <glyph glyph-name="j" unicode="j" horiz-adv-x="276" 
d="M138 582c-47 0 -81 33 -81 80s34 80 81 80c48 0 82 -33 82 -80c0 -46 -35 -80 -82 -80zM11 -228c-24 0 -40 4 -40 4l11 115h11c55 0 78 26 78 84v528h134v-525c0 -132 -67 -206 -194 -206z" />
    <glyph glyph-name="uni0237" unicode="&#x237;" horiz-adv-x="276" 
d="M11 -228c-24 0 -40 4 -40 4l11 115h11c55 0 78 26 78 84v528h134v-525c0 -132 -67 -206 -194 -206z" />
    <glyph glyph-name="jcircumflex" unicode="&#x135;" horiz-adv-x="276" 
d="M80 723h125l122 -132h-133l-52 61l-52 -61h-132zM11 -228c-24 0 -40 4 -40 4l11 115h11c55 0 78 26 78 84v528h134v-525c0 -132 -67 -206 -194 -206z" />
    <glyph glyph-name="k" unicode="k" horiz-adv-x="591" 
d="M576 0h-152l-112 186l-131 -186h-110v744h134v-473l-6 -68l34 67l159 233h154l-159 -216z" />
    <glyph glyph-name="kcommaaccent" unicode="&#x137;" horiz-adv-x="591" 
d="M387 287l189 -287h-152l-112 186l-131 -186h-110v744h134v-473l-6 -68l34 67l159 233h154zM323 -48c47 0 79 -30 79 -79c0 -27 -15 -52 -39 -96l-48 -87l-60 25l33 90c-26 11 -43 37 -43 70c0 45 32 77 78 77z" />
    <glyph glyph-name="kgreenlandic" unicode="&#x138;" horiz-adv-x="591" 
d="M576 0h-152l-111 185l-132 -185h-110v503h134v-232l-6 -68l34 67l159 233h154l-158 -217z" />
    <glyph glyph-name="l" unicode="l" horiz-adv-x="275" 
d="M70 0v744h134v-744h-134z" />
    <glyph glyph-name="lacute" unicode="&#x13a;" horiz-adv-x="275" 
d="M49 868l170 150l70 -90l-186 -129zM70 0v744h134v-744h-134z" />
    <glyph glyph-name="lcaron" unicode="&#x13e;" horiz-adv-x="401" 
d="M70 0v744h134v-744h-134zM344 736c47 0 79 -30 79 -79c0 -27 -15 -52 -39 -96l-48 -87l-60 25l33 90c-26 11 -43 37 -43 70c0 45 32 77 78 77z" />
    <glyph glyph-name="lcommaaccent" unicode="&#x13c;" horiz-adv-x="275" 
d="M204 744v-744h-134v744h134zM136 -48c47 0 79 -30 79 -79c0 -27 -15 -52 -39 -96l-48 -87l-60 25l33 90c-26 11 -43 37 -43 70c0 45 32 77 78 77z" />
    <glyph glyph-name="ldot" unicode="&#x140;" horiz-adv-x="487" 
d="M70 0v744h134v-744h-134zM377 276c-52 0 -89 37 -89 90c0 51 38 88 89 88c53 0 90 -36 90 -88s-38 -90 -90 -90z" />
    <glyph glyph-name="uni01C9" unicode="&#x1c9;" horiz-adv-x="551" 
d="M70 0v744h134v-744h-134zM413 582c-47 0 -81 33 -81 80s34 80 81 80c48 0 82 -33 82 -80c0 -46 -35 -80 -82 -80zM286 -228c-24 0 -40 4 -40 4l11 115h11c55 0 78 26 78 84v528h134v-525c0 -132 -67 -206 -194 -206z" />
    <glyph glyph-name="lslash" unicode="&#x142;" horiz-adv-x="372" 
d="M346 511v-127l-92 -48v-336h-134v266l-90 -47v126l90 47v352h134v-281z" />
    <glyph glyph-name="m" unicode="m" horiz-adv-x="936" 
d="M693 514c111 0 183 -80 183 -208v-306h-134v278c0 73 -32 110 -91 110c-72 0 -111 -50 -111 -122v-266h-134v278c0 73 -32 110 -90 110c-73 0 -112 -50 -112 -122v-266h-134v503h130v-87c33 64 86 98 158 98c75 0 129 -33 158 -102c37 71 99 102 177 102z" />
    <glyph glyph-name="n" unicode="n" horiz-adv-x="621" 
d="M70 0v503h130v-81c35 60 92 92 167 92c118 0 194 -80 194 -208v-306h-134v278c0 73 -36 110 -101 110c-74 0 -122 -50 -122 -122v-266h-134z" />
    <glyph glyph-name="nacute" unicode="&#x144;" horiz-adv-x="621" 
d="M220 628l170 150l70 -90l-186 -129zM70 0v503h130v-81c35 60 92 92 167 92c118 0 194 -80 194 -208v-306h-134v278c0 73 -36 110 -101 110c-74 0 -122 -50 -122 -122v-266h-134z" />
    <glyph glyph-name="napostrophe" unicode="&#x149;" horiz-adv-x="778" 
d="M190 652v-1v-1c-1 -31 -15 -58 -39 -105l-61 -116l-64 27l44 120c-30 12 -50 40 -50 77c0 49 36 85 86 85c51 0 84 -34 84 -86zM524 514c118 0 194 -80 194 -208v-306h-134v278c0 73 -36 110 -101 110c-74 0 -122 -50 -122 -122v-266h-134v503h130v-81
c35 60 92 92 167 92z" />
    <glyph glyph-name="ncaron" unicode="&#x148;" horiz-adv-x="621" 
d="M246 590l-122 132h132l52 -61l52 61h133l-122 -132h-125zM70 0v503h130v-81c35 60 92 92 167 92c118 0 194 -80 194 -208v-306h-134v278c0 73 -36 110 -101 110c-74 0 -122 -50 -122 -122v-266h-134z" />
    <glyph glyph-name="ncommaaccent" unicode="&#x146;" horiz-adv-x="621" 
d="M367 514c118 0 194 -80 194 -208v-306h-134v278c0 73 -36 110 -101 110c-74 0 -122 -50 -122 -122v-266h-134v503h130v-81c35 60 92 92 167 92zM307 -48c47 0 79 -30 79 -79c0 -27 -15 -52 -39 -96l-48 -87l-60 25l33 90c-26 11 -43 37 -43 70c0 45 32 77 78 77z" />
    <glyph glyph-name="uni1E45" unicode="&#x1e45;" horiz-adv-x="621" 
d="M308 582c-47 0 -81 33 -81 80s34 80 81 80c48 0 82 -33 82 -80c0 -46 -35 -80 -82 -80zM70 0v503h130v-81c35 60 92 92 167 92c118 0 194 -80 194 -208v-306h-134v278c0 73 -36 110 -101 110c-74 0 -122 -50 -122 -122v-266h-134z" />
    <glyph glyph-name="eng" unicode="&#x14b;" horiz-adv-x="623" 
d="M367 -228c-25 0 -41 4 -41 4l11 115h11c55 0 79 26 79 84v303c0 73 -36 110 -101 110c-74 0 -122 -50 -122 -122v-266h-134v503h130v-81c35 60 92 92 167 92c118 0 194 -80 194 -208v-329c0 -131 -68 -205 -194 -205z" />
    <glyph glyph-name="uni01CC" unicode="&#x1cc;" horiz-adv-x="897" 
d="M759 582c-47 0 -81 33 -81 80s34 80 81 80c48 0 82 -33 82 -80c0 -46 -35 -80 -82 -80zM70 0v503h130v-81c35 60 92 92 167 92c118 0 194 -80 194 -208v-306h-134v278c0 73 -36 110 -101 110c-74 0 -122 -50 -122 -122v-266h-134zM632 -228c-24 0 -40 4 -40 4l11 115h11
c55 0 78 26 78 84v528h134v-525c0 -132 -67 -206 -194 -206z" />
    <glyph glyph-name="ntilde" unicode="&#xf1;" horiz-adv-x="621" 
d="M484 713v-103s-30 -35 -95 -35c-74 0 -109 50 -171 50c-54 0 -89 -37 -89 -37v103s31 36 95 36c76 0 110 -50 172 -50c53 0 88 36 88 36zM70 0v503h130v-81c35 60 92 92 167 92c118 0 194 -80 194 -208v-306h-134v278c0 73 -36 110 -101 110c-74 0 -122 -50 -122 -122
v-266h-134z" />
    <glyph glyph-name="o" unicode="o" horiz-adv-x="628" 
d="M314 -11c-161 0 -275 110 -275 262c0 151 116 263 275 263c161 0 274 -108 274 -263c0 -150 -116 -262 -274 -262zM314 112c81 0 138 59 138 139c0 84 -55 140 -138 140c-81 0 -138 -58 -138 -140c0 -81 56 -139 138 -139z" />
    <glyph glyph-name="oacute" unicode="&#xf3;" horiz-adv-x="628" 
d="M226 628l170 150l70 -90l-186 -129zM314 -11c-161 0 -275 110 -275 262c0 151 116 263 275 263c161 0 274 -108 274 -263c0 -150 -116 -262 -274 -262zM314 112c81 0 138 59 138 139c0 84 -55 140 -138 140c-81 0 -138 -58 -138 -140c0 -81 56 -139 138 -139z" />
    <glyph glyph-name="obreve" unicode="&#x14f;" horiz-adv-x="628" 
d="M314 574c-148 0 -176 155 -176 155h102s12 -66 74 -66c63 0 75 66 75 66h102s-27 -155 -177 -155zM314 -11c-161 0 -275 110 -275 262c0 151 116 263 275 263c161 0 274 -108 274 -263c0 -150 -116 -262 -274 -262zM314 112c81 0 138 59 138 139c0 84 -55 140 -138 140
c-81 0 -138 -58 -138 -140c0 -81 56 -139 138 -139z" />
    <glyph glyph-name="uni01D2" unicode="&#x1d2;" horiz-adv-x="628" 
d="M252 590l-122 132h132l52 -61l52 61h133l-122 -132h-125zM314 -11c-161 0 -275 110 -275 262c0 151 116 263 275 263c161 0 274 -108 274 -263c0 -150 -116 -262 -274 -262zM314 112c81 0 138 59 138 139c0 84 -55 140 -138 140c-81 0 -138 -58 -138 -140
c0 -81 56 -139 138 -139z" />
    <glyph glyph-name="ocircumflex" unicode="&#xf4;" horiz-adv-x="628" 
d="M256 723h125l122 -132h-133l-52 61l-52 -61h-132zM314 -11c-161 0 -275 110 -275 262c0 151 116 263 275 263c161 0 274 -108 274 -263c0 -150 -116 -262 -274 -262zM314 112c81 0 138 59 138 139c0 84 -55 140 -138 140c-81 0 -138 -58 -138 -140
c0 -81 56 -139 138 -139z" />
    <glyph glyph-name="uni1ED9" unicode="&#x1ed9;" horiz-adv-x="628" 
d="M256 723h125l122 -132h-133l-52 61l-52 -61h-132zM314 -11c-161 0 -275 110 -275 262c0 151 116 263 275 263c161 0 274 -108 274 -263c0 -150 -116 -262 -274 -262zM314 112c81 0 138 59 138 139c0 84 -55 140 -138 140c-81 0 -138 -58 -138 -140
c0 -81 56 -139 138 -139zM314 -231c-47 0 -81 33 -81 80s34 80 81 80c48 0 82 -33 82 -80c0 -46 -35 -80 -82 -80z" />
    <glyph glyph-name="uni020D" unicode="&#x20d;" horiz-adv-x="628" 
d="M172 589l84 210l103 -49l-108 -199zM349 589l84 210l103 -49l-108 -199zM314 -11c-161 0 -275 110 -275 262c0 151 116 263 275 263c161 0 274 -108 274 -263c0 -150 -116 -262 -274 -262zM314 112c81 0 138 59 138 139c0 84 -55 140 -138 140c-81 0 -138 -58 -138 -140
c0 -81 56 -139 138 -139z" />
    <glyph glyph-name="odieresis" unicode="&#xf6;" horiz-adv-x="628" 
d="M211 590c-42 0 -73 31 -73 72c0 42 31 72 73 72c43 0 74 -28 74 -72c0 -41 -32 -72 -74 -72zM417 590c-42 0 -73 30 -73 72s31 72 73 72c43 0 74 -29 74 -72c0 -41 -32 -72 -74 -72zM314 -11c-161 0 -275 110 -275 262c0 151 116 263 275 263c161 0 274 -108 274 -263
c0 -150 -116 -262 -274 -262zM314 112c81 0 138 59 138 139c0 84 -55 140 -138 140c-81 0 -138 -58 -138 -140c0 -81 56 -139 138 -139z" />
    <glyph glyph-name="uni1ECD" unicode="&#x1ecd;" horiz-adv-x="628" 
d="M314 -11c-161 0 -275 110 -275 262c0 151 116 263 275 263c161 0 274 -108 274 -263c0 -150 -116 -262 -274 -262zM314 112c81 0 138 59 138 139c0 84 -55 140 -138 140c-81 0 -138 -58 -138 -140c0 -81 56 -139 138 -139zM314 -231c-47 0 -81 33 -81 80s34 80 81 80
c48 0 82 -33 82 -80c0 -46 -35 -80 -82 -80z" />
    <glyph glyph-name="ograve" unicode="&#xf2;" horiz-adv-x="628" 
d="M402 628l-54 -69l-186 129l70 90zM314 -11c-161 0 -275 110 -275 262c0 151 116 263 275 263c161 0 274 -108 274 -263c0 -150 -116 -262 -274 -262zM314 112c81 0 138 59 138 139c0 84 -55 140 -138 140c-81 0 -138 -58 -138 -140c0 -81 56 -139 138 -139z" />
    <glyph glyph-name="ohungarumlaut" unicode="&#x151;" horiz-adv-x="628" 
d="M280 589l-79 -38l-108 199l103 49zM456 589l-79 -38l-108 199l103 49zM314 -11c-161 0 -275 110 -275 262c0 151 116 263 275 263c161 0 274 -108 274 -263c0 -150 -116 -262 -274 -262zM314 112c81 0 138 59 138 139c0 84 -55 140 -138 140c-81 0 -138 -58 -138 -140
c0 -81 56 -139 138 -139z" />
    <glyph glyph-name="omacron" unicode="&#x14d;" horiz-adv-x="628" 
d="M128 604v102h373v-102h-373zM314 -11c-161 0 -275 110 -275 262c0 151 116 263 275 263c161 0 274 -108 274 -263c0 -150 -116 -262 -274 -262zM314 112c81 0 138 59 138 139c0 84 -55 140 -138 140c-81 0 -138 -58 -138 -140c0 -81 56 -139 138 -139z" />
    <glyph glyph-name="uni01EB" unicode="&#x1eb;" horiz-adv-x="628" 
d="M377 -5c-20 -10 -64 -39 -64 -85c0 -28 20 -48 50 -48c24 0 41 11 41 11l24 -95s-34 -18 -91 -18c-81 0 -136 48 -136 121c0 51 30 88 59 112c-132 22 -221 124 -221 258c0 151 116 263 275 263c161 0 274 -108 274 -263c0 -129 -86 -230 -211 -256zM176 251
c0 -81 56 -139 138 -139c81 0 138 59 138 139c0 84 -55 140 -138 140c-81 0 -138 -58 -138 -140z" />
    <glyph glyph-name="oslash" unicode="&#xf8;" horiz-adv-x="622" 
d="M486 458c62 -46 99 -119 99 -207c0 -151 -116 -260 -274 -260c-50 0 -95 10 -133 29l-59 -83l-41 28l57 81c-61 46 -98 118 -98 205c0 151 116 261 274 261c49 0 94 -10 132 -28l59 83l41 -29zM170 251c0 -41 14 -76 39 -101l162 231c-18 7 -38 11 -60 11
c-83 0 -141 -58 -141 -141zM311 111c83 0 141 58 141 140c0 43 -14 78 -39 103l-163 -231c18 -8 38 -12 61 -12z" />
    <glyph glyph-name="oslashacute" unicode="&#x1ff;" horiz-adv-x="622" 
d="M463 688l-186 -129l-54 69l170 150zM486 458c62 -46 99 -119 99 -207c0 -151 -116 -260 -274 -260c-50 0 -95 10 -133 29l-59 -83l-41 28l57 81c-61 46 -98 118 -98 205c0 151 116 261 274 261c49 0 94 -10 132 -28l59 83l41 -29zM170 251c0 -41 14 -76 39 -101l162 231
c-18 7 -38 11 -60 11c-83 0 -141 -58 -141 -141zM311 111c83 0 141 58 141 140c0 43 -14 78 -39 103l-163 -231c18 -8 38 -12 61 -12z" />
    <glyph glyph-name="otilde" unicode="&#xf5;" horiz-adv-x="628" 
d="M490 713v-103s-30 -35 -95 -35c-74 0 -109 50 -171 50c-54 0 -89 -37 -89 -37v103s31 36 95 36c76 0 110 -50 172 -50c53 0 88 36 88 36zM314 -11c-161 0 -275 110 -275 262c0 151 116 263 275 263c161 0 274 -108 274 -263c0 -150 -116 -262 -274 -262zM314 112
c81 0 138 59 138 139c0 84 -55 140 -138 140c-81 0 -138 -58 -138 -140c0 -81 56 -139 138 -139z" />
    <glyph glyph-name="oe" unicode="&#x153;" horiz-adv-x="1007" 
d="M970 249c0 -20 -2 -40 -2 -40h-377c12 -66 55 -101 126 -101c55 0 90 19 111 58l118 -54c-50 -83 -126 -122 -232 -122c-91 0 -157 41 -195 108c-39 -67 -109 -108 -207 -108c-159 0 -273 109 -273 261s115 262 273 262c100 0 169 -40 209 -106c38 65 106 106 201 106
c148 0 248 -107 248 -264zM593 308h246c-4 55 -50 92 -118 92c-69 0 -113 -31 -128 -92zM314 113c81 0 137 58 137 138c0 84 -54 139 -137 139c-82 0 -138 -57 -138 -139c0 -81 56 -138 138 -138z" />
    <glyph glyph-name="p" unicode="p" horiz-adv-x="643" 
d="M364 514c142 0 239 -108 239 -263c0 -154 -101 -262 -242 -262c-69 0 -122 31 -157 83v-290h-134v721h130v-76c35 55 90 87 164 87zM336 112c76 0 130 58 130 139c0 82 -55 139 -129 139c-78 0 -136 -58 -136 -139c0 -80 58 -139 135 -139z" />
    <glyph glyph-name="thorn" unicode="&#xfe;" horiz-adv-x="645" 
d="M365 514c142 0 238 -109 238 -263s-100 -262 -241 -262c-69 0 -122 30 -157 82v-289h-134v962h134v-312c35 52 89 82 160 82zM337 112c76 0 130 57 130 139c0 81 -51 139 -129 139s-136 -59 -136 -139c0 -81 58 -139 135 -139z" />
    <glyph glyph-name="q" unicode="q" horiz-adv-x="643" 
d="M443 503h130v-721h-134v292c-35 -54 -90 -85 -160 -85c-143 0 -239 108 -239 262c0 153 102 263 242 263c75 0 128 -31 161 -84v73zM305 112c76 0 137 59 137 139c0 81 -53 139 -134 139c-76 0 -131 -59 -131 -139c0 -83 48 -139 128 -139z" />
    <glyph glyph-name="r" unicode="r" horiz-adv-x="420" 
d="M70 0v503h130v-105c29 74 86 113 166 113c12 0 23 -1 30 -3l-8 -135h-20c-116 0 -164 -50 -164 -181v-192h-134z" />
    <glyph glyph-name="racute" unicode="&#x155;" horiz-adv-x="420" 
d="M136 627l170 150l70 -90l-186 -129zM70 0v503h130v-105c29 74 86 113 166 113c12 0 23 -1 30 -3l-8 -135h-20c-116 0 -164 -50 -164 -181v-192h-134z" />
    <glyph glyph-name="rcaron" unicode="&#x159;" horiz-adv-x="420" 
d="M162 589l-122 132h132l52 -61l52 61h133l-122 -132h-125zM70 0v503h130v-105c29 74 86 113 166 113c12 0 23 -1 30 -3l-8 -135h-20c-116 0 -164 -50 -164 -181v-192h-134z" />
    <glyph glyph-name="rcommaaccent" unicode="&#x157;" horiz-adv-x="420" 
d="M366 511c12 0 23 -1 30 -3l-8 -135h-20c-116 0 -164 -50 -164 -181v-192h-134v503h130v-105c29 74 86 113 166 113zM136 -48c47 0 79 -30 79 -79c0 -27 -15 -52 -39 -96l-48 -87l-60 25l33 90c-26 11 -43 37 -43 70c0 45 32 77 78 77z" />
    <glyph glyph-name="uni0211" unicode="&#x211;" horiz-adv-x="420" 
d="M82 588l84 210l103 -49l-108 -199zM259 588l84 210l103 -49l-108 -199zM70 0v503h130v-105c29 74 86 113 166 113c12 0 23 -1 30 -3l-8 -135h-20c-116 0 -164 -50 -164 -181v-192h-134z" />
    <glyph glyph-name="uni1E5B" unicode="&#x1e5b;" horiz-adv-x="420" 
d="M70 0v503h130v-105c29 74 86 113 166 113c12 0 23 -1 30 -3l-8 -135h-20c-116 0 -164 -50 -164 -181v-192h-134zM137 -231c-47 0 -81 33 -81 80s34 80 81 80c48 0 82 -33 82 -80c0 -46 -35 -80 -82 -80z" />
    <glyph glyph-name="s" unicode="s" horiz-adv-x="476" 
d="M236 -11c-172 0 -198 129 -198 129l118 33s11 -60 79 -60c44 0 69 18 69 50c0 35 -23 47 -69 58l-50 12c-90 21 -140 73 -140 149c0 94 74 154 192 154c158 0 189 -108 189 -108l-116 -39s-13 46 -72 46c-39 0 -62 -16 -62 -45c0 -35 24 -46 73 -57l53 -13
c87 -20 136 -73 136 -149c0 -98 -79 -160 -202 -160z" />
    <glyph glyph-name="sacute" unicode="&#x15b;" horiz-adv-x="476" 
d="M150 628l170 150l70 -90l-186 -129zM236 -11c-172 0 -198 129 -198 129l118 33s11 -60 79 -60c44 0 69 18 69 50c0 35 -23 47 -69 58l-50 12c-90 21 -140 73 -140 149c0 94 74 154 192 154c158 0 189 -108 189 -108l-116 -39s-13 46 -72 46c-39 0 -62 -16 -62 -45
c0 -35 24 -46 73 -57l53 -13c87 -20 136 -73 136 -149c0 -98 -79 -160 -202 -160z" />
    <glyph glyph-name="scaron" unicode="&#x161;" horiz-adv-x="476" 
d="M176 590l-122 132h132l52 -61l52 61h133l-122 -132h-125zM236 -11c-172 0 -198 129 -198 129l118 33s11 -60 79 -60c44 0 69 18 69 50c0 35 -23 47 -69 58l-50 12c-90 21 -140 73 -140 149c0 94 74 154 192 154c158 0 189 -108 189 -108l-116 -39s-13 46 -72 46
c-39 0 -62 -16 -62 -45c0 -35 24 -46 73 -57l53 -13c87 -20 136 -73 136 -149c0 -98 -79 -160 -202 -160z" />
    <glyph glyph-name="scedilla" unicode="&#x15f;" horiz-adv-x="476" 
d="M438 149c0 -88 -63 -147 -165 -158l-2 -21h2c46 0 90 -34 90 -95c0 -70 -56 -115 -141 -115c-76 0 -116 37 -116 37l47 77s22 -22 62 -22c28 0 45 13 45 33c0 19 -14 31 -41 31c-21 0 -35 -6 -35 -6l9 82c-133 19 -155 126 -155 126l118 33s11 -60 79 -60
c44 0 69 18 69 50c0 35 -23 47 -69 58l-50 12c-90 21 -140 73 -140 149c0 94 74 154 192 154c158 0 189 -108 189 -108l-116 -39s-13 46 -72 46c-39 0 -62 -16 -62 -45c0 -35 24 -46 73 -57l53 -13c87 -20 136 -73 136 -149z" />
    <glyph glyph-name="scircumflex" unicode="&#x15d;" horiz-adv-x="476" 
d="M180 723h125l122 -132h-133l-52 61l-52 -61h-132zM236 -11c-172 0 -198 129 -198 129l118 33s11 -60 79 -60c44 0 69 18 69 50c0 35 -23 47 -69 58l-50 12c-90 21 -140 73 -140 149c0 94 74 154 192 154c158 0 189 -108 189 -108l-116 -39s-13 46 -72 46
c-39 0 -62 -16 -62 -45c0 -35 24 -46 73 -57l53 -13c87 -20 136 -73 136 -149c0 -98 -79 -160 -202 -160z" />
    <glyph glyph-name="scommaaccent" unicode="&#x219;" horiz-adv-x="476" 
d="M302 298c87 -20 136 -73 136 -149c0 -98 -79 -160 -202 -160c-172 0 -198 129 -198 129l118 33s11 -60 79 -60c44 0 69 18 69 50c0 35 -23 47 -69 58l-50 12c-90 21 -140 73 -140 149c0 94 74 154 192 154c158 0 189 -108 189 -108l-116 -39s-13 46 -72 46
c-39 0 -62 -16 -62 -45c0 -35 24 -46 73 -57zM235 -48c47 0 79 -30 79 -79c0 -27 -15 -52 -39 -96l-48 -87l-60 25l33 90c-26 11 -43 37 -43 70c0 45 32 77 78 77z" />
    <glyph glyph-name="uni1E63" unicode="&#x1e63;" horiz-adv-x="476" 
d="M236 -11c-172 0 -198 129 -198 129l118 33s11 -60 79 -60c44 0 69 18 69 50c0 35 -23 47 -69 58l-50 12c-90 21 -140 73 -140 149c0 94 74 154 192 154c158 0 189 -108 189 -108l-116 -39s-13 46 -72 46c-39 0 -62 -16 -62 -45c0 -35 24 -46 73 -57l53 -13
c87 -20 136 -73 136 -149c0 -98 -79 -160 -202 -160zM236 -231c-47 0 -81 33 -81 80s34 80 81 80c48 0 82 -33 82 -80c0 -46 -35 -80 -82 -80z" />
    <glyph glyph-name="germandbls" unicode="&#xdf;" horiz-adv-x="647" 
d="M453 396v-4c106 -19 160 -83 160 -175c0 -127 -111 -217 -263 -217h-59v117h59c78 0 126 41 126 110c0 63 -52 105 -130 105h-31v110h11c65 0 107 39 107 98c0 60 -44 99 -112 99s-116 -39 -116 -99v-540h-134v555c0 116 105 200 247 200c143 0 247 -89 247 -205
c0 -72 -36 -129 -112 -154z" />
    <glyph glyph-name="longs" unicode="&#x17f;" horiz-adv-x="309" 
d="M290 755c87 0 136 -39 136 -39l-45 -112s-28 27 -71 27c-52 0 -72 -23 -72 -85v-546h-134v388h-80v115h80v54c0 129 65 198 186 198z" />
    <glyph glyph-name="t" unicode="t" horiz-adv-x="477" 
d="M410 135l41 -115s-53 -31 -143 -31c-131 0 -195 64 -195 196v203h-89v115h89v135h134v-135h171v-115h-171v-194c0 -63 21 -84 78 -85c51 -1 85 26 85 26z" />
    <glyph glyph-name="tbar" unicode="&#x167;" horiz-adv-x="501" 
d="M426 135l42 -115s-53 -31 -144 -31c-131 0 -194 64 -194 196v50h-90v94h90v80h-90v94h90v135h134v-135h170v-94h-170v-80h170v-94h-170v-41c0 -63 20 -84 77 -85c51 -1 85 26 85 26z" />
    <glyph glyph-name="tcaron" unicode="&#x165;" horiz-adv-x="477" 
d="M326 652c-26 11 -43 37 -43 70c0 45 32 77 78 77c47 0 79 -30 79 -79c0 -27 -15 -52 -39 -96l-48 -87l-60 25zM410 135l41 -115s-53 -31 -143 -31c-131 0 -195 64 -195 196v203h-89v115h89v135h134v-135h171v-115h-171v-194c0 -63 21 -84 78 -85c51 -1 85 26 85 26z" />
    <glyph glyph-name="uni0163" unicode="&#x163;" horiz-adv-x="477" 
d="M321 -30c46 0 90 -34 90 -95c0 -70 -56 -115 -141 -115c-76 0 -116 37 -116 37l47 77s22 -22 62 -22c28 0 45 13 45 33c0 19 -14 31 -41 31c-21 0 -35 -6 -35 -6l10 86c-87 19 -129 82 -129 189v203h-89v115h89v135h134v-135h171v-115h-171v-194c0 -63 21 -84 78 -85
c51 -1 85 26 85 26l41 -115s-48 -28 -130 -31l-2 -19h2z" />
    <glyph glyph-name="uni021B" unicode="&#x21b;" horiz-adv-x="477" 
d="M451 20c0 0 -53 -31 -143 -31c-131 0 -195 64 -195 196v203h-89v115h89v135h134v-135h171v-115h-171v-194c0 -63 21 -84 78 -85c51 -1 85 26 85 26zM283 -48c47 0 79 -30 79 -79c0 -27 -15 -52 -39 -96l-48 -87l-60 25l33 90c-26 11 -43 37 -43 70c0 45 32 77 78 77z" />
    <glyph glyph-name="uni1E6D" unicode="&#x1e6d;" horiz-adv-x="477" 
d="M451 20c0 0 -53 -31 -143 -31c-131 0 -195 64 -195 196v203h-89v115h89v135h134v-135h171v-115h-171v-194c0 -63 21 -84 78 -85c51 -1 85 26 85 26zM284 -71c48 0 82 -33 82 -80c0 -46 -35 -80 -82 -80s-81 33 -81 80s34 80 81 80z" />
    <glyph glyph-name="u" unicode="u" horiz-adv-x="606" 
d="M303 -9c-155 0 -244 83 -244 228v285h134v-274c0 -74 39 -115 110 -115s110 41 110 115v274h134v-285c0 -145 -90 -228 -244 -228z" />
    <glyph glyph-name="uacute" unicode="&#xfa;" horiz-adv-x="606" 
d="M215 628l170 150l70 -90l-186 -129zM303 -9c-155 0 -244 83 -244 228v285h134v-274c0 -74 39 -115 110 -115s110 41 110 115v274h134v-285c0 -145 -90 -228 -244 -228z" />
    <glyph glyph-name="ubreve" unicode="&#x16d;" horiz-adv-x="606" 
d="M303 574c-148 0 -176 155 -176 155h102s12 -66 74 -66c63 0 75 66 75 66h102s-27 -155 -177 -155zM303 -9c-155 0 -244 83 -244 228v285h134v-274c0 -74 39 -115 110 -115s110 41 110 115v274h134v-285c0 -145 -90 -228 -244 -228z" />
    <glyph glyph-name="uni01D4" unicode="&#x1d4;" horiz-adv-x="606" 
d="M241 590l-122 132h132l52 -61l52 61h133l-122 -132h-125zM303 -9c-155 0 -244 83 -244 228v285h134v-274c0 -74 39 -115 110 -115s110 41 110 115v274h134v-285c0 -145 -90 -228 -244 -228z" />
    <glyph glyph-name="ucircumflex" unicode="&#xfb;" horiz-adv-x="606" 
d="M245 723h125l122 -132h-133l-52 61l-52 -61h-132zM303 -9c-155 0 -244 83 -244 228v285h134v-274c0 -74 39 -115 110 -115s110 41 110 115v274h134v-285c0 -145 -90 -228 -244 -228z" />
    <glyph glyph-name="uni0215" unicode="&#x215;" horiz-adv-x="606" 
d="M161 589l84 210l103 -49l-108 -199zM338 589l84 210l103 -49l-108 -199zM303 -9c-155 0 -244 83 -244 228v285h134v-274c0 -74 39 -115 110 -115s110 41 110 115v274h134v-285c0 -145 -90 -228 -244 -228z" />
    <glyph glyph-name="udieresis" unicode="&#xfc;" horiz-adv-x="606" 
d="M200 590c-42 0 -73 31 -73 72c0 42 31 72 73 72c43 0 74 -28 74 -72c0 -41 -32 -72 -74 -72zM406 590c-42 0 -73 30 -73 72s31 72 73 72c43 0 74 -29 74 -72c0 -41 -32 -72 -74 -72zM303 -9c-155 0 -244 83 -244 228v285h134v-274c0 -74 39 -115 110 -115s110 41 110 115
v274h134v-285c0 -145 -90 -228 -244 -228z" />
    <glyph glyph-name="uni1EE5" unicode="&#x1ee5;" horiz-adv-x="606" 
d="M303 -9c-155 0 -244 83 -244 228v285h134v-274c0 -74 39 -115 110 -115s110 41 110 115v274h134v-285c0 -145 -90 -228 -244 -228zM303 -231c-47 0 -81 33 -81 80s34 80 81 80c48 0 82 -33 82 -80c0 -46 -35 -80 -82 -80z" />
    <glyph glyph-name="ugrave" unicode="&#xf9;" horiz-adv-x="606" 
d="M391 628l-54 -69l-186 129l70 90zM303 -9c-155 0 -244 83 -244 228v285h134v-274c0 -74 39 -115 110 -115s110 41 110 115v274h134v-285c0 -145 -90 -228 -244 -228z" />
    <glyph glyph-name="uhungarumlaut" unicode="&#x171;" horiz-adv-x="606" 
d="M269 589l-79 -38l-108 199l103 49zM445 589l-79 -38l-108 199l103 49zM303 -9c-155 0 -244 83 -244 228v285h134v-274c0 -74 39 -115 110 -115s110 41 110 115v274h134v-285c0 -145 -90 -228 -244 -228z" />
    <glyph glyph-name="umacron" unicode="&#x16b;" horiz-adv-x="606" 
d="M117 604v102h373v-102h-373zM303 -9c-155 0 -244 83 -244 228v285h134v-274c0 -74 39 -115 110 -115s110 41 110 115v274h134v-285c0 -145 -90 -228 -244 -228z" />
    <glyph glyph-name="uogonek" unicode="&#x173;" horiz-adv-x="606" 
d="M413 504h134v-285c0 -119 -61 -196 -167 -220c-13 -6 -72 -36 -72 -89c0 -28 20 -48 50 -48c24 0 41 11 41 11l24 -95s-34 -18 -91 -18c-81 0 -136 48 -136 121c0 52 30 89 60 113c-126 15 -197 95 -197 225v285h134v-274c0 -74 39 -115 110 -115s110 41 110 115v274z
" />
    <glyph glyph-name="uring" unicode="&#x16f;" horiz-adv-x="606" 
d="M303 556c-72 0 -124 51 -124 122c0 72 52 123 124 123s124 -51 124 -123c0 -71 -52 -122 -124 -122zM303 640c23 0 40 16 40 38c0 23 -17 39 -40 39c-22 0 -38 -16 -38 -39c0 -22 16 -38 38 -38zM303 -9c-155 0 -244 83 -244 228v285h134v-274c0 -74 39 -115 110 -115
s110 41 110 115v274h134v-285c0 -145 -90 -228 -244 -228z" />
    <glyph glyph-name="utilde" unicode="&#x169;" horiz-adv-x="606" 
d="M479 713v-103s-30 -35 -95 -35c-74 0 -109 50 -171 50c-54 0 -89 -37 -89 -37v103s31 36 95 36c76 0 110 -50 172 -50c53 0 88 36 88 36zM303 -9c-155 0 -244 83 -244 228v285h134v-274c0 -74 39 -115 110 -115s110 41 110 115v274h134v-285c0 -145 -90 -228 -244 -228z
" />
    <glyph glyph-name="v" unicode="v" horiz-adv-x="607" 
d="M589 503l-213 -503h-144l-214 503h154l124 -327l8 -42l8 42l128 327h149z" />
    <glyph glyph-name="w" unicode="w" horiz-adv-x="840" 
d="M680 503h139l-174 -503h-120l-97 306l-8 46l-7 -46l-90 -306h-123l-179 503h142l94 -307l10 -59l9 59l90 307h112l91 -307l8 -59l10 59z" />
    <glyph glyph-name="wacute" unicode="&#x1e83;" horiz-adv-x="840" 
d="M329 628l170 150l70 -90l-186 -129zM680 503h139l-174 -503h-120l-97 306l-8 46l-7 -46l-90 -306h-123l-179 503h142l94 -307l10 -59l9 59l90 307h112l91 -307l8 -59l10 59z" />
    <glyph glyph-name="wcircumflex" unicode="&#x175;" horiz-adv-x="840" 
d="M359 723h125l122 -132h-133l-52 61l-52 -61h-132zM680 503h139l-174 -503h-120l-97 306l-8 46l-7 -46l-90 -306h-123l-179 503h142l94 -307l10 -59l9 59l90 307h112l91 -307l8 -59l10 59z" />
    <glyph glyph-name="wdieresis" unicode="&#x1e85;" horiz-adv-x="840" 
d="M314 590c-42 0 -73 31 -73 72c0 42 31 72 73 72c43 0 74 -28 74 -72c0 -41 -32 -72 -74 -72zM520 590c-42 0 -73 30 -73 72s31 72 73 72c43 0 74 -29 74 -72c0 -41 -32 -72 -74 -72zM680 503h139l-174 -503h-120l-97 306l-8 46l-7 -46l-90 -306h-123l-179 503h142
l94 -307l10 -59l9 59l90 307h112l91 -307l8 -59l10 59z" />
    <glyph glyph-name="wgrave" unicode="&#x1e81;" horiz-adv-x="840" 
d="M505 628l-54 -69l-186 129l70 90zM680 503h139l-174 -503h-120l-97 306l-8 46l-7 -46l-90 -306h-123l-179 503h142l94 -307l10 -59l9 59l90 307h112l91 -307l8 -59l10 59z" />
    <glyph glyph-name="x" unicode="x" horiz-adv-x="583" 
d="M565 0h-160l-114 157l-114 -157h-159l191 254l-181 249h159l104 -151l104 151h159l-181 -249z" />
    <glyph glyph-name="y" unicode="y" horiz-adv-x="609" 
d="M126 -218l109 231l-218 490h154l128 -325l7 -54l9 54l127 325h149l-310 -721h-155z" />
    <glyph glyph-name="yacute" unicode="&#xfd;" horiz-adv-x="609" 
d="M218 627l170 150l70 -90l-186 -129zM126 -218l109 231l-218 490h154l128 -325l7 -54l9 54l127 325h149l-310 -721h-155z" />
    <glyph glyph-name="ycircumflex" unicode="&#x177;" horiz-adv-x="609" 
d="M248 722h125l122 -132h-133l-52 61l-52 -61h-132zM126 -218l109 231l-218 490h154l128 -325l7 -54l9 54l127 325h149l-310 -721h-155z" />
    <glyph glyph-name="ydieresis" unicode="&#xff;" horiz-adv-x="609" 
d="M203 589c-42 0 -73 31 -73 72c0 42 31 72 73 72c43 0 74 -28 74 -72c0 -41 -32 -72 -74 -72zM409 589c-42 0 -73 30 -73 72s31 72 73 72c43 0 74 -29 74 -72c0 -41 -32 -72 -74 -72zM126 -218l109 231l-218 490h154l128 -325l7 -54l9 54l127 325h149l-310 -721h-155z" />
    <glyph glyph-name="uni1EF5" unicode="&#x1ef5;" horiz-adv-x="609" 
d="M126 -218l109 231l-218 490h154l128 -325l7 -54l9 54l127 325h149l-310 -721h-155zM474 -231c-47 0 -81 33 -81 80s34 80 81 80c48 0 82 -33 82 -80c0 -46 -35 -80 -82 -80z" />
    <glyph glyph-name="ygrave" unicode="&#x1ef3;" horiz-adv-x="609" 
d="M394 627l-54 -69l-186 129l70 90zM126 -218l109 231l-218 490h154l128 -325l7 -54l9 54l127 325h149l-310 -721h-155z" />
    <glyph glyph-name="uni1EF9" unicode="&#x1ef9;" horiz-adv-x="609" 
d="M482 712v-103s-30 -35 -95 -35c-74 0 -109 50 -171 50c-54 0 -89 -37 -89 -37v103s31 36 95 36c76 0 110 -50 172 -50c53 0 88 36 88 36zM126 -218l109 231l-218 490h154l128 -325l7 -54l9 54l127 325h149l-310 -721h-155z" />
    <glyph glyph-name="z" unicode="z" horiz-adv-x="501" 
d="M38 0v105l244 280h-237v118h413v-101l-243 -281h247v-121h-424z" />
    <glyph glyph-name="zacute" unicode="&#x17a;" horiz-adv-x="501" 
d="M164 628l170 150l70 -90l-186 -129zM38 0v105l244 280h-237v118h413v-101l-243 -281h247v-121h-424z" />
    <glyph glyph-name="zcaron" unicode="&#x17e;" horiz-adv-x="501" 
d="M190 590l-122 132h132l52 -61l52 61h133l-122 -132h-125zM38 0v105l244 280h-237v118h413v-101l-243 -281h247v-121h-424z" />
    <glyph glyph-name="zdotaccent" unicode="&#x17c;" horiz-adv-x="501" 
d="M252 582c-47 0 -81 33 -81 80s34 80 81 80c48 0 82 -33 82 -80c0 -46 -35 -80 -82 -80zM38 0v105l244 280h-237v118h413v-101l-243 -281h247v-121h-424z" />
    <glyph glyph-name="uni1E93" unicode="&#x1e93;" horiz-adv-x="501" 
d="M38 0v105l244 280h-237v118h413v-101l-243 -281h247v-121h-424zM250 -231c-47 0 -81 33 -81 80s34 80 81 80c48 0 82 -33 82 -80c0 -46 -35 -80 -82 -80z" />
    <glyph glyph-name="k.ss01" horiz-adv-x="589" 
d="M573 0h-172l-196 242v-242h-134v744h134v-476l174 235h166l-195 -243z" />
    <glyph glyph-name="kcommaaccent.ss01" horiz-adv-x="589" 
d="M350 260l223 -260h-172l-196 242v-242h-134v744h134v-476l174 235h166zM321 -48c47 0 79 -30 79 -79c0 -27 -15 -52 -39 -96l-48 -87l-60 25l33 90c-26 11 -43 37 -43 70c0 45 32 77 78 77z" />
    <glyph glyph-name="kgreenlandic.ss01" horiz-adv-x="589" 
d="M573 0h-170l-198 242v-242h-134v503h134v-235l176 235h164l-195 -243z" />
    <glyph glyph-name="H_H" horiz-adv-x="1230" 
d="M575 427v298h138v-725h-138v303h-349v-303h-138v725h138v-298h349zM1004 725h137v-725h-137v303h-194v124h194v298z" />
    <glyph glyph-name="T_h" horiz-adv-x="1160" 
d="M904 514c119 0 195 -81 195 -208v-306h-134v278c0 73 -36 112 -102 112c-72 0 -122 -52 -122 -124v-266h-134v596h-219v-596h-138v596h-237v129h728v-297c35 57 91 86 163 86z" />
    <glyph glyph-name="lslash_lslash" horiz-adv-x="656" 
d="M630 555v-121l-91 -39v-395h-134v337l-151 -65v-272h-134v214l-90 -39v121l90 39v409h134v-351l151 65v286h134v-228z" />
    <glyph glyph-name="uni01F2.sc" horiz-adv-x="1320" 
d="M351 725c227 0 390 -152 390 -362c0 -211 -165 -363 -392 -363h-261v725h263zM350 131c149 0 251 93 251 232c0 141 -100 233 -249 233h-126v-465h124zM1000 117h278v-117h-455v96l273 347h-265v117h442v-93z" />
    <glyph glyph-name="uni01C5.sc" horiz-adv-x="1320" 
d="M1115 646h-125l-122 132h132l52 -61l52 61h133zM351 725c227 0 390 -152 390 -362c0 -211 -165 -363 -392 -363h-261v725h263zM350 131c149 0 251 93 251 232c0 141 -100 233 -249 233h-126v-465h124zM1000 117h278v-117h-455v96l273 347h-265v117h442v-93z" />
    <glyph glyph-name="uni01C8.sc" horiz-adv-x="1118" 
d="M228 725v-594h333v-131h-473v725h140zM920 560h130v-354c0 -132 -84 -215 -215 -215s-216 83 -216 214h132c0 -58 31 -91 84 -91s85 33 85 90v356z" />
    <glyph glyph-name="uni01CB.sc" horiz-adv-x="1339" 
d="M88 0v725h119l387 -495v495h135v-725h-118l-387 493v-493h-136zM1056 -9c-131 0 -216 83 -216 214h132c0 -58 31 -91 84 -91s85 33 85 90v356h130v-354c0 -132 -84 -215 -215 -215z" />
    <glyph glyph-name="a.sc" horiz-adv-x="647" 
d="M481 0l-41 111h-235l-41 -111h-141l224 560h153l224 -560h-143zM245 218h155l-71 189l-6 29l-7 -29z" />
    <glyph glyph-name="aacute.sc" horiz-adv-x="647" 
d="M476 744l-186 -129l-54 69l170 150zM481 0l-41 111h-235l-41 -111h-141l224 560h153l224 -560h-143zM245 218h155l-71 189l-6 29l-7 -29z" />
    <glyph glyph-name="abreve.sc" horiz-adv-x="647" 
d="M324 630c-148 0 -176 155 -176 155h102s12 -66 74 -66c63 0 75 66 75 66h102s-27 -155 -177 -155zM481 0l-41 111h-235l-41 -111h-141l224 560h153l224 -560h-143zM245 218h155l-71 189l-6 29l-7 -29z" />
    <glyph glyph-name="uni1EB7.sc" horiz-adv-x="647" 
d="M324 630c-148 0 -176 155 -176 155h102s12 -66 74 -66c63 0 75 66 75 66h102s-27 -155 -177 -155zM624 0h-143l-41 111h-235l-41 -111h-141l224 560h153zM245 218h155l-71 189l-6 29l-7 -29zM324 -71c48 0 82 -33 82 -80c0 -46 -35 -80 -82 -80s-81 33 -81 80
s34 80 81 80z" />
    <glyph glyph-name="uni01CE.sc" horiz-adv-x="647" 
d="M387 646h-125l-122 132h132l52 -61l52 61h133zM481 0l-41 111h-235l-41 -111h-141l224 560h153l224 -560h-143zM245 218h155l-71 189l-6 29l-7 -29z" />
    <glyph glyph-name="acircumflex.sc" horiz-adv-x="647" 
d="M328 708l-52 -61h-132l122 132h125l122 -132h-133zM481 0l-41 111h-235l-41 -111h-141l224 560h153l224 -560h-143zM245 218h155l-71 189l-6 29l-7 -29z" />
    <glyph glyph-name="uni1EAD.sc" horiz-adv-x="647" 
d="M328 708l-52 -61h-132l122 132h125l122 -132h-133zM624 0h-143l-41 111h-235l-41 -111h-141l224 560h153zM245 218h155l-71 189l-6 29l-7 -29zM324 -71c48 0 82 -33 82 -80c0 -46 -35 -80 -82 -80s-81 33 -81 80s34 80 81 80z" />
    <glyph glyph-name="uni0201.sc" horiz-adv-x="647" 
d="M369 806l-108 -199l-79 38l84 210zM438 607l-79 38l84 210l103 -49zM481 0l-41 111h-235l-41 -111h-141l224 560h153l224 -560h-143zM245 218h155l-71 189l-6 29l-7 -29z" />
    <glyph glyph-name="adieresis.sc" horiz-adv-x="647" 
d="M221 646c-42 0 -73 31 -73 72c0 42 31 72 73 72c43 0 74 -28 74 -72c0 -41 -32 -72 -74 -72zM427 646c-42 0 -73 30 -73 72s31 72 73 72c43 0 74 -29 74 -72c0 -41 -32 -72 -74 -72zM481 0l-41 111h-235l-41 -111h-141l224 560h153l224 -560h-143zM245 218h155l-71 189
l-6 29l-7 -29z" />
    <glyph glyph-name="uni1EA1.sc" horiz-adv-x="647" 
d="M624 0h-143l-41 111h-235l-41 -111h-141l224 560h153zM245 218h155l-71 189l-6 29l-7 -29zM324 -71c48 0 82 -33 82 -80c0 -46 -35 -80 -82 -80s-81 33 -81 80s34 80 81 80z" />
    <glyph glyph-name="agrave.sc" horiz-adv-x="647" 
d="M412 684l-54 -69l-186 129l70 90zM481 0l-41 111h-235l-41 -111h-141l224 560h153l224 -560h-143zM245 218h155l-71 189l-6 29l-7 -29z" />
    <glyph glyph-name="amacron.sc" horiz-adv-x="647" 
d="M511 762v-102h-373v102h373zM481 0l-41 111h-235l-41 -111h-141l224 560h153l224 -560h-143zM245 218h155l-71 189l-6 29l-7 -29z" />
    <glyph glyph-name="aogonek.sc" horiz-adv-x="647" 
d="M641 -127l24 -95s-34 -18 -91 -18c-81 0 -136 48 -136 121c0 56 36 95 68 119h-25l-41 111h-235l-41 -111h-141l224 560h153l224 -560s-74 -31 -74 -90c0 -28 20 -48 50 -48c24 0 41 11 41 11zM245 218h155l-71 189l-6 29l-7 -29z" />
    <glyph glyph-name="aring.sc" horiz-adv-x="647" 
d="M324 612c-72 0 -124 51 -124 122c0 72 52 123 124 123s124 -51 124 -123c0 -71 -52 -122 -124 -122zM324 773c-22 0 -38 -16 -38 -39c0 -22 16 -38 38 -38c23 0 40 16 40 38c0 23 -17 39 -40 39zM481 0l-41 111h-235l-41 -111h-141l224 560h153l224 -560h-143zM245 218
h155l-71 189l-6 29l-7 -29z" />
    <glyph glyph-name="atilde.sc" horiz-adv-x="647" 
d="M234 681c-54 0 -89 -37 -89 -37v103s31 36 95 36c76 0 110 -50 172 -50c53 0 88 36 88 36v-103s-30 -35 -95 -35c-74 0 -109 50 -171 50zM481 0l-41 111h-235l-41 -111h-141l224 560h153l224 -560h-143zM245 218h155l-71 189l-6 29l-7 -29z" />
    <glyph glyph-name="ae.sc" horiz-adv-x="891" 
d="M577 112h261v-112h-390v111h-206l-69 -111h-154l374 560h441v-111h-257v-117h241v-101h-241v-119zM309 218h139v222z" />
    <glyph glyph-name="aeacute.sc" horiz-adv-x="891" 
d="M638 741l-186 -129l-54 69l170 150zM577 112h261v-112h-390v111h-206l-69 -111h-154l374 560h441v-111h-257v-117h241v-101h-241v-119zM309 218h139v222z" />
    <glyph glyph-name="b.sc" horiz-adv-x="570" 
d="M404 284c82 -11 122 -60 122 -124c0 -98 -79 -160 -203 -160h-247v560h231c121 0 198 -59 198 -152c0 -56 -31 -105 -101 -121v-3zM305 453h-100v-121h100c48 0 75 22 75 60c0 39 -27 61 -75 61zM313 108c53 0 83 22 83 62c0 39 -31 62 -86 62h-105v-124h108z" />
    <glyph glyph-name="c.sc" horiz-adv-x="638" 
d="M481 356c-29 62 -76 91 -143 91c-95 0 -163 -68 -163 -167c0 -100 68 -166 161 -166c73 0 122 30 149 94l122 -47c-45 -103 -140 -170 -272 -170c-166 0 -292 120 -292 289c0 166 125 289 295 289c128 0 216 -65 265 -166z" />
    <glyph glyph-name="cacute.sc" horiz-adv-x="638" 
d="M250 684l170 150l70 -90l-186 -129zM481 356c-29 62 -76 91 -143 91c-95 0 -163 -68 -163 -167c0 -100 68 -166 161 -166c73 0 122 30 149 94l122 -47c-45 -103 -140 -170 -272 -170c-166 0 -292 120 -292 289c0 166 125 289 295 289c128 0 216 -65 265 -166z" />
    <glyph glyph-name="ccaron.sc" horiz-adv-x="638" 
d="M276 646l-122 132h132l52 -61l52 61h133l-122 -132h-125zM481 356c-29 62 -76 91 -143 91c-95 0 -163 -68 -163 -167c0 -100 68 -166 161 -166c73 0 122 30 149 94l122 -47c-45 -103 -140 -170 -272 -170c-166 0 -292 120 -292 289c0 166 125 289 295 289
c128 0 216 -65 265 -166z" />
    <glyph glyph-name="ccedilla.sc" horiz-adv-x="638" 
d="M607 161c-41 -93 -122 -157 -234 -168l-3 -23h2c46 0 90 -34 90 -95c0 -70 -56 -115 -141 -115c-76 0 -116 37 -116 37l47 77s22 -22 62 -22c28 0 45 13 45 33c0 19 -14 31 -41 31c-21 0 -35 -6 -35 -6l10 84c-145 18 -250 132 -250 286c0 166 125 289 295 289
c128 0 216 -65 265 -166l-122 -47c-29 62 -76 91 -143 91c-95 0 -163 -68 -163 -167c0 -100 68 -166 161 -166c73 0 122 30 149 94z" />
    <glyph glyph-name="ccircumflex.sc" horiz-adv-x="638" 
d="M280 779h125l122 -132h-133l-52 61l-52 -61h-132zM481 356c-29 62 -76 91 -143 91c-95 0 -163 -68 -163 -167c0 -100 68 -166 161 -166c73 0 122 30 149 94l122 -47c-45 -103 -140 -170 -272 -170c-166 0 -292 120 -292 289c0 166 125 289 295 289
c128 0 216 -65 265 -166z" />
    <glyph glyph-name="cdotaccent.sc" horiz-adv-x="638" 
d="M338 638c-47 0 -81 33 -81 80s34 80 81 80c48 0 82 -33 82 -80c0 -46 -35 -80 -82 -80zM481 356c-29 62 -76 91 -143 91c-95 0 -163 -68 -163 -167c0 -100 68 -166 161 -166c73 0 122 30 149 94l122 -47c-45 -103 -140 -170 -272 -170c-166 0 -292 120 -292 289
c0 166 125 289 295 289c128 0 216 -65 265 -166z" />
    <glyph glyph-name="d.sc" horiz-adv-x="645" 
d="M294 560c179 0 308 -118 308 -280c0 -163 -130 -280 -309 -280h-215v560h216zM470 280c1 96 -69 159 -176 159h-87v-317h86c106 0 177 63 177 158z" />
    <glyph glyph-name="eth.sc" horiz-adv-x="664" 
d="M314 560c179 0 308 -118 308 -280c0 -163 -131 -280 -310 -280h-214v241h-68v77h68v242h216zM313 122c107 0 178 63 178 158c0 96 -70 159 -176 159h-87v-121h113v-77h-113v-119h85z" />
    <glyph glyph-name="dcaron.sc" horiz-adv-x="645" 
d="M398 646h-125l-122 132h132l52 -61l52 61h133zM294 560c179 0 308 -118 308 -280c0 -163 -130 -280 -309 -280h-215v560h216zM470 280c1 96 -69 159 -176 159h-87v-317h86c106 0 177 63 177 158z" />
    <glyph glyph-name="dcroat.sc" horiz-adv-x="664" 
d="M314 560c179 0 308 -118 308 -280c0 -163 -131 -280 -310 -280h-214v241h-68v77h68v242h216zM313 122c107 0 178 63 178 158c0 96 -70 159 -176 159h-87v-121h113v-77h-113v-119h85z" />
    <glyph glyph-name="uni1E0D.sc" horiz-adv-x="645" 
d="M294 560c179 0 308 -118 308 -280c0 -163 -130 -280 -309 -280h-215v560h216zM470 280c1 96 -69 159 -176 159h-87v-317h86c106 0 177 63 177 158zM335 -71c48 0 82 -33 82 -80c0 -46 -35 -80 -82 -80s-81 33 -81 80s34 80 81 80z" />
    <glyph glyph-name="uni01F3.sc" horiz-adv-x="1154" 
d="M294 560c179 0 308 -118 308 -280c0 -163 -130 -280 -309 -280h-215v560h216zM834 117h278v-117h-455v96l273 347h-265v117h442v-93zM470 280c1 96 -69 159 -176 159h-87v-317h86c106 0 177 63 177 158z" />
    <glyph glyph-name="uni01C6.sc" horiz-adv-x="1154" 
d="M949 646h-125l-122 132h132l52 -61l52 61h133zM294 560c179 0 308 -118 308 -280c0 -163 -130 -280 -309 -280h-215v560h216zM834 117h278v-117h-455v96l273 347h-265v117h442v-93zM470 280c1 96 -69 159 -176 159h-87v-317h86c106 0 177 63 177 158z" />
    <glyph glyph-name="e.sc" horiz-adv-x="526" 
d="M205 112h268v-112h-397v560h394v-111h-265v-117h248v-101h-248v-119z" />
    <glyph glyph-name="eacute.sc" horiz-adv-x="526" 
d="M425 744l-186 -129l-54 69l170 150zM205 112h268v-112h-397v560h394v-111h-265v-117h248v-101h-248v-119z" />
    <glyph glyph-name="ebreve.sc" horiz-adv-x="526" 
d="M273 630c-148 0 -176 155 -176 155h102s12 -66 74 -66c63 0 75 66 75 66h102s-27 -155 -177 -155zM205 112h268v-112h-397v560h394v-111h-265v-117h248v-101h-248v-119z" />
    <glyph glyph-name="ecaron.sc" horiz-adv-x="526" 
d="M336 646h-125l-122 132h132l52 -61l52 61h133zM205 112h268v-112h-397v560h394v-111h-265v-117h248v-101h-248v-119z" />
    <glyph glyph-name="ecircumflex.sc" horiz-adv-x="526" 
d="M277 708l-52 -61h-132l122 132h125l122 -132h-133zM205 112h268v-112h-397v560h394v-111h-265v-117h248v-101h-248v-119z" />
    <glyph glyph-name="uni1EC7.sc" horiz-adv-x="526" 
d="M277 708l-52 -61h-132l122 132h125l122 -132h-133zM205 112h268v-112h-397v560h394v-111h-265v-117h248v-101h-248v-119zM274 -71c48 0 82 -33 82 -80c0 -46 -35 -80 -82 -80s-81 33 -81 80s34 80 81 80z" />
    <glyph glyph-name="uni0205.sc" horiz-adv-x="526" 
d="M318 806l-108 -199l-79 38l84 210zM387 607l-79 38l84 210l103 -49zM205 231v-119h268v-112h-397v560h394v-111h-265v-117h248v-101h-248z" />
    <glyph glyph-name="edieresis.sc" horiz-adv-x="526" 
d="M170 646c-42 0 -73 31 -73 72c0 42 31 72 73 72c43 0 74 -28 74 -72c0 -41 -32 -72 -74 -72zM376 646c-42 0 -73 30 -73 72s31 72 73 72c43 0 74 -29 74 -72c0 -41 -32 -72 -74 -72zM205 112h268v-112h-397v560h394v-111h-265v-117h248v-101h-248v-119z" />
    <glyph glyph-name="edotaccent.sc" horiz-adv-x="526" 
d="M273 638c-47 0 -81 33 -81 80s34 80 81 80c48 0 82 -33 82 -80c0 -46 -35 -80 -82 -80zM205 112h268v-112h-397v560h394v-111h-265v-117h248v-101h-248v-119z" />
    <glyph glyph-name="uni1EB9.sc" horiz-adv-x="526" 
d="M205 112h268v-112h-397v560h394v-111h-265v-117h248v-101h-248v-119zM274 -71c48 0 82 -33 82 -80c0 -46 -35 -80 -82 -80s-81 33 -81 80s34 80 81 80z" />
    <glyph glyph-name="egrave.sc" horiz-adv-x="526" 
d="M361 684l-54 -69l-186 129l70 90zM205 112h268v-112h-397v560h394v-111h-265v-117h248v-101h-248v-119z" />
    <glyph glyph-name="emacron.sc" horiz-adv-x="526" 
d="M460 762v-102h-373v102h373zM205 112h268v-112h-397v560h394v-111h-265v-117h248v-101h-248v-119z" />
    <glyph glyph-name="eogonek.sc" horiz-adv-x="526" 
d="M490 -127l24 -95s-34 -18 -91 -18c-81 0 -136 48 -136 121c0 56 36 95 68 119h-279v560h394v-111h-265v-117h248v-101h-248v-119h268v-112s-74 -31 -74 -90c0 -28 20 -48 50 -48c24 0 41 11 41 11z" />
    <glyph glyph-name="uni1EBD.sc" horiz-adv-x="526" 
d="M183 681c-54 0 -89 -37 -89 -37v103s31 36 95 36c76 0 110 -50 172 -50c53 0 88 36 88 36v-103s-30 -35 -95 -35c-74 0 -109 50 -171 50zM205 112h268v-112h-397v560h394v-111h-265v-117h248v-101h-248v-119z" />
    <glyph glyph-name="f.sc" horiz-adv-x="495" 
d="M458 449h-253v-130h227v-106h-227v-213h-129v560h382v-111z" />
    <glyph glyph-name="g.sc" horiz-adv-x="668" 
d="M336 -9c-167 0 -293 120 -293 289c0 166 125 289 295 289c119 0 214 -57 261 -149l-125 -47c-28 50 -75 75 -136 75c-95 0 -163 -69 -163 -168c0 -100 67 -167 162 -167c80 0 140 44 153 112h-170v89h305s4 -14 4 -34c0 -169 -119 -289 -293 -289z" />
    <glyph glyph-name="uni01F5.sc" horiz-adv-x="668" 
d="M250 684l170 150l70 -90l-186 -129zM336 -9c-167 0 -293 120 -293 289c0 166 125 289 295 289c119 0 214 -57 261 -149l-125 -47c-28 50 -75 75 -136 75c-95 0 -163 -69 -163 -168c0 -100 67 -167 162 -167c80 0 140 44 153 112h-170v89h305s4 -14 4 -34
c0 -169 -119 -289 -293 -289z" />
    <glyph glyph-name="gbreve.sc" horiz-adv-x="668" 
d="M338 630c-148 0 -176 155 -176 155h102s12 -66 74 -66c63 0 75 66 75 66h102s-27 -155 -177 -155zM336 -9c-167 0 -293 120 -293 289c0 166 125 289 295 289c119 0 214 -57 261 -149l-125 -47c-28 50 -75 75 -136 75c-95 0 -163 -69 -163 -168c0 -100 67 -167 162 -167
c80 0 140 44 153 112h-170v89h305s4 -14 4 -34c0 -169 -119 -289 -293 -289z" />
    <glyph glyph-name="gcircumflex.sc" horiz-adv-x="668" 
d="M280 779h125l122 -132h-133l-52 61l-52 -61h-132zM336 -9c-167 0 -293 120 -293 289c0 166 125 289 295 289c119 0 214 -57 261 -149l-125 -47c-28 50 -75 75 -136 75c-95 0 -163 -69 -163 -168c0 -100 67 -167 162 -167c80 0 140 44 153 112h-170v89h305s4 -14 4 -34
c0 -169 -119 -289 -293 -289z" />
    <glyph glyph-name="gcommaaccent.sc" horiz-adv-x="668" 
d="M625 314c0 0 4 -14 4 -34c0 -169 -119 -289 -293 -289c-167 0 -293 120 -293 289c0 166 125 289 295 289c119 0 214 -57 261 -149l-125 -47c-28 50 -75 75 -136 75c-95 0 -163 -69 -163 -168c0 -100 67 -167 162 -167c80 0 140 44 153 112h-170v89h305zM335 -48
c47 0 79 -30 79 -79c0 -27 -15 -52 -39 -96l-48 -87l-60 25l33 90c-26 11 -43 37 -43 70c0 45 32 77 78 77z" />
    <glyph glyph-name="gdotaccent.sc" horiz-adv-x="668" 
d="M338 638c-47 0 -81 33 -81 80s34 80 81 80c48 0 82 -33 82 -80c0 -46 -35 -80 -82 -80zM336 -9c-167 0 -293 120 -293 289c0 166 125 289 295 289c119 0 214 -57 261 -149l-125 -47c-28 50 -75 75 -136 75c-95 0 -163 -69 -163 -168c0 -100 67 -167 162 -167
c80 0 140 44 153 112h-170v89h305s4 -14 4 -34c0 -169 -119 -289 -293 -289z" />
    <glyph glyph-name="h.sc" horiz-adv-x="656" 
d="M450 560h129v-560h-129v226h-243v-226h-129v560h129v-223h243v223z" />
    <glyph glyph-name="hbar.sc" horiz-adv-x="689" 
d="M656 489v-77h-61v-412h-129v226h-243v-226h-129v412h-61v77h61v71h129v-71h243v71h129v-71h61zM466 337v75h-243v-75h243z" />
    <glyph glyph-name="hcircumflex.sc" horiz-adv-x="656" 
d="M332 708l-52 -61h-132l122 132h125l122 -132h-133zM450 560h129v-560h-129v226h-243v-226h-129v560h129v-223h243v223z" />
    <glyph glyph-name="uni1E25.sc" horiz-adv-x="656" 
d="M450 560h129v-560h-129v226h-243v-226h-129v560h129v-223h243v223zM328 -71c48 0 82 -33 82 -80c0 -46 -35 -80 -82 -80s-81 33 -81 80s34 80 81 80z" />
    <glyph glyph-name="i.sc" horiz-adv-x="284" 
d="M76 0v560h132v-560h-132z" />
    <glyph glyph-name="iacute.sc" horiz-adv-x="284" 
d="M53 684l170 150l70 -90l-186 -129zM76 0v560h132v-560h-132z" />
    <glyph glyph-name="ibreve.sc" horiz-adv-x="284" 
d="M141 630c-148 0 -176 155 -176 155h102s12 -66 74 -66c63 0 75 66 75 66h102s-27 -155 -177 -155zM76 0v560h132v-560h-132z" />
    <glyph glyph-name="uni01D0.sc" horiz-adv-x="284" 
d="M79 646l-122 132h132l52 -61l52 61h133l-122 -132h-125zM76 0v560h132v-560h-132z" />
    <glyph glyph-name="icircumflex.sc" horiz-adv-x="284" 
d="M83 779h125l122 -132h-133l-52 61l-52 -61h-132zM76 0v560h132v-560h-132z" />
    <glyph glyph-name="uni0209.sc" horiz-adv-x="284" 
d="M-1 645l84 210l103 -49l-108 -199zM176 645l84 210l103 -49l-108 -199zM76 0v560h132v-560h-132z" />
    <glyph glyph-name="idieresis.sc" horiz-adv-x="284" 
d="M38 646c-42 0 -73 31 -73 72c0 42 31 72 73 72c43 0 74 -28 74 -72c0 -41 -32 -72 -74 -72zM244 646c-42 0 -73 30 -73 72s31 72 73 72c43 0 74 -29 74 -72c0 -41 -32 -72 -74 -72zM76 0v560h132v-560h-132z" />
    <glyph glyph-name="i.sc.loclTRK" horiz-adv-x="284" 
d="M141 638c-47 0 -81 33 -81 80s34 80 81 80c48 0 82 -33 82 -80c0 -46 -35 -80 -82 -80zM76 0v560h132v-560h-132z" />
    <glyph glyph-name="uni1ECB.sc" horiz-adv-x="284" 
d="M76 0v560h132v-560h-132zM141 -231c-47 0 -81 33 -81 80s34 80 81 80c48 0 82 -33 82 -80c0 -46 -35 -80 -82 -80z" />
    <glyph glyph-name="igrave.sc" horiz-adv-x="284" 
d="M229 684l-54 -69l-186 129l70 90zM76 0v560h132v-560h-132z" />
    <glyph glyph-name="ij.sc" horiz-adv-x="777" 
d="M76 0v560h132v-560h-132zM494 -9c-131 0 -216 83 -216 214h132c0 -58 31 -91 84 -91s85 33 85 90v356h130v-354c0 -132 -84 -215 -215 -215z" />
    <glyph glyph-name="imacron.sc" horiz-adv-x="284" 
d="M-45 660v102h373v-102h-373zM76 0v560h132v-560h-132z" />
    <glyph glyph-name="iogonek.sc" horiz-adv-x="284" 
d="M225 -127l24 -95s-34 -18 -91 -18c-81 0 -136 48 -136 121c0 56 36 95 68 119h-14v560h132v-560s-74 -31 -74 -90c0 -28 20 -48 50 -48c24 0 41 11 41 11z" />
    <glyph glyph-name="itilde.sc" horiz-adv-x="284" 
d="M317 769v-103s-30 -35 -95 -35c-74 0 -109 50 -171 50c-54 0 -89 -37 -89 -37v103s31 36 95 36c76 0 110 -50 172 -50c53 0 88 36 88 36zM76 0v560h132v-560h-132z" />
    <glyph glyph-name="j.sc" horiz-adv-x="531" 
d="M248 -9c-131 0 -216 83 -216 214h132c0 -58 31 -91 84 -91s85 33 85 90v356h130v-354c0 -132 -84 -215 -215 -215z" />
    <glyph glyph-name="jcircumflex.sc" horiz-adv-x="531" 
d="M339 779h125l122 -132h-133l-52 61l-52 -61h-132zM248 -9c-131 0 -216 83 -216 214h132c0 -58 31 -91 84 -91s85 33 85 90v356h130v-354c0 -132 -84 -215 -215 -215z" />
    <glyph glyph-name="k.sc" horiz-adv-x="605" 
d="M581 0h-151l-114 201l-133 -201h-105v560h129v-301l-6 -60l23 60l183 301h150l-163 -254z" />
    <glyph glyph-name="kcommaaccent.sc" horiz-adv-x="605" 
d="M394 306l187 -306h-151l-114 201l-133 -201h-105v560h129v-301l-6 -60l23 60l183 301h150zM331 -48c47 0 79 -30 79 -79c0 -27 -15 -52 -39 -96l-48 -87l-60 25l33 90c-26 11 -43 37 -43 70c0 45 32 77 78 77z" />
    <glyph glyph-name="l.sc" horiz-adv-x="484" 
d="M207 122h247v-122h-378v560h131v-438z" />
    <glyph glyph-name="lacute.sc" horiz-adv-x="484" 
d="M293 744l-186 -129l-54 69l170 150zM207 122h247v-122h-378v560h131v-438z" />
    <glyph glyph-name="lcaron.sc" horiz-adv-x="484" 
d="M308 429c-25 11 -41 36 -41 67c0 43 31 74 75 74c45 0 76 -29 76 -76c0 -26 -14 -50 -37 -93l-47 -84l-58 25zM207 122h247v-122h-378v560h131v-438z" />
    <glyph glyph-name="lcommaaccent.sc" horiz-adv-x="484" 
d="M207 122h247v-122h-378v560h131v-438zM264 -48c47 0 79 -30 79 -79c0 -27 -15 -52 -39 -96l-48 -87l-60 25l33 90c-26 11 -43 37 -43 70c0 45 32 77 78 77z" />
    <glyph glyph-name="ldot.sc" horiz-adv-x="488" 
d="M207 122h247v-122h-378v560h131v-438zM342 189c-46 0 -79 32 -79 79c0 45 34 78 79 78c47 0 79 -32 79 -78s-33 -79 -79 -79z" />
    <glyph glyph-name="uni01C9.sc" horiz-adv-x="1001" 
d="M207 560v-438h247v-122h-378v560h131zM803 560h130v-354c0 -132 -84 -215 -215 -215s-216 83 -216 214h132c0 -58 31 -91 84 -91s85 33 85 90v356z" />
    <glyph glyph-name="lslash.sc" horiz-adv-x="506" 
d="M229 122h248v-122h-378v172l-67 -35v108l67 35v280h130v-213l86 44v-107l-86 -45v-117z" />
    <glyph glyph-name="m.sc" horiz-adv-x="822" 
d="M76 0v560h107l228 -379l228 379h106v-560h-122v320l-192 -320h-40l-192 320v-320h-123z" />
    <glyph glyph-name="n.sc" horiz-adv-x="667" 
d="M76 0v560h112l276 -345v345h127v-560h-112l-276 342v-342h-127z" />
    <glyph glyph-name="nacute.sc" horiz-adv-x="667" 
d="M246 684l170 150l70 -90l-186 -129zM76 0v560h112l276 -345v345h127v-560h-112l-276 342v-342h-127z" />
    <glyph glyph-name="ncaron.sc" horiz-adv-x="667" 
d="M272 646l-122 132h132l52 -61l52 61h133l-122 -132h-125zM76 0v560h112l276 -345v345h127v-560h-112l-276 342v-342h-127z" />
    <glyph glyph-name="ncommaaccent.sc" horiz-adv-x="667" 
d="M464 560h127v-560h-112l-276 342v-342h-127v560h112l276 -345v345zM333 -48c47 0 79 -30 79 -79c0 -27 -15 -52 -39 -96l-48 -87l-60 25l33 90c-26 11 -43 37 -43 70c0 45 32 77 78 77z" />
    <glyph glyph-name="uni1E45.sc" horiz-adv-x="667" 
d="M334 638c-47 0 -81 33 -81 80s34 80 81 80c48 0 82 -33 82 -80c0 -46 -35 -80 -82 -80zM76 0v560h112l276 -345v345h127v-560h-112l-276 342v-342h-127z" />
    <glyph glyph-name="eng.sc" horiz-adv-x="667" 
d="M464 560h127v-562c0 -110 -57 -171 -162 -171c-66 0 -107 20 -107 20l34 107s23 -13 58 -13c36 0 51 16 51 57v19l-262 325v-342h-127v560h112l276 -345v345z" />
    <glyph glyph-name="uni01CC.sc" horiz-adv-x="1160" 
d="M76 0v560h112l276 -345v345h127v-560h-112l-276 342v-342h-127zM877 -9c-131 0 -216 83 -216 214h132c0 -58 31 -91 84 -91s85 33 85 90v356h130v-354c0 -132 -84 -215 -215 -215z" />
    <glyph glyph-name="ntilde.sc" horiz-adv-x="667" 
d="M510 769v-103s-30 -35 -95 -35c-74 0 -109 50 -171 50c-54 0 -89 -37 -89 -37v103s31 36 95 36c76 0 110 -50 172 -50c53 0 88 36 88 36zM76 0v560h112l276 -345v345h127v-560h-112l-276 342v-342h-127z" />
    <glyph glyph-name="o.sc" horiz-adv-x="686" 
d="M342 -9c-173 0 -299 120 -299 289c0 166 127 289 299 289c177 0 301 -118 301 -289c0 -167 -126 -289 -301 -289zM342 114c101 0 168 67 168 166c0 102 -67 167 -168 167c-99 0 -167 -68 -167 -167c0 -100 68 -166 167 -166z" />
    <glyph glyph-name="oacute.sc" horiz-adv-x="686" 
d="M254 684l170 150l70 -90l-186 -129zM342 -9c-173 0 -299 120 -299 289c0 166 127 289 299 289c177 0 301 -118 301 -289c0 -167 -126 -289 -301 -289zM342 114c101 0 168 67 168 166c0 102 -67 167 -168 167c-99 0 -167 -68 -167 -167c0 -100 68 -166 167 -166z" />
    <glyph glyph-name="obreve.sc" horiz-adv-x="686" 
d="M342 630c-148 0 -176 155 -176 155h102s12 -66 74 -66c63 0 75 66 75 66h102s-27 -155 -177 -155zM342 -9c-173 0 -299 120 -299 289c0 166 127 289 299 289c177 0 301 -118 301 -289c0 -167 -126 -289 -301 -289zM342 114c101 0 168 67 168 166c0 102 -67 167 -168 167
c-99 0 -167 -68 -167 -167c0 -100 68 -166 167 -166z" />
    <glyph glyph-name="uni01D2.sc" horiz-adv-x="686" 
d="M280 646l-122 132h132l52 -61l52 61h133l-122 -132h-125zM342 -9c-173 0 -299 120 -299 289c0 166 127 289 299 289c177 0 301 -118 301 -289c0 -167 -126 -289 -301 -289zM342 114c101 0 168 67 168 166c0 102 -67 167 -168 167c-99 0 -167 -68 -167 -167
c0 -100 68 -166 167 -166z" />
    <glyph glyph-name="ocircumflex.sc" horiz-adv-x="686" 
d="M284 779h125l122 -132h-133l-52 61l-52 -61h-132zM342 -9c-173 0 -299 120 -299 289c0 166 127 289 299 289c177 0 301 -118 301 -289c0 -167 -126 -289 -301 -289zM342 114c101 0 168 67 168 166c0 102 -67 167 -168 167c-99 0 -167 -68 -167 -167
c0 -100 68 -166 167 -166z" />
    <glyph glyph-name="uni1ED9.sc" horiz-adv-x="686" 
d="M284 779h125l122 -132h-133l-52 61l-52 -61h-132zM342 -9c-173 0 -299 120 -299 289c0 166 127 289 299 289c177 0 301 -118 301 -289c0 -167 -126 -289 -301 -289zM342 114c101 0 168 67 168 166c0 102 -67 167 -168 167c-99 0 -167 -68 -167 -167
c0 -100 68 -166 167 -166zM342 -231c-47 0 -81 33 -81 80s34 80 81 80c48 0 82 -33 82 -80c0 -46 -35 -80 -82 -80z" />
    <glyph glyph-name="uni020D.sc" horiz-adv-x="686" 
d="M200 645l84 210l103 -49l-108 -199zM377 645l84 210l103 -49l-108 -199zM342 -9c-173 0 -299 120 -299 289c0 166 127 289 299 289c177 0 301 -118 301 -289c0 -167 -126 -289 -301 -289zM342 114c101 0 168 67 168 166c0 102 -67 167 -168 167c-99 0 -167 -68 -167 -167
c0 -100 68 -166 167 -166z" />
    <glyph glyph-name="odieresis.sc" horiz-adv-x="686" 
d="M239 646c-42 0 -73 31 -73 72c0 42 31 72 73 72c43 0 74 -28 74 -72c0 -41 -32 -72 -74 -72zM445 646c-42 0 -73 30 -73 72s31 72 73 72c43 0 74 -29 74 -72c0 -41 -32 -72 -74 -72zM342 -9c-173 0 -299 120 -299 289c0 166 127 289 299 289c177 0 301 -118 301 -289
c0 -167 -126 -289 -301 -289zM342 114c101 0 168 67 168 166c0 102 -67 167 -168 167c-99 0 -167 -68 -167 -167c0 -100 68 -166 167 -166z" />
    <glyph glyph-name="uni1ECD.sc" horiz-adv-x="686" 
d="M342 -9c-173 0 -299 120 -299 289c0 166 127 289 299 289c177 0 301 -118 301 -289c0 -167 -126 -289 -301 -289zM342 114c101 0 168 67 168 166c0 102 -67 167 -168 167c-99 0 -167 -68 -167 -167c0 -100 68 -166 167 -166zM342 -231c-47 0 -81 33 -81 80s34 80 81 80
c48 0 82 -33 82 -80c0 -46 -35 -80 -82 -80z" />
    <glyph glyph-name="ograve.sc" horiz-adv-x="686" 
d="M430 684l-54 -69l-186 129l70 90zM342 -9c-173 0 -299 120 -299 289c0 166 127 289 299 289c177 0 301 -118 301 -289c0 -167 -126 -289 -301 -289zM342 114c101 0 168 67 168 166c0 102 -67 167 -168 167c-99 0 -167 -68 -167 -167c0 -100 68 -166 167 -166z" />
    <glyph glyph-name="ohungarumlaut.sc" horiz-adv-x="686" 
d="M308 645l-79 -38l-108 199l103 49zM484 645l-79 -38l-108 199l103 49zM342 -9c-173 0 -299 120 -299 289c0 166 127 289 299 289c177 0 301 -118 301 -289c0 -167 -126 -289 -301 -289zM342 114c101 0 168 67 168 166c0 102 -67 167 -168 167c-99 0 -167 -68 -167 -167
c0 -100 68 -166 167 -166z" />
    <glyph glyph-name="omacron.sc" horiz-adv-x="686" 
d="M156 660v102h373v-102h-373zM342 -9c-173 0 -299 120 -299 289c0 166 127 289 299 289c177 0 301 -118 301 -289c0 -167 -126 -289 -301 -289zM342 114c101 0 168 67 168 166c0 102 -67 167 -168 167c-99 0 -167 -68 -167 -167c0 -100 68 -166 167 -166z" />
    <glyph glyph-name="uni01EB.sc" horiz-adv-x="686" 
d="M418 -1c-11 -5 -72 -35 -72 -89c0 -28 20 -48 50 -48c24 0 41 11 41 11l24 -95s-34 -18 -91 -18c-81 0 -136 48 -136 121c0 52 30 89 60 113c-148 20 -251 133 -251 286c0 166 127 289 299 289c177 0 301 -118 301 -289c0 -142 -91 -251 -225 -281zM175 280
c0 -100 68 -166 167 -166c101 0 168 67 168 166c0 102 -67 167 -168 167c-99 0 -167 -68 -167 -167z" />
    <glyph glyph-name="oslash.sc" horiz-adv-x="682" 
d="M535 507c66 -51 105 -131 105 -227c0 -167 -125 -286 -301 -289c-55 -1 -105 11 -148 33l-65 -91l-42 30l63 89c-67 51 -107 132 -107 228c0 166 128 289 299 289c58 0 109 -12 153 -34l65 91l42 -30zM173 280c0 -52 18 -94 49 -124l196 275c-23 11 -49 16 -79 16
c-98 0 -166 -68 -166 -167zM339 114c101 0 169 67 169 166c0 51 -17 93 -47 123l-196 -275c22 -9 47 -14 74 -14z" />
    <glyph glyph-name="oslashacute.sc" horiz-adv-x="682" 
d="M493 745l-186 -129l-54 69l170 150zM535 507c66 -51 105 -131 105 -227c0 -167 -125 -286 -301 -289c-55 -1 -105 11 -148 33l-65 -91l-42 30l63 89c-67 51 -107 132 -107 228c0 166 128 289 299 289c58 0 109 -12 153 -34l65 91l42 -30zM173 280c0 -52 18 -94 49 -124
l196 275c-23 11 -49 16 -79 16c-98 0 -166 -68 -166 -167zM339 114c101 0 169 67 169 166c0 51 -17 93 -47 123l-196 -275c22 -9 47 -14 74 -14z" />
    <glyph glyph-name="otilde.sc" horiz-adv-x="686" 
d="M518 769v-103s-30 -35 -95 -35c-74 0 -109 50 -171 50c-54 0 -89 -37 -89 -37v103s31 36 95 36c76 0 110 -50 172 -50c53 0 88 36 88 36zM342 -9c-173 0 -299 120 -299 289c0 166 127 289 299 289c177 0 301 -118 301 -289c0 -167 -126 -289 -301 -289zM342 114
c101 0 168 67 168 166c0 102 -67 167 -168 167c-99 0 -167 -68 -167 -167c0 -100 68 -166 167 -166z" />
    <glyph glyph-name="oe.sc" horiz-adv-x="935" 
d="M620 112h262v-112h-383l2 60c-41 -43 -97 -69 -169 -69c-168 0 -289 122 -289 289s123 289 289 289c72 0 129 -25 169 -67l-2 58h379v-111h-258v-117h242v-101h-242v-119zM340 114c99 0 163 67 164 166c0 100 -65 167 -164 167s-164 -68 -164 -167
c0 -101 64 -166 164 -166z" />
    <glyph glyph-name="p.sc" horiz-adv-x="554" 
d="M290 560c140 0 227 -77 227 -202c0 -122 -89 -201 -227 -201h-85v-157h-129v560h214zM290 276c60 0 96 31 96 82c0 52 -36 84 -95 84h-86v-166h85z" />
    <glyph glyph-name="thorn.sc" horiz-adv-x="554" 
d="M290 482c140 0 227 -77 227 -201c0 -123 -89 -201 -227 -201h-85v-80h-129v560h129v-78h85zM290 199c60 0 96 30 96 82s-36 83 -95 83h-86v-165h85z" />
    <glyph glyph-name="q.sc" horiz-adv-x="686" 
d="M643 280c0 -100 -45 -184 -119 -235l103 -172h-144l-72 125c-22 -5 -45 -7 -69 -7c-173 0 -299 120 -299 289c0 166 127 289 299 289c177 0 301 -118 301 -289zM175 280c0 -100 67 -166 167 -166c103 0 169 67 169 166c1 101 -67 167 -169 167c-99 0 -167 -68 -167 -167z
" />
    <glyph glyph-name="r.sc" horiz-adv-x="572" 
d="M385 0l-97 172h-83v-172h-129v560h220c141 0 227 -75 227 -193c0 -80 -43 -142 -115 -173l129 -194h-152zM205 443v-153h92c59 0 95 29 95 77s-35 76 -94 76h-93z" />
    <glyph glyph-name="racute.sc" horiz-adv-x="572" 
d="M451 744l-186 -129l-54 69l170 150zM385 0l-97 172h-83v-172h-129v560h220c141 0 227 -75 227 -193c0 -80 -43 -142 -115 -173l129 -194h-152zM205 443v-153h92c59 0 95 29 95 77s-35 76 -94 76h-93z" />
    <glyph glyph-name="rcaron.sc" horiz-adv-x="572" 
d="M362 646h-125l-122 132h132l52 -61l52 61h133zM385 0l-97 172h-83v-172h-129v560h220c141 0 227 -75 227 -193c0 -80 -43 -142 -115 -173l129 -194h-152zM205 443v-153h92c59 0 95 29 95 77s-35 76 -94 76h-93z" />
    <glyph glyph-name="rcommaaccent.sc" horiz-adv-x="572" 
d="M408 194l129 -194h-152l-97 172h-83v-172h-129v560h220c141 0 227 -75 227 -193c0 -80 -43 -142 -115 -173zM205 443v-153h92c59 0 95 29 95 77s-35 76 -94 76h-93zM306 -48c47 0 79 -30 79 -79c0 -27 -15 -52 -39 -96l-48 -87l-60 25l33 90c-26 11 -43 37 -43 70
c0 45 32 77 78 77z" />
    <glyph glyph-name="uni0211.sc" horiz-adv-x="572" 
d="M344 806l-108 -199l-79 38l84 210zM413 607l-79 38l84 210l103 -49zM385 0l-97 172h-83v-172h-129v560h220c141 0 227 -75 227 -193c0 -80 -43 -142 -115 -173l129 -194h-152zM205 443v-153h92c59 0 95 29 95 77s-35 76 -94 76h-93z" />
    <glyph glyph-name="uni1E5B.sc" horiz-adv-x="572" 
d="M288 172h-83v-172h-129v560h220c141 0 227 -75 227 -193c0 -80 -43 -142 -115 -173l129 -194h-152zM298 443h-93v-153h92c59 0 95 29 95 77s-35 76 -94 76zM307 -71c48 0 82 -33 82 -80c0 -46 -35 -80 -82 -80s-81 33 -81 80s34 80 81 80z" />
    <glyph glyph-name="s.sc" horiz-adv-x="496" 
d="M249 -9c-172 0 -206 151 -206 151l116 28s14 -73 88 -73c46 0 76 23 76 59c0 35 -26 54 -74 68l-58 17c-92 26 -140 81 -140 161c0 102 74 167 192 167c166 0 197 -132 197 -132l-114 -33s-11 60 -80 60c-42 0 -69 -21 -69 -54c0 -35 26 -54 78 -70l64 -19
c88 -27 135 -80 135 -159c0 -105 -81 -171 -205 -171z" />
    <glyph glyph-name="sacute.sc" horiz-adv-x="496" 
d="M155 684l170 150l70 -90l-186 -129zM249 -9c-172 0 -206 151 -206 151l116 28s14 -73 88 -73c46 0 76 23 76 59c0 35 -26 54 -74 68l-58 17c-92 26 -140 81 -140 161c0 102 74 167 192 167c166 0 197 -132 197 -132l-114 -33s-11 60 -80 60c-42 0 -69 -21 -69 -54
c0 -35 26 -54 78 -70l64 -19c88 -27 135 -80 135 -159c0 -105 -81 -171 -205 -171z" />
    <glyph glyph-name="scaron.sc" horiz-adv-x="496" 
d="M181 646l-122 132h132l52 -61l52 61h133l-122 -132h-125zM249 -9c-172 0 -206 151 -206 151l116 28s14 -73 88 -73c46 0 76 23 76 59c0 35 -26 54 -74 68l-58 17c-92 26 -140 81 -140 161c0 102 74 167 192 167c166 0 197 -132 197 -132l-114 -33s-11 60 -80 60
c-42 0 -69 -21 -69 -54c0 -35 26 -54 78 -70l64 -19c88 -27 135 -80 135 -159c0 -105 -81 -171 -205 -171z" />
    <glyph glyph-name="scedilla.sc" horiz-adv-x="496" 
d="M454 162c0 -94 -65 -157 -167 -169l-3 -23h2c46 0 90 -34 90 -95c0 -70 -56 -115 -141 -115c-76 0 -116 37 -116 37l47 77s22 -22 62 -22c28 0 45 13 45 33c0 19 -14 31 -41 31c-21 0 -35 -6 -35 -6l10 84c-136 22 -164 148 -164 148l116 28s14 -73 88 -73
c46 0 76 23 76 59c0 35 -26 54 -74 68l-58 17c-92 26 -140 81 -140 161c0 102 74 167 192 167c166 0 197 -132 197 -132l-114 -33s-11 60 -80 60c-42 0 -69 -21 -69 -54c0 -35 26 -54 78 -70l64 -19c88 -27 135 -80 135 -159z" />
    <glyph glyph-name="scircumflex.sc" horiz-adv-x="496" 
d="M185 779h125l122 -132h-133l-52 61l-52 -61h-132zM249 -9c-172 0 -206 151 -206 151l116 28s14 -73 88 -73c46 0 76 23 76 59c0 35 -26 54 -74 68l-58 17c-92 26 -140 81 -140 161c0 102 74 167 192 167c166 0 197 -132 197 -132l-114 -33s-11 60 -80 60
c-42 0 -69 -21 -69 -54c0 -35 26 -54 78 -70l64 -19c88 -27 135 -80 135 -159c0 -105 -81 -171 -205 -171z" />
    <glyph glyph-name="scommaaccent.sc" horiz-adv-x="496" 
d="M319 321c88 -27 135 -80 135 -159c0 -105 -81 -171 -205 -171c-172 0 -206 151 -206 151l116 28s14 -73 88 -73c46 0 76 23 76 59c0 35 -26 54 -74 68l-58 17c-92 26 -140 81 -140 161c0 102 74 167 192 167c166 0 197 -132 197 -132l-114 -33s-11 60 -80 60
c-42 0 -69 -21 -69 -54c0 -35 26 -54 78 -70zM248 -48c47 0 79 -30 79 -79c0 -27 -15 -52 -39 -96l-48 -87l-60 25l33 90c-26 11 -43 37 -43 70c0 45 32 77 78 77z" />
    <glyph glyph-name="uni1E63.sc" horiz-adv-x="496" 
d="M249 -9c-172 0 -206 151 -206 151l116 28s14 -73 88 -73c46 0 76 23 76 59c0 35 -26 54 -74 68l-58 17c-92 26 -140 81 -140 161c0 102 74 167 192 167c166 0 197 -132 197 -132l-114 -33s-11 60 -80 60c-42 0 -69 -21 -69 -54c0 -35 26 -54 78 -70l64 -19
c88 -27 135 -80 135 -159c0 -105 -81 -171 -205 -171zM249 -231c-47 0 -81 33 -81 80s34 80 81 80c48 0 82 -33 82 -80c0 -46 -35 -80 -82 -80z" />
    <glyph glyph-name="germandbls.sc" horiz-adv-x="569" 
d="M389 315v-3c88 -9 142 -64 142 -144c0 -103 -85 -168 -219 -168h-46v106h51c53 0 84 26 84 71c0 44 -32 70 -87 70h-28v86l82 86s-27 37 -86 37c-53 0 -85 -31 -85 -83v-373h-129v358c0 134 76 211 211 211c172 0 230 -137 230 -137z" />
    <glyph glyph-name="t.sc" horiz-adv-x="552" 
d="M523 560v-119h-183v-441h-129v441h-182v119h494z" />
    <glyph glyph-name="tbar.sc" horiz-adv-x="552" 
d="M523 441h-183v-143h87v-78h-87v-220h-129v220h-87v78h87v143h-182v119h494v-119z" />
    <glyph glyph-name="tcaron.sc" horiz-adv-x="552" 
d="M339 646h-125l-122 132h132l52 -61l52 61h133zM523 560v-119h-183v-441h-129v441h-182v119h494z" />
    <glyph glyph-name="uni0163.sc" horiz-adv-x="552" 
d="M523 560v-119h-183v-441h-129v441h-182v119h494zM312 -30c46 0 90 -34 90 -95c0 -70 -56 -115 -141 -115c-76 0 -116 37 -116 37l47 77s22 -22 62 -22c28 0 45 13 45 33c0 19 -14 31 -41 31c-21 0 -35 -6 -35 -6l10 87h80l-3 -27h2z" />
    <glyph glyph-name="uni021B.sc" horiz-adv-x="552" 
d="M523 560v-119h-183v-441h-129v441h-182v119h494zM274 -48c47 0 79 -30 79 -79c0 -27 -15 -52 -39 -96l-48 -87l-60 25l33 90c-26 11 -43 37 -43 70c0 45 32 77 78 77z" />
    <glyph glyph-name="uni1E6D.sc" horiz-adv-x="552" 
d="M523 560v-119h-183v-441h-129v441h-182v119h494zM275 -71c48 0 82 -33 82 -80c0 -46 -35 -80 -82 -80s-81 33 -81 80s34 80 81 80z" />
    <glyph glyph-name="u.sc" horiz-adv-x="636" 
d="M318 -9c-155 0 -254 99 -254 253v316h129v-317c0 -82 48 -130 126 -130c79 0 125 48 125 130v317h128v-316c0 -154 -97 -253 -254 -253z" />
    <glyph glyph-name="uacute.sc" horiz-adv-x="636" 
d="M229 684l170 150l70 -90l-186 -129zM318 -9c-155 0 -254 99 -254 253v316h129v-317c0 -82 48 -130 126 -130c79 0 125 48 125 130v317h128v-316c0 -154 -97 -253 -254 -253z" />
    <glyph glyph-name="ubreve.sc" horiz-adv-x="636" 
d="M317 630c-148 0 -176 155 -176 155h102s12 -66 74 -66c63 0 75 66 75 66h102s-27 -155 -177 -155zM318 -9c-155 0 -254 99 -254 253v316h129v-317c0 -82 48 -130 126 -130c79 0 125 48 125 130v317h128v-316c0 -154 -97 -253 -254 -253z" />
    <glyph glyph-name="uni01D4.sc" horiz-adv-x="636" 
d="M255 646l-122 132h132l52 -61l52 61h133l-122 -132h-125zM318 -9c-155 0 -254 99 -254 253v316h129v-317c0 -82 48 -130 126 -130c79 0 125 48 125 130v317h128v-316c0 -154 -97 -253 -254 -253z" />
    <glyph glyph-name="ucircumflex.sc" horiz-adv-x="636" 
d="M259 779h125l122 -132h-133l-52 61l-52 -61h-132zM318 -9c-155 0 -254 99 -254 253v316h129v-317c0 -82 48 -130 126 -130c79 0 125 48 125 130v317h128v-316c0 -154 -97 -253 -254 -253z" />
    <glyph glyph-name="uni0215.sc" horiz-adv-x="636" 
d="M175 645l84 210l103 -49l-108 -199zM352 645l84 210l103 -49l-108 -199zM318 -9c-155 0 -254 99 -254 253v316h129v-317c0 -82 48 -130 126 -130c79 0 125 48 125 130v317h128v-316c0 -154 -97 -253 -254 -253z" />
    <glyph glyph-name="udieresis.sc" horiz-adv-x="636" 
d="M214 646c-42 0 -73 31 -73 72c0 42 31 72 73 72c43 0 74 -28 74 -72c0 -41 -32 -72 -74 -72zM420 646c-42 0 -73 30 -73 72s31 72 73 72c43 0 74 -29 74 -72c0 -41 -32 -72 -74 -72zM318 -9c-155 0 -254 99 -254 253v316h129v-317c0 -82 48 -130 126 -130
c79 0 125 48 125 130v317h128v-316c0 -154 -97 -253 -254 -253z" />
    <glyph glyph-name="uni1EE5.sc" horiz-adv-x="636" 
d="M318 -9c-155 0 -254 99 -254 253v316h129v-317c0 -82 48 -130 126 -130c79 0 125 48 125 130v317h128v-316c0 -154 -97 -253 -254 -253zM318 -231c-47 0 -81 33 -81 80s34 80 81 80c48 0 82 -33 82 -80c0 -46 -35 -80 -82 -80z" />
    <glyph glyph-name="ugrave.sc" horiz-adv-x="636" 
d="M405 684l-54 -69l-186 129l70 90zM318 -9c-155 0 -254 99 -254 253v316h129v-317c0 -82 48 -130 126 -130c79 0 125 48 125 130v317h128v-316c0 -154 -97 -253 -254 -253z" />
    <glyph glyph-name="uhungarumlaut.sc" horiz-adv-x="636" 
d="M283 645l-79 -38l-108 199l103 49zM459 645l-79 -38l-108 199l103 49zM318 -9c-155 0 -254 99 -254 253v316h129v-317c0 -82 48 -130 126 -130c79 0 125 48 125 130v317h128v-316c0 -154 -97 -253 -254 -253z" />
    <glyph glyph-name="umacron.sc" horiz-adv-x="636" 
d="M131 660v102h373v-102h-373zM318 -9c-155 0 -254 99 -254 253v316h129v-317c0 -82 48 -130 126 -130c79 0 125 48 125 130v317h128v-316c0 -154 -97 -253 -254 -253z" />
    <glyph glyph-name="uogonek.sc" horiz-adv-x="636" 
d="M444 560h128v-316c0 -131 -71 -223 -189 -247c-17 -8 -68 -38 -68 -87c0 -28 20 -48 50 -48c24 0 41 11 41 11l24 -95s-34 -18 -91 -18c-81 0 -136 48 -136 121c0 53 31 90 62 114c-124 21 -201 114 -201 249v316h129v-317c0 -82 48 -130 126 -130c79 0 125 48 125 130
v317z" />
    <glyph glyph-name="uring.sc" horiz-adv-x="636" 
d="M317 612c-72 0 -124 51 -124 122c0 72 52 123 124 123s124 -51 124 -123c0 -71 -52 -122 -124 -122zM317 696c23 0 40 16 40 38c0 23 -17 39 -40 39c-22 0 -38 -16 -38 -39c0 -22 16 -38 38 -38zM318 -9c-155 0 -254 99 -254 253v316h129v-317c0 -82 48 -130 126 -130
c79 0 125 48 125 130v317h128v-316c0 -154 -97 -253 -254 -253z" />
    <glyph glyph-name="utilde.sc" horiz-adv-x="636" 
d="M493 769v-103s-30 -35 -95 -35c-74 0 -109 50 -171 50c-54 0 -89 -37 -89 -37v103s31 36 95 36c76 0 110 -50 172 -50c53 0 88 36 88 36zM318 -9c-155 0 -254 99 -254 253v316h129v-317c0 -82 48 -130 126 -130c79 0 125 48 125 130v317h128v-316
c0 -154 -97 -253 -254 -253z" />
    <glyph glyph-name="v.sc" horiz-adv-x="656" 
d="M257 0l-234 560h142l157 -397l7 -25l7 25l156 397h141l-233 -560h-143z" />
    <glyph glyph-name="w.sc" horiz-adv-x="880" 
d="M202 0l-176 560h138l105 -370l4 -40l5 40l99 370h129l97 -370l5 -40l5 40l105 370h136l-176 -560h-130l-103 390l-5 33l-5 -33l-101 -390h-132z" />
    <glyph glyph-name="wacute.sc" horiz-adv-x="880" 
d="M352 684l170 150l70 -90l-186 -129zM202 0l-176 560h138l105 -370l4 -40l5 40l99 370h129l97 -370l5 -40l5 40l105 370h136l-176 -560h-130l-103 390l-5 33l-5 -33l-101 -390h-132z" />
    <glyph glyph-name="wcircumflex.sc" horiz-adv-x="880" 
d="M382 779h125l122 -132h-133l-52 61l-52 -61h-132zM202 0l-176 560h138l105 -370l4 -40l5 40l99 370h129l97 -370l5 -40l5 40l105 370h136l-176 -560h-130l-103 390l-5 33l-5 -33l-101 -390h-132z" />
    <glyph glyph-name="wdieresis.sc" horiz-adv-x="880" 
d="M337 646c-42 0 -73 31 -73 72c0 42 31 72 73 72c43 0 74 -28 74 -72c0 -41 -32 -72 -74 -72zM543 646c-42 0 -73 30 -73 72s31 72 73 72c43 0 74 -29 74 -72c0 -41 -32 -72 -74 -72zM202 0l-176 560h138l105 -370l4 -40l5 40l99 370h129l97 -370l5 -40l5 40l105 370h136
l-176 -560h-130l-103 390l-5 33l-5 -33l-101 -390h-132z" />
    <glyph glyph-name="wgrave.sc" horiz-adv-x="880" 
d="M528 684l-54 -69l-186 129l70 90zM202 0l-176 560h138l105 -370l4 -40l5 40l99 370h129l97 -370l5 -40l5 40l105 370h136l-176 -560h-130l-103 390l-5 33l-5 -33l-101 -390h-132z" />
    <glyph glyph-name="x.sc" horiz-adv-x="617" 
d="M595 0h-157l-130 185l-129 -185h-157l205 283l-195 277h158l118 -178l117 178h157l-193 -277z" />
    <glyph glyph-name="y.sc" horiz-adv-x="612" 
d="M242 0v172l-222 388h152l130 -247l6 -18l4 18l131 247h148l-219 -388v-172h-130z" />
    <glyph glyph-name="yacute.sc" horiz-adv-x="612" 
d="M218 684l170 150l70 -90l-186 -129zM242 0v172l-222 388h152l130 -247l6 -18l4 18l131 247h148l-219 -388v-172h-130z" />
    <glyph glyph-name="ycircumflex.sc" horiz-adv-x="612" 
d="M248 779h125l122 -132h-133l-52 61l-52 -61h-132zM242 0v172l-222 388h152l130 -247l6 -18l4 18l131 247h148l-219 -388v-172h-130z" />
    <glyph glyph-name="ydieresis.sc" horiz-adv-x="612" 
d="M203 646c-42 0 -73 31 -73 72c0 42 31 72 73 72c43 0 74 -28 74 -72c0 -41 -32 -72 -74 -72zM409 646c-42 0 -73 30 -73 72s31 72 73 72c43 0 74 -29 74 -72c0 -41 -32 -72 -74 -72zM242 0v172l-222 388h152l130 -247l6 -18l4 18l131 247h148l-219 -388v-172h-130z" />
    <glyph glyph-name="uni1EF5.sc" horiz-adv-x="612" 
d="M242 0v172l-222 388h152l130 -247l6 -18l4 18l131 247h148l-219 -388v-172h-130zM306 -231c-47 0 -81 33 -81 80s34 80 81 80c48 0 82 -33 82 -80c0 -46 -35 -80 -82 -80z" />
    <glyph glyph-name="ygrave.sc" horiz-adv-x="612" 
d="M394 684l-54 -69l-186 129l70 90zM242 0v172l-222 388h152l130 -247l6 -18l4 18l131 247h148l-219 -388v-172h-130z" />
    <glyph glyph-name="uni1EF9.sc" horiz-adv-x="612" 
d="M482 769v-103s-30 -35 -95 -35c-74 0 -109 50 -171 50c-54 0 -89 -37 -89 -37v103s31 36 95 36c76 0 110 -50 172 -50c53 0 88 36 88 36zM242 0v172l-222 388h152l130 -247l6 -18l4 18l131 247h148l-219 -388v-172h-130z" />
    <glyph glyph-name="z.sc" horiz-adv-x="538" 
d="M41 0v96l273 347h-265v117h442v-93l-273 -350h278v-117h-455z" />
    <glyph glyph-name="zacute.sc" horiz-adv-x="538" 
d="M182 684l170 150l70 -90l-186 -129zM41 0v96l273 347h-265v117h442v-93l-273 -350h278v-117h-455z" />
    <glyph glyph-name="zcaron.sc" horiz-adv-x="538" 
d="M208 646l-122 132h132l52 -61l52 61h133l-122 -132h-125zM41 0v96l273 347h-265v117h442v-93l-273 -350h278v-117h-455z" />
    <glyph glyph-name="zdotaccent.sc" horiz-adv-x="538" 
d="M270 638c-47 0 -81 33 -81 80s34 80 81 80c48 0 82 -33 82 -80c0 -46 -35 -80 -82 -80zM41 0v96l273 347h-265v117h442v-93l-273 -350h278v-117h-455z" />
    <glyph glyph-name="uni1E93.sc" horiz-adv-x="538" 
d="M41 0v96l273 347h-265v117h442v-93l-273 -350h278v-117h-455zM268 -231c-47 0 -81 33 -81 80s34 80 81 80c48 0 82 -33 82 -80c0 -46 -35 -80 -82 -80z" />
    <glyph glyph-name="k.sc.ss01" horiz-adv-x="608" 
d="M584 0h-164l-213 271v-271h-129v560h129v-266l194 266h159l-214 -273z" />
    <glyph glyph-name="kcommaaccent.sc.ss01" horiz-adv-x="608" 
d="M346 287l238 -287h-164l-213 271v-271h-129v560h129v-266l194 266h159zM334 -48c47 0 79 -30 79 -79c0 -27 -15 -52 -39 -96l-48 -87l-60 25l33 90c-26 11 -43 37 -43 70c0 45 32 77 78 77z" />
    <glyph glyph-name="ordfeminine" unicode="&#xaa;" horiz-adv-x="413" 
d="M275 728h99v-328h-99v50c-21 -37 -56 -57 -102 -57c-90 0 -151 68 -151 171s61 172 153 172c45 0 79 -20 100 -57v49zM198 486c45 0 76 32 76 78c0 45 -31 78 -75 78s-73 -32 -73 -78s29 -78 72 -78z" />
    <glyph glyph-name="ordmasculine" unicode="&#xba;" horiz-adv-x="401" 
d="M201 394c-107 0 -182 70 -182 170c0 99 77 171 182 171c106 0 181 -70 181 -171c0 -99 -77 -170 -181 -170zM201 487c45 0 77 32 77 77c0 48 -31 78 -77 78s-78 -32 -78 -78c0 -45 31 -77 78 -77z" />
    <glyph glyph-name="k.sups.ss01" horiz-adv-x="387" 
d="M380 400h-124l-114 156v-156h-102v483h102v-306l101 151h120l-116 -158z" />
    <glyph glyph-name="a.sups" horiz-adv-x="413" 
d="M275 728h99v-328h-99v50c-21 -37 -56 -57 -102 -57c-90 0 -151 68 -151 171s61 172 153 172c45 0 79 -20 100 -57v49zM198 486c45 0 76 32 76 78c0 45 -31 78 -75 78s-73 -32 -73 -78s29 -78 72 -78z" />
    <glyph glyph-name="b.sups" horiz-adv-x="412" 
d="M240 736c90 0 151 -69 151 -170c0 -103 -62 -173 -153 -173c-48 0 -80 20 -100 55v-48h-99v483h102v-201c21 34 54 54 99 54zM214 486c44 0 74 33 74 80c0 45 -28 76 -73 76c-44 0 -77 -31 -77 -76c0 -47 32 -80 76 -80z" />
    <glyph glyph-name="c.sups" horiz-adv-x="367" 
d="M191 393c-98 0 -171 72 -171 173c0 96 74 170 177 170c67 0 123 -35 153 -95l-94 -36c-12 23 -33 36 -59 36c-44 0 -74 -31 -74 -75c0 -46 29 -77 71 -77c31 0 52 13 66 39l93 -37c-32 -63 -87 -98 -162 -98z" />
    <glyph glyph-name="d.sups" horiz-adv-x="413" 
d="M272 883h102v-483h-99v50c-20 -36 -54 -57 -102 -57c-90 0 -151 69 -151 171s64 172 153 172c45 0 77 -19 97 -52v199zM198 486c45 0 76 32 76 78c0 45 -31 78 -75 78s-73 -31 -73 -78c0 -46 29 -78 72 -78z" />
    <glyph glyph-name="e.sups" horiz-adv-x="378" 
d="M360 565c0 -19 -1 -34 -1 -34h-237c9 -38 35 -58 72 -58c32 0 53 12 66 36l86 -37c-35 -53 -86 -79 -154 -79c-99 0 -172 73 -172 172c0 98 75 171 177 171c97 0 163 -71 163 -171zM123 605l139 -1c-2 33 -28 53 -67 53c-36 0 -62 -17 -72 -52z" />
    <glyph glyph-name="f.sups" horiz-adv-x="290" 
d="M171 751v-23h106v-85h-106v-243h-102v243h-56v85h56v27c0 86 49 135 135 135c63 0 99 -31 99 -31l-33 -78s-19 20 -50 20c-35 0 -49 -16 -49 -50z" />
    <glyph glyph-name="g.sups" horiz-adv-x="407" 
d="M269 728h99v-324c0 -93 -64 -149 -168 -149c-85 0 -147 44 -161 114l98 13c6 -29 29 -46 63 -46c45 0 69 24 69 68v57c-20 -33 -53 -53 -101 -53c-88 0 -147 65 -147 164c0 98 60 164 149 164c46 0 79 -20 99 -53v45zM195 496c44 0 73 31 73 76s-29 75 -72 75
c-45 0 -71 -30 -71 -75c0 -46 26 -76 70 -76z" />
    <glyph glyph-name="h.sups" horiz-adv-x="400" 
d="M39 400v483h102v-210c19 40 57 63 104 63c75 0 123 -52 123 -133v-203h-102v177c0 42 -22 64 -58 64c-40 0 -67 -28 -67 -68v-173h-102z" />
    <glyph glyph-name="i.sups" horiz-adv-x="180" 
d="M90 772c-35 0 -61 24 -61 59s26 60 61 60c34 0 60 -24 60 -60c0 -33 -26 -59 -60 -59zM39 400v328h102v-328h-102z" />
    <glyph glyph-name="j.sups" horiz-adv-x="179" 
d="M89 773c-35 0 -60 24 -60 58c0 35 26 60 60 60c35 0 61 -24 61 -60c0 -33 -26 -58 -61 -58zM6 255c-17 0 -29 2 -29 2l8 87h8c32 0 46 16 46 51v333h102v-332c0 -91 -48 -141 -135 -141z" />
    <glyph glyph-name="k.sups" horiz-adv-x="387" 
d="M380 400h-111l-66 115l-81 -115h-83v483h102v-287l-4 -44l21 44l90 132h113l-102 -139z" />
    <glyph glyph-name="l.sups" horiz-adv-x="180" 
d="M39 400v483h102v-483h-102z" />
    <glyph glyph-name="m.sups" horiz-adv-x="601" 
d="M453 736c70 0 115 -52 115 -133v-203h-101v177c0 42 -19 64 -52 64c-37 0 -61 -28 -61 -68v-173h-101v177c0 42 -19 64 -52 64c-38 0 -60 -28 -60 -68v-173h-102v328h99v-59c18 42 55 67 101 67c48 0 82 -21 100 -66c25 42 65 66 114 66z" />
    <glyph glyph-name="n.sups" horiz-adv-x="399" 
d="M39 400v328h99v-59c20 42 58 67 106 67c75 0 122 -52 122 -133v-203h-101v177c0 42 -21 64 -58 64c-40 0 -66 -28 -66 -68v-173h-102z" />
    <glyph glyph-name="o.sups" horiz-adv-x="401" 
d="M201 394c-107 0 -182 70 -182 170c0 99 77 171 182 171c106 0 181 -70 181 -171c0 -99 -77 -170 -181 -170zM201 487c45 0 77 32 77 77c0 48 -31 78 -77 78s-78 -32 -78 -78c0 -45 31 -77 78 -77z" />
    <glyph glyph-name="p.sups" horiz-adv-x="412" 
d="M240 736c90 0 151 -69 151 -172c0 -102 -62 -171 -153 -171c-44 0 -76 20 -97 53v-186h-102v468h99v-49c20 36 54 57 102 57zM214 486c44 0 74 33 74 78c0 47 -33 78 -73 78c-45 0 -77 -31 -77 -78c0 -44 32 -78 76 -78z" />
    <glyph glyph-name="q.sups" horiz-adv-x="413" 
d="M275 728h99v-468h-102v186c-21 -33 -54 -53 -99 -53c-90 0 -151 69 -151 171c0 101 63 172 153 172c48 0 80 -19 100 -52v44zM198 486c44 0 76 32 76 78c0 47 -30 78 -75 78c-43 0 -73 -32 -73 -78c0 -47 27 -78 72 -78z" />
    <glyph glyph-name="r.sups" horiz-adv-x="273" 
d="M39 400v328h99v-76c14 52 51 82 102 82c8 0 15 -1 21 -2l-6 -102h-12c-73 0 -102 -33 -102 -111v-119h-102z" />
    <glyph glyph-name="s.sups" horiz-adv-x="311" 
d="M153 393c-119 0 -134 85 -134 85l86 25s9 -37 46 -37c25 0 39 8 39 27c0 21 -14 29 -42 35l-28 7c-61 14 -97 48 -97 98c0 63 51 103 131 103c110 0 130 -73 130 -73l-85 -29s-9 29 -43 29c-21 0 -34 -7 -34 -24c0 -20 15 -28 45 -34l32 -8c57 -13 94 -48 94 -97
c0 -66 -55 -107 -140 -107z" />
    <glyph glyph-name="t.sups" horiz-adv-x="313" 
d="M271 500l31 -86s-37 -21 -98 -21c-91 0 -135 43 -135 133v117h-56v85h56v86h102v-86h105v-85h-105v-109c0 -37 13 -51 47 -51c31 -1 53 17 53 17z" />
    <glyph glyph-name="u.sups" horiz-adv-x="390" 
d="M195 394c-104 0 -164 54 -164 150v184h102v-175c0 -42 22 -64 62 -64c39 0 62 22 62 64v175h101v-184c0 -96 -59 -150 -163 -150z" />
    <glyph glyph-name="v.sups" horiz-adv-x="399" 
d="M390 728l-135 -328h-110l-137 328h116l71 -196l5 -31l5 31l73 196h112z" />
    <glyph glyph-name="w.sups" horiz-adv-x="547" 
d="M434 728h103l-113 -328h-89l-56 182l-6 34l-5 -34l-51 -182h-92l-116 328h105l55 -182l7 -43l6 43l51 182h82l52 -182l6 -43l7 43z" />
    <glyph glyph-name="x.sups" horiz-adv-x="382" 
d="M375 400h-119l-65 94l-64 -94h-119l122 166l-116 162h118l59 -88l59 88h118l-116 -162z" />
    <glyph glyph-name="y.sups" horiz-adv-x="401" 
d="M76 260l72 149l-140 319h116l73 -195l5 -39l5 39l72 195h113l-196 -468h-120z" />
    <glyph glyph-name="z.sups" horiz-adv-x="324" 
d="M22 400v78l147 162h-143v88h274v-75l-146 -162h148v-91h-280z" />
    <glyph glyph-name="zero" unicode="0" horiz-adv-x="703" 
d="M353 -11c-180 0 -306 151 -306 363c0 211 129 363 306 363s304 -151 304 -363s-129 -363 -304 -363zM353 112c99 0 167 97 167 240s-67 240 -167 240c-101 0 -169 -98 -169 -240s68 -240 169 -240z" />
    <glyph glyph-name="one" unicode="1" horiz-adv-x="420" 
d="M203 0v532l-110 -81l-65 84l190 172h119v-707h-134z" />
    <glyph glyph-name="two" unicode="2" horiz-adv-x="550" 
d="M16 0v100l268 253c81 76 99 108 99 148c0 54 -43 93 -103 93c-68 0 -116 -43 -124 -116l-130 17c19 139 112 220 253 220c136 0 240 -87 240 -215c0 -76 -39 -138 -110 -202l-194 -176h303v-122h-502z" />
    <glyph glyph-name="three" unicode="3" horiz-adv-x="561" 
d="M379 364c83 -14 134 -84 134 -170c0 -120 -101 -205 -239 -205c-125 0 -216 66 -241 175l123 34c11 -56 55 -90 114 -90c67 0 108 37 108 98c0 62 -48 104 -119 104h-76v101h71c67 0 113 37 113 93c0 58 -39 93 -101 93c-51 0 -90 -31 -101 -77l-121 34
c26 100 113 161 231 161c130 0 224 -82 224 -195c0 -74 -44 -136 -120 -153v-3z" />
    <glyph glyph-name="four" unicode="4" horiz-adv-x="569" 
d="M554 243v-114h-88v-129h-132v129h-324v108l326 470h130v-464h88zM148 243h186v264z" />
    <glyph glyph-name="five" unicode="5" horiz-adv-x="573" 
d="M319 457c124 0 211 -98 211 -233c0 -137 -103 -235 -246 -235c-123 0 -211 64 -240 174l122 36c17 -59 58 -91 114 -91c70 0 114 44 114 115c0 72 -40 116 -104 116c-46 0 -80 -22 -97 -60l-129 37l31 391h397v-117h-281l-15 -180c27 30 70 47 123 47z" />
    <glyph glyph-name="six" unicode="6" horiz-adv-x="581" 
d="M298 455c132 0 241 -96 241 -233c0 -134 -104 -233 -248 -233s-248 99 -248 233c0 50 12 89 42 144l205 341h150l-154 -252h12zM291 108c67 0 113 46 113 114s-46 115 -113 115c-66 0 -113 -47 -113 -115s47 -114 113 -114z" />
    <glyph glyph-name="seven" unicode="7" horiz-adv-x="551" 
d="M86 0l276 581h-327v126h480v-103l-278 -604h-151z" />
    <glyph glyph-name="eight" unicode="8" horiz-adv-x="595" 
d="M435 364c73 -28 111 -84 111 -168c0 -121 -103 -207 -249 -207s-248 86 -248 207c0 84 38 140 110 168c-63 28 -96 79 -96 156c0 118 96 195 234 195s234 -77 234 -195c0 -77 -33 -128 -96 -156zM297 601c-66 0 -107 -35 -107 -91c0 -58 42 -94 107 -94
c66 0 107 36 107 94c0 56 -41 91 -107 91zM297 104c72 0 117 36 117 98s-46 102 -117 102c-70 0 -116 -40 -116 -102s45 -98 116 -98z" />
    <glyph glyph-name="nine" unicode="9" horiz-adv-x="581" 
d="M290 718c144 0 248 -99 248 -233c0 -50 -12 -89 -42 -144l-205 -341h-150l154 252h-12c-132 0 -241 96 -241 233c0 134 104 233 248 233zM177 485c0 -68 46 -115 113 -115c66 0 113 47 113 115s-47 114 -113 114c-67 0 -113 -46 -113 -114z" />
    <glyph glyph-name="uni24FF" unicode="&#x24ff;" 
d="M431 -11c217 0 382 161 382 374s-165 374 -382 373c-218 -1 -383 -162 -383 -373c0 -213 165 -374 383 -374zM431 126c-126 0 -213 99 -213 237c0 137 89 237 213 237s213 -99 213 -237s-91 -237 -213 -237zM431 229c59 0 99 53 99 134c0 80 -38 135 -99 135
c-60 0 -100 -55 -100 -135s40 -134 100 -134z" />
    <glyph glyph-name="uni2776" unicode="&#x2776;" 
d="M431 -11c217 0 382 161 382 374s-165 374 -382 373c-218 -1 -383 -162 -383 -373c0 -213 165 -374 383 -374zM400 133v329l-71 -45l-48 65l131 111h96v-460h-108z" />
    <glyph glyph-name="uni2777" unicode="&#x2777;" 
d="M431 -11c218 0 382 160 382 374c0 215 -164 374 -382 373c-219 -1 -383 -160 -383 -373c0 -214 164 -374 383 -374zM260 134v78l174 156c52 45 64 62 64 86c0 27 -23 48 -56 48c-40 0 -67 -25 -72 -65l-105 13c14 94 77 149 175 149c95 0 168 -59 168 -145
c0 -51 -27 -91 -72 -127l-117 -97h189v-96h-348z" />
    <glyph glyph-name="uni2778" unicode="&#x2778;" 
d="M431 -11c218 0 382 160 382 374c0 215 -164 374 -382 373c-219 -1 -383 -160 -383 -373c0 -214 164 -374 383 -374zM513 371c53 -10 88 -54 88 -110c0 -79 -70 -136 -166 -136c-89 0 -150 43 -167 118l98 27c6 -32 30 -50 64 -50c39 0 63 21 63 54c0 34 -27 55 -70 55
h-50v77h47c39 0 65 19 65 50c0 30 -22 48 -56 48c-30 0 -52 -16 -57 -40l-96 27c18 67 78 108 161 108c90 0 155 -53 155 -126c0 -50 -30 -88 -79 -100v-2z" />
    <glyph glyph-name="uni2779" unicode="&#x2779;" 
d="M431 -11c218 0 382 160 382 374c0 215 -164 374 -382 373c-219 -1 -383 -160 -383 -373c0 -214 164 -374 383 -374zM609 296v-87h-55v-77h-106v77h-216v83l217 300h105v-296h55zM338 296h110v152z" />
    <glyph glyph-name="uni277A" unicode="&#x277a;" 
d="M431 -11c218 0 382 160 382 374c0 215 -164 374 -382 373c-219 -1 -383 -160 -383 -373c0 -214 164 -374 383 -374zM459 436c83 0 142 -64 142 -153c0 -92 -70 -156 -170 -156c-87 0 -147 42 -166 115l97 28c10 -32 32 -50 64 -50c40 0 65 25 65 62c0 39 -23 63 -60 63
c-26 0 -46 -12 -55 -31l-101 29l23 249h277v-91h-186l-8 -91c17 17 46 26 78 26z" />
    <glyph glyph-name="uni277B" unicode="&#x277b;" 
d="M431 -11c218 0 382 160 382 374c0 215 -164 374 -382 373c-219 -1 -383 -160 -383 -373c0 -214 164 -374 383 -374zM449 433c87 -6 153 -66 153 -150c0 -89 -73 -152 -173 -152c-99 0 -172 63 -172 152c0 31 7 56 29 93l132 220h119l-99 -163h11zM429 223
c38 0 64 25 64 61s-26 61 -64 61c-37 0 -63 -25 -63 -61s26 -61 63 -61z" />
    <glyph glyph-name="uni277C" unicode="&#x277c;" 
d="M431 -11c218 0 382 160 382 374c0 215 -164 374 -382 373c-219 -1 -383 -160 -383 -373c0 -214 164 -374 383 -374zM298 125l179 361h-209v99h333v-81l-183 -379h-120z" />
    <glyph glyph-name="uni277D" unicode="&#x277d;" 
d="M431 -11c218 0 382 160 382 374c0 215 -164 374 -382 373c-219 -1 -383 -160 -383 -373c0 -214 164 -374 383 -374zM431 126c-101 0 -171 59 -171 138c0 52 24 90 81 110c-51 19 -72 52 -72 99c0 77 66 127 162 127c97 0 162 -50 162 -127c0 -47 -21 -81 -70 -99
c56 -20 80 -58 80 -110c0 -79 -69 -138 -172 -138zM431 412c37 0 61 21 61 52s-23 51 -61 51s-60 -20 -60 -51s24 -52 60 -52zM431 212c42 0 66 21 66 56c0 34 -26 56 -66 56c-39 0 -66 -22 -66 -56c0 -35 24 -56 66 -56z" />
    <glyph glyph-name="uni277E" unicode="&#x277e;" 
d="M431 -11c218 0 382 160 382 374c0 215 -164 374 -382 373c-219 -1 -383 -160 -383 -373c0 -214 164 -374 383 -374zM324 130l98 161c-3 -1 -8 -1 -12 0c-86 7 -152 66 -152 150c0 89 73 152 173 152c99 0 172 -63 172 -152c0 -31 -7 -56 -29 -93l-132 -218h-118zM430 380
c38 0 64 25 64 61s-26 61 -64 61c-37 0 -63 -25 -63 -61s26 -61 63 -61z" />
    <glyph glyph-name="uni24EA" unicode="&#x24ea;" 
d="M431 -11c-218 0 -383 161 -383 374c0 211 165 372 383 373c217 1 382 -160 382 -373s-165 -374 -382 -374zM431 67c176 0 304 124 304 296c0 171 -128 295 -304 295c-177 0 -305 -124 -305 -295c0 -172 128 -296 305 -296zM431 126c-126 0 -213 99 -213 237
c0 137 89 237 213 237s213 -99 213 -237s-91 -237 -213 -237zM431 229c59 0 99 53 99 134c0 80 -38 135 -99 135c-60 0 -100 -55 -100 -135s40 -134 100 -134z" />
    <glyph glyph-name="uni2460" unicode="&#x2460;" 
d="M431 -11c-218 0 -383 161 -383 374c0 211 165 372 383 373c217 1 382 -160 382 -373s-165 -374 -382 -374zM431 67c176 0 304 124 304 296c0 171 -128 295 -304 295c-177 0 -305 -124 -305 -295c0 -172 128 -296 305 -296zM400 133v329l-71 -45l-48 65l131 111h96v-460
h-108z" />
    <glyph glyph-name="uni2461" unicode="&#x2461;" 
d="M431 -11c-219 0 -383 160 -383 374c0 213 164 372 383 373c218 1 382 -158 382 -373c0 -214 -164 -374 -382 -374zM431 67c175 0 304 125 304 296c0 170 -129 295 -304 295c-176 0 -305 -125 -305 -295c0 -171 129 -296 305 -296zM259 134v78l174 156c52 45 64 62 64 86
c0 27 -23 48 -56 48c-40 0 -67 -25 -72 -65l-105 13c14 94 77 149 175 149c95 0 168 -59 168 -145c0 -51 -27 -91 -72 -127l-117 -97h189v-96h-348z" />
    <glyph glyph-name="uni2462" unicode="&#x2462;" 
d="M431 -11c-219 0 -383 160 -383 374c0 213 164 372 383 373c218 1 382 -158 382 -373c0 -214 -164 -374 -382 -374zM431 67c175 0 304 125 304 296c0 170 -129 295 -304 295c-176 0 -305 -125 -305 -295c0 -171 129 -296 305 -296zM513 371c53 -10 88 -54 88 -110
c0 -79 -70 -136 -166 -136c-89 0 -150 43 -167 118l98 27c6 -32 30 -50 64 -50c39 0 63 21 63 54c0 34 -27 55 -70 55h-50v77h47c39 0 65 19 65 50c0 30 -22 48 -56 48c-30 0 -52 -16 -57 -40l-96 27c18 67 78 108 161 108c90 0 155 -53 155 -126c0 -50 -30 -88 -79 -100v-2
z" />
    <glyph glyph-name="uni2463" unicode="&#x2463;" 
d="M431 -11c-219 0 -383 160 -383 374c0 213 164 372 383 373c218 1 382 -158 382 -373c0 -214 -164 -374 -382 -374zM431 67c175 0 304 125 304 296c0 170 -129 295 -304 295c-176 0 -305 -125 -305 -295c0 -171 129 -296 305 -296zM609 296v-87h-55v-77h-106v77h-216v83
l217 300h105v-296h55zM338 296h110v152z" />
    <glyph glyph-name="uni2464" unicode="&#x2464;" 
d="M431 -11c-219 0 -383 160 -383 374c0 213 164 372 383 373c218 1 382 -158 382 -373c0 -214 -164 -374 -382 -374zM431 67c175 0 304 125 304 296c0 170 -129 295 -304 295c-176 0 -305 -125 -305 -295c0 -171 129 -296 305 -296zM459 436c83 0 142 -64 142 -153
c0 -92 -70 -156 -170 -156c-87 0 -147 42 -166 115l97 28c10 -32 32 -50 64 -50c40 0 65 25 65 62c0 39 -23 63 -60 63c-26 0 -46 -12 -55 -31l-101 29l23 249h277v-91h-186l-8 -91c17 17 46 26 78 26z" />
    <glyph glyph-name="uni2465" unicode="&#x2465;" 
d="M431 -11c-219 0 -383 160 -383 374c0 213 164 372 383 373c218 1 382 -158 382 -373c0 -214 -164 -374 -382 -374zM431 67c175 0 304 125 304 296c0 170 -129 295 -304 295c-176 0 -305 -125 -305 -295c0 -171 129 -296 305 -296zM447 433c87 -6 153 -66 153 -150
c0 -89 -73 -152 -173 -152c-99 0 -172 63 -172 152c0 31 7 56 29 93l132 220h119l-99 -163h11zM427 223c38 0 64 25 64 61s-26 61 -64 61c-37 0 -63 -25 -63 -61s26 -61 63 -61z" />
    <glyph glyph-name="uni2466" unicode="&#x2466;" 
d="M431 -11c-219 0 -383 160 -383 374c0 213 164 372 383 373c218 1 382 -158 382 -373c0 -214 -164 -374 -382 -374zM431 67c175 0 304 125 304 296c0 170 -129 295 -304 295c-176 0 -305 -125 -305 -295c0 -171 129 -296 305 -296zM296 125l179 361h-209v99h333v-81
l-183 -379h-120z" />
    <glyph glyph-name="uni2467" unicode="&#x2467;" 
d="M431 -11c-219 0 -383 160 -383 374c0 213 164 372 383 373c218 1 382 -158 382 -373c0 -214 -164 -374 -382 -374zM431 67c175 0 304 125 304 296c0 170 -129 295 -304 295c-176 0 -305 -125 -305 -295c0 -171 129 -296 305 -296zM431 126c-101 0 -171 59 -171 138
c0 52 24 90 81 110c-51 19 -72 52 -72 99c0 77 66 127 162 127c97 0 162 -50 162 -127c0 -47 -21 -81 -70 -99c56 -20 80 -58 80 -110c0 -79 -69 -138 -172 -138zM431 412c37 0 61 21 61 52s-23 51 -61 51s-60 -20 -60 -51s24 -52 60 -52zM431 212c42 0 66 21 66 56
c0 34 -26 56 -66 56c-39 0 -66 -22 -66 -56c0 -35 24 -56 66 -56z" />
    <glyph glyph-name="uni2468" unicode="&#x2468;" 
d="M431 -11c-219 0 -383 160 -383 374c0 213 164 372 383 373c218 1 382 -158 382 -373c0 -214 -164 -374 -382 -374zM431 67c175 0 304 125 304 296c0 170 -129 295 -304 295c-176 0 -305 -125 -305 -295c0 -171 129 -296 305 -296zM325 130l98 161c-3 -1 -8 -1 -12 0
c-86 7 -152 66 -152 150c0 89 73 152 173 152c99 0 172 -63 172 -152c0 -31 -7 -56 -29 -93l-132 -218h-118zM431 380c38 0 64 25 64 61s-26 61 -64 61c-37 0 -63 -25 -63 -61s26 -61 63 -61z" />
    <glyph glyph-name="zero.osf" horiz-adv-x="664" 
d="M332 -9c-167 0 -286 114 -286 271c0 158 121 272 286 272c168 0 285 -113 285 -272c0 -157 -119 -271 -285 -271zM332 114c88 0 149 61 149 148c0 88 -60 149 -149 149c-88 0 -149 -61 -149 -149s60 -148 149 -148z" />
    <glyph glyph-name="one.osf" horiz-adv-x="503" 
d="M329 117h140v-117h-420v117h146v293h-142v116h276v-409z" />
    <glyph glyph-name="two.osf" horiz-adv-x="551" 
d="M43 0v95l224 165c70 51 94 74 94 107c0 35 -35 56 -84 56c-55 0 -91 -26 -97 -73l-132 17c16 103 106 167 234 167c125 0 214 -68 214 -167c0 -60 -31 -107 -120 -169l-122 -84h242v-114h-453z" />
    <glyph glyph-name="three.osf" horiz-adv-x="545" 
d="M363 192c83 -13 132 -73 132 -160c0 -119 -96 -204 -230 -204c-125 0 -215 66 -240 175l121 34c12 -56 55 -90 114 -90c65 0 101 33 101 95c0 63 -41 98 -116 98h-72v100h67c71 0 109 29 109 83c0 59 -32 93 -92 93c-52 0 -91 -31 -101 -78l-119 34
c26 101 112 162 229 162c125 0 216 -82 216 -196c0 -74 -43 -125 -119 -142v-4z" />
    <glyph glyph-name="four.osf" horiz-adv-x="590" 
d="M556 113v-113h-79v-161h-130v161h-312v108l315 418h127v-413h79zM173 113h174v232z" />
    <glyph glyph-name="five.osf" horiz-adv-x="563" 
d="M313 284c120 0 206 -94 206 -227c0 -136 -98 -229 -240 -229c-121 0 -208 63 -237 173l121 35c17 -59 56 -90 112 -90c67 0 108 42 108 110c0 69 -37 113 -98 113c-46 0 -78 -22 -95 -60l-128 37l31 380h388v-117h-275l-14 -171c26 29 69 46 121 46z" />
    <glyph glyph-name="six.osf" horiz-adv-x="574" 
d="M293 446c131 0 238 -93 238 -226s-103 -228 -243 -228c-142 0 -244 95 -244 228c0 48 10 85 41 139l200 334h149l-150 -247h9zM288 110c64 0 108 43 108 110c0 64 -44 108 -108 108s-109 -44 -109 -108c0 -67 45 -110 109 -110z" />
    <glyph glyph-name="seven.osf" horiz-adv-x="539" 
d="M86 -161l263 561h-314v126h467v-103l-265 -584h-151z" />
    <glyph glyph-name="eight.osf" horiz-adv-x="591" 
d="M433 359c70 -28 106 -82 106 -165c0 -118 -100 -205 -243 -205c-144 0 -244 87 -244 205c0 83 36 137 106 165c-61 28 -92 79 -92 153c0 116 94 192 230 192c135 0 229 -76 229 -192c0 -74 -31 -125 -92 -153zM296 590c-64 0 -104 -34 -104 -89s40 -90 104 -90
c62 0 102 35 102 90s-39 89 -102 89zM296 105c68 0 111 37 111 96c0 60 -43 98 -111 98c-69 0 -112 -38 -112 -98c0 -59 43 -96 112 -96z" />
    <glyph glyph-name="nine.osf" horiz-adv-x="570" 
d="M271 534c142 0 244 -95 244 -228c0 -48 -10 -85 -41 -139l-200 -334h-149l150 247h-9c-131 0 -238 93 -238 226s103 228 243 228zM163 306c0 -64 44 -108 108 -108s109 44 109 108c0 67 -45 110 -109 110s-108 -43 -108 -110z" />
    <glyph glyph-name="zero.tf" horiz-adv-x="641" 
d="M321 -11c-180 0 -306 151 -306 363c0 211 129 363 306 363s304 -151 304 -363s-129 -363 -304 -363zM321 112c99 0 167 97 167 240s-67 240 -167 240c-101 0 -169 -98 -169 -240s68 -240 169 -240z" />
    <glyph glyph-name="one.tf" horiz-adv-x="641" 
d="M341 0v532l-110 -81l-65 84l190 172h119v-707h-134z" />
    <glyph glyph-name="two.tf" horiz-adv-x="641" 
d="M68 0v100l268 253c81 76 99 108 99 148c0 54 -43 93 -103 93c-68 0 -116 -43 -124 -116l-130 17c19 139 112 220 253 220c136 0 240 -87 240 -215c0 -76 -39 -138 -110 -202l-194 -176h303v-122h-502z" />
    <glyph glyph-name="three.tf" horiz-adv-x="641" 
d="M427 364c83 -14 134 -84 134 -170c0 -120 -101 -205 -239 -205c-125 0 -216 66 -241 175l123 34c11 -56 55 -90 114 -90c67 0 108 37 108 98c0 62 -48 104 -119 104h-76v101h71c67 0 113 37 113 93c0 58 -39 93 -101 93c-51 0 -90 -31 -101 -77l-121 34
c26 100 113 161 231 161c130 0 224 -82 224 -195c0 -74 -44 -136 -120 -153v-3z" />
    <glyph glyph-name="four.tf" horiz-adv-x="641" 
d="M592 243v-114h-87v-129h-133v129h-324v108l327 470h130v-464h87zM187 243h185v264z" />
    <glyph glyph-name="five.tf" horiz-adv-x="641" 
d="M352 457c124 0 211 -98 211 -233c0 -137 -103 -235 -246 -235c-123 0 -211 64 -240 174l122 36c17 -59 58 -91 114 -91c70 0 114 44 114 115c0 72 -40 116 -104 116c-46 0 -80 -22 -97 -60l-129 37l31 391h397v-117h-281l-15 -180c27 30 70 47 123 47z" />
    <glyph glyph-name="six.tf" horiz-adv-x="641" 
d="M327 455c133 0 241 -96 241 -233c0 -134 -104 -233 -248 -233c-143 0 -247 99 -247 233c0 50 11 89 42 144l204 341h151l-154 -252h11zM320 110c66 0 112 45 112 112s-46 113 -112 113c-65 0 -111 -46 -111 -113s46 -112 111 -112z" />
    <glyph glyph-name="seven.tf" horiz-adv-x="641" 
d="M132 0l275 581h-327v126h480v-103l-278 -604h-150z" />
    <glyph glyph-name="eight.tf" horiz-adv-x="641" 
d="M457 364c73 -28 111 -84 111 -168c0 -121 -103 -207 -249 -207s-248 86 -248 207c0 84 38 140 110 168c-63 28 -96 79 -96 156c0 118 96 195 234 195s234 -77 234 -195c0 -77 -33 -128 -96 -156zM319 601c-66 0 -107 -35 -107 -91c0 -58 42 -94 107 -94
c66 0 107 36 107 94c0 56 -41 91 -107 91zM319 104c72 0 117 36 117 98s-46 102 -117 102c-70 0 -116 -40 -116 -102s45 -98 116 -98z" />
    <glyph glyph-name="nine.tf" horiz-adv-x="641" 
d="M320 718c144 0 248 -99 248 -233c0 -50 -12 -89 -42 -144l-205 -341h-150l154 252h-12c-132 0 -241 96 -241 233c0 134 104 233 248 233zM207 485c0 -68 46 -115 113 -115c66 0 113 47 113 115s-47 114 -113 114c-67 0 -113 -46 -113 -114z" />
    <glyph glyph-name="zero.tf.zero" horiz-adv-x="641" 
d="M320 715c178 0 305 -147 305 -358c0 -212 -129 -368 -305 -368c-180 0 -305 151 -305 363c0 211 129 363 305 363zM320 592c-100 0 -168 -98 -168 -240c0 -55 10 -103 28 -142l240 342c-27 26 -61 40 -100 40zM320 112c100 0 168 97 168 240c0 62 -13 115 -35 156
l-242 -345c29 -33 66 -51 109 -51z" />
    <glyph glyph-name="zero.tosf" horiz-adv-x="641" 
d="M320 -9c-167 0 -286 114 -286 271c0 158 121 272 286 272c168 0 285 -113 285 -272c0 -157 -119 -271 -285 -271zM320 114c88 0 149 61 149 148c0 88 -60 149 -149 149c-88 0 -149 -61 -149 -149s60 -148 149 -148z" />
    <glyph glyph-name="one.tosf" horiz-adv-x="641" 
d="M390 117h140v-117h-420v117h146v293h-142v116h276v-409z" />
    <glyph glyph-name="two.tosf" horiz-adv-x="641" 
d="M93 0v95l224 165c71 51 94 74 94 107c0 35 -34 56 -83 56c-56 0 -91 -26 -98 -73l-131 17c16 103 105 167 233 167c125 0 215 -68 215 -167c0 -60 -32 -107 -120 -169l-122 -84h241v-114h-453z" />
    <glyph glyph-name="three.tosf" horiz-adv-x="641" 
d="M423 192c83 -13 132 -73 132 -160c0 -119 -96 -204 -230 -204c-125 0 -215 66 -240 175l121 34c12 -56 55 -90 114 -90c65 0 101 33 101 95c0 63 -41 98 -116 98h-72v100h67c71 0 109 29 109 83c0 59 -32 93 -92 93c-52 0 -91 -31 -101 -78l-119 34
c26 101 112 162 229 162c125 0 216 -82 216 -196c0 -74 -43 -125 -119 -142v-4z" />
    <glyph glyph-name="four.tosf" horiz-adv-x="641" 
d="M581 113v-113h-80v-161h-129v161h-313v108l316 418h126v-413h80zM198 113h174v232z" />
    <glyph glyph-name="five.tosf" horiz-adv-x="641" 
d="M353 284c120 0 206 -94 206 -227c0 -136 -98 -229 -240 -229c-121 0 -208 63 -237 173l121 35c17 -59 56 -90 112 -90c67 0 108 42 108 110c0 69 -37 113 -98 113c-46 0 -78 -22 -95 -60l-128 37l31 380h388v-117h-275l-14 -171c26 29 69 46 121 46z" />
    <glyph glyph-name="six.tosf" horiz-adv-x="641" 
d="M326 446c131 0 237 -93 237 -226s-102 -228 -243 -228s-243 95 -243 228c0 48 10 85 41 139l199 334h150l-150 -247h9zM320 112c63 0 107 42 107 108c0 63 -44 106 -107 106s-107 -43 -107 -106c0 -66 44 -108 107 -108z" />
    <glyph glyph-name="seven.tosf" horiz-adv-x="641" 
d="M138 -161l262 561h-314v126h468v-103l-266 -584h-150z" />
    <glyph glyph-name="eight.tosf" horiz-adv-x="641" 
d="M457 359c70 -28 106 -82 106 -165c0 -118 -100 -205 -243 -205c-144 0 -244 87 -244 205c0 83 36 137 106 165c-61 28 -92 79 -92 153c0 116 94 192 230 192c135 0 229 -76 229 -192c0 -74 -31 -125 -92 -153zM320 590c-64 0 -104 -34 -104 -89s40 -90 104 -90
c62 0 102 35 102 90s-39 89 -102 89zM320 105c68 0 111 37 111 96c0 60 -43 98 -111 98c-69 0 -112 -38 -112 -98c0 -59 43 -96 112 -96z" />
    <glyph glyph-name="nine.tosf" horiz-adv-x="641" 
d="M304 534c142 0 244 -95 244 -228c0 -48 -10 -85 -41 -139l-200 -334h-149l150 247h-9c-131 0 -238 93 -238 226s103 228 243 228zM196 306c0 -64 44 -108 108 -108s109 44 109 108c0 67 -45 110 -109 110s-108 -43 -108 -110z" />
    <glyph glyph-name="zero.zero" horiz-adv-x="717" 
d="M359 715c178 0 305 -147 305 -358c0 -212 -130 -368 -305 -368c-180 0 -305 151 -305 363c0 211 128 363 305 363zM359 592c-100 0 -169 -98 -169 -240c0 -55 10 -104 29 -142l240 342c-27 26 -61 40 -100 40zM359 112c100 0 168 97 168 240c0 62 -13 116 -35 156
l-242 -346c28 -32 66 -50 109 -50z" />
    <glyph glyph-name="zero.subs" horiz-adv-x="481" 
d="M241 -133c-126 0 -213 99 -213 237c0 137 89 237 213 237s213 -99 213 -237s-91 -237 -213 -237zM241 -30c59 0 99 53 99 134c0 80 -38 135 -99 135c-60 0 -100 -55 -100 -135s40 -134 100 -134z" />
    <glyph glyph-name="one.subs" horiz-adv-x="288" 
d="M124 -124v329l-71 -45l-48 65l131 111h96v-460h-108z" />
    <glyph glyph-name="two.subs" horiz-adv-x="402" 
d="M21 -124v78l174 156c52 45 64 62 64 86c0 27 -23 48 -56 48c-40 0 -67 -25 -72 -65l-105 13c14 94 77 149 175 149c95 0 168 -59 168 -145c0 -51 -27 -91 -72 -127l-117 -97h189v-96h-348z" />
    <glyph glyph-name="three.subs" horiz-adv-x="380" 
d="M261 107c53 -10 88 -54 88 -110c0 -79 -70 -136 -166 -136c-89 0 -150 43 -167 118l98 27c6 -32 30 -50 64 -50c39 0 63 21 63 54c0 34 -27 55 -70 55h-50v77h47c39 0 65 19 65 50c0 30 -22 48 -56 48c-30 0 -52 -16 -57 -40l-96 27c18 67 78 108 161 108
c90 0 155 -53 155 -126c0 -50 -30 -88 -79 -100v-2z" />
    <glyph glyph-name="four.subs" horiz-adv-x="411" 
d="M392 40v-87h-55v-77h-106v77h-216v83l217 300h105v-296h55zM121 40h110v152z" />
    <glyph glyph-name="five.subs" horiz-adv-x="394" 
d="M225 180c83 0 142 -64 142 -153c0 -92 -70 -156 -170 -156c-87 0 -147 42 -166 115l97 28c10 -32 32 -50 64 -50c40 0 65 25 65 62c0 39 -23 63 -60 63c-26 0 -46 -12 -55 -31l-101 29l23 249h277v-91h-186l-8 -91c17 17 46 26 78 26z" />
    <glyph glyph-name="six.subs" horiz-adv-x="382" 
d="M211 172c87 -6 153 -66 153 -150c0 -89 -73 -152 -173 -152c-99 0 -172 63 -172 152c0 31 7 56 29 93l132 220h119l-99 -163h11zM191 -38c38 0 64 25 64 61s-26 61 -64 61c-37 0 -63 -25 -63 -61s26 -61 63 -61z" />
    <glyph glyph-name="seven.subs" horiz-adv-x="361" 
d="M44 -124l179 361h-209v99h333v-81l-183 -379h-120z" />
    <glyph glyph-name="eight.subs" horiz-adv-x="407" 
d="M203 -133c-101 0 -171 59 -171 138c0 52 24 90 81 110c-51 19 -72 52 -72 99c0 77 66 127 162 127c97 0 162 -50 162 -127c0 -47 -21 -81 -70 -99c56 -20 80 -58 80 -110c0 -79 -69 -138 -172 -138zM203 153c37 0 61 21 61 52s-23 51 -61 51s-60 -20 -60 -51
s24 -52 60 -52zM203 -47c42 0 66 21 66 56c0 34 -26 56 -66 56c-39 0 -66 -22 -66 -56c0 -35 24 -56 66 -56z" />
    <glyph glyph-name="nine.subs" horiz-adv-x="382" 
d="M84 -124l98 161c-3 -1 -8 -1 -12 0c-86 7 -152 66 -152 150c0 89 73 152 173 152c99 0 172 -63 172 -152c0 -31 -7 -56 -29 -93l-132 -218h-118zM190 126c38 0 64 25 64 61s-26 61 -64 61c-37 0 -63 -25 -63 -61s26 -61 63 -61z" />
    <glyph glyph-name="zero.dnom" horiz-adv-x="481" 
d="M241 -9c-126 0 -213 99 -213 237c0 137 89 237 213 237s213 -99 213 -237s-91 -237 -213 -237zM241 94c59 0 99 53 99 134c0 80 -38 135 -99 135c-60 0 -100 -55 -100 -135s40 -134 100 -134z" />
    <glyph glyph-name="one.dnom" horiz-adv-x="288" 
d="M124 0v329l-71 -45l-48 65l131 111h96v-460h-108z" />
    <glyph glyph-name="two.dnom" horiz-adv-x="402" 
d="M21 0v78l174 156c52 45 64 62 64 86c0 27 -23 48 -56 48c-40 0 -67 -25 -72 -65l-105 13c14 94 77 149 175 149c95 0 168 -59 168 -145c0 -51 -27 -91 -72 -127l-117 -97h189v-96h-348z" />
    <glyph glyph-name="three.dnom" horiz-adv-x="380" 
d="M261 236c53 -10 88 -54 88 -110c0 -79 -70 -136 -166 -136c-89 0 -150 43 -167 118l98 27c6 -32 30 -50 64 -50c39 0 63 21 63 54c0 34 -27 55 -70 55h-50v77h47c39 0 65 19 65 50c0 30 -22 48 -56 48c-30 0 -52 -16 -57 -40l-96 27c18 67 78 108 161 108
c90 0 155 -53 155 -126c0 -50 -30 -88 -79 -100v-2z" />
    <glyph glyph-name="four.dnom" horiz-adv-x="411" 
d="M392 164v-87h-55v-77h-106v77h-216v83l217 300h105v-296h55zM121 164h110v152z" />
    <glyph glyph-name="five.dnom" horiz-adv-x="394" 
d="M225 300c83 0 142 -64 142 -153c0 -92 -70 -156 -170 -156c-87 0 -147 42 -166 115l97 28c10 -32 32 -50 64 -50c40 0 65 25 65 62c0 39 -23 63 -60 63c-26 0 -46 -12 -55 -31l-101 29l23 249h277v-91h-186l-8 -91c17 17 46 26 78 26z" />
    <glyph glyph-name="six.dnom" horiz-adv-x="382" 
d="M211 293c87 -6 153 -66 153 -150c0 -89 -73 -152 -173 -152c-99 0 -172 63 -172 152c0 31 7 56 29 93l132 220h119l-99 -163h11zM191 83c38 0 64 25 64 61s-26 61 -64 61c-37 0 -63 -25 -63 -61s26 -61 63 -61z" />
    <glyph glyph-name="seven.dnom" horiz-adv-x="361" 
d="M44 0l179 361h-209v99h333v-81l-183 -379h-120z" />
    <glyph glyph-name="eight.dnom" horiz-adv-x="407" 
d="M203 -9c-101 0 -171 59 -171 138c0 52 24 90 81 110c-51 19 -72 52 -72 99c0 77 66 127 162 127c97 0 162 -50 162 -127c0 -47 -21 -81 -70 -99c56 -20 80 -58 80 -110c0 -79 -69 -138 -172 -138zM203 277c37 0 61 21 61 52s-23 51 -61 51s-60 -20 -60 -51s24 -52 60 -52
zM203 77c42 0 66 21 66 56c0 34 -26 56 -66 56c-39 0 -66 -22 -66 -56c0 -35 24 -56 66 -56z" />
    <glyph glyph-name="nine.dnom" horiz-adv-x="382" 
d="M84 0l98 161c-3 -1 -8 -1 -12 0c-86 7 -152 66 -152 150c0 89 73 152 173 152c99 0 172 -63 172 -152c0 -31 -7 -56 -29 -93l-132 -218h-118zM190 250c38 0 64 25 64 61s-26 61 -64 61c-37 0 -63 -25 -63 -61s26 -61 63 -61z" />
    <glyph glyph-name="zero.numr" horiz-adv-x="481" 
d="M241 238c-126 0 -213 99 -213 237c0 137 89 237 213 237s213 -99 213 -237s-91 -237 -213 -237zM241 341c59 0 99 53 99 134c0 80 -38 135 -99 135c-60 0 -100 -55 -100 -135s40 -134 100 -134z" />
    <glyph glyph-name="one.numr" horiz-adv-x="288" 
d="M124 247v329l-71 -45l-48 65l131 111h96v-460h-108z" />
    <glyph glyph-name="two.numr" horiz-adv-x="402" 
d="M21 247v78l174 156c52 45 64 62 64 86c0 27 -23 48 -56 48c-40 0 -67 -25 -72 -65l-105 13c14 94 77 149 175 149c95 0 168 -59 168 -145c0 -51 -27 -91 -72 -127l-117 -97h189v-96h-348z" />
    <glyph glyph-name="three.numr" horiz-adv-x="380" 
d="M261 484c53 -10 88 -54 88 -110c0 -79 -70 -136 -166 -136c-89 0 -150 43 -167 118l98 27c6 -32 30 -50 64 -50c39 0 63 21 63 54c0 34 -27 55 -70 55h-50v77h47c39 0 65 19 65 50c0 30 -22 48 -56 48c-30 0 -52 -16 -57 -40l-96 27c18 67 78 108 161 108
c90 0 155 -53 155 -126c0 -50 -30 -88 -79 -100v-2z" />
    <glyph glyph-name="four.numr" horiz-adv-x="411" 
d="M392 411v-87h-55v-77h-106v77h-216v83l217 300h105v-296h55zM121 411h110v152z" />
    <glyph glyph-name="five.numr" horiz-adv-x="394" 
d="M225 551c83 0 142 -64 142 -153c0 -92 -70 -156 -170 -156c-87 0 -147 42 -166 115l97 28c10 -32 32 -50 64 -50c40 0 65 25 65 62c0 39 -23 63 -60 63c-26 0 -46 -12 -55 -31l-101 29l23 249h277v-91h-186l-8 -91c17 17 46 26 78 26z" />
    <glyph glyph-name="six.numr" horiz-adv-x="382" 
d="M211 543c87 -6 153 -66 153 -150c0 -89 -73 -152 -173 -152c-99 0 -172 63 -172 152c0 31 7 56 29 93l132 220h119l-99 -163h11zM191 333c38 0 64 25 64 61s-26 61 -64 61c-37 0 -63 -25 -63 -61s26 -61 63 -61z" />
    <glyph glyph-name="seven.numr" horiz-adv-x="361" 
d="M44 247l179 361h-209v99h333v-81l-183 -379h-120z" />
    <glyph glyph-name="eight.numr" horiz-adv-x="407" 
d="M203 238c-101 0 -171 59 -171 138c0 52 24 90 81 110c-51 19 -72 52 -72 99c0 77 66 127 162 127c97 0 162 -50 162 -127c0 -47 -21 -81 -70 -99c56 -20 80 -58 80 -110c0 -79 -69 -138 -172 -138zM203 524c37 0 61 21 61 52s-23 51 -61 51s-60 -20 -60 -51
s24 -52 60 -52zM203 324c42 0 66 21 66 56c0 34 -26 56 -66 56c-39 0 -66 -22 -66 -56c0 -35 24 -56 66 -56z" />
    <glyph glyph-name="nine.numr" horiz-adv-x="382" 
d="M84 247l98 161c-3 -1 -8 -1 -12 0c-86 7 -152 66 -152 150c0 89 73 152 173 152c99 0 172 -63 172 -152c0 -31 -7 -56 -29 -93l-132 -218h-118zM190 497c38 0 64 25 64 61s-26 61 -64 61c-37 0 -63 -25 -63 -61s26 -61 63 -61z" />
    <glyph glyph-name="zero.sups" horiz-adv-x="481" 
d="M241 380c-126 0 -213 99 -213 237c0 137 89 237 213 237s213 -99 213 -237s-91 -237 -213 -237zM241 483c59 0 99 53 99 134c0 80 -38 135 -99 135c-60 0 -100 -55 -100 -135s40 -134 100 -134z" />
    <glyph glyph-name="one.sups" horiz-adv-x="288" 
d="M124 389v329l-71 -45l-48 65l131 111h96v-460h-108z" />
    <glyph glyph-name="two.sups" horiz-adv-x="402" 
d="M21 389v78l174 156c52 45 64 62 64 86c0 27 -23 48 -56 48c-40 0 -67 -25 -72 -65l-105 13c14 94 77 149 175 149c95 0 168 -59 168 -145c0 -51 -27 -91 -72 -127l-117 -97h189v-96h-348z" />
    <glyph glyph-name="three.sups" horiz-adv-x="380" 
d="M261 626c53 -10 88 -54 88 -110c0 -79 -70 -136 -166 -136c-89 0 -150 43 -167 118l98 27c6 -32 30 -50 64 -50c39 0 63 21 63 54c0 34 -27 55 -70 55h-50v77h47c39 0 65 19 65 50c0 30 -22 48 -56 48c-30 0 -52 -16 -57 -40l-96 27c18 67 78 108 161 108
c90 0 155 -53 155 -126c0 -50 -30 -88 -79 -100v-2z" />
    <glyph glyph-name="four.sups" horiz-adv-x="411" 
d="M392 553v-87h-55v-77h-106v77h-216v83l217 300h105v-296h55zM121 553h110v152z" />
    <glyph glyph-name="five.sups" horiz-adv-x="394" 
d="M225 693c83 0 142 -64 142 -153c0 -92 -70 -156 -170 -156c-87 0 -147 42 -166 115l97 28c10 -32 32 -50 64 -50c40 0 65 25 65 62c0 39 -23 63 -60 63c-26 0 -46 -12 -55 -31l-101 29l23 249h277v-91h-186l-8 -91c17 17 46 26 78 26z" />
    <glyph glyph-name="six.sups" horiz-adv-x="382" 
d="M211 685c87 -6 153 -66 153 -150c0 -89 -73 -152 -173 -152c-99 0 -172 63 -172 152c0 31 7 56 29 93l132 220h119l-99 -163h11zM191 475c38 0 64 25 64 61s-26 61 -64 61c-37 0 -63 -25 -63 -61s26 -61 63 -61z" />
    <glyph glyph-name="seven.sups" horiz-adv-x="361" 
d="M44 389l179 361h-209v99h333v-81l-183 -379h-120z" />
    <glyph glyph-name="eight.sups" horiz-adv-x="407" 
d="M203 380c-101 0 -171 59 -171 138c0 52 24 90 81 110c-51 19 -72 52 -72 99c0 77 66 127 162 127c97 0 162 -50 162 -127c0 -47 -21 -81 -70 -99c56 -20 80 -58 80 -110c0 -79 -69 -138 -172 -138zM203 666c37 0 61 21 61 52s-23 51 -61 51s-60 -20 -60 -51
s24 -52 60 -52zM203 466c42 0 66 21 66 56c0 34 -26 56 -66 56c-39 0 -66 -22 -66 -56c0 -35 24 -56 66 -56z" />
    <glyph glyph-name="nine.sups" horiz-adv-x="382" 
d="M84 389l98 161c-3 -1 -8 -1 -12 0c-86 7 -152 66 -152 150c0 89 73 152 173 152c99 0 172 -63 172 -152c0 -31 -7 -56 -29 -93l-132 -218h-118zM190 639c38 0 64 25 64 61s-26 61 -64 61c-37 0 -63 -25 -63 -61s26 -61 63 -61z" />
    <glyph glyph-name="fraction" unicode="&#x2044;" horiz-adv-x="269" 
d="M-136 0l419 707h122l-419 -707h-122z" />
    <glyph glyph-name="onehalf" unicode="&#xbd;" horiz-adv-x="971" 
d="M124 247v329l-71 -45l-48 65l131 111h96v-460h-108zM166 0l419 707h122l-419 -707h-122zM590 0v78l174 156c52 45 64 62 64 86c0 27 -23 48 -56 48c-40 0 -67 -25 -72 -65l-105 13c14 94 77 149 175 149c95 0 168 -59 168 -145c0 -51 -27 -91 -72 -127l-117 -97h189v-96
h-348z" />
    <glyph glyph-name="onequarter" unicode="&#xbc;" horiz-adv-x="912" 
d="M124 247v329l-71 -45l-48 65l131 111h96v-460h-108zM166 0l419 707h122l-419 -707h-122zM893 164v-87h-55v-77h-106v77h-216v83l217 300h105v-296h55zM622 164h110v152z" />
    <glyph glyph-name="threequarters" unicode="&#xbe;" horiz-adv-x="985" 
d="M261 484c53 -10 88 -54 88 -110c0 -79 -70 -136 -166 -136c-89 0 -150 43 -167 118l98 27c6 -32 30 -50 64 -50c39 0 63 21 63 54c0 34 -27 55 -70 55h-50v77h47c39 0 65 19 65 50c0 30 -22 48 -56 48c-30 0 -52 -16 -57 -40l-96 27c18 67 78 108 161 108
c90 0 155 -53 155 -126c0 -50 -30 -88 -79 -100v-2zM239 0l419 707h122l-419 -707h-122zM966 164v-87h-55v-77h-106v77h-216v83l217 300h105v-296h55zM695 164h110v152z" />
    <glyph glyph-name="oneeighth" unicode="&#x215b;" horiz-adv-x="970" 
d="M124 247v329l-71 -45l-48 65l131 111h96v-460h-108zM166 0l419 707h122l-419 -707h-122zM766 -9c-101 0 -171 59 -171 138c0 52 24 90 81 110c-51 19 -72 52 -72 99c0 77 66 127 162 127c97 0 162 -50 162 -127c0 -47 -21 -81 -70 -99c56 -20 80 -58 80 -110
c0 -79 -69 -138 -172 -138zM766 277c37 0 61 21 61 52s-23 51 -61 51s-60 -20 -60 -51s24 -52 60 -52zM766 77c42 0 66 21 66 56c0 34 -26 56 -66 56c-39 0 -66 -22 -66 -56c0 -35 24 -56 66 -56z" />
    <glyph glyph-name="threeeighths" unicode="&#x215c;" horiz-adv-x="1043" 
d="M261 484c53 -10 88 -54 88 -110c0 -79 -70 -136 -166 -136c-89 0 -150 43 -167 118l98 27c6 -32 30 -50 64 -50c39 0 63 21 63 54c0 34 -27 55 -70 55h-50v77h47c39 0 65 19 65 50c0 30 -22 48 -56 48c-30 0 -52 -16 -57 -40l-96 27c18 67 78 108 161 108
c90 0 155 -53 155 -126c0 -50 -30 -88 -79 -100v-2zM239 0l419 707h122l-419 -707h-122zM839 -9c-101 0 -171 59 -171 138c0 52 24 90 81 110c-51 19 -72 52 -72 99c0 77 66 127 162 127c97 0 162 -50 162 -127c0 -47 -21 -81 -70 -99c56 -20 80 -58 80 -110
c0 -79 -69 -138 -172 -138zM839 277c37 0 61 21 61 52s-23 51 -61 51s-60 -20 -60 -51s24 -52 60 -52zM839 77c42 0 66 21 66 56c0 34 -26 56 -66 56c-39 0 -66 -22 -66 -56c0 -35 24 -56 66 -56z" />
    <glyph glyph-name="fiveeighths" unicode="&#x215d;" horiz-adv-x="1057" 
d="M225 551c83 0 142 -64 142 -153c0 -92 -70 -156 -170 -156c-87 0 -147 42 -166 115l97 28c10 -32 32 -50 64 -50c40 0 65 25 65 62c0 39 -23 63 -60 63c-26 0 -46 -12 -55 -31l-101 29l23 249h277v-91h-186l-8 -91c17 17 46 26 78 26zM253 0l419 707h122l-419 -707h-122z
M853 -9c-101 0 -171 59 -171 138c0 52 24 90 81 110c-51 19 -72 52 -72 99c0 77 66 127 162 127c97 0 162 -50 162 -127c0 -47 -21 -81 -70 -99c56 -20 80 -58 80 -110c0 -79 -69 -138 -172 -138zM853 277c37 0 61 21 61 52s-23 51 -61 51s-60 -20 -60 -51s24 -52 60 -52z
M853 77c42 0 66 21 66 56c0 34 -26 56 -66 56c-39 0 -66 -22 -66 -56c0 -35 24 -56 66 -56z" />
    <glyph glyph-name="seveneighths" unicode="&#x215e;" horiz-adv-x="949" 
d="M44 247l179 361h-209v99h333v-81l-183 -379h-120zM145 0l419 707h122l-419 -707h-122zM745 -9c-101 0 -171 59 -171 138c0 52 24 90 81 110c-51 19 -72 52 -72 99c0 77 66 127 162 127c97 0 162 -50 162 -127c0 -47 -21 -81 -70 -99c56 -20 80 -58 80 -110
c0 -79 -69 -138 -172 -138zM745 277c37 0 61 21 61 52s-23 51 -61 51s-60 -20 -60 -51s24 -52 60 -52zM745 77c42 0 66 21 66 56c0 34 -26 56 -66 56c-39 0 -66 -22 -66 -56c0 -35 24 -56 66 -56z" />
    <glyph glyph-name="zero.sc" horiz-adv-x="585" 
d="M293 -9c-146 0 -248 120 -248 288c0 166 105 287 248 287c145 0 248 -120 248 -287c0 -168 -105 -288 -248 -288zM293 102c74 0 125 70 125 177c0 106 -50 177 -125 177c-74 0 -125 -73 -125 -177c0 -106 51 -177 125 -177z" />
    <glyph glyph-name="one.sc" horiz-adv-x="341" 
d="M159 0v409l-84 -59l-55 75l153 135h107v-560h-121z" />
    <glyph glyph-name="two.sc" horiz-adv-x="442" 
d="M11 0v88l209 195c62 58 76 81 76 110c0 38 -29 64 -72 64c-49 0 -83 -32 -88 -84l-117 15c14 113 89 178 204 178c111 0 196 -70 196 -173c0 -62 -32 -111 -86 -158l-144 -126h229v-109h-407z" />
    <glyph glyph-name="three.sc" horiz-adv-x="469" 
d="M316 289c65 -12 105 -66 105 -134c0 -96 -81 -164 -193 -164c-103 0 -175 52 -196 141l111 31c8 -41 38 -65 80 -65c48 0 78 25 78 70c0 44 -35 74 -86 74h-60v87h55c49 0 81 26 81 67c0 40 -26 64 -70 64c-37 0 -64 -22 -71 -54l-108 31c21 81 90 129 187 129
c106 0 182 -64 182 -153c0 -60 -35 -107 -95 -122v-2z" />
    <glyph glyph-name="four.sc" horiz-adv-x="457" 
d="M447 197v-100h-66v-97h-119v97h-256v95l258 368h117v-363h66zM127 197h135v188z" />
    <glyph glyph-name="five.sc" horiz-adv-x="482" 
d="M273 364c98 0 167 -78 167 -185c0 -110 -84 -188 -199 -188c-101 0 -173 51 -196 140l110 32c12 -43 41 -65 81 -65c49 0 81 30 81 80s-29 81 -74 81c-33 0 -58 -16 -68 -43l-114 33l25 311h324v-104h-221l-10 -126c20 21 54 34 94 34z" />
    <glyph glyph-name="six.sc" horiz-adv-x="475" 
d="M244 363c109 -1 196 -79 196 -186s-85 -186 -202 -186s-201 79 -201 186c0 39 8 70 33 114l158 269h134zM238 94c49 0 83 34 83 83s-34 83 -83 83s-83 -34 -83 -83s34 -83 83 -83z" />
    <glyph glyph-name="seven.sc" horiz-adv-x="451" 
d="M68 0l213 448h-251v112h390v-91l-217 -469h-135z" />
    <glyph glyph-name="eight.sc" horiz-adv-x="498" 
d="M361 290c59 -22 89 -67 89 -134c0 -96 -82 -165 -201 -165s-201 69 -201 165c0 67 30 112 89 134c-51 21 -78 61 -78 122c0 94 77 154 190 154c112 0 189 -60 189 -154c0 -61 -26 -101 -77 -122zM249 465c-47 0 -76 -24 -76 -65c0 -40 29 -66 76 -66c46 0 76 26 76 66
c0 41 -29 65 -76 65zM249 93c52 0 83 26 83 70s-33 72 -83 72c-51 0 -83 -28 -83 -72s32 -70 83 -70z" />
    <glyph glyph-name="nine.sc" horiz-adv-x="482" 
d="M232 569c117 0 201 -79 201 -186c0 -39 -8 -70 -33 -114l-158 -269h-134l118 197c-109 1 -196 79 -196 186s85 186 202 186zM149 383c0 -49 34 -83 83 -83s83 34 83 83s-34 83 -83 83s-83 -34 -83 -83z" />
    <glyph glyph-name="zero.sc.zero" horiz-adv-x="585" 
d="M293 566c145 0 248 -120 248 -287c0 -168 -105 -288 -248 -288c-146 0 -248 120 -248 288c0 166 105 287 248 287zM293 456c-74 0 -125 -73 -125 -177c0 -40 7 -75 20 -103l179 251c-20 19 -45 29 -74 29zM293 102c74 0 125 70 125 177c0 40 -7 75 -20 103l-179 -250
c20 -19 45 -30 74 -30z" />
    <glyph glyph-name="asterisk" unicode="*" horiz-adv-x="543" 
d="M345 509l37 -46l56 -77l-79 -57l-56 77l-31 49l-31 -49l-56 -77l-79 57l56 77l37 46l-55 15l-89 27l29 93l89 -28l52 -20l-3 48v92h99v-92l-2 -48l51 20l89 28l30 -93l-90 -27z" />
    <glyph glyph-name="backslash" unicode="\" horiz-adv-x="468" 
d="M455 -144h-125l-323 934h125z" />
    <glyph glyph-name="periodcentered" unicode="&#xb7;" horiz-adv-x="270" 
d="M190 161c-52 0 -90 38 -90 90s39 89 90 89c53 0 90 -36 90 -89c0 -51 -38 -90 -90 -90z" />
    <glyph glyph-name="bullet" unicode="&#x2022;" horiz-adv-x="374" 
d="M275 109c-83 0 -142 60 -142 143s61 142 142 142c85 0 145 -57 145 -142c0 -82 -61 -143 -145 -143z" />
    <glyph glyph-name="colon" unicode=":" horiz-adv-x="312" 
d="M156 345c-49 0 -84 34 -84 84c0 48 36 83 84 83c50 0 85 -34 85 -83s-36 -84 -85 -84zM156 -11c-49 0 -84 35 -84 84s36 84 84 84c50 0 85 -34 85 -84c0 -48 -36 -84 -85 -84z" />
    <glyph glyph-name="comma" unicode="," horiz-adv-x="235" 
d="M119 157c50 0 84 -34 84 -86c0 -31 -15 -59 -39 -106l-61 -117l-64 28l44 119c-30 13 -50 41 -50 78c0 48 36 84 86 84z" />
    <glyph glyph-name="ellipsis" unicode="&#x2026;" horiz-adv-x="823" 
d="M149 -11c-49 0 -84 35 -84 84s36 84 84 84c51 0 85 -34 85 -84c0 -48 -35 -84 -85 -84zM412 -11c-50 0 -85 35 -85 84s36 84 85 84c50 0 84 -34 84 -84c0 -48 -35 -84 -84 -84zM674 -11c-49 0 -84 35 -84 84s35 84 84 84c50 0 84 -34 84 -84c0 -48 -35 -84 -84 -84z" />
    <glyph glyph-name="exclam" unicode="!" horiz-adv-x="318" 
d="M105 225l-17 318v182h141v-182l-18 -318h-106zM158 -11c-49 0 -84 35 -84 84s36 84 84 84c50 0 85 -34 85 -84c0 -48 -36 -84 -85 -84z" />
    <glyph glyph-name="exclamdown" unicode="&#xa1;" horiz-adv-x="318" 
d="M158 514c49 0 85 -36 85 -84c0 -50 -35 -84 -85 -84c-48 0 -84 35 -84 84s35 84 84 84zM105 278h106l18 -318v-182h-141v182z" />
    <glyph glyph-name="numbersign" unicode="#" horiz-adv-x="825" 
d="M781 433h-146l-30 -147h122v-109h-144l-37 -177h-132l37 177h-151l-37 -177h-132l37 177h-124v109h146l30 147h-123v108h146l34 166h132l-34 -166h151l34 166h132l-34 -166h123v-108zM473 286l30 147h-151l-30 -147h151z" />
    <glyph glyph-name="period" unicode="." horiz-adv-x="339" 
d="M169 -11c-49 0 -84 35 -84 84s36 84 84 84c50 0 85 -34 85 -84c0 -48 -36 -84 -85 -84z" />
    <glyph glyph-name="question" unicode="?" horiz-adv-x="577" 
d="M204 225l-6 175h76c74 0 121 42 121 110c0 67 -43 106 -116 106c-101 0 -125 -85 -125 -85l-116 46s43 159 245 159c150 0 245 -85 245 -219c0 -126 -86 -214 -210 -214l-4 -78h-110zM258 -11c-49 0 -84 35 -84 84s36 84 84 84c50 0 85 -34 85 -84c0 -48 -36 -84 -85 -84
z" />
    <glyph glyph-name="questiondown" unicode="&#xbf;" horiz-adv-x="578" 
d="M320 514c49 0 84 -35 84 -84s-36 -84 -84 -84c-50 0 -85 34 -85 84c0 48 36 84 85 84zM374 278l6 -175h-76c-74 0 -121 -42 -121 -110c0 -67 43 -106 116 -106c101 0 125 85 125 85l116 -46s-43 -159 -245 -159c-150 0 -245 85 -245 219c0 126 86 214 210 214l4 78h110z
" />
    <glyph glyph-name="quotedbl" unicode="&#x22;" horiz-adv-x="397" 
d="M45 433v292h130l-28 -292h-102zM242 433v292h130l-28 -292h-102z" />
    <glyph glyph-name="quotesingle" unicode="'" horiz-adv-x="201" 
d="M45 433v292h130l-28 -292h-102z" />
    <glyph glyph-name="semicolon" unicode=";" horiz-adv-x="316" 
d="M159 343c-49 0 -84 35 -84 84s36 84 84 84c50 0 85 -34 85 -84c0 -48 -36 -84 -85 -84zM161 157c50 0 84 -34 84 -86c0 -31 -15 -59 -39 -106l-61 -117l-64 28l44 119c-30 13 -50 41 -50 78c0 48 36 84 86 84z" />
    <glyph glyph-name="slash" unicode="/" horiz-adv-x="474" 
d="M13 -144l323 934h125l-323 -934h-125z" />
    <glyph glyph-name="underscore" unicode="_" horiz-adv-x="481" 
d="M88 -112v102h356v-102h-356z" />
    <glyph glyph-name="backslash.case" horiz-adv-x="389" 
d="M403 -40h-125l-278 805h125z" />
    <glyph glyph-name="periodcentered.case" horiz-adv-x="293" 
d="M203 272c-52 0 -90 38 -90 90s39 89 90 89c53 0 90 -36 90 -89c0 -51 -38 -90 -90 -90z" />
    <glyph glyph-name="bullet.case" horiz-adv-x="377" 
d="M280 221c-83 0 -142 60 -142 143s61 142 142 142c85 0 145 -57 145 -142c0 -82 -61 -143 -145 -143z" />
    <glyph glyph-name="colon.case" horiz-adv-x="267" 
d="M156 457c-49 0 -84 34 -84 84c0 48 36 83 84 83c50 0 85 -34 85 -83s-36 -84 -85 -84zM156 101c-49 0 -84 35 -84 84s36 84 84 84c50 0 85 -34 85 -84c0 -48 -36 -84 -85 -84z" />
    <glyph glyph-name="exclamdown.case" horiz-adv-x="274" 
d="M154 735c49 0 85 -36 85 -84c0 -50 -35 -84 -85 -84c-48 0 -84 35 -84 84s35 84 84 84zM101 499h106l18 -318v-182h-141v182z" />
    <glyph glyph-name="questiondown.case" horiz-adv-x="578" 
d="M320 739c49 0 84 -35 84 -84s-36 -84 -84 -84c-50 0 -85 34 -85 84c0 48 36 84 85 84zM374 503l6 -175h-76c-74 0 -121 -42 -121 -110c0 -67 43 -106 116 -106c101 0 125 85 125 85l116 -46s-43 -159 -245 -159c-150 0 -245 85 -245 219c0 126 86 214 210 214l4 78h110z
" />
    <glyph glyph-name="slash.case" horiz-adv-x="375" 
d="M-14 -40l278 805h125l-278 -805h-125z" />
    <glyph glyph-name="braceleft" unicode="{" horiz-adv-x="438" 
d="M304 -154c-124 0 -192 60 -192 170v176c0 51 -23 77 -77 77h-8v109h8c54 0 77 25 77 76v170c0 112 68 174 192 174h99v-119h-62c-70 0 -95 -25 -95 -94v-160c0 -100 -75 -102 -75 -102s75 -3 75 -103v-165c0 -66 25 -89 95 -89h62v-120h-99z" />
    <glyph glyph-name="braceright" unicode="}" horiz-adv-x="438" 
d="M134 -154h-99v120h62c70 0 95 23 95 89v165c0 100 75 103 75 103s-75 2 -75 102v160c0 69 -25 94 -95 94h-62v119h99c124 0 192 -62 192 -174v-170c0 -51 23 -76 77 -76h8v-109h-8c-54 0 -77 -26 -77 -77v-176c0 -110 -68 -170 -192 -170z" />
    <glyph glyph-name="bracketleft" unicode="[" horiz-adv-x="442" 
d="M407 679h-192v-713h192v-120h-326v952h326v-119z" />
    <glyph glyph-name="bracketright" unicode="]" horiz-adv-x="442" 
d="M35 679v119h326v-952h-326v120h192v713h-192z" />
    <glyph glyph-name="parenleft" unicode="(" horiz-adv-x="416" 
d="M340 -156c0 0 -299 125 -299 480c0 353 299 478 299 478l47 -109s-205 -112 -205 -369c0 -259 205 -370 205 -370z" />
    <glyph glyph-name="parenright" unicode=")" horiz-adv-x="416" 
d="M76 -156l-47 110s205 111 205 370c0 257 -205 369 -205 369l47 109s299 -125 299 -478c0 -355 -299 -480 -299 -480z" />
    <glyph glyph-name="braceleft.case" horiz-adv-x="438" 
d="M304 -113c-124 0 -192 60 -192 170v176c0 51 -23 77 -77 77h-8v109h8c54 0 77 25 77 76v170c0 112 68 174 192 174h99v-119h-62c-70 0 -95 -25 -95 -94v-160c0 -100 -75 -102 -75 -102s75 -3 75 -103v-165c0 -66 25 -89 95 -89h62v-120h-99z" />
    <glyph glyph-name="braceright.case" horiz-adv-x="438" 
d="M134 -113h-99v120h62c70 0 95 23 95 89v165c0 100 75 103 75 103s-75 2 -75 102v160c0 69 -25 94 -95 94h-62v119h99c124 0 192 -62 192 -174v-170c0 -51 23 -76 77 -76h8v-109h-8c-54 0 -77 -26 -77 -77v-176c0 -110 -68 -170 -192 -170z" />
    <glyph glyph-name="bracketleft.case" horiz-adv-x="442" 
d="M407 720h-192v-713h192v-120h-326v952h326v-119z" />
    <glyph glyph-name="bracketright.case" horiz-adv-x="442" 
d="M35 720v119h326v-952h-326v120h192v713h-192z" />
    <glyph glyph-name="parenleft.case" horiz-adv-x="416" 
d="M340 -116c0 0 -299 125 -299 480c0 353 299 478 299 478l47 -109s-205 -112 -205 -369c0 -259 205 -370 205 -370z" />
    <glyph glyph-name="parenright.case" horiz-adv-x="416" 
d="M76 -116l-47 110s205 111 205 370c0 257 -205 369 -205 369l47 109s299 -125 299 -478c0 -355 -299 -480 -299 -480z" />
    <glyph glyph-name="emdash" unicode="&#x2014;" horiz-adv-x="813" 
d="M67 195v118h676v-118h-676z" />
    <glyph glyph-name="endash" unicode="&#x2013;" horiz-adv-x="571" 
d="M69 195v118h431v-118h-431z" />
    <glyph glyph-name="hyphen" unicode="-" horiz-adv-x="452" 
d="M66 195v118h320v-118h-320z" />
    <glyph glyph-name="emdash.case" horiz-adv-x="813" 
d="M67 304v118h676v-118h-676z" />
    <glyph glyph-name="endash.case" horiz-adv-x="571" 
d="M69 304v118h431v-118h-431z" />
    <glyph glyph-name="hyphen.case" horiz-adv-x="461" 
d="M71 304v118h320v-118h-320z" />
    <glyph glyph-name="guillemotleft" unicode="&#xab;" horiz-adv-x="616" 
d="M323 122l-125 131l125 131l-95 84l-200 -215l200 -215zM578 122l-126 131l126 131l-95 84l-200 -215l200 -215z" />
    <glyph glyph-name="guillemotright" unicode="&#xbb;" horiz-adv-x="616" 
d="M38 122l95 -84l199 215l-199 215l-95 -84l125 -131zM293 122l95 -84l199 215l-199 215l-95 -84l125 -131z" />
    <glyph glyph-name="guilsinglleft" unicode="&#x2039;" horiz-adv-x="361" 
d="M323 122l-125 131l125 131l-95 84l-199 -215l199 -215z" />
    <glyph glyph-name="guilsinglright" unicode="&#x203a;" horiz-adv-x="361" 
d="M38 122l95 -84l199 215l-199 215l-95 -84l125 -131z" />
    <glyph glyph-name="quotedblbase" unicode="&#x201e;" horiz-adv-x="491" 
d="M150 157c50 0 84 -34 84 -86c0 -31 -15 -59 -40 -106l-60 -117l-64 28l43 120c-30 12 -49 41 -49 77c0 48 35 84 86 84zM352 157c51 0 85 -34 85 -86c0 -31 -15 -59 -40 -106l-60 -117l-65 28l44 119c-30 13 -50 41 -50 78c0 48 36 84 86 84z" />
    <glyph glyph-name="quotedblleft" unicode="&#x201c;" horiz-adv-x="446" 
d="M149 601c30 -13 50 -41 50 -78c0 -48 -36 -84 -86 -84c-51 0 -85 34 -85 86c0 31 15 59 40 106l60 117l65 -28zM352 600c30 -12 49 -41 49 -77c0 -48 -35 -84 -86 -84c-50 0 -84 34 -84 86c0 31 15 59 40 106l60 117l64 -28z" />
    <glyph glyph-name="quotedblright" unicode="&#x201d;" horiz-adv-x="446" 
d="M131 735c50 0 84 -34 84 -86c0 -31 -15 -59 -40 -106l-60 -117l-64 28l43 120c-30 12 -49 41 -49 77c0 48 35 84 86 84zM333 735c51 0 85 -34 85 -86c0 -31 -15 -59 -40 -106l-60 -117l-65 28l44 119c-30 13 -50 41 -50 78c0 48 36 84 86 84z" />
    <glyph glyph-name="quoteleft" unicode="&#x2018;" horiz-adv-x="249" 
d="M154 595c30 -13 50 -41 50 -78c0 -48 -36 -84 -86 -84s-84 34 -84 86c0 31 15 59 39 106l61 117l64 -28z" />
    <glyph glyph-name="quoteright" unicode="&#x2019;" horiz-adv-x="243" 
d="M131 733c50 0 84 -34 84 -86c0 -31 -15 -59 -39 -106l-61 -117l-64 28l44 119c-30 13 -50 41 -50 78c0 48 36 84 86 84z" />
    <glyph glyph-name="quotesinglbase" unicode="&#x201a;" horiz-adv-x="288" 
d="M150 157c50 0 84 -34 84 -86c0 -31 -15 -59 -39 -106l-61 -117l-64 28l44 119c-30 13 -50 41 -50 78c0 48 36 84 86 84z" />
    <glyph glyph-name="guillemotleft.case" horiz-adv-x="616" 
d="M323 232l-125 131l125 131l-95 84l-199 -215l199 -215zM578 232l-125 131l125 131l-95 84l-199 -215l199 -215z" />
    <glyph glyph-name="guillemotright.case" horiz-adv-x="616" 
d="M38 232l95 -84l199 215l-199 215l-95 -84l125 -131zM293 232l95 -84l199 215l-199 215l-95 -84l125 -131z" />
    <glyph glyph-name="guilsinglleft.case" horiz-adv-x="361" 
d="M323 232l-125 131l125 131l-95 84l-199 -215l199 -215z" />
    <glyph glyph-name="guilsinglright.case" horiz-adv-x="361" 
d="M38 232l95 -84l199 215l-199 215l-95 -84l125 -131z" />
    <glyph glyph-name="backslash.sc" horiz-adv-x="356" 
d="M341 -30h-113l-213 605h112z" />
    <glyph glyph-name="braceleft.sc" horiz-adv-x="344" 
d="M234 -81c-97 0 -151 48 -151 131v126c0 36 -17 54 -56 54h-6v99h6c39 0 56 17 56 54v122c0 85 54 133 151 133h84v-107h-46c-50 0 -68 -18 -68 -64v-110c0 -76 -58 -77 -58 -77s58 -2 58 -80v-111c0 -45 18 -62 68 -62h46v-108h-84z" />
    <glyph glyph-name="braceright.sc" horiz-adv-x="344" 
d="M27 -81v108h46c49 0 67 17 67 62v111c0 78 59 80 59 80s-59 1 -59 77v110c0 46 -18 64 -67 64h-46v107h83c98 0 152 -48 152 -133v-122c0 -37 17 -54 56 -54h6v-99h-6c-39 0 -56 -18 -56 -54v-126c0 -83 -54 -131 -152 -131h-83z" />
    <glyph glyph-name="bracketleft.sc" horiz-adv-x="365" 
d="M337 532h-146v-503h146v-109h-267v719h267v-107z" />
    <glyph glyph-name="bracketright.sc" horiz-adv-x="365" 
d="M28 532v107h267v-719h-267v109h146v503h-146z" />
    <glyph glyph-name="colon.sc" horiz-adv-x="277" 
d="M191 403c-49 0 -84 35 -84 84s36 84 84 84c50 0 85 -34 85 -84c0 -48 -36 -84 -85 -84zM191 -11c-49 0 -84 35 -84 84s36 84 84 84c50 0 85 -34 85 -84c0 -48 -36 -84 -85 -84z" />
    <glyph glyph-name="exclam.sc" horiz-adv-x="254" 
d="M78 185l-15 227v132h127v-132l-15 -227h-97zM127 -8c-42 0 -72 29 -72 70c0 42 30 71 72 71c43 0 72 -29 72 -71c0 -41 -30 -70 -72 -70z" />
    <glyph glyph-name="exclamdown.sc" horiz-adv-x="254" 
d="M127 554c43 0 73 -31 73 -72s-30 -70 -73 -70c-42 0 -72 29 -72 70s30 72 72 72zM79 359h96l16 -225v-134h-128v134z" />
    <glyph glyph-name="guillemotleft.sc" horiz-adv-x="589" 
d="M309 149l-125 132l125 131l-94 84l-200 -215l200 -215zM564 149l-125 132l125 131l-94 84l-200 -215l200 -215z" />
    <glyph glyph-name="guillemotright.sc" horiz-adv-x="589" 
d="M24 149l95 -83l200 215l-200 215l-95 -84l125 -131zM279 149l95 -83l200 215l-200 215l-95 -84l125 -131z" />
    <glyph glyph-name="guilsinglleft.sc" horiz-adv-x="334" 
d="M309 149l-125 132l125 131l-94 84l-200 -215l200 -215z" />
    <glyph glyph-name="guilsinglright.sc" horiz-adv-x="334" 
d="M24 149l95 -83l200 215l-200 215l-95 -84l125 -131z" />
    <glyph glyph-name="parenleft.sc" horiz-adv-x="331" 
d="M270 -82c0 0 -237 92 -237 364c0 268 237 360 237 360l41 -95s-152 -81 -152 -265c0 -187 152 -267 152 -267z" />
    <glyph glyph-name="parenright.sc" horiz-adv-x="315" 
d="M60 -82l-41 97s151 80 151 267c0 184 -151 265 -151 265l41 95s238 -92 238 -360c0 -272 -238 -364 -238 -364z" />
    <glyph glyph-name="question.sc" horiz-adv-x="454" 
d="M156 182l-6 130h64c54 0 88 29 88 77c0 46 -30 73 -82 73c-73 0 -90 -59 -90 -59l-103 40s35 126 199 126c119 0 195 -66 195 -168c0 -98 -66 -162 -164 -162l-3 -57h-98zM207 -8c-42 0 -73 29 -73 71s31 71 73 71c43 0 72 -29 72 -71s-30 -71 -72 -71z" />
    <glyph glyph-name="questiondown.sc" horiz-adv-x="432" 
d="M239 568c42 0 73 -29 73 -71s-31 -71 -73 -71c-43 0 -72 29 -72 71s30 71 72 71zM290 378l6 -130h-64c-54 0 -88 -29 -88 -77c0 -46 30 -73 82 -73c73 0 90 59 90 59l103 -40s-35 -126 -199 -126c-119 0 -195 66 -195 168c0 98 66 162 164 162l3 57h98z" />
    <glyph glyph-name="semicolon.sc" horiz-adv-x="258" 
d="M130 403c-49 0 -84 35 -84 84s36 84 84 84c50 0 85 -34 85 -84c0 -48 -36 -84 -85 -84zM132 157c50 0 84 -34 84 -86c0 -31 -15 -59 -39 -106l-61 -117l-64 28l44 119c-30 13 -50 41 -50 78c0 48 36 84 86 84z" />
    <glyph glyph-name="slash.sc" horiz-adv-x="356" 
d="M15 -30l214 605h112l-213 -605h-113z" />
    <glyph glyph-name="braceleft.sups" horiz-adv-x="317" 
d="M213 306c-86 0 -134 41 -134 114v107c0 30 -15 46 -49 46h-6v90h6c34 0 49 15 49 46v104c0 74 48 115 134 115h76v-98h-40c-43 0 -59 -15 -59 -54v-91c0 -66 -51 -67 -51 -67s51 -2 51 -69v-92c0 -37 16 -52 59 -52h40v-99h-76z" />
    <glyph glyph-name="braceright.sups" horiz-adv-x="317" 
d="M104 306h-76v99h40c43 0 59 15 59 52v92c0 67 51 69 51 69s-51 1 -51 67v91c0 39 -16 54 -59 54h-40v98h76c86 0 134 -41 134 -115v-104c0 -31 15 -46 49 -46h6v-90h-6c-34 0 -49 -16 -49 -46v-107c0 -73 -48 -114 -134 -114z" />
    <glyph glyph-name="bracketleft.sups" horiz-adv-x="337" 
d="M308 830h-129v-425h129v-99h-240v622h240v-98z" />
    <glyph glyph-name="bracketright.sups" horiz-adv-x="337" 
d="M29 830v98h240v-622h-240v99h129v425h-129z" />
    <glyph glyph-name="parenleft.sups" horiz-adv-x="302" 
d="M244 303c0 0 -211 79 -211 315c0 234 211 313 211 313l37 -87s-132 -69 -132 -226c0 -159 132 -228 132 -228z" />
    <glyph glyph-name="parenright.sups" horiz-adv-x="302" 
d="M58 303l-37 87s132 69 132 228c0 157 -132 226 -132 226l37 87s211 -79 211 -313c0 -236 -211 -315 -211 -315z" />
    <glyph glyph-name="uni2003" unicode="&#x2003;" horiz-adv-x="1000" 
 />
    <glyph glyph-name="uni2002" unicode="&#x2002;" horiz-adv-x="500" 
 />
    <glyph glyph-name="uni2007" unicode="&#x2007;" horiz-adv-x="667" 
 />
    <glyph glyph-name="uni2005" unicode="&#x2005;" horiz-adv-x="250" 
 />
    <glyph glyph-name="uni200A" unicode="&#x200a;" horiz-adv-x="100" 
 />
    <glyph glyph-name="uni2008" unicode="&#x2008;" horiz-adv-x="278" 
 />
    <glyph glyph-name="uni2006" unicode="&#x2006;" horiz-adv-x="166" 
 />
    <glyph glyph-name="space" unicode=" " horiz-adv-x="263" 
 />
    <glyph glyph-name="uni00A0" unicode="&#xa0;" horiz-adv-x="296" 
 />
    <glyph glyph-name="uni2009" unicode="&#x2009;" horiz-adv-x="239" 
 />
    <glyph glyph-name="uni2004" unicode="&#x2004;" horiz-adv-x="333" 
 />
    <glyph glyph-name="cent" unicode="&#xa2;" horiz-adv-x="511" 
d="M488 249c-35 -69 -91 -113 -166 -127v-99h-106v99c-108 22 -183 113 -183 233c0 113 74 204 183 229v100h106v-98c70 -13 127 -56 162 -124l-118 -45c-18 34 -51 54 -91 54c-66 0 -112 -49 -112 -115c0 -70 44 -119 107 -119c48 0 81 20 101 60z" />
    <glyph glyph-name="currency" unicode="&#xa4;" horiz-adv-x="700" 
d="M598 353c0 -50 -15 -95 -41 -132l64 -64l-75 -75l-68 68c-37 -21 -80 -32 -128 -32s-91 11 -128 32l-68 -68l-75 75l63 63c-26 38 -41 83 -41 133s15 96 41 134l-63 63l75 74l67 -67c37 20 81 32 129 32c47 0 91 -11 128 -32l68 68l75 -75l-64 -64c26 -38 41 -83 41 -133
zM350 235c68 0 117 49 117 118s-49 119 -117 119c-69 0 -118 -50 -118 -119s49 -118 118 -118z" />
    <glyph glyph-name="dollar" unicode="$" horiz-adv-x="545" 
d="M505 214c0 -105 -70 -175 -183 -191v-97h-106v99c-144 30 -175 166 -175 166l118 35s18 -92 112 -92c60 0 99 28 99 75c0 45 -29 70 -90 88l-71 22c-104 31 -158 90 -158 185c0 99 63 167 165 184v98h106v-99c137 -25 166 -143 166 -143l-116 -40s-16 76 -103 76
c-54 0 -89 -27 -89 -70s31 -70 94 -89l76 -23c102 -31 155 -90 155 -184z" />
    <glyph glyph-name="Euro" unicode="&#x20ac;" horiz-adv-x="818" 
d="M628 245l126 -49c-48 -126 -150 -207 -292 -207c-146 0 -263 99 -303 247h-91l20 82h57c-1 11 -1 22 -1 34s0 23 1 34h-77l20 82h71c41 147 158 246 306 246c138 0 233 -78 285 -199l-127 -49c-32 82 -84 122 -159 122c-73 0 -132 -46 -162 -120h217l-21 -82h-215
c-1 -11 -2 -22 -2 -34s1 -23 2 -34h198l-20 -82h-159c29 -74 88 -119 161 -119c81 0 135 41 165 128z" />
    <glyph glyph-name="florin" unicode="&#x192;" horiz-adv-x="704" 
d="M501 715c93 0 146 -47 146 -47l-46 -103s-33 34 -81 34c-55 0 -80 -30 -84 -86l-9 -134h165v-114h-172l-20 -296c-8 -123 -75 -198 -198 -198c-94 0 -147 47 -147 47l46 103s33 -33 81 -33c55 0 80 30 84 85l19 292h-138v114h146l9 138c8 123 75 198 199 198z" />
    <glyph glyph-name="franc" unicode="&#x20a3;" horiz-adv-x="675" 
d="M609 584h-331v-194h296v-121h-296v-86h172v-92h-172v-91h-138v91h-78v92h78v524h469v-123z" />
    <glyph glyph-name="sterling" unicode="&#xa3;" horiz-adv-x="679" 
d="M300 119l315 1v-120h-542v118h93v173h-91v114h91v83c0 137 90 227 228 227c95 0 174 -52 215 -144l-119 -41c-20 42 -54 65 -96 65c-59 0 -95 -40 -95 -107v-83h214v-114h-214z" />
    <glyph glyph-name="yen" unicode="&#xa5;" horiz-adv-x="796" 
d="M743 707l-229 -369h114v-92h-160v-78h160v-92h-160v-76h-138v76h-162v92h162v78h-162v92h116l-231 369h162l178 -303l6 -18l7 18l179 303h158z" />
    <glyph glyph-name="plus" unicode="+" horiz-adv-x="556" 
d="M494 407v-113h-157v-157h-118v157h-157v113h157v158h118v-158h157z" />
    <glyph glyph-name="minus" unicode="&#x2212;" horiz-adv-x="577" 
d="M105 296v118h367v-118h-367z" />
    <glyph glyph-name="multiply" unicode="&#xd7;" horiz-adv-x="545" 
d="M480 477l-126 -126l126 -126l-81 -81l-126 126l-127 -126l-81 81l126 126l-126 126l81 81l127 -126l126 126z" />
    <glyph glyph-name="divide" unicode="&#xf7;" horiz-adv-x="618" 
d="M309 478c-49 0 -83 34 -83 83c0 47 35 82 83 82c49 0 83 -34 83 -82s-35 -83 -83 -83zM63 305v116h491v-116h-491zM308 83c-49 0 -83 34 -83 83c0 47 35 82 83 82c49 0 83 -34 83 -82s-35 -83 -83 -83z" />
    <glyph glyph-name="equal" unicode="=" horiz-adv-x="585" 
d="M102 395v104h381v-104h-381zM102 205v104h381v-104h-381z" />
    <glyph glyph-name="notequal" unicode="&#x2260;" horiz-adv-x="586" 
d="M483 395h-141l-40 -86h181v-104h-230l-52 -111l-48 22l42 89h-93v104h142l40 86h-182v104h231l52 111l48 -22l-42 -89h92v-104z" />
    <glyph glyph-name="greater" unicode="&#x3e;" horiz-adv-x="584" 
d="M75 77v141l295 119l32 6l-32 6l-295 118v142l449 -197v-138z" />
    </font>
</defs>
</svg>
