<svg width="60" height="60" viewBox="0 0 60 60" fill="none" xmlns="http://www.w3.org/2000/svg">
<path opacity="0.24" d="M30 60C46.5685 60 60 46.5685 60 30C60 13.4315 46.5685 0 30 0C13.4315 0 0 13.4315 0 30C0 46.5685 13.4315 60 30 60Z" fill="#FFCA39"/>
<circle cx="30" cy="30" r="23" fill="#FFCA39"/>
<path d="M25.354 37.198C28.504 37.198 30.826 34.48 30.826 30.664C30.826 26.848 28.54 24.13 25.354 24.13C22.168 24.13 19.846 26.866 19.846 30.664C19.846 34.48 22.114 37.198 25.354 37.198ZM25.354 34.984C23.536 34.984 22.312 33.22 22.312 30.664C22.312 28.108 23.536 26.344 25.354 26.344C27.154 26.344 28.36 28.09 28.36 30.664C28.36 33.238 27.136 34.984 25.354 34.984ZM35.6702 37H38.0822V24.274H35.9402L32.5202 27.37L33.6902 28.882L35.6702 27.424V37Z" fill="white"/>
</svg>
